<?xml version='1.0' encoding='UTF-8'?>
<svg xmlns="http://www.w3.org/2000/svg" xmlns:xlink="http://www.w3.org/1999/xlink"><defs><g id="c1"><path fill="#5c5c5c" stroke="none" d="M226.2 250.6 Q225.2 251.6 225.1 251.9 L218.7 246.6 Q199.8 231.3 196.3 229.3 176.3 219.4 145.4 207.2 L145.8 206.5 Q145.6 206.4 145.6 205.4 145.6 204 148.1 202.8 151.4 201.3 157.3 201.8 171.2 203.1 187.2 209.4 201.5 215.2 214.8 223.8 221.1 228 226.2 232.2 L226.2 250.6 M104.7 191.6 Q66.7 177.9 35.9 169.8 L23.1 166.6 22.1 166.3 8.3 162.8 8.3 149.3 22.1 153.2 23.1 153.4 41.4 158.7 84.4 171.2 Q79.2 170.1 91.8 175.2 114.3 184.2 111.8 186.6 L106.5 190.7 104.7 191.6"/><path fill="#000000" stroke="none" d="M121.6 7.5 L122 7.8 Q129.2 14.2 134.5 14.2 138.5 14.2 142.6 11.5 146.8 8.7 149.9 8.7 152.7 8.7 153.8 9.7 154.2 10.2 154.6 11.9 154.9 13.4 155.9 14.1 157.4 15.1 161.2 15.1 164.2 15.1 164.2 19.1 L164.2 19.4 Q164.2 21.6 163.6 24.9 L163.9 25.1 164.3 25.6 Q166.2 24.4 176.2 19.4 L179.4 17.8 181.6 19.4 190.2 25.9 Q200.9 33.9 202.3 33.9 212.4 33.9 216.3 30.5 L218.8 28 Q219.7 27.1 220.7 26.8 L211.5 19.4 Q203.8 13.4 195.8 7.5 L200.9 7.5 212.6 17.1 215.3 19.4 226.2 29.1 226.2 31.4 221.8 27.8 Q221.2 29.6 215.5 32.8 208.4 36.6 202.3 36.6 200.4 36.6 189.7 28.9 179.2 21 179.1 21 177.7 21 174.9 22.1 171.3 23.6 168.6 26.1 L165.8 28.4 163.6 29.8 Q162.2 29.8 161 25.2 160.1 21.6 160.1 19.4 154.2 18.9 152.7 16.6 152.1 15.8 151.8 14.4 L151.5 12.1 151.8 11.9 150.7 11.7 Q147.8 11.7 143.7 14.4 139.6 17.1 135.6 17.1 125.8 17.1 122.6 13.1 121.7 11.9 121 9.9 120.5 8.2 120.1 7.8 L119.7 7.5 121.6 7.5 M225.9 253.9 L225.3 253.8 225.2 253.4 225.2 253.3 225.2 253.2 217.9 247.2 Q202.7 234.8 178.4 223.4 154.1 211.9 126.3 201.3 L115.1 197.2 101.7 192.6 Q90.2 188.7 76.3 184.4 62.6 180.2 46.5 175.6 L23.1 168.9 22.1 168.7 15.4 166.9 15.4 166.8 8.3 165 8.3 162.8 22.1 166.3 23.1 166.6 35.9 169.8 Q66.7 177.9 104.7 191.6 L121 197.6 Q134 202.6 145.4 207.2 176.3 219.4 196.3 229.3 199.8 231.3 218.7 246.6 L225.1 251.9 Q225.2 251.6 226.2 250.6 L226.2 253.9 225.9 253.9"/><path fill="#777777" stroke="none" d="M119.7 7.5 L120.1 7.8 Q120.5 8.2 121 9.9 121.7 11.9 122.6 13.1 125.8 17.1 135.6 17.1 139.6 17.1 143.7 14.4 147.8 11.7 150.7 11.7 L151.8 11.9 151.5 12.1 151.8 14.4 Q152.1 15.8 152.7 16.6 154.2 18.9 160.1 19.4 160.1 21.6 161 25.2 162.2 29.8 163.6 29.8 L165.8 28.4 168.6 26.1 Q171.3 23.6 174.9 22.1 177.7 21 179.1 21 179.2 21 189.7 28.9 200.4 36.6 202.3 36.6 208.4 36.6 215.5 32.8 221.2 29.6 221.8 27.8 L226.2 31.4 226.2 232.2 Q221.1 228 214.8 223.8 201.5 215.2 187.2 209.4 171.2 203.1 157.3 201.8 151.4 201.3 148.1 202.8 145.6 204 145.6 205.4 145.6 206.4 145.8 206.5 L145.4 207.2 Q134 202.6 121 197.6 L104.7 191.6 106.5 190.7 111.8 186.6 Q114.3 184.2 91.8 175.2 79.2 170.1 84.4 171.2 L41.4 158.7 23.1 153.4 22.1 153.2 8.3 149.3 8.3 7.5 119.7 7.5"/><path fill="#444b59" stroke="none" d="M195.8 7.5 Q203.8 13.4 211.5 19.4 L220.7 26.8 Q219.7 27.1 218.8 28 L216.3 30.5 Q212.4 33.9 202.3 33.9 200.9 33.9 190.2 25.9 L181.6 19.4 179.4 17.8 176.2 19.4 Q166.2 24.4 164.3 25.6 L163.9 25.1 163.6 24.9 Q164.2 21.6 164.2 19.4 L164.2 19.1 Q164.2 15.1 161.2 15.1 157.4 15.1 155.9 14.1 154.9 13.4 154.6 11.9 154.2 10.2 153.8 9.7 152.7 8.7 149.9 8.7 146.8 8.7 142.6 11.5 138.5 14.2 134.5 14.2 129.2 14.2 122 7.8 L121.6 7.5 195.8 7.5"/><path fill="#303d58" stroke="none" d="M226.2 29.1 L215.3 19.4 212.6 17.1 200.9 7.5 226.2 7.5 226.2 29.1"/><path fill="#495e6c" stroke="none" d="M76.3 184.4 Q90.2 188.7 101.7 192.6 L115.1 197.2 Q119.5 199.3 123.6 201.9 132.9 207.6 159.2 220.6 180.6 231.2 189.6 238.4 L203.8 249.8 210.8 255.7 206.2 255.7 Q177.9 231.2 136.4 214.1 86.2 193.2 23.1 186.7 L22.1 186.6 8.3 185.3 8.3 172.5 22.1 174.8 23.1 174.9 43.5 178.7 62.8 182 76.3 184.4 M8.3 222.3 L22.1 220.8 23.1 220.8 56.9 219.4 Q84.7 219.4 106.2 222.8 129.8 226.6 151.3 235.1 170.9 242.8 191.5 255.7 L175.1 255.7 Q125.4 233.4 56.2 233.4 39 233.4 23.1 234.4 L22.1 234.4 8.3 235.4 8.3 222.3"/><path fill="#5b7586" stroke="none" d="M115.1 197.2 L126.3 201.3 Q154.1 211.9 178.4 223.4 202.7 234.8 217.9 247.2 L225.2 253.2 225.2 253.3 225.2 253.4 225.3 253.8 225.9 253.9 226.2 254.2 226.2 255.7 210.8 255.7 203.8 249.8 189.6 238.4 Q180.6 231.2 159.2 220.6 132.9 207.6 123.6 201.9 119.5 199.3 115.1 197.2 M8.3 165 L15.4 166.8 15.4 166.9 22.1 168.7 23.1 168.9 46.5 175.6 Q62.6 180.2 76.3 184.4 L62.8 182 43.5 178.7 23.1 174.9 22.1 174.8 8.3 172.5 8.3 165 M8.3 185.3 L22.1 186.6 23.1 186.7 Q86.2 193.2 136.4 214.1 177.9 231.2 206.2 255.7 L191.5 255.7 Q170.9 242.8 151.3 235.1 129.8 226.6 106.2 222.8 84.7 219.4 56.9 219.4 L23.1 220.8 22.1 220.8 8.3 222.3 8.3 185.3 M8.3 235.4 L22.1 234.4 23.1 234.4 Q39 233.4 56.2 233.4 125.4 233.4 175.1 255.7 L8.3 255.7 8.3 235.4"/><path fill="#000000" stroke="none" d="M226.2 111 L225.8 110 Q225.1 108 224.7 106.2 L212.9 100.3 Q204.4 96 198.6 92.7 194.2 90.2 191.2 88.2 193.5 91.4 194.9 94.5 L195.7 94.6 196.9 95.1 196.9 95.1 197.6 95.4 198.6 95.8 202.7 98.1 206.4 100.2 209.8 102.2 219.7 107.8 Q223.8 110.2 226.2 111.2 L226.2 113.5 Q223.8 112.5 219.4 109.9 L213.6 106.3 174.2 132.3 173.3 134.2 173.3 134.3 Q174.2 135.4 174.4 138.2 L174.6 144.1 Q174.5 146.3 174.8 149.7 L175.2 155.3 Q175.4 159.7 176.2 166.7 L177.3 176.9 177.4 177 179.4 177.6 179.7 177.7 196.3 182.8 196.7 182.1 Q191.8 167.6 190.7 161.2 L189.8 156.9 188.7 149.2 Q187.3 140.9 187.3 139.3 L187.2 139.3 187.1 139.2 Q186.9 139.3 186.9 138.8 187 138.2 189.9 136.2 193.9 133.6 202.9 128.5 217.8 120.3 225.7 116.8 L226.2 116 226.2 118.8 225 121 Q220.8 128.8 219.8 131.4 L216.2 140.2 212.2 149.2 209.4 155.7 204.8 167.2 203.3 170.7 200.3 178 197.9 182.8 197.9 182.9 196.6 184.6 Q192.1 184.2 174.9 178.2 161.9 173.7 159.3 172.5 L159.1 172.8 158.7 172.5 158.6 172.2 Q157.9 171.8 157.1 170.4 156.4 169.8 155.7 168.3 L154.7 165.4 Q155.2 160.2 159.9 147.7 163.8 137.4 169.2 125.5 L170.6 122.5 Q176.8 108.8 182.1 99.5 185.7 93.2 187.9 90.4 L188.7 89 Q189.4 87.9 190.1 87.4 L190.2 87.2 Q190.3 87.4 190.6 87.4 L190.7 87.5 Q200.1 91.3 214.3 98.7 222.7 102.8 226 104.8 L226.2 106.2 226.2 111 M195.9 96.8 L194.4 96 Q194.2 96 192.9 98 192.1 98.8 191.6 100 L189.6 103.2 186.8 108.2 185.2 110.8 182.8 115 177.7 124.7 Q176.4 127 175.6 129.2 177.8 127.3 182.1 124.5 L188.2 120.5 189.3 119.8 Q201.8 111.8 212.8 105.8 L210.9 104.8 209.1 103.8 208.7 103.6 201.4 99.7 195.9 96.8 M185.8 96.1 Q180.6 103.9 178.6 108 L174.3 117.6 170 127.2 169.6 128.1 Q166.8 134.4 161.5 149.2 156.2 164.1 156.1 165.4 156 166.2 157.5 168.3 L158.8 170 Q160.3 162.8 167.7 144.4 L171.3 135.6 Q175.5 125.5 177.8 121 L184.9 108.5 186.8 105.5 192.4 96 Q192.8 95.2 193.5 94.8 192.8 93.9 191.8 91.9 L190.4 89 188.8 91.6 185.8 96.1 M210.3 148.8 L213.1 142.6 215.1 137.7 Q217.7 131.4 219.6 127.5 221.2 123.9 224.6 118.7 L217.8 122.3 206.2 127.8 Q204.4 128.8 195.8 134.6 L190.7 137.8 188.2 139.3 Q189.1 143.1 190.2 149.4 L191.9 159.8 192.1 160.6 Q193 164.8 194.9 171.8 L197.3 180.4 198.8 177.1 201.8 169.6 203.5 165.3 203.6 165.1 207.8 154.8 210.2 149.1 210.4 148.8 210.3 148.8 M172 137.9 L169.6 143.9 165.7 153.6 Q164.2 157.4 162.4 163.4 L161.5 166.9 161.7 166.7 160.9 169 159.8 171.5 175.8 176.4 175.1 170.2 174.5 161.8 173.7 148.4 172.8 135.8 172 137.9"/><path fill="#e9ba01" stroke="none" d="M185.2 110.8 L186.8 108.2 189.6 103.2 191.6 100 Q192.1 98.8 192.9 98 194.2 96 194.4 96 L195.9 96.8 193.2 102.5 Q189.5 111.2 188.2 120.5 L182.1 124.5 182.2 123 Q182.8 117 185.2 110.8 M190.7 137.8 L191.2 138.8 Q194.7 145.2 201.3 150.4 204.4 152.8 207.8 154.8 L203.6 165.1 203.5 165.3 201.8 169.6 Q196.1 165.3 191.9 159.8 L190.2 149.4 Q189.1 143.1 188.2 139.3 L190.7 137.8"/><path fill="#b18e01" stroke="none" d="M226.2 111.2 Q223.8 110.2 219.7 107.8 L209.8 102.2 206.4 100.2 202.7 98.1 198.6 95.8 197.6 95.4 196.9 95.1 196.9 95.1 195.7 94.6 194.9 94.5 Q193.5 91.4 191.2 88.2 194.2 90.2 198.6 92.7 204.4 96 212.9 100.3 L224.7 106.2 Q225.1 108 225.8 110 L226.2 111 226.2 111.2 M182.1 124.5 Q177.8 127.3 175.6 129.2 176.4 127 177.7 124.7 L182.8 115 185.2 110.8 Q182.8 117 182.2 123 L182.1 124.5 M185.8 96.1 L188.8 91.6 190.4 89 191.8 91.9 Q192.8 93.9 193.5 94.8 192.8 95.2 192.4 96 L186.8 105.5 184.9 108.5 177.8 121 Q175.5 125.5 171.3 135.6 L167.7 144.4 Q160.3 162.8 158.8 170 L157.5 168.3 Q156 166.2 156.1 165.4 156.2 164.1 161.5 149.2 166.8 134.4 169.6 128.1 L170 127.2 174.3 117.6 178.6 108 Q180.6 103.9 185.8 96.1 M191.9 159.8 Q196.1 165.3 201.8 169.6 L198.8 177.1 197.3 180.4 194.9 171.8 Q193 164.8 192.1 160.6 L191.9 159.8 M172 137.9 L172.8 135.8 173.7 148.4 174.5 161.8 175.1 170.2 175.8 176.4 159.8 171.5 160.9 169 161.7 166.7 161.5 166.9 162.4 163.4 Q164.2 157.4 165.7 153.6 L169.6 143.9 172 137.9"/><path fill="#ffcc00" stroke="none" d="M195.9 96.8 L201.4 99.7 208.7 103.6 209.1 103.8 210.9 104.8 212.8 105.8 Q201.8 111.8 189.3 119.8 L188.2 120.5 Q189.5 111.2 193.2 102.5 L195.9 96.8 M190.7 137.8 L195.8 134.6 Q204.4 128.8 206.2 127.8 L217.8 122.3 224.6 118.7 Q221.2 123.9 219.6 127.5 217.7 131.4 215.1 137.7 L213.1 142.6 210.3 148.8 210.2 148.9 210.2 149 210.2 149.1 207.8 154.8 Q204.4 152.8 201.3 150.4 194.7 145.2 191.2 138.8 L190.7 137.8"/><path fill="#0c0c0c" stroke="none" d="M226.2 116 L225.7 116.8 Q217.8 120.3 202.9 128.5 193.9 133.6 189.9 136.2 187 138.2 186.9 138.8 186.9 139.3 187.1 139.2 L187.2 139.3 187.3 139.3 Q187.3 140.9 188.7 149.2 L189.8 156.9 190.7 161.2 Q191.8 167.6 196.7 182.1 L196.3 182.8 179.7 177.7 179.4 177.6 177.4 177 177.3 176.9 176.2 166.7 Q175.4 159.7 175.2 155.3 L174.8 149.7 Q174.5 146.3 174.6 144.1 L174.4 138.2 Q174.2 135.4 173.3 134.3 L173.3 134.2 174.2 132.3 213.6 106.3 219.4 109.9 Q223.8 112.5 226.2 113.5 L226.2 116"/><path fill="#000000" stroke="none" d="M171.4 258.5 L168.9 258.5 165.8 253.7 158.2 241.5 154.9 236.2 150.3 228.8 148.4 225.8 148.3 225.6 Q147.2 223.3 146.6 221.6 145 216.8 142.5 214.6 L141.8 214 Q140.6 213.1 140.1 212.2 139.4 210.9 139.2 208.1 139.1 206.5 137.1 204.3 135.1 202.2 134.8 199.8 L134.8 197.7 Q131.7 193.8 131.6 193.2 131.3 189.1 139.2 191.8 L139.8 192 143.2 192.2 Q147 192.9 150.9 195.7 L152.6 196.8 Q155.4 199.1 157.3 201.8 L158.7 202.7 Q163.7 206.1 165.7 208.1 169.7 212.2 173.9 219.3 L180.3 229.9 180.9 230.8 188.2 241.6 188.3 241.7 197.2 253.6 200.8 258.5 198.5 258.5 193.2 251.5 Q187.4 244.2 183.8 238.9 180.3 234.1 178.7 231.1 L176 226.2 Q170 216.1 164.1 210.2 160.3 206.4 155.9 203.3 148.3 198.1 138.8 194.9 L137.6 197.1 137.5 197.6 143.2 203.9 Q147.6 208.9 150.2 212.6 L151.8 214.9 157.8 224.5 158.7 225.9 Q162.8 232.6 166.1 237 L169.6 242.8 172.8 248.1 Q174.8 251.4 176.8 254 178.9 256.7 181.2 258.5 L176.7 258.5 177.4 257.7 Q175.6 255.8 173.9 253.3 L173.2 252.1 Q169.2 245.1 166.8 241.6 L165.8 240.1 157.9 228 155.1 223.5 150.3 215.9 147.3 212.2 140.2 204 136.7 199.8 136.7 199.8 136.7 199.9 Q136.7 201.2 138.8 203.8 140.9 206.2 140.9 208.1 141.2 210.2 143.3 212.2 L144.4 213.3 146.6 215.8 150.2 223.6 Q152.6 228.7 154.5 231.8 L160.2 240.8 164.5 247.7 168.7 254.2 171.4 258.5 M136.1 194.1 L134.2 193.7 135.5 195.2 Q135.7 194.6 136.1 194.1 M75.7 192.5 L72.5 188.7 72 188.2 Q68.3 184 61.1 177.1 L55.5 171.8 55.1 171.8 51.6 171.3 44.4 169.7 33.4 166.9 20.2 165.3 10.6 163.7 Q13.5 166.1 18.8 171.9 L20.6 173.8 21.2 174.5 22.7 176.1 25.6 179.5 25.6 179.6 29.4 184.2 Q35.6 192.1 41.7 200.9 47.6 209.3 52.6 221.4 L52.7 221.6 57 231.9 57.5 232.9 59.4 235.7 Q63.5 237.9 67 237.4 L76.2 237.2 96.4 237.8 Q106.5 238.4 112.2 240.1 L114.3 240.8 108.5 233.2 105.9 229.9 102.2 225.2 88.3 207.6 75.7 192.5 M49 168.2 Q55.5 169.7 56.3 170.6 L56.2 170.8 Q59.4 173 67 180.2 L76.2 189.7 79.8 193.7 Q85 199.7 89.2 205.4 L106 226.2 106.3 226.6 112 233.8 Q118.3 242 118.6 243.4 119.3 244.2 119.2 245.3 L115.7 253.9 106.2 252.4 103 251.9 87.7 250.9 Q76.2 250.8 71 251.2 L63.8 251.8 59.2 252.8 58.3 252.6 58.3 252.2 58.1 252.3 Q57.6 252.8 57.1 252.8 54.7 252.8 49.9 243.6 L46.8 237.2 41.6 225.8 40.5 223.2 Q36.7 214.9 34.1 210.3 31.9 206.6 27 199.7 L23.2 194.4 19.3 189.1 10.4 179 10 178.5 Q2.5 169.9 2.5 168.6 2.5 166.2 4.5 162.8 L5.3 161.4 5.3 161.3 5.5 161.3 Q6 160.9 6.1 161.3 L7.7 161.3 19 161.9 33.1 164.7 45.4 167.3 49 168.2 M50.9 239.9 Q54 245.7 57.2 250.1 L58 247.2 59 243.4 59.4 241.9 55.6 233.9 Q52.8 235.7 51.4 238.7 L50.9 239.9 M44 224 Q46.3 222.5 50.1 221.8 43.5 207.3 40.5 202.5 33.6 191.5 28 184.7 26.7 185.2 25.9 186.5 L24.4 190.7 24.1 192 Q32 202.3 36.2 209.8 L43.2 224.5 Q43.6 224.2 44 224 M61.4 244.1 L60.8 246.7 60 249.6 68.3 248.8 71.5 248.6 Q74.8 248.3 87 248.4 L101.8 249.2 105 249.6 116 249.2 117.3 245.2 Q117.3 244.6 114.6 243.5 111.3 242.1 106.1 241.1 L97.5 239.8 Q85.1 238.6 69 239.9 63.2 240.9 61.4 243 L61.4 244.1 M6.9 163.1 L6.2 162.9 Q6.2 163.9 5.4 165.7 4.5 167.4 4.5 168.3 4.5 168.8 8.1 172.9 L11.7 177.1 12.6 176.7 Q15.3 175.6 20 175.6 L14.2 169.7 Q7.7 163.4 7 163.2 L6.9 163.1"/><path fill="#5e2f00" stroke="none" d="M176.7 258.5 L171.4 258.5 168.7 254.2 169.2 253.8 Q170.2 253.1 171.5 253.1 L173.9 253.3 Q175.6 255.8 177.4 257.7 L176.7 258.5 M160.2 240.8 L154.5 231.8 Q152.6 228.7 150.2 223.6 151.3 223 152.8 223 153.7 223 155.1 223.5 L157.9 228 165.8 240.1 166.8 241.6 Q164.2 240.4 162.8 240.4 L160.2 240.8 M144.4 213.3 L143.3 212.2 Q141.2 210.2 140.9 208.1 140.9 206.2 138.8 203.8 136.7 201.2 136.7 199.9 L136.7 199.8 140.2 204 147.3 212.2 Q146.1 212.3 144.4 213.3 M27.6 179.1 L25.6 179.5 22.7 176.1 21.2 174.5 21 172.2 25.8 177.2 27.6 179.1 M44 224 Q43.6 224.2 43.2 224.5 L36.2 209.8 Q32 202.3 24.1 192 L24.4 190.7 25.9 186.5 Q26.7 185.2 28 184.7 33.6 191.5 40.5 202.5 43.5 207.3 50.1 221.8 46.3 222.5 44 224 M50.9 239.9 L51.4 238.7 Q52.8 235.7 55.6 233.9 L59.4 241.9 59 243.4 58 247.2 57.2 250.1 Q54 245.7 50.9 239.9 M61.4 244.1 L61.4 243 Q63.2 240.9 69 239.9 85.1 238.6 97.5 239.8 L106.1 241.1 Q111.3 242.1 114.6 243.5 117.3 244.6 117.3 245.2 L116 249.2 105 249.6 101.8 249.2 87 248.4 Q74.8 248.3 71.5 248.6 L68.3 248.8 60 249.6 60.8 246.7 61.4 244.1 M7 163.2 Q7.7 163.4 14.2 169.7 L20 175.6 Q15.3 175.6 12.6 176.7 L11.7 177.1 8.1 172.9 Q4.5 168.8 4.5 168.3 4.5 167.4 5.4 165.7 6.2 163.9 6.2 162.9 L6.9 163.1 6.9 163.2 7 163.2"/><path fill="#8d5400" stroke="none" d="M185.7 258.5 L181.2 258.5 Q178.9 256.7 176.8 254 180.3 255.1 185.1 257.4 L185.7 258.5 M166.1 220.8 L163.1 219.7 Q159.2 218.6 157.2 217 153.2 213.8 152.6 213.6 151.4 212.8 150.2 212.6 147.6 208.9 143.2 203.9 L137.5 197.6 137.6 197.1 138.8 194.9 Q148.3 198.1 155.9 203.3 161.3 213.8 166.1 220.8 M157.8 224.5 Q162.5 226.6 171 231.6 L174.1 233.3 Q177 238.9 180.7 247.2 178.2 245.6 175.8 245.2 174.3 244.9 169.6 242.8 L166.1 237 Q162.8 232.6 158.7 225.9 L157.8 224.5 M29.4 184.2 L33.9 183.9 Q38.8 183.9 55 187.4 L66.3 190.1 74.5 201.6 Q82 212.4 88 222.5 L59 221.1 52.7 221.4 52.7 221.6 52.6 221.4 Q47.6 209.3 41.7 200.9 35.6 192.1 29.4 184.2 M62.8 185.4 Q56.6 183.6 49.1 181.8 L28.9 177.2 26.3 176.8 21 170.8 20.9 170.8 21 172.2 21.2 174.5 20.6 173.8 18.8 171.9 Q13.5 166.1 10.6 163.7 L20.2 165.3 33.4 166.9 44.4 169.7 51.6 171.3 54.1 174.3 62.8 185.4 M96.4 237.8 L76.2 237.2 67 237.4 Q63.5 237.9 59.4 235.7 L57.5 232.9 Q63.9 230.2 79.5 230.2 L92.8 230.9 96.4 237.8"/><path fill="#3c1e00" stroke="none" d="M168.7 254.2 L164.5 247.7 160.2 240.8 162.8 240.4 Q164.2 240.4 166.8 241.6 169.2 245.1 173.2 252.1 L173.9 253.3 171.5 253.1 Q170.2 253.1 169.2 253.8 L168.7 254.2 M150.2 223.6 L146.6 215.8 144.4 213.3 Q146.1 212.3 147.3 212.2 L150.3 215.9 155.1 223.5 Q153.7 223 152.8 223 151.3 223 150.2 223.6 M7 163.2 L6.9 163.2 6.9 163.1 7 163.2"/><path fill="#663e00" stroke="none" d="M196.3 258.5 L187.5 258.5 185.1 257.4 Q180.3 255.1 176.8 254 174.8 251.4 172.8 248.1 L169.6 242.8 Q174.3 244.9 175.8 245.2 178.2 245.6 180.7 247.2 L182.1 248.1 Q183.9 249.6 187.6 252.8 190.6 255.2 196.3 258.5 M150.2 212.6 Q151.4 212.8 152.6 213.6 153.2 213.8 157.2 217 159.2 218.6 163.1 219.7 L166.1 220.8 Q168.4 221.6 169.8 222.3 173.2 224.2 176 226.2 L178.7 231.1 Q180.3 234.1 183.8 238.9 L174.1 233.3 171 231.6 Q162.5 226.6 157.8 224.5 L151.8 214.9 150.2 212.6 M66.3 190.1 L55 187.4 Q38.8 183.9 33.9 183.9 L29.4 184.2 25.6 179.6 25.6 179.5 27.6 179.1 28.3 178.9 26.3 176.8 28.9 177.2 49.1 181.8 Q56.6 183.6 62.8 185.4 L72 188.2 72.5 188.7 75.7 192.5 66.3 190.1 M52.7 221.6 L52.7 221.4 59 221.1 88 222.5 92.7 223.2 Q98.1 223.9 102.2 225.2 L105.9 229.9 108.5 233.2 98.3 231.6 92.8 230.9 79.5 230.2 Q63.9 230.2 57.5 232.9 L57 231.9 52.7 221.6"/><path fill="#6f4200" stroke="none" d="M198.5 258.5 L196.3 258.5 Q190.6 255.2 187.6 252.8 183.9 249.6 182.1 248.1 L180.7 247.2 Q177 238.9 174.1 233.3 L183.8 238.9 Q187.4 244.2 193.2 251.5 L198.5 258.5 M187.5 258.5 L185.7 258.5 185.1 257.4 187.5 258.5 M166.1 220.8 Q161.3 213.8 155.9 203.3 160.3 206.4 164.1 210.2 170 216.1 176 226.2 173.2 224.2 169.8 222.3 168.4 221.6 166.1 220.8 M66.3 190.1 L75.7 192.5 88.3 207.6 102.2 225.2 Q98.1 223.9 92.7 223.2 L88 222.5 Q82 212.4 74.5 201.6 L66.3 190.1 M72 188.2 L62.8 185.4 54.1 174.3 51.6 171.3 55.1 171.8 55.5 171.8 61.1 177.1 Q68.3 184 72 188.2 M92.8 230.9 L98.3 231.6 108.5 233.2 114.3 240.8 112.2 240.1 Q106.5 238.4 96.4 237.8 L92.8 230.9"/><path fill="#444444" stroke="none" d="M130.8 199.4 Q131.2 199.5 131.5 199.7 L133.9 200.7 139.8 203.2 140.2 203.4 141.3 203.9 146.8 206.5 Q157.9 212.2 174.3 223.4 195 237.5 204.8 247.1 214.8 256.8 216 259.1 L216.9 260.4 214.1 260.4 Q210.2 256.1 205.1 251.3 191.9 239 175.6 227.7 157 214.8 138.2 206.1 135.7 204.9 133.3 203.9 L134 204.1 129.8 202.3 Q118 197.4 106.7 194.6 91.5 190.4 62.7 184.8 37.5 179.8 6.5 177.1 L6.5 175.2 Q40.4 177.1 68.5 182.2 103.7 188.6 130.2 199.1 L130.8 199.4 M140.9 232.6 L137.6 231.6 138.3 231.7 133.9 230.6 Q123.5 227.8 113.8 226.7 115.5 226.4 116.8 225.2 117.9 224.3 118.2 223.5 126.2 224.8 133.7 226.6 L135.9 227.2 137.7 227.7 140.3 228.4 140.2 229.6 Q140.2 231.2 140.9 232.6 M106.5 226 L64.7 224.2 Q38.4 223.8 6.5 227.6 L6.5 225.3 Q40.9 219.8 70 219.8 L102.6 221.4 Q103 224.7 106.5 226 M198.9 260.4 Q191.3 255.4 183.2 250.9 169.1 243.1 155.2 237.6 155.7 237.1 155.7 235.8 155.7 234.6 154.6 232.9 165.7 237.3 181.3 246 195.6 253.8 205.3 260.4 L198.9 260.4"/><path fill="#000000" stroke="none" d="M216.9 260.4 L216 259.1 Q214.8 256.8 204.8 247.1 195 237.5 174.3 223.4 157.9 212.2 146.8 206.5 L141.3 203.9 140.2 203.4 139.8 203.2 133.9 200.7 131.5 199.7 Q131.2 199.5 130.8 199.4 123.5 196.1 115.8 192.7 95 184.4 31.8 174.2 L6.5 170.9 6.5 169.4 Q37.1 172.6 66 178.6 84.8 182.4 101.3 187.3 112.9 190.2 125.2 195.2 L129.4 196.8 128.9 196.7 133.9 198.9 Q150.9 206.7 167.8 217.6 L172.8 220.9 Q189.9 232.3 203.9 244.8 213.6 253.3 219.2 260.4 L216.9 260.4 M6.5 177.1 Q37.5 179.8 62.7 184.8 91.5 190.4 106.7 194.6 118 197.4 129.8 202.3 L134 204.1 133.3 203.9 Q135.7 204.9 138.2 206.1 157 214.8 175.6 227.7 191.9 239 205.1 251.3 210.2 256.1 214.1 260.4 L210.6 260.4 202.4 251.4 Q193.9 243 175.3 229.8 156.3 216.4 144.3 211 L120.7 199.9 Q94.2 192.2 41.8 183.4 23.9 180.5 6.5 178.8 L6.5 177.1 M113.8 226.7 Q123.5 227.8 133.9 230.6 L138.3 231.7 137.6 231.6 140.9 232.6 142.8 233.2 Q149 235.2 155.2 237.6 169.1 243.1 183.2 250.9 191.3 255.4 198.9 260.4 L194.8 260.4 Q189.6 257.1 183.4 253.6 163.2 242 150.6 238.1 L149.7 237.7 144.6 236.2 124.4 229.6 Q97.1 226.1 43.9 227.3 24.8 227.7 6.5 229.7 L6.5 227.6 Q38.4 223.8 64.7 224.2 L106.5 226 109.8 226.2 113.8 226.7 M140.3 228.4 L137.7 227.7 135.9 227.2 118.5 222.1 118.5 222.1 Q112.2 220.5 102.5 219.5 78.2 217.2 32.5 218.5 L6.5 220.1 6.5 218.2 Q37.4 215.2 67 215.9 85.9 216.4 102.8 218.6 L103.3 218.7 Q110.5 219.2 118.2 220.8 L128.2 223 132.8 224 132.1 223.9 137.3 225.5 Q145.3 228 153.3 231.2 163.6 235.2 173.9 240.5 L179.4 243.2 Q194.3 251.2 207.4 260.4 L205.3 260.4 Q195.6 253.8 181.3 246 165.7 237.3 154.6 232.9 L151.4 231.8 148.8 230.9 148.4 230.7 147.6 230.4 145.6 229.8 145 229.7 144.4 229.5 144 229.4 143.2 229.2 140.3 228.4"/><path fill="#5c5c5c" stroke="none" d="M6.5 170.9 L31.8 174.2 Q95 184.4 115.8 192.7 123.5 196.1 130.8 199.4 L130.2 199.1 Q103.7 188.6 68.5 182.2 40.4 177.1 6.5 175.2 L6.5 170.9 M135.9 227.2 L133.7 226.6 Q126.2 224.8 118.2 223.5 L111.8 222.5 107.3 221.9 102.6 221.4 70 219.8 Q40.9 219.8 6.5 225.3 L6.5 220.1 32.5 218.5 Q78.2 217.2 102.5 219.5 112.2 220.5 118.5 222.1 L118.5 222.1 135.9 227.2 M145 229.7 L145.6 229.8 147.6 230.4 148.4 230.7 148.8 230.9 151.4 231.8 Q149.6 231.1 147.7 230.6 L145 229.7"/><path fill="#6a6b54" stroke="none" d="M140.9 232.6 Q140.2 231.2 140.2 229.6 L140.3 228.4 143.2 229.2 143.2 229.2 Q143.1 229.5 143.1 230.1 143.1 231.8 145.7 233.2 L148.3 234 149.2 233.8 149.5 233.3 Q149.5 232.4 148.2 230.9 L147.7 230.6 Q149.6 231.1 151.4 231.8 L154.6 232.9 Q155.7 234.6 155.7 235.8 155.7 237.1 155.2 237.6 149 235.2 142.8 233.2 L140.9 232.6 M118.2 223.5 Q117.9 224.3 116.8 225.2 115.5 226.4 113.8 226.7 L109.8 226.2 106.5 226 Q103 224.7 102.6 221.4 L107.3 221.9 Q107.3 223.8 109.2 224.7 L111.5 225.2 112.8 225.2 Q113.2 225.1 113.2 224.6 113.2 223.7 111.8 222.5 L118.2 223.5"/><path fill="#87886a" stroke="none" d="M143.2 229.2 L144 229.4 144.4 229.5 145 229.7 147.7 230.6 148.2 230.9 Q149.5 232.4 149.5 233.3 L149.2 233.8 148.3 234 145.7 233.2 Q143.1 231.8 143.1 230.1 143.1 229.5 143.2 229.2 L143.2 229.2 M111.8 222.5 Q113.2 223.7 113.2 224.6 113.2 225.1 112.8 225.2 L111.5 225.2 109.2 224.7 Q107.3 223.8 107.3 221.9 L111.8 222.5"/><path fill="#000000" stroke="none" d="M177.8 86.3 Q170.4 82 167.9 79.2 170.1 80.7 178.2 85.5 185.8 90.3 189.2 93.2 L189.1 93.3 177.8 86.3 M190 98.8 L180.1 93.5 170.8 87.8 170.8 87.3 Q173.2 88.8 180.5 92.8 187.2 96.5 190 98.8 M186.4 124.9 L186.7 124.9 Q189 127.7 198.2 133.1 208.9 139.4 211.8 141.6 L211.7 141.8 197.7 133.5 Q188.7 128.1 186.4 124.9 M182.7 134.2 Q187.7 136.9 194.9 143.1 L207.7 153.9 207.4 154.2 192.9 142.9 Q184.3 136.1 182.7 134.3 L182.7 134.2 M208.3 132.6 Q219.7 140.1 226.2 145.8 L226.2 146.9 220.8 142.4 Q214.2 136.9 208.4 133 L193.3 123.6 Q184.2 118 180.8 114.2 L193.9 123.2 208.3 132.6 M117 56.7 L117.5 56.9 Q109 60.3 105.4 66 104.3 67.5 103 70.6 L100.8 75 102.7 70.3 Q103.8 67.3 105 65.4 108.8 59.7 116.6 56.6 L117 56.7 M111.5 56.9 Q107.7 58.4 105 61 L101.8 64.8 Q103.7 61.6 104.9 60.5 107.5 57.6 111.5 56.9 M70.5 139.4 Q65 142.9 62.1 148.6 59.9 153.2 59.9 158.2 L59.9 160.2 Q60 161.3 60.5 162.2 L60.2 162.2 Q60 161.5 59.6 159.2 59.3 156.8 59.3 155.8 59.3 151.9 62.5 146.9 66 141.2 70.5 139.4 M74.7 133 Q67.5 137.4 63 141.9 58.3 146.8 57.5 150.8 57.2 150.9 57.1 150.8 58.1 146.2 62.5 141.6 67.2 136.8 74.7 133 M97.8 173 Q96.9 173.6 96 175.2 L98 173.4 Q100.2 171.8 104 170.8 108.7 169.4 110.1 171.3 L110.6 172.4 Q110.6 171.5 110.1 170.8 108.2 168.3 103 170.2 99.8 171.5 97.8 173 M97.8 176.1 L96.2 177.7 Q95 179.2 96 180.3 97.2 182 102 180.2 104.5 179.3 106.7 178.1 108.5 176.8 109 175.4 109.5 173.8 107.5 173.6 L102.8 173.8 Q100 174.6 97.8 176.1 M109.3 175.6 Q110.5 173.8 109.6 172.5 107.8 170 102.6 172 99.4 173.2 97.4 174.6 96.7 175.1 96.1 176.6 L96 176.9 97.4 175.7 Q100.5 173.4 103.5 172.9 L108.6 173.1 Q110.6 173.8 109.2 175.6 L109.1 175.9 109.3 175.6 M95.7 174.6 L97.5 172.7 Q100.2 170.7 103.5 169.7 107.9 168.2 110.2 169.9 111.4 171.1 111.3 172.2 L110.9 173.4 Q111 174.5 110.5 175.4 110.1 176.1 108 178 107.9 178.1 107.7 178.2 L107.7 178.2 107.2 178.6 Q105.3 179.9 101.5 181.2 96.5 182.9 95 181.1 94.3 180 94.6 178.9 94.3 178.2 94.6 177.2 94.2 176.4 95.7 174.6 M99.9 178.3 L101.6 178.3 103.2 177.6 Q103.2 177.2 102 177.3 100.9 177.4 100 178.1 L99.8 178.2 99.9 178.3 M100.1 177.5 Q101.2 176.6 103.2 176.7 105.2 176.9 103.7 178 L101.5 178.9 Q99.8 179.6 99.2 178.9 98.9 178.4 99.5 177.9 L100.1 177.5 M65.3 161.5 Q65.8 160.1 67 158.8 69 156.3 73.7 154.1 79.6 151.3 82.8 153.2 L84.5 154.4 Q83.7 153.2 82.5 152.5 78.2 149.9 72 153.8 68.2 155.9 66.3 158.3 65.5 159.2 65.2 161.4 L65.2 161.7 65.3 161.5 M85.3 154.1 Q85.6 154.7 85.5 155.7 86.4 156.9 86.3 158.2 86.2 159.1 84.6 161.8 L84.2 162.2 84.1 162.2 83.7 162.8 Q82 165 77.3 167.5 71.2 170.8 68 168.9 66.2 167.8 65.8 166.3 64.8 165.6 64.7 164.3 63.5 163.5 64.3 160.8 L65.7 158.1 Q68.3 154.8 72.3 152.8 77.7 149.9 82.2 151.4 84.7 152.7 85.3 154.1 M84.5 158.7 L84.7 159 84.8 158.6 Q85.2 156.1 83.1 154.8 78.8 152.2 72.6 155.8 68.8 158.1 67 160.3 66.2 161.2 66.3 163.2 L66.4 163.6 67.7 161.7 Q70.5 158.2 74.6 156.7 78.6 155.2 82 155.8 85.3 156.2 84.5 158.7 M75.9 164.8 Q73.7 165.9 72.5 165.2 71.8 164.8 72.1 164 L72.7 163.2 Q73.9 161.8 76.8 161.6 79.7 161.3 78.2 163 L75.9 164.8 M75.5 162.6 Q73.8 163 73 164.1 L73 164.1 Q72.8 164.2 73 164.4 73.9 164.8 75.5 163.8 L77.3 162.6 75.5 162.6 M84.1 158.4 Q84 156.5 80.8 156.7 77.5 156.8 74.1 158.2 70.6 159.7 68.5 162.2 67.5 163.4 67.2 164.5 66.7 166.6 68.7 167.8 71.7 169.4 77.5 166.1 80.3 164.5 82.8 162.3 84.3 160.3 84.1 158.4 M214.7 181.3 L214.4 181.7 Q210.7 178.4 205.1 172.8 L196.8 164.8 196.8 164.7 Q200.5 167.1 205.8 172.4 L214.7 181.3"/><path fill="#746a11" stroke="none" d="M97.8 176.1 Q100 174.6 102.8 173.8 L107.5 173.6 Q109.5 173.8 109 175.4 108.5 176.8 106.7 178.1 104.5 179.3 102 180.2 97.2 182 96 180.3 95 179.2 96.2 177.7 L97.8 176.1 M97.8 173 Q99.8 171.5 103 170.2 108.2 168.3 110.1 170.8 110.6 171.5 110.6 172.4 L110.1 171.3 Q108.7 169.4 104 170.8 100.2 171.8 98 173.4 L96 175.2 Q96.9 173.6 97.8 173 M102 175.3 Q99.8 175.8 98.2 177.1 L96.9 178.2 Q95.9 179.3 96.5 180.2 L101.7 180.1 Q105 178.9 106.4 177.9 107.6 177.1 107.8 176.1 108 175.1 106.1 174.9 L102 175.3 M99.9 178.3 L99.8 178.2 100 178.1 Q100.9 177.4 102 177.3 103.2 177.2 103.2 177.6 L101.6 178.3 99.9 178.3 M65.2 161.4 Q65.5 159.2 66.3 158.3 68.2 155.9 72 153.8 78.2 149.9 82.5 152.5 83.7 153.2 84.5 154.4 L82.8 153.2 Q79.6 151.3 73.7 154.1 69 156.3 67 158.8 65.8 160.1 65.3 161.5 L65.2 161.4 M75.5 162.6 L77.3 162.6 75.5 163.8 Q73.9 164.8 73 164.4 72.8 164.2 73 164.1 L73 164.1 Q73.8 163 75.5 162.6 M82.2 162.2 Q83.2 160.8 82.9 159.6 82.5 158.3 79.8 158.7 77 158.9 74.2 160.1 71.3 161.2 69.7 163.3 L68.6 164.9 Q68 166.6 69.5 167.4 71.8 168.8 76.8 166.1 80.8 163.8 82.2 162.2 M84.1 158.4 Q84.3 160.3 82.8 162.3 80.3 164.5 77.5 166.1 71.7 169.4 68.7 167.8 66.7 166.6 67.2 164.5 67.5 163.4 68.5 162.2 70.6 159.7 74.1 158.2 77.5 156.8 80.8 156.7 84 156.5 84.1 158.4"/><path fill="#9d8f19" stroke="none" d="M102 175.3 L106.1 174.9 Q108 175.1 107.8 176.1 107.6 177.1 106.4 177.9 105 178.9 101.7 180.1 L96.5 180.2 Q95.9 179.3 96.9 178.2 L98.2 177.1 Q99.8 175.8 102 175.3 M100.1 177.5 L99.5 177.9 Q98.9 178.4 99.2 178.9 99.8 179.6 101.5 178.9 L103.7 178 Q105.2 176.9 103.2 176.7 101.2 176.6 100.1 177.5 M75.9 164.8 L78.2 163 Q79.7 161.3 76.8 161.6 73.9 161.8 72.7 163.2 L72.1 164 Q71.8 164.8 72.5 165.2 73.7 165.9 75.9 164.8 M82.2 162.2 Q80.8 163.8 76.8 166.1 71.8 168.8 69.5 167.4 68 166.6 68.6 164.9 L69.7 163.3 Q71.3 161.2 74.2 160.1 77 158.9 79.8 158.7 82.5 158.3 82.9 159.6 83.2 160.8 82.2 162.2"/><path fill="#4f4f00" stroke="none" d="M109.2 175.6 Q110.6 173.8 108.6 173.1 L103.5 172.9 Q100.5 173.4 97.4 175.7 L96 176.9 96.1 176.6 Q96.7 175.1 97.4 174.6 99.4 173.2 102.6 172 107.8 170 109.6 172.5 110.5 173.8 109.3 175.6 L109.2 175.6 M84.8 158.6 L84.5 158.7 Q85.3 156.2 82 155.8 78.6 155.2 74.6 156.7 70.5 158.2 67.7 161.7 L66.4 163.6 66.3 163.2 Q66.2 161.2 67 160.3 68.8 158.1 72.6 155.8 78.8 152.2 83.1 154.8 85.2 156.1 84.8 158.6"/><path fill="#000000" stroke="none" d="M115.3 208 L107.8 206.3 Q104.9 205.5 104 203.9 100 200.2 87.8 180.2 L77.8 163.4 73.4 155.7 73.4 155.6 73.1 155.3 74.3 153.2 84 138.8 88.5 132.2 88.7 132.1 89.5 130.9 89.3 130.4 89.2 129.6 Q89 129.2 88.9 128 L88.9 127.7 88.8 126.5 88.8 123.2 Q88.8 120.1 89.2 117.3 90 110.9 92.7 106.3 99 95.4 115 95.2 L115 95.2 113 93.5 111.9 92 Q111.3 91 111.3 90 111.3 86.9 114.4 84.8 118 82.3 125.7 81.3 125.5 80.7 127 77.3 129.2 72 134.2 65.5 139.1 59 149.1 58.7 L152.2 59.2 152.3 59.3 Q157.2 60.2 160.8 64 L162.2 65.7 163.2 67.2 Q166.2 71.5 166.2 75.7 L166.2 75.8 166.6 78.1 Q167 83.2 167 91 167 97.7 167.9 102 169.8 109.8 175.2 122 179.6 131.5 181.7 138.2 L182.7 141.3 182.8 142.2 182.9 142.3 Q184.6 145.6 186.5 153.7 L188.2 161.7 188.2 161.6 188.4 161.6 Q191.7 166.2 200.6 178 L211.6 193.1 210.2 194.1 210.1 193.9 Q208.4 195.2 202.4 196.8 L184.6 201.6 Q183.4 201.9 172.8 205.8 L165.1 208.7 Q148.3 214.9 147.8 214.9 L147.5 214.9 147.3 214.9 Q142.4 214.9 133.1 212.4 L130.9 211.8 130.6 211.7 126 210.3 122.5 209.4 115.3 208 118.4 206.8 115.3 208 M181.8 178.9 L186.4 180.7 186.9 178.5 Q187.7 174.6 187.8 169.9 187.8 165.3 186.3 158.1 L186.2 157.9 186.2 157.8 185.8 156.4 184.2 149.7 183.3 146.3 182.9 145 181.5 141.1 181.4 140.5 179.4 135.4 175.1 124.5 170.7 113.7 Q168.1 107.1 166.9 102.6 165.7 98.2 165.8 90.5 L165.7 85.5 165.7 84.9 165.6 83.2 165.5 81.8 Q165.1 81.3 165.1 80.9 L165.2 78.9 165.1 77.3 164.8 74 164.1 71.2 Q162.2 65.2 155.8 61.8 L154.2 61 152.8 60.4 152.7 60.2 149.5 59.6 Q139.3 59.8 132.4 70.1 130.1 73.5 128.3 77.7 L127 81.2 128.3 81 Q128.6 80 129.9 77.2 L131.8 73.7 Q132.7 72.4 134.5 70.9 L135.7 70 Q137.2 68.8 139 69.5 L139.1 69.5 Q140.4 69.7 141.2 70.5 141.7 70.2 142.7 70.1 145 69.7 146.2 70.9 147.1 71.5 147.7 72.5 L147.8 72.7 148.2 73.3 149.3 75.7 151.3 80.3 Q152.2 82.4 152.2 84.6 152.2 86.3 151.4 88.4 150.1 91.5 147.7 91.8 L148.4 92.9 148.4 93 148.8 94.2 149.1 94.7 149.3 95.7 149.3 96.3 149.2 96.8 Q149.1 99 148.3 101.2 L148 102 Q147.2 103.7 146.1 104.7 L146 105 Q145.9 105 145.8 106 L145.7 106.4 145.1 111.2 144.9 113 Q144.4 117.4 144.7 118.3 L146.3 126 149.4 128.4 Q154.5 131.7 158.8 136.1 163.4 140.7 165.2 144.7 L164.4 143.8 Q160.1 138.6 154.7 134 143.7 124.8 135 124.8 130.3 124.8 127 127.8 L124.8 130.2 125.3 130.2 126.3 130.3 129.2 130.4 133.1 130.6 Q133.9 130.8 134.4 131.4 L135.2 132.6 136.7 134.6 138.6 137.2 138.9 137.7 142.1 141.9 142.2 142.2 142.6 142.6 146.1 146.5 148.9 149.5 150.2 151 154.9 155.6 Q160.6 160.3 168.3 161.3 L169 159.7 169.2 159.2 170.8 154.8 171.4 152.2 172.1 147.3 172.8 139.5 Q173 135.7 171.2 126.9 L170.5 123.7 Q169.4 119 168.6 117.7 L168.3 117.2 168.4 117.1 168.7 117.1 Q172.2 124.7 173.1 129.9 173.8 134 173.8 141.8 173.8 147.2 172.7 153.8 L172.7 153.8 171.7 158.2 Q170.8 161.2 169.6 162.3 169.3 163.4 167.8 163.4 L167.4 163.4 Q162.2 163.2 154.7 157 L160.1 164.2 Q165.2 170.9 166.7 173.7 171.3 174.9 181.8 178.9 M149.7 79 L148.9 77.4 Q146.2 71.7 144.5 71.5 L142 71.8 Q141.2 72.2 141.1 72.5 L140.7 72.5 140.7 72.4 140.7 72.3 140.2 71.5 139.8 71.2 Q139 70.3 137.8 70.2 136.4 70.2 134.4 72.2 L132.4 74.5 131.9 75.3 130.1 79.5 129.3 81 134.2 81.7 Q138.5 82.8 142.4 86 L143.8 87.2 144.3 87.6 145.9 89.3 147 90.7 Q149.4 90.7 150.6 87.7 L150.8 87 151.1 84.8 150.7 81.8 150.6 81.2 149.7 79 M136.1 79.8 L135.7 80.9 Q135.3 81.7 134.8 81.7 L134.2 81.6 134.2 80.8 Q134.2 79.2 135.2 78.6 136.1 78.1 136.1 79.8 M141.3 81.7 L141.2 82.8 Q140.9 83.7 140.3 83.7 139.6 83.7 139.4 83.1 L139.4 82.4 Q139.4 80.7 140.4 80.2 141.3 79.8 141.3 81.7 M141.2 86.1 Q135.7 82.3 128 82.3 119.7 82.3 115.3 85.5 112.3 87.8 112.3 90 112.3 90.6 112.6 91.2 113.2 92.9 115.8 94.5 L115.8 94.6 116.2 94.8 Q119.7 97 125 97.6 L129.8 97.8 136 97.5 Q140 97 142.4 95.7 143.6 95 144.3 94 L144.7 93.7 Q144.1 93.2 143.2 92.9 L141.2 92.5 141.2 92.2 143.7 92.2 Q145.1 92.6 146 93.7 147.1 95 147.1 96.8 L146.9 97.7 Q146.3 95.8 145.6 94.7 L145.2 94.2 145.2 94.2 145.1 94.1 145.1 94.3 145.3 96 Q145.3 98 144.6 100 143.6 102.6 141.8 103.2 L140.7 103.3 Q139.4 103.3 136.7 100.9 L134.2 98.6 133.4 98.7 136 101.4 Q139.5 104.8 142.8 104.8 L143.8 104.7 Q146.6 104 147.8 99.5 L148.3 95.8 148.4 95 148.3 95 Q147.7 93.2 146.4 91.5 L146.3 91.3 144.7 89.3 144.4 89 144.1 88.7 143.7 88.2 143.5 88 141.2 86.1 M114 96.5 L113.4 96.5 111.5 96.8 Q105.8 98 103.7 98.8 101 99.8 100.2 100.3 99 101 97.5 102.5 95.5 104.3 94 106.9 L93.4 108.1 91.8 111.5 Q90.4 115 90.2 120.5 L90 128.4 90.1 128.8 90.2 129.3 90.3 129.6 90.5 129.4 91 128.6 91.7 127.6 96 121.2 99.8 114.8 98.6 115.3 97.2 115.9 Q98.2 114.6 99.8 113.9 L101 113.5 104.2 112.4 112.3 111.5 Q117.8 111.3 119.5 112.1 120.2 110.6 121.3 108.9 L121.7 108.3 124.2 105 124.8 104.3 126.3 102.3 125.1 104.8 124.8 105.5 120.2 114.1 119.6 115.3 121.5 117.3 Q121.8 116.2 122.7 114.4 124 111.7 126.8 107.6 L126.8 107.5 129.5 103.7 132.4 99.5 132 98.8 130.2 98.8 129.8 98.8 125.8 98.6 Q121 98.2 117.5 96.6 L116.3 96.7 114.8 96.5 114 96.5 M117.5 114.1 L116.8 113.2 116.2 113.2 109.5 112.6 Q107 112.6 102.4 114 L101 114.5 Q100.9 115.3 98 120 L94.2 126 91.3 130.4 90.8 131.2 90 132.4 75.2 154.2 74 155.8 Q75.3 157.2 79.3 163.8 L88.4 178.8 Q91 183.3 99.1 193.9 L106 203.4 106 203.4 106.6 203.7 108.6 202.9 110.9 201.9 111 201.8 Q112.6 200.7 129.8 193.2 L144.2 186.8 150.2 183.9 Q159.4 179.6 166.3 175.8 165.5 175.3 159.9 167.2 154.7 159.6 151.8 154.6 L151.1 153.8 147.9 150.8 145.4 148 141.4 143.7 Q138.8 140.9 137.8 139.1 L136.4 136.9 134.8 134.7 134.6 134.2 134.2 133.4 Q133.8 132.7 133.3 132.4 L131.7 132.1 131.4 132.1 128.4 132.1 125.7 131.8 125 131.7 124.4 131.5 123.9 131.2 123.8 131.2 123.3 131.2 Q123.2 131.2 123.2 130.8 L123.5 129.4 Q124 127.9 126 126.5 L127.2 125.7 Q125.5 124.5 121.7 119.5 L120.5 118.1 118.9 116 118.8 116 118.7 115.7 117.5 114.1 M144.3 95.2 Q143.6 95.8 142.1 96.6 139.4 97.9 135.6 98.5 L137.2 100.1 Q138.7 101.8 139.8 102.2 139.6 101.6 139.6 100.8 139.6 99.6 141.2 98 142.7 96.5 144.2 96.5 L144.3 95.2 M140.2 102.3 L140.6 102.3 140.7 102.3 Q143.2 102.3 144.1 98.2 L144.1 97.3 Q141.8 97.8 140.8 99.4 139.9 100.6 140.2 102 L140.2 102.1 140.2 102.2 140.2 102.2 140.2 102.3 M130.2 104.7 L128.2 108 127.7 108.8 122.1 118 122.7 118.6 122.8 118.8 126 122 Q127.8 123.8 128.5 125 130.3 124.2 132.6 123.8 139.8 122.5 145.5 125.6 L143.8 118.3 Q143.4 117.2 143.8 113.8 L143.9 112 Q144.2 109.5 144.7 107.7 L145.2 105.8 145.2 105.7 145.4 105.2 144.9 105.4 142.8 105.8 Q139.9 105.8 135.7 102.5 L132.8 100 130.2 104.7 M118.8 114 L119.2 113.1 117.5 113.2 118.5 114 118.8 114.4 118.8 114 M167.9 175.9 L167.9 175.9 167.9 176 Q167.9 177 149.6 185.6 146.4 187 142.8 188.8 L142.6 188.8 142.2 189 111.5 202.8 111.5 202.7 111.5 202.7 109.7 203.8 107.7 204.8 109.5 205.1 116.1 206.4 116.5 206.5 118.4 206.8 124 208.1 128.1 209.2 133.9 210.9 134.6 211.1 135.3 211.3 Q142.4 213.2 148.2 213.7 156.8 210.2 164.5 207.4 172.5 204.4 179.4 202.2 192.6 197.7 206.4 193.7 L206.8 193.5 206.4 193.3 206.2 193.3 204.5 192.8 Q199.7 191.1 190.1 186.8 175 180.2 167.9 175.9 M167.3 175 Q173.7 178 187.2 183.8 L208.7 192.8 208.9 192.9 209.2 192.8 207.3 190.1 199.4 178.3 Q189.5 164.8 188.3 162.4 L188.8 167.9 Q191.1 171.8 195.2 177.4 L202.5 186.9 202.7 186.9 Q202.8 187.7 203.4 188.6 L190.3 183.7 186.3 182.1 185.3 181.7 166.8 173.8 167.3 175 M187.4 181.1 L200.4 186.1 Q198.4 183.8 194.5 178 L188.8 169.3 Q188.8 173.8 188.1 178 L187.4 181.1 M206.4 193.3 L208.7 192.8 206.4 193.3"/><path fill="#d65858" stroke="none" d="M165.7 85.5 L165.8 90.5 Q165.7 98.2 166.9 102.6 168.1 107.1 170.7 113.7 L175.1 124.5 179.4 135.4 181.4 140.5 181.5 141.1 182.9 145 183.3 146.3 184.2 149.7 185.8 156.4 186.2 157.8 186.2 157.9 186.3 158.1 Q187.8 165.3 187.8 169.9 187.7 174.6 186.9 178.5 L186.4 180.7 181.8 178.9 178.1 175.8 Q170.9 169.4 167.6 163.6 L167.8 163.4 Q169.3 163.4 169.6 162.3 170.8 161.2 171.7 158.2 L172.7 153.8 172.8 153.8 172.7 153.8 Q173.8 147.2 173.8 141.8 173.8 134 173.1 129.9 172.2 124.7 168.7 117.1 L168.4 117.1 167.6 114.2 Q165.1 105.2 165.1 100.2 L165.7 85.5 M114.8 96.5 L116.3 96.7 117.5 96.6 Q121 98.2 125.8 98.6 L129.5 103.7 126.8 107.5 126.8 107.6 126.5 107 125.1 104.8 126.3 102.3 124.8 104.3 122.7 101.1 Q120.8 98.8 118.5 98 L117.3 97.5 115.7 97 114.7 96.7 114.8 96.5 M124.2 105 L121.7 108.3 121.3 108.9 119.5 108.7 116.9 108.3 Q108.5 108.3 101 113.4 L101 113.5 99.8 113.9 Q98.2 114.6 97.2 115.9 L98.6 115.3 Q93 120.2 91.7 127.6 L91 128.6 90.5 129.4 90.3 127.3 Q90.3 112.4 102.3 105.8 109.3 102 116.6 102 119.5 102 121.5 102.8 123.5 103.5 124.2 105 M149.2 96.8 L149.5 96.9 Q150.2 99 150.2 101.7 150.2 106.7 147.3 110.5 L144.9 113 145.1 111.2 145.7 106.4 146 106 Q147.4 104 148 102 L148.3 101.2 Q149.1 99 149.2 96.8 M136.7 134.6 L137.8 135.4 147.5 143.3 Q162.3 154.9 170.1 154.9 L170.8 154.8 169.2 159.2 169 159.7 Q165.7 159.4 159.6 155.9 151.7 151.2 142.6 142.6 L142.2 142.2 142.1 141.9 138.9 137.7 138.6 137.2 136.7 134.6"/><path fill="#ff8d8d" stroke="none" d="M134.5 70.9 Q132.7 72.4 131.8 73.7 L129.9 77.2 Q128.6 80 128.3 81 L127 81.2 128.3 77.7 Q130.1 73.5 132.4 70.1 139.3 59.8 149.5 59.6 L152.7 60.2 152.8 60.4 154.2 61 155.8 61.8 150.9 61.1 Q141.6 61.1 135.4 69.5 L134.5 70.9 M94 106.9 Q95.5 104.3 97.5 102.5 99 101 100.2 100.3 101 99.8 103.7 98.8 105.8 98 111.5 96.8 L113.4 96.5 114 96.5 114.7 96.7 109.5 98 Q104.5 99.4 100.5 101.8 96.8 104 94.2 107.1 L94 106.9 M164.4 143.8 L164.6 145.3 164.4 145.4 163.3 144.2 Q159.1 139.2 155.6 136.1 145.4 127 135.4 127 131.8 127 128.1 129.1 L126.3 130.3 125.3 130.2 124.8 130.2 127 127.8 Q130.3 124.8 135 124.8 143.7 124.8 154.7 134 160.1 138.6 164.4 143.8"/><path fill="#ffffff" stroke="none" d="M145.9 89.3 L144.3 87.6 143.8 87.2 142.4 86 Q138.5 82.8 134.2 81.7 L129.3 81 130.1 79.5 131.9 75.3 132.4 74.5 134.4 72.2 Q136.4 70.2 137.8 70.2 139 70.3 139.8 71.2 L140.2 71.5 140.7 72.3 140.7 72.4 140.7 72.5 141.1 72.5 Q141.2 72.2 142 71.8 L144.5 71.5 Q146.2 71.7 148.9 77.4 L149.7 79 149.8 81.1 Q149.8 85.1 148.9 87.2 147.9 89.2 145.9 89.3 M141.3 81.7 Q141.3 79.8 140.4 80.2 139.4 80.7 139.4 82.4 L139.4 83.1 Q139.6 83.7 140.3 83.7 140.9 83.7 141.2 82.8 L141.3 81.7 M136.1 79.8 Q136.1 78.1 135.2 78.6 134.2 79.2 134.2 80.8 L134.2 81.6 134.8 81.7 Q135.3 81.7 135.7 80.9 L136.1 79.8 M145.2 94.2 L145.2 94.2 145.1 94.3 145.2 94.2 M127.7 108.8 Q129.4 111.3 131.1 112.5 134.2 115 138.9 115 141.6 115 143.8 113.8 143.4 117.2 143.8 118.3 L145.5 125.6 Q139.8 122.5 132.6 123.8 130.3 124.2 128.5 125 127.8 123.8 126 122 L122.8 118.8 122.7 118.6 122.1 118 127.7 108.8 M145.2 105.7 L144.9 105.4 145.4 105.2 145.2 105.7"/><path fill="#ff6666" stroke="none" d="M165.7 85.5 L165.1 100.2 Q165.1 105.2 167.6 114.2 L168.4 117.1 168.3 117.2 168.6 117.7 Q169.4 119 170.5 123.7 L171.2 126.9 Q173 135.7 172.8 139.5 L172.1 147.3 171.4 152.2 170.8 154.8 170.1 154.9 Q162.3 154.9 147.5 143.3 L137.8 135.4 136.7 134.6 135.2 132.6 134.4 131.4 Q133.9 130.8 133.1 130.6 L129.2 130.4 126.3 130.3 128.1 129.1 Q131.8 127 135.4 127 145.4 127 155.6 136.1 159.1 139.2 163.3 144.2 L164.4 145.4 164.6 145.3 164.4 143.8 165.2 144.7 Q163.4 140.7 158.8 136.1 154.5 131.7 149.4 128.4 L146.3 126 144.7 118.3 Q144.4 117.4 144.9 113 L147.3 110.5 Q150.2 106.7 150.2 101.7 150.2 99 149.5 96.9 L149.2 96.8 149.3 96.3 149.3 95.7 149.1 94.7 148.8 94.2 148.4 93 148.4 92.9 147.7 91.8 Q150.1 91.5 151.4 88.4 152.2 86.3 152.2 84.6 152.2 82.4 151.3 80.3 L149.3 75.7 148.2 73.3 147.8 72.7 147.7 72.5 Q147.1 71.5 146.2 70.9 145 69.7 142.7 70.1 141.7 70.2 141.2 70.5 140.4 69.7 139.1 69.5 L139 69.5 Q137.2 68.8 135.7 70 L134.5 70.9 135.4 69.5 Q141.6 61.1 150.9 61.1 L155.8 61.8 Q162.2 65.2 164.1 71.2 L164.8 74 165.1 77.3 165.2 78.9 165.1 80.9 Q165.1 81.3 165.5 81.8 L165.6 83.2 165.7 84.9 165.7 85.5 165.6 83.2 165.7 85.5 M172.7 153.8 L172.8 153.8 172.7 153.8 172.7 153.8 M167.8 163.4 L167.6 163.6 167.4 163.4 167.8 163.4 M94 106.9 L94.2 107.1 Q96.8 104 100.5 101.8 104.5 99.4 109.5 98 L114.7 96.7 114 96.5 114.8 96.5 114.7 96.7 115.7 97 117.3 97.5 118.5 98 Q120.8 98.8 122.7 101.1 L124.8 104.3 124.2 105 Q123.5 103.5 121.5 102.8 119.5 102 116.6 102 109.3 102 102.3 105.8 90.3 112.4 90.3 127.3 L90.5 129.4 90.3 129.6 90.2 129.3 90.1 128.8 90 128.4 90.2 120.5 Q90.4 115 91.8 111.5 L93.4 108.1 94 106.9 M126.8 107.5 L126.8 107.6 Q124 111.7 122.7 114.4 121.8 116.2 121.5 117.3 L119.6 115.3 120.2 114.1 124.8 105.5 125.1 104.8 126.5 107 126.8 107.6 126.8 107.5 M146 106 L145.7 106.4 145.8 106 146 106"/><path fill="#dfdfdf" stroke="none" d="M145.9 89.3 Q147.9 89.2 148.9 87.2 149.8 85.1 149.8 81.1 L149.7 79 150.6 81.2 150.7 81.8 151.1 84.8 150.8 87 150.6 87.7 Q149.4 90.7 147 90.7 L145.9 89.3 M130.2 104.7 L130.6 105.2 Q134.4 109.9 139.1 109.9 142.2 109.9 144.7 107.7 144.2 109.5 143.9 112 L143.8 113.8 Q141.6 115 138.9 115 134.2 115 131.1 112.5 129.4 111.3 127.7 108.8 L128.2 108 130.2 104.7"/><path fill="#ffdc31" stroke="none" d="M112.6 91.2 Q112.3 90.6 112.3 90 112.3 87.8 115.3 85.5 119.7 82.3 128 82.3 135.7 82.3 141.2 86.1 L138.7 85 Q134.6 83.7 128.8 83.7 L125.6 83.9 125.6 84 Q126 84 126.4 84.3 127 84.8 127 85.5 127 86.7 125.8 87.2 L123.1 87.5 120.4 87.2 Q120 86.4 120.6 85.8 L121.5 85 Q118.8 86 116.2 87.9 114.4 89.2 113 90.8 L112.6 91.2"/><path fill="#ffb409" stroke="none" d="M112.6 91.2 L113 90.8 Q114.4 89.2 116.2 87.9 118.8 86 121.5 85 L120.6 85.8 Q120 86.4 120.4 87.2 L123.1 87.5 125.8 87.2 Q127 86.7 127 85.5 127 84.8 126.4 84.3 126 84 125.6 84 L125.6 83.9 128.8 83.7 Q134.6 83.7 138.7 85 L141.2 86.1 143.5 88 143.7 88.2 143.5 89 Q142.8 90.5 141.2 92.1 L139.8 93.2 Q134.8 96.6 126.4 96.6 122 96.6 116.2 94.7 L116.2 94.8 115.8 94.6 115.8 94.5 Q113.2 92.9 112.6 91.2"/><path fill="#faa532" stroke="none" d="M143.7 88.2 L144.1 88.7 144.4 89 144.4 89.2 144.4 89.7 Q144.4 91 143.7 92.2 L141.2 92.2 141.2 92.5 143.2 92.9 Q141.8 94.7 138.8 96.2 L136 97.5 129.8 97.8 125 97.6 Q119.7 97 116.2 94.8 L116.2 94.7 Q122 96.6 126.4 96.6 134.8 96.6 139.8 93.2 L141.2 92.1 Q142.8 90.5 143.5 89 L143.7 88.2 M143.8 104.7 L142.8 104.8 Q139.5 104.8 136 101.4 L133.4 98.7 134.2 98.6 136.7 100.9 Q139.4 103.3 140.7 103.3 L141.8 103.2 142.7 103.8 143.8 104.7"/><path fill="#666666" stroke="none" d="M98 120 Q100.9 115.3 101 114.5 L102.4 114 Q107 112.6 109.5 112.6 L116.2 113.2 116.8 113.2 117.5 114.1 Q112.1 114.4 105.5 116.8 L103.8 117.5 Q100.5 118.8 98 120 M131.7 132.1 L133.3 132.4 Q133.8 132.7 134.2 133.4 L134.6 134.2 131.7 132.1 M151.1 153.8 L151.8 154.6 Q154.7 159.6 159.9 167.2 165.5 175.3 166.3 175.8 159.4 179.6 150.2 183.9 L151.9 178.3 Q153.7 171.3 153.7 166.9 153.7 160.1 151.1 153.8 M167.9 176 L167.9 175.9 Q175 180.2 190.1 186.8 199.7 191.1 204.5 192.8 L206.2 193.3 206.2 193.4 203.3 193.8 203.3 193.7 204.6 193.2 202.6 193.7 187.3 196.4 160.2 200.3 137.8 203.3 121.3 205.6 116.6 206.2 116.5 206.5 116.1 206.4 109.5 205.1 107.7 204.8 109.7 203.8 111.5 202.7 111.5 202.7 111.5 202.8 142.2 189 142.6 188.8 142.6 188.9 142.8 188.8 Q146.4 187 149.6 185.6 167.9 177 167.9 176 M122.5 204.8 L121.3 205.6 122.5 204.8"/><path fill="#cd3333" stroke="none" d="M167.6 163.6 Q170.9 169.4 178.1 175.8 L181.8 178.9 Q171.3 174.9 166.7 173.7 165.2 170.9 160.1 164.2 L154.7 157 Q162.2 163.2 167.4 163.4 L167.6 163.6 M125.8 98.6 L129.8 98.8 130.2 98.8 132 98.8 132.4 99.5 129.5 103.7 125.8 98.6 M121.3 108.9 Q120.2 110.6 119.5 112.1 117.8 111.3 112.3 111.5 L104.2 112.4 101 113.5 101 113.4 Q108.5 108.3 116.9 108.3 L119.5 108.7 121.3 108.9 M98.6 115.3 L99.8 114.8 96 121.2 91.7 127.6 Q93 120.2 98.6 115.3 M148 102 Q147.4 104 146 106 L145.8 106 Q145.9 105 146 105 L146.1 104.7 Q147.2 103.7 148 102 M142.6 142.6 Q151.7 151.2 159.6 155.9 165.7 159.4 169 159.7 L168.3 161.3 Q160.6 160.3 154.9 155.6 L150.2 151 148.9 149.5 146.1 146.5 142.6 142.6"/><path fill="#797979" stroke="none" d="M98 120 Q100.5 118.8 103.8 117.5 L105.5 116.8 Q112.1 114.4 117.5 114.1 L118.7 115.7 118.8 116 118.9 116 120.5 118.1 121.7 119.5 Q125.5 124.5 127.2 125.7 L126 126.5 Q124 127.9 123.5 129.4 L117.5 124.2 Q113.2 120.7 109.9 118.8 103.8 120.2 98 123.5 L94.2 126 98 120 M125 131.7 L125.7 131.8 128.4 132.1 131.4 132.1 131.7 132.1 134.6 134.2 134.8 134.7 136.4 136.9 137.8 139.1 Q138.8 140.9 141.4 143.7 L145.4 148 147.9 150.8 151.1 153.8 Q153.7 160.1 153.7 166.9 153.7 171.3 151.9 178.3 L150.2 183.9 144.2 186.8 Q148.9 179.9 148.9 171.7 148.9 158.3 136.8 143.6 133.1 138.9 128.6 134.8 L126 132.5 125 131.7 M110.9 201.9 L108.6 202.9 106.6 203.7 106 203.4 106 203.4 99.1 193.9 Q91 183.3 88.4 178.8 L79.3 163.8 Q75.3 157.2 74 155.8 L75.2 154.2 92.9 177.8 110.9 201.9 M128.1 209.2 L131.9 206.9 137.8 203.3 160.2 200.3 187.3 196.4 202.6 193.7 203.3 193.7 203.3 193.8 203.3 193.8 206.2 193.4 206.4 193.3 206.4 193.7 Q192.6 197.7 179.4 202.2 172.5 204.4 164.5 207.4 L159.4 208.3 Q146.3 210.4 135.3 211.3 L134.6 211.1 133.9 210.9 128.1 209.2"/><path fill="#999999" stroke="none" d="M123.5 129.4 L123.2 130.8 Q123.2 131.2 123.3 131.2 L123.8 131.2 123.9 131.2 124.4 131.5 125 131.7 126 132.5 128.6 134.8 Q133.1 138.9 136.8 143.6 148.9 158.3 148.9 171.7 148.9 179.9 144.2 186.8 L129.8 193.2 Q112.6 200.7 111 201.8 L110.9 201.9 92.9 177.8 75.2 154.2 90 132.4 90.8 131.2 91.3 130.4 94.2 126 98 123.5 Q103.8 120.2 109.9 118.8 113.2 120.7 117.5 124.2 L123.5 129.4 M142.8 188.8 L142.6 188.9 142.6 188.8 142.8 188.8 M116.5 206.5 L116.6 206.2 121.3 205.6 118.4 206.8 116.5 206.5 M206.4 193.7 L206.4 193.3 206.2 193.4 206.2 193.3 206.4 193.3 206.8 193.5 206.4 193.7 M203.3 193.8 L203.3 193.8 203.3 193.7 202.6 193.7 204.6 193.2 203.3 193.7 203.3 193.8"/><path fill="#f99108" stroke="none" d="M144.4 89 L144.7 89.3 146.3 91.3 146.4 91.5 Q147.7 93.2 148.3 95 L148.4 95 148.3 95.8 147.8 99.5 Q146.6 104 143.8 104.7 L142.7 103.8 141.8 103.2 Q143.6 102.6 144.6 100 145.3 98 145.3 96 L145.1 94.3 145.2 94.2 145.6 94.7 Q146.3 95.8 146.9 97.7 L147.1 96.8 Q147.1 95 146 93.7 145.1 92.6 143.7 92.2 144.4 91 144.4 89.7 L144.4 89.2 144.4 89 M143.2 92.9 Q144.1 93.2 144.7 93.7 L144.3 94 Q143.6 95 142.4 95.7 140 97 136 97.5 L138.8 96.2 Q141.8 94.7 143.2 92.9"/><path fill="#660000" stroke="none" d="M144.3 95.2 L144.2 96.5 Q142.7 96.5 141.2 98 139.6 99.6 139.6 100.8 139.6 101.6 139.8 102.2 138.7 101.8 137.2 100.1 L135.6 98.5 Q139.4 97.9 142.1 96.6 143.6 95.8 144.3 95.2"/><path fill="#a04545" stroke="none" d="M140.2 102.2 L140.2 102.1 140.2 102 Q139.9 100.6 140.8 99.4 141.8 97.8 144.1 97.3 L144.1 98.2 Q143.2 102.3 140.7 102.3 L140.6 102.3 140.2 102.3 140.2 102.2"/><path fill="#cdcdcd" stroke="none" d="M144.7 107.7 Q142.2 109.9 139.1 109.9 134.4 109.9 130.6 105.2 L130.2 104.7 132.8 100 135.7 102.5 Q139.9 105.8 142.8 105.8 L144.9 105.4 145.2 105.7 145.2 105.8 144.7 107.7"/><path fill="#323232" stroke="none" d="M118.8 114 L118.8 114.4 118.5 114 117.5 113.2 119.2 113.1 118.8 114 M187.4 181.1 L188.1 178 Q188.8 173.8 188.8 169.3 L194.5 178 Q198.4 183.8 200.4 186.1 L187.4 181.1"/><path fill="#b3b3b3" stroke="none" d="M167.3 175 L166.8 173.8 185.3 181.7 186.3 182.1 190.3 183.7 203.4 188.6 Q202.8 187.7 202.7 186.9 L202.5 186.9 195.2 177.4 Q191.1 171.8 188.8 167.9 L188.3 162.4 Q189.5 164.8 199.4 178.3 L207.3 190.1 209.2 192.8 208.9 192.9 208.7 192.8 187.2 183.8 Q173.7 178 167.3 175"/><path fill="#87886a" stroke="none" d="M128.1 209.2 L124 208.1 118.4 206.8 121.3 205.6 137.8 203.3 131.9 206.9 128.1 209.2 M135.3 211.3 Q146.3 210.4 159.4 208.3 L164.5 207.4 Q156.8 210.2 148.2 213.7 142.4 213.2 135.3 211.3"/><path fill="none" stroke="#000000" stroke-width="1" d="M115.3 208 L107.8 206.3 Q104.9 205.5 104 203.9 100 200.2 87.8 180.2 L77.8 163.4 73.4 155.7 73.4 155.6 73.1 155.3 74.3 153.2 84 138.8 88.5 132.2 88.7 132.1 89.5 130.9 89.3 130.4 89.2 129.6 Q89 129.2 88.9 128 L88.9 127.7 88.8 126.5 88.8 123.2 Q88.8 120.1 89.2 117.3 90 110.9 92.7 106.3 99 95.4 115 95.2 L115 95.2 113 93.5 111.9 92 Q111.3 91 111.3 90 111.3 86.9 114.4 84.8 118 82.3 125.7 81.3 125.5 80.7 127 77.3 129.2 72 134.2 65.5 139.1 59 149.1 58.7 L152.2 59.2 152.3 59.3 Q157.2 60.2 160.8 64 L162.2 65.7 163.2 67.2 Q166.2 71.5 166.2 75.7 L166.2 75.8 166.6 78.1 Q167 83.2 167 91 167 97.7 167.9 102 169.8 109.8 175.2 122 179.6 131.5 181.7 138.2 L182.7 141.3 182.8 142.2 182.9 142.3 Q184.6 145.6 186.5 153.7 L188.2 161.7 188.2 161.6 188.4 161.6 Q191.7 166.2 200.6 178 L211.6 193.1 210.2 194.1 210.1 193.9 Q208.4 195.2 202.4 196.8 L184.6 201.6 Q183.4 201.9 172.8 205.8 L165.1 208.7 Q148.3 214.9 147.8 214.9 L147.5 214.9 147.3 214.9 Q142.4 214.9 133.1 212.4 L130.9 211.8 130.6 211.7 126 210.3 122.5 209.4 115.3 208 M181.8 178.9 L186.4 180.7 186.9 178.5 Q187.7 174.6 187.8 169.9 187.8 165.3 186.3 158.1 L186.2 157.9 186.2 157.8 185.8 156.4 184.2 149.7 183.3 146.3 182.9 145 181.5 141.1 181.4 140.5 179.4 135.4 175.1 124.5 170.7 113.7 Q168.1 107.1 166.9 102.6 165.7 98.2 165.8 90.5 L165.7 85.5 165.6 83.2 M168.4 117.1 L168.7 117.1 Q172.2 124.7 173.1 129.9 173.8 134 173.8 141.8 173.8 147.2 172.7 153.8 M172.7 153.8 L171.7 158.2 Q170.8 161.2 169.6 162.3 169.3 163.4 167.8 163.4 M181.8 178.9 Q171.3 174.9 166.7 173.7 165.2 170.9 160.1 164.2 L154.7 157 Q162.2 163.2 167.4 163.4 M165.5 81.8 L165.6 83.2 M136.1 79.8 L135.7 80.9 Q135.3 81.7 134.8 81.7 L134.2 81.6 134.2 80.8 Q134.2 79.2 135.2 78.6 136.1 78.1 136.1 79.8 M141.3 81.7 L141.2 82.8 Q140.9 83.7 140.3 83.7 139.6 83.7 139.4 83.1 L139.4 82.4 Q139.4 80.7 140.4 80.2 141.3 79.8 141.3 81.7"/><path fill="none" stroke="#666666" stroke-width="1" d="M115.3 208 L113 208.8 M116.6 206.2 L121.3 205.6 122.5 204.8 M137.8 203.3 L121.3 205.6 118.4 206.8 115.3 208 M206.4 193.3 L206.2 193.4 203.3 193.8 203.3 193.8 203.3 193.7 202.6 193.7 187.3 196.4 160.2 200.3 137.8 203.3 M203.3 193.7 L204.6 193.2 202.6 193.7 M208.7 192.8 L206.4 193.3"/><path fill="#000000" stroke="none" d="M118.2 203.3 Q119.7 204.5 120.2 206.1 120.5 207.1 120 210.6 L119.8 211.1 119.7 211.1 119.5 211.9 Q118.5 214.7 114.8 218.7 L114.7 218.7 Q110.6 222.9 107 222.9 L105.2 222.7 Q102.8 221.9 101.8 220.3 100.3 219.7 99.6 218.3 98 217.7 97.8 214.3 L98 211 Q99.4 206.8 102.8 203.4 107.3 198.9 112.8 199.4 116 200.2 117.3 201.6 117.9 202.2 118.2 203.3 M118 206.8 Q117 204.7 113.5 205.7 110.2 206.6 107 209.1 104 211.6 102.8 214.9 102.3 216.6 102.5 217.8 102.8 220.3 105.5 221.2 L106.2 221.3 Q109.7 221.8 113.8 217.6 L114.2 217.2 Q116.5 214.6 118.2 211.5 119 208.9 118 206.8 M118.5 207 L118.8 207.3 118.7 206.8 Q118 203.8 115.2 202.9 109.5 201.2 104.5 206.8 101.3 210.2 100.3 213.2 100 214.4 100.9 216.6 L101.2 217 Q101.2 215.9 101.7 214.6 103.2 209.9 107 207.3 110.7 204.6 114.5 204.3 118.3 203.9 118.5 207 M138.1 222.8 Q138.6 221.6 139.5 220.2 141.2 217.9 144.8 215.8 149.2 213.1 151.6 214.8 L152.7 215.9 Q152.2 214.8 151.3 214.2 148.2 211.8 143.5 215.4 140.6 217.6 139 219.8 138.4 220.7 138 222.8 L138.1 222.9 138.1 222.8 M143.8 214.6 Q147.9 211.8 151.2 213.2 152.9 214.2 153.3 215.6 L153.4 217.1 Q153.9 218.2 153.8 219.4 L152.3 222.8 152.1 223.2 152 223.2 151.6 223.8 149.3 226.2 146.7 228.2 Q143.4 230.3 141.4 230.2 140.4 230.2 139.7 229.6 138.4 228.7 138.2 227.2 137.6 226.5 137.5 225.4 136.7 224.6 137.5 222.1 L138.6 219.6 Q140.7 216.6 143.8 214.6 M152.6 219.8 Q153.1 217.4 151.6 216.3 148.6 213.9 143.8 217.4 140.8 219.6 139.4 221.7 138.8 222.4 138.8 224.2 L138.8 224.7 139.8 222.9 Q142.2 219.6 145.2 218.2 148.3 216.8 150.8 217.2 153.2 217.6 152.4 219.9 L152.5 220.2 152.6 219.8 M149.8 218 Q147.4 218.2 144.8 219.6 142.2 220.9 140.5 223.3 L139.4 225.4 Q138.9 227.4 140.3 228.5 L141.2 228.9 Q143.2 229.4 146.8 226.8 L148.4 225.7 150.9 223.2 Q152.2 221.4 152.2 219.7 152.1 217.9 149.8 218 M143.5 226.2 L143.2 226.1 Q142.7 225.7 143.1 224.9 L143.5 224.2 Q144.4 222.9 146.6 222.7 148.7 222.4 147.6 223.9 L145.9 225.5 145.8 225.6 Q144.3 226.6 143.5 226.2 M99 215 Q99.1 213.3 99.7 211.5 100.8 208.2 104.8 204.5 110 199.9 114.3 201.2 L116.6 202.2 Q115.2 201.1 113.7 200.6 107.8 198.8 102.8 204.6 99.8 208 98.8 211.2 98.3 212.4 98.9 214.9 L99 215.2 99 215 M108 217.1 Q107.5 216.7 107.5 216.1 L107.8 215.1 Q108.5 213.2 111.5 212.2 114.3 211.2 113.7 213.5 113.3 214.4 111.9 215.9 L111.5 216.4 Q109.8 217.8 108.5 217.3 L108 217.1 M108.4 216 L108.7 216.2 Q109.8 216.6 111.2 215.1 L112.5 213.2 Q111.8 212.8 110.5 213.7 108.9 214.5 108.5 215.9 L108.4 216 M143.6 225.1 L143.8 225.3 Q144.2 225.8 145.6 224.8 L146.9 223.7 145.5 223.6 Q144.3 224 143.8 225 L143.6 225.1"/><path fill="#746a11" stroke="none" d="M118 206.8 Q119 208.9 118.2 211.5 116.5 214.6 114.2 217.2 L113.8 217.6 Q109.7 221.8 106.2 221.3 L105.5 221.2 Q102.8 220.3 102.5 217.8 102.3 216.6 102.8 214.9 104 211.6 107 209.1 110.2 206.6 113.5 205.7 117 204.7 118 206.8 M138 222.8 Q138.4 220.7 139 219.8 140.6 217.6 143.5 215.4 148.2 211.8 151.3 214.2 152.2 214.8 152.7 215.9 L151.6 214.8 Q149.2 213.1 144.8 215.8 141.2 217.9 139.5 220.2 138.6 221.6 138.1 222.8 L138 222.8 M149.8 218 Q152.1 217.9 152.2 219.7 152.2 221.4 150.9 223.2 L148.4 225.7 146.8 226.8 Q143.2 229.4 141.2 228.9 L140.3 228.5 Q138.9 227.4 139.4 225.4 L140.5 223.3 Q142.2 220.9 144.8 219.6 147.4 218.2 149.8 218 M148.1 225.6 L150.6 223.2 Q151.4 221.9 151.2 220.8 151 219.6 148.9 219.9 146.8 220.2 144.7 221.3 142.6 222.5 141.2 224.3 L140.3 225.9 Q139.8 227.4 140.9 228.2 L141.3 228.5 Q143.1 229.1 146.3 226.8 L148.1 225.6 M98.9 214.9 Q98.3 212.4 98.8 211.2 99.8 208 102.8 204.6 107.8 198.8 113.7 200.6 115.2 201.1 116.6 202.2 L114.3 201.2 Q110 199.9 104.8 204.5 100.8 208.2 99.7 211.5 99.1 213.3 99 215 L98.9 214.9 M113.4 217.3 L113.5 217.2 Q116.7 213.8 117.5 211.6 118 209.7 117.2 208.4 116.2 207.1 113.3 208.1 110.5 209.2 108 211.2 105.5 213.2 104.5 215.9 L104.1 218 Q104.1 219.9 106.1 220.6 L106.2 220.6 Q109.3 221.6 113.4 217.3 M108.4 216 L108.5 215.9 Q108.9 214.5 110.5 213.7 111.8 212.8 112.5 213.2 L111.2 215.1 Q109.8 216.6 108.7 216.2 L108.4 216 M143.6 225.1 L143.8 225 Q144.3 224 145.5 223.6 L146.9 223.7 145.6 224.8 Q144.2 225.8 143.8 225.3 L143.6 225.1"/><path fill="#4f4f00" stroke="none" d="M118.7 206.8 L118.5 207 Q118.3 203.9 114.5 204.3 110.7 204.6 107 207.3 103.2 209.9 101.7 214.6 101.2 215.9 101.2 217 L100.9 216.6 Q100 214.4 100.3 213.2 101.3 210.2 104.5 206.8 109.5 201.2 115.2 202.9 118 203.8 118.7 206.8 M152.4 219.9 Q153.2 217.6 150.8 217.2 148.3 216.8 145.2 218.2 142.2 219.6 139.8 222.9 L138.8 224.7 138.8 224.2 Q138.8 222.4 139.4 221.7 140.8 219.6 143.8 217.4 148.6 213.9 151.6 216.3 153.1 217.4 152.6 219.8 L152.4 219.9"/><path fill="#9d8f19" stroke="none" d="M141.3 228.5 L140.9 228.2 Q139.8 227.4 140.3 225.9 L141.2 224.3 Q142.6 222.5 144.7 221.3 146.8 220.2 148.9 219.9 151 219.6 151.2 220.8 151.4 221.9 150.6 223.2 L148.1 225.6 146.8 225.4 145.9 225.5 147.6 223.9 Q148.7 222.4 146.6 222.7 144.4 222.9 143.5 224.2 L143.1 224.9 Q142.7 225.7 143.2 226.1 L143.5 226.2 Q141.8 227.1 141.3 228.5 M106.1 220.6 Q104.1 219.9 104.1 218 L104.5 215.9 Q105.5 213.2 108 211.2 110.5 209.2 113.3 208.1 116.2 207.1 117.2 208.4 118 209.7 117.5 211.6 116.7 213.8 113.5 217.2 L113.4 217.3 Q112.5 216.6 111.5 216.4 L111.9 215.9 Q113.3 214.4 113.7 213.5 114.3 211.2 111.5 212.2 108.5 213.2 107.8 215.1 L107.5 216.1 Q107.5 216.7 108 217.1 L107.5 217.4 Q106.2 218.6 106.1 220.6"/><path fill="#cfbe21" stroke="none" d="M148.1 225.6 L146.3 226.8 Q143.1 229.1 141.3 228.5 141.8 227.1 143.5 226.2 144.3 226.6 145.8 225.6 L145.9 225.5 146.8 225.4 148.1 225.6 M113.4 217.3 Q109.3 221.6 106.2 220.6 L106.1 220.6 Q106.2 218.6 107.5 217.4 L108 217.1 108.5 217.3 Q109.8 217.8 111.5 216.4 112.5 216.6 113.4 217.3"/><path fill="#ffff33" stroke="none" d="M123.1 220.2 L123 220.3 Q122.4 220.2 120.5 220.8 L117.2 221.8 117.2 221.6 117.3 221.1 117.2 220.7 Q116.2 220.9 115 221.7 113 222.6 113 223.2 113 224.1 114.6 224.9 116.7 226.3 120.7 226.5 L121.4 226.4 121.7 226 121.5 225.5 Q121 225 118.2 224.1 L118.8 223.8 Q119.3 223.8 121.2 222.8 123.2 221.7 123.3 220.8 123.3 220.3 123.1 220.2 M119.3 218.8 Q121.5 218.4 125.7 216.8 129.6 215.4 131.7 215.1 L132.1 215.2 132.2 215.8 Q132.2 216.9 128.9 218.8 L123.7 221.6 Q124.1 221.9 125.8 222.6 L127.8 223.6 Q127.8 223.8 126.8 224.1 125.3 224.2 123.5 225.6 L124.7 227.1 Q125.6 228.2 125.6 228.8 125.6 229.4 125.2 229.6 L124.2 229.6 Q120.9 229.4 115 226.4 109.5 223.7 109.5 223.1 109.5 221.4 114.4 218.2 L120.8 214.3 121 214.8 119.1 216.7 Q117.9 217.9 117.6 218.8 L119.3 218.8 M124.3 214.2 Q124.8 213.8 126.2 213.2 127.8 212.5 128.7 212.7 125.5 214.8 124.4 214.5 L124.3 214.2 M128.6 217.3 L128.2 217.3 128.3 217.4 128.6 217.3 M165.2 232.2 L165.3 232.6 164.8 232.6 162.9 232.2 161.3 231.6 Q163.4 231.4 165.2 232.2 M159.2 224.6 Q158.4 225.9 156.9 226.3 L156.3 225.8 157.4 225.1 Q158.6 224.5 159.2 224.6 M155.3 225.6 L155.4 226.1 Q155.4 226.8 152.2 228.5 L154.2 229.6 156.2 230.8 155.9 231.2 154.4 231.8 157.9 233.6 Q159.9 234.7 159.9 235.6 L159.9 236.1 159.8 236.3 159.1 236.4 Q155.3 236.2 150.6 233.4 L151.1 234.5 153.3 239 153.2 239.2 Q151.3 237.8 149.9 235.6 L147.7 231.7 Q145.1 229.9 145.1 229.4 145.1 229.3 148.7 227.8 152.6 226.1 154.8 225.4 L155.3 225.6 M159.2 229.4 L158.6 229.8 157.8 229.8 156.5 229.6 156.4 228.8 156.9 228.8 159.1 229.3 159.2 229.4 M151.1 228.5 L150.9 228.6 148.8 229.3 Q147.9 229.6 147.9 230.3 L148.6 231.2 Q149.8 231.9 152.5 232.1 153.4 232.2 153.8 231.4 153.3 230.9 151.9 230.4 L150.6 229.9 150.9 229.8 151.2 229.1 151.1 228.5 M133.1 222.4 Q133.1 223.1 132 223.1 131.2 222.9 130.9 222.6 131.4 222.2 131.7 222.2 132.4 221.9 133.1 222.4 M131.8 229 Q130.4 228.9 129.6 228.5 128.8 228.1 128.7 227.6 L130.5 227.8 132.8 228.4 132.9 228.7 Q132.7 229.1 131.8 229"/><path fill="#ffcc33" stroke="none" d="M123.1 220.2 Q123.3 220.3 123.3 220.8 123.2 221.7 121.2 222.8 119.3 223.8 118.8 223.8 L118.2 224.1 Q121 225 121.5 225.5 L121.7 226 121.4 226.4 120.7 226.5 Q116.7 226.3 114.6 224.9 113 224.1 113 223.2 113 222.6 115 221.7 116.2 220.9 117.2 220.7 L117.3 221.1 117.2 221.6 117.2 221.8 120.5 220.8 Q122.4 220.2 123 220.3 L123.1 220.2 M151.1 228.5 L151.2 229.1 150.9 229.8 150.6 229.9 151.9 230.4 Q153.3 230.9 153.8 231.4 153.4 232.2 152.5 232.1 149.8 231.9 148.6 231.2 L147.9 230.3 Q147.9 229.6 148.8 229.3 L150.9 228.6 151.1 228.5"/></g></defs></svg>