<?xml version='1.0' encoding='UTF-8'?>
<svg xmlns="http://www.w3.org/2000/svg" xmlns:xlink="http://www.w3.org/1999/xlink"><defs><radialGradient gradientUnits="userSpaceOnUse" r="819.2" cx="0" cy="0" spreadMethod="pad" gradientTransform="matrix(-0,-0.1,0.3,-0,185.9,215.1)" id="gradient1"><stop offset="0.4" stop-color="#e7e8ef"/><stop offset="1" stop-color="#cdcfdf"/></radialGradient><g id="c1"><path fill="#d2e2ef" stroke="none" d="M267.1 43.4 Q271.4 48.8 285.5 52.2 L291.2 53.5 291.2 62.5 290.6 62.4 282.8 61 265.4 59.4 265.2 55.1 Q265.2 52.6 267.1 43.4 M291.2 100.2 L291.2 118 Q287.1 122.2 278.8 122.2 L269.5 122.2 Q261.9 122 259.9 120.8 259.9 119.8 257.7 115.8 255.7 111.8 254.6 110.5 L259.6 111.4 264.8 112 Q277.4 112 286 105.2 L291.2 100.2 M291.2 152.1 L291.2 158.8 Q274.4 154.8 261.4 155.7 L261.6 152.6 260.9 146.8 Q260.2 141.2 260.2 138.6 263.6 147.2 272.1 149.9 277.8 151.7 291.2 152.1 M91.2 156.1 L91.2 148.8 92.5 148.3 Q96.3 146.8 99 142.4 L99.8 148 Q100.2 150.8 102.7 157.3 L91.2 156.1 M91.2 100.3 L91.2 87.8 Q93 91.8 100.2 93.8 108.9 96.4 125.8 96.4 138.8 96.4 144 92.3 147 89.8 147 86.5 147 80.2 138.8 65.8 134.6 58.4 129.3 50.8 139.4 58.1 148.1 78.1 151.1 85.2 153.2 92.1 154.9 98.1 154.9 100 L154.7 105 148.8 103 Q144.6 101.5 140.8 101.5 140.4 101.5 137.3 104.5 133.6 108.2 126.7 110.7 124.3 111.6 118.2 113.1 111 115 105.5 115.9 L107.5 111.8 Q109.2 107.9 109.4 105.7 L91.2 100.3 M91.2 83 L91.2 71.5 Q99.3 69.5 106.8 63.4 119 53.6 119 40.9 L117.7 35.6 Q116 29.9 113.8 24.7 111.5 18.7 108.8 14.4 L112.8 14.4 115.3 17.6 Q124.5 29.7 124.5 41 124.5 62 121.5 66.5 120.4 68.2 117.7 69.7 113.9 71.5 112 73 105.7 78.1 93 82.5 L91.2 83 M114.7 14.4 L127.1 14.4 Q129 15.4 131.3 15.4 L142.2 14.4 162.1 14.4 Q134.4 24.1 124.3 28.2 119.7 22.4 115.9 16.4 L114.7 14.4 M170.2 14.4 L179.9 14.4 179.3 14.9 Q176.4 15.9 176.4 17.1 176.4 28.4 189.2 35.3 203.2 42.8 228.4 42.8 L238.6 42 253.2 41.2 Q255 41.2 256.6 39.8 258.1 38.2 259.6 34.9 260.6 32.5 263.6 28.4 266.6 23.9 268.8 22 273.9 17.2 276.2 14.4 L282.6 14.4 Q263.8 30.4 263.8 54.9 L264.1 58.3 248.4 54 Q239.2 51.4 234.4 51.4 230.1 51.4 227.5 52.5 224.6 53.9 224.6 56.8 L224.8 58.2 Q223.4 58 221.3 56.9 218.7 55.4 216.5 54.6 208.2 51.8 190.2 51.8 L181.2 52.4 179.9 44.1 Q179.4 41.6 178.2 39.5 176.4 36.4 163.2 17.1 L170.2 14.4 M126.3 44.6 Q129.7 45.9 138.8 52.5 148 59.3 149.1 61.5 156.4 58.1 161 55.4 169.7 50.1 169.7 43.6 169.7 37.5 165.9 31.5 160.8 23.1 159.9 20.6 159.7 19.4 160.3 19 L160.4 18.9 161.2 18.6 163.6 21.4 Q173.3 35.9 175.6 39.9 180.6 48.5 180.1 52.6 174.8 54.7 164.6 64.5 154 74.8 148.6 77.3 L138.3 57.3 138.8 57 137.2 55.8 134.4 52.9 Q131.8 50.6 130.3 49.8 L126.3 46.2 126.3 44.6 M230.8 76.5 Q231 85 229 92.3 L225.8 101.3 Q223.8 107.3 219.3 108.2 L216.1 108.1 213.8 107.8 191.4 109.8 Q182.9 111.3 180.2 116.8 177.2 111 170.6 108.7 166.6 107.3 156.2 105.3 157.1 103.2 157.1 100.8 157.1 96 153.1 86.8 151.2 82.1 149.1 78.2 151.4 77.1 162.6 67.7 L173.9 57.9 Q169.6 63.5 165.3 70.7 161.1 78 161.1 80 161.1 89.8 168.7 95.7 175.3 100.6 184.2 100.6 L199.2 99.7 Q211.5 98 218.4 94.5 221.7 92.8 225.4 87.2 228.8 82 230.8 76.5 M232.3 85.2 Q232.7 87.2 238 95.2 243.7 103.9 246.8 106.3 L238.9 105.3 225.4 106.3 Q227.2 103.5 229.3 97.5 231.8 90.3 232.3 85.2 M181.7 118.3 L182.6 117.5 182.6 117.6 Q182.6 118.8 180.7 122.3 178.7 125.8 178.7 132.6 178.7 141.7 185.6 145 192.8 148.4 212.6 148.4 234.3 148.4 242.7 144.2 255.4 137.9 255.4 118.2 255.4 116 254.7 113.5 258.5 119.1 258 122.2 L258.3 122.6 Q259.5 134 259.5 152.2 L259.4 155.2 244.9 151.8 238.9 151.9 232.5 151.7 212.9 153.5 185.4 155.2 175.5 155 174.9 146.7 Q174.9 127.2 181.7 118.3 M178.8 119.5 Q175.8 125.3 174.4 133.2 173.3 139.6 173.3 146.2 L173.9 152.8 149.8 152.4 143.2 152.8 Q136.5 153.5 130.5 154.8 L116.7 156.8 109 157.6 Q108 157.6 105.8 155.4 103.3 153 102.7 150.8 102.3 149.2 101.2 137.1 101.2 133.3 102.8 126.1 104 121.2 105 118.3 104.4 121.7 103.8 128.6 103.8 137.8 110 143.1 117.2 149.2 132 149.2 144.5 149.2 153.4 147.5 162.7 145.8 165.2 142.7 167.7 139.5 170.8 132.3 174 125.2 178.8 119.5"/><path fill="#fdfef9" stroke="none" d="M285 14.4 L291.2 14.4 291.2 53.5 285.5 52.2 Q271.4 48.8 267.1 43.4 268.2 31.4 280.5 18.7 282.8 16.3 285 14.4 M291.2 64.7 L291.2 100.2 286 105.2 Q277.4 112 264.8 112 L259.6 111.4 254.6 110.5 Q254.2 110.2 250.7 108.3 247.2 106.4 246.8 106.3 243.7 103.9 238 95.2 232.7 87.2 232.3 85.2 L232.8 77.7 Q232.8 71.1 229.3 65.4 225.8 59.8 225.8 59.1 225.8 56.5 227.6 54.9 229.7 52.9 234.2 52.9 237 52.9 242.2 54.2 246.5 55.4 255.4 58.3 262.3 60.5 273.6 62 L287.9 63.8 291.2 64.7 M291.2 120.8 L291.2 152.1 Q277.8 151.7 272.1 149.9 263.6 147.2 260.2 138.6 261.3 133.3 261.6 128.8 261.9 123 260.4 122.8 L281 124.2 Q286.8 124.2 289.2 122.5 L291.2 120.8 M91.2 148.8 L91.2 102 93.6 102.7 Q104.3 105.2 107.5 107.2 104.8 109.4 101.6 124.4 98.8 138.2 99 142.4 96.3 146.8 92.5 148.3 L91.2 148.8 M91.2 87.8 L91.2 84.8 108.2 77 Q115.8 73.4 119.3 70.5 123.3 67 125 62.1 126.5 57.4 126.2 49 L129.3 50.8 Q134.6 58.4 138.8 65.8 147 80.2 147 86.5 147 89.8 144 92.3 138.8 96.4 125.8 96.4 108.9 96.4 100.2 93.8 93 91.8 91.2 87.8 M91.2 71.5 L91.2 14.4 108.8 14.4 Q111.5 18.7 113.8 24.7 116 29.9 117.7 35.6 L119 40.9 Q119 53.6 106.8 63.4 99.3 69.5 91.2 71.5 M127.1 14.4 L142.2 14.4 131.3 15.4 Q129 15.4 127.1 14.4 M179.9 14.4 L276.2 14.4 Q273.9 17.2 268.8 22 266.6 23.9 263.6 28.4 260.6 32.5 259.6 34.9 258.1 38.2 256.6 39.8 255 41.2 253.2 41.2 L238.6 42 228.4 42.8 Q203.2 42.8 189.2 35.3 176.4 28.4 176.4 17.1 176.4 15.9 179.3 14.9 L179.9 14.4 M160.4 18.9 L160.3 19 Q159.7 19.4 159.9 20.6 160.8 23.1 165.9 31.5 169.7 37.5 169.7 43.6 169.7 50.1 161 55.4 156.4 58.1 149.1 61.5 148 59.3 138.8 52.5 129.7 45.9 126.3 44.6 127 41.2 126.1 35.6 L124.6 28.9 133.5 25.4 Q138.7 23.5 142.6 22.9 144.5 22.6 148 21.2 L153.7 19.1 Q157.7 17.9 160.4 18.9 M126.3 46.2 L130.3 49.8 Q128.7 49.8 127.5 48.7 126.3 47.6 126.3 46.2 M137.2 55.8 L138.8 57 138.3 57.3 137.2 55.8 M173.9 57.9 Q176.4 56.5 180.1 55.3 184.6 53.9 188.2 53.9 215.7 53.9 223.7 60 227.1 62.5 228.6 67.1 L230.8 76.5 Q228.8 82 225.4 87.2 221.7 92.8 218.4 94.5 211.5 98 199.2 99.7 L184.2 100.6 Q175.3 100.6 168.7 95.7 161.1 89.8 161.1 80 161.1 78 165.3 70.7 169.6 63.5 173.9 57.9 M254.7 113.5 Q255.4 116 255.4 118.2 255.4 137.9 242.7 144.2 234.3 148.4 212.6 148.4 192.8 148.4 185.6 145 178.7 141.7 178.7 132.6 178.7 125.8 180.7 122.3 182.6 118.8 182.6 117.6 L182.6 117.5 181.7 118.3 Q186.5 112.2 190.7 111.3 L200.3 111 213.8 109.8 223.8 108.8 239.6 107.2 Q244.2 107.2 248.6 109.3 252.2 111 254.7 113.5 M105 118.3 L112.5 117.9 Q119.5 116.6 126.2 113.7 129.4 112.3 136 107.9 L142.3 104 Q144.6 104 155 106.5 L167.2 109.5 Q170.2 110.2 174.1 112.5 179.4 115.8 178.8 119.5 174 125.2 170.8 132.3 167.7 139.5 165.2 142.7 162.7 145.8 153.4 147.5 144.5 149.2 132 149.2 117.2 149.2 110 143.1 103.8 137.8 103.8 128.6 104.4 121.7 105 118.3"/><path fill="#000000" stroke="none" d="M285 14.4 Q282.8 16.3 280.5 18.7 268.2 31.4 267.1 43.4 265.2 52.6 265.2 55.1 L265.4 59.4 282.8 61 290.6 62.4 291.2 62.5 291.2 64.7 287.9 63.8 273.6 62 Q262.3 60.5 255.4 58.3 246.5 55.4 242.2 54.2 237 52.9 234.2 52.9 229.7 52.9 227.6 54.9 225.8 56.5 225.8 59.1 225.8 59.8 229.3 65.4 232.8 71.1 232.8 77.7 L232.3 85.2 Q231.8 90.3 229.3 97.5 227.2 103.5 225.4 106.3 L238.9 105.3 246.8 106.3 Q247.2 106.4 250.7 108.3 254.2 110.2 254.6 110.5 255.7 111.8 257.7 115.8 259.9 119.8 259.9 120.8 261.9 122 269.5 122.2 L278.8 122.2 Q287.1 122.2 291.2 118 L291.2 120.8 289.2 122.5 Q286.8 124.2 281 124.2 L260.4 122.8 Q261.9 123 261.6 128.8 261.3 133.3 260.2 138.6 260.2 141.2 260.9 146.8 L261.6 152.6 261.4 155.7 Q274.4 154.8 291.2 158.8 L291.2 161.7 249.8 154.1 234.6 153.5 222.1 154.1 185.8 157.2 169.3 155.9 150.2 154.6 Q140.7 154.6 124.6 157.1 L109.2 159.7 91.2 157.8 91.2 156.1 102.7 157.3 Q100.2 150.8 99.8 148 L99 142.4 Q98.8 138.2 101.6 124.4 104.8 109.4 107.5 107.2 104.3 105.2 93.6 102.7 L91.2 102 91.2 100.3 109.4 105.7 Q109.2 107.9 107.5 111.8 L105.5 115.9 Q111 115 118.2 113.1 124.3 111.6 126.7 110.7 133.6 108.2 137.3 104.5 140.4 101.5 140.8 101.5 144.6 101.5 148.8 103 L154.7 105 154.9 100 Q154.9 98.1 153.2 92.1 151.1 85.2 148.1 78.1 139.4 58.1 129.3 50.8 L126.2 49 Q126.5 57.4 125 62.1 123.3 67 119.3 70.5 115.8 73.4 108.2 77 L91.2 84.8 91.2 83 93 82.5 Q105.7 78.1 112 73 113.9 71.5 117.7 69.7 120.4 68.2 121.5 66.5 124.5 62 124.5 41 124.5 29.7 115.3 17.6 L112.8 14.4 114.7 14.4 115.9 16.4 Q119.7 22.4 124.3 28.2 134.4 24.1 162.1 14.4 L170.2 14.4 163.2 17.1 Q176.4 36.4 178.2 39.5 179.4 41.6 179.9 44.1 L181.2 52.4 190.2 51.8 Q208.2 51.8 216.5 54.6 218.7 55.4 221.3 56.9 223.4 58 224.8 58.2 L224.6 56.8 Q224.6 53.9 227.5 52.5 230.1 51.4 234.4 51.4 239.2 51.4 248.4 54 L264.1 58.3 263.8 54.9 Q263.8 30.4 282.6 14.4 L285 14.4 M160.4 18.9 Q157.7 17.9 153.7 19.1 L148 21.2 Q144.5 22.6 142.6 22.9 138.7 23.5 133.5 25.4 L124.6 28.9 126.1 35.6 Q127 41.2 126.3 44.6 L126.3 46.2 Q126.3 47.6 127.5 48.7 128.7 49.8 130.3 49.8 131.8 50.6 134.4 52.9 L137.2 55.8 138.3 57.3 148.6 77.3 Q154 74.8 164.6 64.5 174.8 54.7 180.1 52.6 180.6 48.5 175.6 39.9 173.3 35.9 163.6 21.4 L161.2 18.6 160.4 18.9 M230.8 76.5 L228.6 67.1 Q227.1 62.5 223.7 60 215.7 53.9 188.2 53.9 184.6 53.9 180.1 55.3 176.4 56.5 173.9 57.9 L162.6 67.7 Q151.4 77.1 149.1 78.2 151.2 82.1 153.1 86.8 157.1 96 157.1 100.8 157.1 103.2 156.2 105.3 166.6 107.3 170.6 108.7 177.2 111 180.2 116.8 182.9 111.3 191.4 109.8 L213.8 107.8 216.1 108.1 219.3 108.2 Q223.8 107.3 225.8 101.3 L229 92.3 Q231 85 230.8 76.5 M181.7 118.3 Q174.9 127.2 174.9 146.7 L175.5 155 185.4 155.2 212.9 153.5 232.5 151.7 238.9 151.9 244.9 151.8 259.4 155.2 259.5 152.2 Q259.5 134 258.3 122.6 L258 122.2 Q258.5 119.1 254.7 113.5 252.2 111 248.6 109.3 244.2 107.2 239.6 107.2 L223.8 108.8 213.8 109.8 200.3 111 190.7 111.3 Q186.5 112.2 181.7 118.3 M178.8 119.5 Q179.4 115.8 174.1 112.5 170.2 110.2 167.2 109.5 L155 106.5 Q144.6 104 142.3 104 L136 107.9 Q129.4 112.3 126.2 113.7 119.5 116.6 112.5 117.9 L105 118.3 Q104 121.2 102.8 126.1 101.2 133.3 101.2 137.1 102.3 149.2 102.7 150.8 103.3 153 105.8 155.4 108 157.6 109 157.6 L116.7 156.8 130.5 154.8 Q136.5 153.5 143.2 152.8 L149.8 152.4 173.9 152.8 173.3 146.2 Q173.3 139.6 174.4 133.2 175.8 125.3 178.8 119.5"/><path stroke="none" fill="url(#gradient1)" d="M291.2 161.7 L291.2 240.9 91.2 240.9 91.2 157.8 109.2 159.7 124.6 157.1 Q140.7 154.6 150.2 154.6 L169.3 155.9 185.8 157.2 222.1 154.1 234.6 153.5 249.8 154.1 291.2 161.7"/></g><g id="c3"><path fill="#cdcdcd" stroke="none" d="M-4.9 -85 L-8.4 -85.2 Q-8.7 -90.7 -6.8 -95.8 -5.6 -99.2 -3.4 -102.2 -0.8 -105.7 3 -107.7 4.8 -108.5 6.6 -107.2 L7.3 -106.5 Q8.2 -105 8.7 -103.3 L9.4 -100.3 Q9.8 -97.8 12.2 -97.2 18 -95.7 23.2 -93.1 L29.4 -89.9 Q31.6 -83.6 30.2 -77 29.8 -74.5 28.1 -72.7 27.2 -71.7 25.9 -71 L21.9 -70.7 20.6 -72.5 Q24.2 -72.8 26.4 -75.2 28.6 -77.7 28.7 -80.1 L28.6 -85.6 Q28.5 -88.7 25.9 -91.5 22.1 -93.5 19.4 -94.2 L13.3 -95.8 Q7.8 -97.5 7.8 -97.7 L7.7 -103 Q7.1 -106.8 5 -106.8 0.9 -106.8 -2.5 -101 -5.9 -95.1 -6 -91.6 -6 -88.2 -5.6 -86.8 L-4.9 -85 M-12.3 -40 Q-10.9 -38.7 -10.9 -37 -10.9 -34.1 -15.8 -32.5 L-12.3 -40"/><path fill="#ffffff" stroke="none" d="M-4.9 -85 L-5.6 -86.8 Q-6 -88.2 -6 -91.6 -5.9 -95.1 -2.5 -101 0.9 -106.8 5 -106.8 7.1 -106.8 7.7 -103 L7.8 -97.7 Q7.8 -97.5 13.3 -95.8 L19.4 -94.2 Q22.1 -93.5 25.9 -91.5 28.5 -88.7 28.6 -85.6 L28.7 -80.1 Q28.6 -77.7 26.4 -75.2 24.2 -72.8 20.6 -72.5 L18.9 -74.6 Q20.1 -78.8 17.9 -82.2 17.2 -83.3 16.1 -84 14.6 -84.7 13.8 -83.5 12.6 -81.5 12.8 -79.3 L8.3 -81.8 Q8.2 -83.8 7.5 -85.5 6.9 -86.8 5.8 -87.7 5.3 -88.1 4.7 -88.1 L3.8 -88 Q1.9 -86.4 2.2 -83.8 L-4.9 -85 M-16.4 -31.4 L-16.3 -30.4 -16.9 -30.4 -16.4 -31.4 M-15.1 -25.9 Q-14.3 -23.6 -13.2 -21.6 -11.8 -19.4 -10.2 -17.8 L-15.1 -17.8 -15.1 -25.9 M12.4 -17.8 L15.3 -20.4 15.6 -17.8 12.4 -17.8"/><path fill="#ffdc31" stroke="none" d="M48.1 98.5 L48.1 96.1 Q56.4 94 63.7 90.2 66.3 88.7 67.7 86.2 68.8 84.5 67.3 83 63.5 78.9 58.5 76.7 L59.8 77.1 Q68 79.3 73.2 85.8 73 86.5 71.7 87.5 L69.4 89.2 69.2 89.2 Q60.3 95.7 49.6 98.2 L48.1 98.5 M22.9 -66.5 Q20.4 -70.5 16.8 -73 L18.2 -72.8 Q21.1 -71.2 22.9 -68.2 24.1 -66.1 24.7 -63.5 25.2 -61.4 24.9 -59.2 24.9 -62.9 22.9 -66.5 M18.2 -73.2 Q13.6 -76.3 8.5 -78.5 -0.1 -82.2 -9.4 -82.2 -19.9 -82.2 -27.5 -75.2 L-29.9 -72.3 -30 -72.3 Q-29.1 -75 -27.2 -77.2 -24.2 -80.6 -19.8 -82.3 -15.4 -84 -8 -83.8 3 -83.5 12.2 -78.1 17 -75.2 19.4 -72.6 L18.2 -73.2"/><path fill="#000000" stroke="none" d="M-13.8 -84.8 L-9.8 -84.8 Q-9.8 -89.5 -8.8 -93.8 -7.2 -100 -3 -104.5 -0.5 -107.3 3 -108.7 6 -109.7 7.9 -107.4 9.5 -105.5 9.7 -103.1 L11.1 -105.6 Q11.3 -105.3 11.2 -104.8 10.3 -102.7 10.2 -100.2 10.2 -99.2 11.4 -98.7 L15.3 -97.5 Q21.6 -95.2 27.4 -92 29 -91.2 30.4 -90.2 L32.2 -88.5 32.4 -88.1 30.2 -89.2 Q31.6 -85.6 31.7 -81.7 31.7 -78.8 31.1 -75.7 30.4 -72.5 27.6 -70.8 L29.7 -69.8 22.4 -70.1 Q24.4 -68 25.4 -64.8 26.9 -59.8 24.4 -54.9 L24.2 -54.6 Q22.4 -51 19 -49 L16.3 -47.5 16 -21.1 16.3 -17.8 15.6 -17.8 15.3 -20.4 15.7 -47.3 Q12 -45.8 7.9 -45.4 -1.2 -44 -9.9 -47.1 L-12.3 -40 -15.8 -32.5 -16.4 -31.4 -16.9 -30.4 -17.9 -30.4 -17.4 -31.2 -16.6 -32.6 -13 -40.6 -10.5 -47.3 -14.6 -49.1 -16.6 -46.9 Q-17.7 -46 -19.2 -45.5 -20.9 -44.8 -23.6 -44.2 L-27.1 -43.5 -31.8 -34.6 -30.9 -30.4 -32.6 -30.4 Q-33.7 -36.5 -34 -42.8 L-39.4 -44 Q-34.4 -43.5 -29.5 -44.1 -24 -44.9 -19 -47 L-17.1 -48.1 Q-15.2 -49.4 -15.4 -51.4 -15.7 -52.3 -16.7 -53.3 -21.3 -58 -30.5 -57.6 L-37.8 -56.8 Q-41.6 -56 -44.6 -54.2 -50.9 -50.6 -55.5 -43.3 -58.9 -38 -61.5 -30.4 L-62.9 -30.4 Q-60.9 -36 -58 -41.1 L-56.4 -44 Q-51.1 -52.9 -41.6 -56.8 -38.9 -58 -36 -58.5 L-29.6 -59 Q-31.6 -61.6 -31.8 -65 L-31.9 -68.8 Q-31.9 -73.1 -29.2 -76.8 -26.8 -80.3 -22.9 -82.3 -19.4 -84.2 -15.2 -84.8 L-14.1 -92 Q-12.1 -101.2 -7.2 -109.2 -3.6 -115 1.7 -119.2 5 -121.6 8.4 -123.2 19.6 -128.1 31.1 -123.9 41.2 -120.2 46.7 -110.8 49.8 -105.5 50.9 -99.5 52 -93.5 51.8 -87.5 51.2 -76.7 50 -65.9 L49.1 -58.4 Q48.8 -55.1 49.6 -52 L50.3 -50.2 51.5 -48.4 56.5 -41.8 64.5 -31.4 Q68.2 -26.8 71 -21.9 L73.4 -17.4 75.9 -11.9 Q77.8 -6.5 77.8 -0.9 77.7 2.9 76.3 6.4 73.7 13.4 67.3 17.6 70.3 30.1 68.7 42.6 L67.5 49.5 Q65.3 60.2 58.4 68.5 L53.3 73.5 53.5 73.7 53.8 73.8 Q57.5 74.7 61.2 75.8 69.2 78.2 74.3 84.9 76.3 87.4 77.2 90.4 78.7 95.5 77.8 100.6 L76.7 104.5 75 108 73.2 110.7 Q71 113.3 67.9 115 L65 116.7 65 115 69.5 111.9 72.6 109 Q77.4 102.7 76.7 94.7 76.2 89.8 73.2 85.8 68 79.3 59.8 77.1 L58.5 76.7 54.9 75.4 51.8 74.4 44.9 79.2 42.2 79.2 Q49 75.5 54.2 70.3 63.1 61.5 66 48.4 67.5 40.9 67.5 33.2 67.5 26.4 66.2 19.9 L65.9 18.4 Q58 23.2 48.9 24.4 L33.4 25.1 33.4 24.1 42.9 24.1 Q49 23.8 54.9 22.2 65 19.9 71.5 11.7 75.1 7.1 76 1.4 76.8 -3.2 75.5 -8 73.5 -15.1 69.8 -21.3 65.2 -28.4 59.9 -35.2 L53.8 -43.1 49 -49.6 Q47.1 -52.7 47.5 -56.4 L47.7 -58.4 49.5 -74.8 Q50.6 -84.1 50.2 -93.5 50 -97.7 49 -101.8 47.7 -107 44.6 -111.4 39 -119.7 29.4 -123 24.1 -124.8 18.4 -124.2 12.6 -123.8 7.5 -121.1 -1.6 -116.3 -6.8 -107.2 -12.2 -97.7 -13.8 -86.8 -14 -85.5 -13.8 -84.8 M33.4 -4 Q35.5 -5 37.5 -6.3 35.7 -18.3 32.7 -29.8 35.3 -23.8 36.5 -17.4 L38.5 -6.7 46.9 -11.4 Q49.3 -12.8 52 -13.2 L49.8 -12.1 41.8 -7.3 Q37.8 -4.8 33.4 -3 L33.4 -4 M48.1 99.5 L48.1 98.5 49.6 98.2 Q60.3 95.7 69.2 89.2 L69.4 89.2 Q61.8 95.6 52 98.4 L48.1 99.5 M20.6 -72.5 L21.9 -70.7 25.9 -71 Q27.2 -71.7 28.1 -72.7 29.8 -74.5 30.2 -77 31.6 -83.6 29.4 -89.9 L23.2 -93.1 Q18 -95.7 12.2 -97.2 9.8 -97.8 9.4 -100.3 L8.7 -103.3 Q8.2 -105 7.3 -106.5 L6.6 -107.2 Q4.8 -108.5 3 -107.7 -0.8 -105.7 -3.4 -102.2 -5.6 -99.2 -6.8 -95.8 -8.7 -90.7 -8.4 -85.2 L-4.9 -85 2.2 -83.8 Q1.9 -86.4 3.8 -88 L4.7 -88.1 Q5.3 -88.1 5.8 -87.7 6.9 -86.8 7.5 -85.5 8.2 -83.8 8.3 -81.8 L12.8 -79.3 Q12.6 -81.5 13.8 -83.5 14.6 -84.7 16.1 -84 17.2 -83.3 17.9 -82.2 20.1 -78.8 18.9 -74.6 L20.6 -72.5 M3.3 -87 L2.9 -85.2 2.8 -83.7 7.8 -81.8 Q7.6 -84.7 6.1 -86.8 5.4 -87.9 4.2 -87.9 3.5 -87.8 3.3 -87 M13.8 -82.5 L13.3 -79.1 18.4 -74.8 Q19.7 -79 17.2 -82.7 16.4 -83.8 14.9 -83.7 L13.8 -82.5 M24.9 -59.2 Q25.2 -61.4 24.7 -63.5 24.1 -66.1 22.9 -68.2 21.1 -71.2 18.2 -72.8 L18.2 -73.2 19.4 -72.6 Q17 -75.2 12.2 -78.1 3 -83.5 -8 -83.8 -15.4 -84 -19.8 -82.3 -24.2 -80.6 -27.2 -77.2 -29.1 -75 -30 -72.3 -31.9 -65.9 -28.8 -60.1 L-28 -58.7 Q-24.4 -58.6 -21.1 -57.4 -17.1 -56 -14.8 -52.8 -13.9 -51.5 -14.2 -50 -7.3 -46.6 0.3 -46.2 8.3 -45.6 15.8 -48.5 L16 -48.8 Q18 -49.5 19.5 -50.8 L21.2 -52.1 Q24.4 -55 24.9 -59.2 M11.7 -59.1 L10.6 -59.7 10.6 -59.8 Q13.1 -60.2 15.2 -59 17.1 -58 17.2 -57 17.2 -56.8 14.8 -58 L13.5 -58.3 Q9.2 -55.2 4.2 -54 L1.1 -54.1 -1.7 -55.6 0.6 -55 Q3.5 -54.5 6.2 -55.5 9.3 -56.9 12.4 -58.9 L11.7 -59.1 M-33 -42.8 L-32.1 -36.4 -28.6 -43 -33 -42.8"/><path fill="#0099cc" stroke="none" d="M-13.8 -84.8 Q-11.7 -96.5 -5.3 -106.8 -2.1 -111.8 2.5 -115.4 8.1 -119.8 14.9 -121.3 14.6 -120.5 14.6 -119.5 14.4 -117.9 16.3 -117.3 19.6 -116.5 22.6 -117.9 25.3 -119.3 24.3 -121.9 28.7 -121.5 32.9 -119.7 38.2 -117.2 41.6 -112.5 47.5 -104.5 48.9 -94.7 50.4 -84.8 49.5 -74.8 L47.7 -58.4 41.5 -50.6 49 -49.6 53.8 -43.1 59.9 -35.2 Q65.2 -28.4 69.8 -21.3 72.2 -14.7 73.5 -7.8 L74 -4.8 Q74.2 0 72 4.4 69.4 9.5 64.7 12.8 L61.4 14.6 Q57.5 16.5 53.2 17.6 43.5 20.2 33.4 20.9 L33.4 -1.8 35.8 -3.1 Q43.1 -7.5 49.8 -12.1 L52 -13.2 Q49.3 -12.8 46.9 -11.4 L38.5 -6.7 36.5 -17.4 Q35.3 -23.8 32.7 -29.8 35.7 -18.3 37.5 -6.3 35.5 -5 33.4 -4 L33.4 -5.2 20.8 -5.2 20.8 -17.8 16.3 -17.8 16 -21.1 Q20.8 -26.9 22.9 -34.1 25.9 -44.1 24.2 -54.6 L24.4 -54.9 Q26.9 -59.8 25.4 -64.8 24.4 -68 22.4 -70.1 L29.7 -69.8 27.6 -70.8 Q30.4 -72.5 31.1 -75.7 31.7 -78.8 31.7 -81.7 31.6 -85.6 30.2 -89.2 L32.4 -88.1 32.2 -88.5 30.4 -90.2 Q29 -91.2 27.4 -92 21.6 -95.2 15.3 -97.5 L11.4 -98.7 Q10.2 -99.2 10.2 -100.2 10.3 -102.7 11.2 -104.8 11.3 -105.3 11.1 -105.6 L9.7 -103.1 Q9.5 -105.5 7.9 -107.4 6 -109.7 3 -108.7 -0.5 -107.3 -3 -104.5 -7.2 -100 -8.8 -93.8 -9.8 -89.5 -9.8 -84.8 L-13.8 -84.8 M33.4 48.2 L33.4 35.5 Q39.5 34.9 45 33.4 41.8 39 37.2 44.2 L33.4 48.2 M-61.4 -30.4 Q-56.8 -39.2 -50.5 -47.2 L-49.3 -48.6 Q-45.2 -52.8 -39.8 -54.6 -32.6 -57 -25.2 -55.9 -21.7 -55.5 -18.8 -53.9 L-16.9 -52.7 Q-15.9 -52.1 -15.5 -51.1 -16.9 -47.7 -28.4 -46.4 L-28.8 -46.4 -38.2 -46.5 Q-43.1 -46.5 -43.1 -44 -43.1 -40.5 -40.8 -36.5 -39 -33.5 -36.1 -30.4 L-61.4 -30.4 M-23.6 -44.2 Q-20.9 -44.8 -19.2 -45.5 -17.7 -46 -16.6 -46.9 L-17 -42.6 Q-19.6 -43.5 -23.6 -44.2 M-17.4 -31.2 L-17.9 -30.4 -22.4 -30.4 -17.4 -31.2"/><path fill="#27c0f3" stroke="none" d="M49.5 -74.8 Q50.4 -84.8 48.9 -94.7 47.5 -104.5 41.6 -112.5 38.2 -117.2 32.9 -119.7 28.7 -121.5 24.3 -121.9 25.3 -119.3 22.6 -117.9 19.6 -116.5 16.3 -117.3 14.4 -117.9 14.6 -119.5 14.6 -120.5 14.9 -121.3 8.1 -119.8 2.5 -115.4 -2.1 -111.8 -5.3 -106.8 -11.7 -96.5 -13.8 -84.8 -14 -85.5 -13.8 -86.8 -12.2 -97.7 -6.8 -107.2 -1.6 -116.3 7.5 -121.1 12.6 -123.8 18.4 -124.2 24.1 -124.8 29.4 -123 39 -119.7 44.6 -111.4 47.7 -107 49 -101.8 50 -97.7 50.2 -93.5 50.6 -84.1 49.5 -74.8 M49.8 -12.1 Q43.1 -7.5 35.8 -3.1 L33.4 -1.8 33.4 -3 Q37.8 -4.8 41.8 -7.3 L49.8 -12.1 M-61.5 -30.4 Q-58.9 -38 -55.5 -43.3 -50.9 -50.6 -44.6 -54.2 -41.6 -56 -37.8 -56.8 L-30.5 -57.6 Q-21.3 -58 -16.7 -53.3 -15.7 -52.3 -15.4 -51.4 L-15.5 -51.1 Q-15.9 -52.1 -16.9 -52.7 L-18.8 -53.9 Q-21.7 -55.5 -25.2 -55.9 -32.6 -57 -39.8 -54.6 -45.2 -52.8 -49.3 -48.6 L-50.5 -47.2 Q-56.8 -39.2 -61.4 -30.4 L-61.5 -30.4"/><path fill="#f99108" stroke="none" d="M65 115 L65 105.5 48.1 105.5 48.1 101.8 Q55.1 100 61.8 97 64.3 95.8 66.8 94.3 69.7 92.6 72.7 91.6 L73.1 91.8 74.3 95.1 Q75.2 98 74.7 101.2 74.1 105.2 72.6 109 L69.5 111.9 65 115 M48.1 86.5 L48.1 79.2 44.9 79.2 51.8 74.4 54.9 75.4 Q56.4 77.9 55 80.7 53.2 83.8 50.1 85.5 49.1 86 48.1 86.5 M22.9 -66.5 Q24.9 -62.9 24.9 -59.2 24.4 -55 21.2 -52.1 L19.5 -50.8 Q18 -49.5 16 -48.8 L15.8 -48.5 Q8.3 -45.6 0.3 -46.2 -7.3 -46.6 -14.2 -50 -13.9 -51.5 -14.8 -52.8 -17.1 -56 -21.1 -57.4 -24.4 -58.6 -28 -58.7 L-28.8 -60.1 Q-31.9 -65.9 -30 -72.3 L-29.9 -72.3 Q-29.1 -73.2 -27.9 -73.2 -26.4 -73.2 -24.8 -70.5 -21.2 -64 -12.7 -59.6 -4.8 -55.6 1.8 -55.6 5.1 -55.6 7.8 -56.6 10.2 -57.5 11.7 -59.1 L12.4 -58.9 Q9.3 -56.9 6.2 -55.5 3.5 -54.5 0.6 -55 L-1.7 -55.6 1.1 -54.1 Q1.6 -53.6 3 -53.2 L5.5 -52.8 Q8.1 -52.8 10.8 -54.4 13.6 -55.9 14.8 -58 17.2 -56.8 17.2 -57 17.1 -58 15.2 -59 L15.9 -59 Q19.9 -59 21.6 -62.2 22.8 -64.2 22.9 -66.5"/><path fill="#ffb409" stroke="none" d="M48.1 101.8 L48.1 99.5 52 98.4 Q61.8 95.6 69.4 89.2 L71.7 87.5 Q73 86.5 73.2 85.8 76.2 89.8 76.7 94.7 77.4 102.7 72.6 109 74.1 105.2 74.7 101.2 75.2 98 74.3 95.1 L73.1 91.8 72.7 91.6 Q69.7 92.6 66.8 94.3 64.3 95.8 61.8 97 55.1 100 48.1 101.8 M48.1 96.1 L48.1 86.5 Q49.1 86 50.1 85.5 53.2 83.8 55 80.7 56.4 77.9 54.9 75.4 L58.5 76.7 Q63.5 78.9 67.3 83 68.8 84.5 67.7 86.2 66.3 88.7 63.7 90.2 56.4 94 48.1 96.1 M18.2 -72.8 L16.8 -73 Q20.4 -70.5 22.9 -66.5 22.8 -64.2 21.6 -62.2 19.9 -59 15.9 -59 L15.2 -59 Q13.1 -60.2 10.6 -59.8 L10.6 -59.7 11.7 -59.1 Q10.2 -57.5 7.8 -56.6 5.1 -55.6 1.8 -55.6 -4.8 -55.6 -12.7 -59.6 -21.2 -64 -24.8 -70.5 -26.4 -73.2 -27.9 -73.2 -29.1 -73.2 -29.9 -72.3 L-27.5 -75.2 Q-19.9 -82.2 -9.4 -82.2 -0.1 -82.2 8.5 -78.5 13.6 -76.3 18.2 -73.2 L18.2 -72.8"/><path fill="#0078ab" stroke="none" d="M24.2 -54.6 Q25.9 -44.1 22.9 -34.1 20.8 -26.9 16 -21.1 L16.3 -47.5 19 -49 Q22.4 -51 24.2 -54.6 M33.4 20.9 Q43.5 20.2 53.2 17.6 57.5 16.5 61.4 14.6 L64.7 12.8 Q69.4 9.5 72 4.4 74.2 0 74 -4.8 L73.5 -7.8 Q72.2 -14.7 69.8 -21.3 73.5 -15.1 75.5 -8 76.8 -3.2 76 1.4 75.1 7.1 71.5 11.7 65 19.9 54.9 22.2 49 23.8 42.9 24.1 L33.4 24.1 33.4 20.9 M49 -49.6 L41.5 -50.6 47.7 -58.4 47.5 -56.4 Q47.1 -52.7 49 -49.6 M42.2 79.2 L33.4 79.2 33.4 48.2 37.2 44.2 Q41.8 39 45 33.4 39.5 34.9 33.4 35.5 L33.4 25.1 48.9 24.4 Q48.2 26.7 46.6 30.1 L45 33.4 45.5 33.2 Q59.9 29.2 66.2 19.9 67.5 26.4 67.5 33.2 67.5 40.9 66 48.4 63.1 61.5 54.2 70.3 49 75.5 42.2 79.2 M-15.5 -51.1 L-15.4 -51.4 Q-15.2 -49.4 -17.1 -48.1 L-19 -47 Q-24 -44.9 -29.5 -44.1 -34.4 -43.5 -39.4 -44 L-34 -42.8 Q-33.7 -36.5 -32.6 -30.4 L-36.1 -30.4 Q-39 -33.5 -40.8 -36.5 -43.1 -40.5 -43.1 -44 -43.1 -46.5 -38.2 -46.5 L-28.8 -46.4 -28.4 -46.4 Q-16.9 -47.7 -15.5 -51.1 M-30.9 -30.4 L-31.8 -34.6 -27.1 -43.5 -23.6 -44.2 Q-19.6 -43.5 -17 -42.6 L-16.6 -46.9 -14.6 -49.1 -10.5 -47.3 -13 -40.6 -17 -42.6 -16.6 -32.6 -17.4 -31.2 -22.4 -30.4 -30.9 -30.4"/><path fill="#006093" stroke="none" d="M48.9 24.4 Q58 23.2 65.9 18.4 L66.2 19.9 Q59.9 29.2 45.5 33.2 L45 33.4 46.6 30.1 Q48.2 26.7 48.9 24.4 M-13 -40.6 L-16.6 -32.6 -17 -42.6 -13 -40.6"/><path fill="#dedede" stroke="none" d="M-12.3 -40 L-9.9 -47.1 Q-1.2 -44 7.9 -45.4 12 -45.8 15.7 -47.3 L15.3 -20.4 12.4 -17.8 -10.2 -17.8 Q-11.8 -19.4 -13.2 -21.6 -14.3 -23.6 -15.1 -25.9 L-15.1 -30.4 -16.3 -30.4 -16.4 -31.4 -15.8 -32.5 Q-10.9 -34.1 -10.9 -37 -10.9 -38.7 -12.3 -40"/><path fill="#1a1a1a" stroke="none" d="M13.8 -82.5 L14.9 -83.7 Q16.4 -83.8 17.2 -82.7 19.7 -79 18.4 -74.8 L13.3 -79.1 13.8 -82.5 M3.3 -87 Q3.5 -87.8 4.2 -87.9 5.4 -87.9 6.1 -86.8 7.6 -84.7 7.8 -81.8 L2.8 -83.7 2.9 -85.2 3.3 -87"/><path fill="#d87000" stroke="none" d="M1.1 -54.1 L4.2 -54 Q9.2 -55.2 13.5 -58.3 L14.8 -58 Q13.6 -55.9 10.8 -54.4 8.1 -52.8 5.5 -52.8 L3 -53.2 Q1.6 -53.6 1.1 -54.1"/><path fill="none" stroke="#000000" stroke-width="3" d="M-62.9 -30.4 Q-60.9 -36 -58 -41.1 L-56.4 -44 Q-51.1 -52.9 -41.6 -56.8 -38.9 -58 -36 -58.5 L-29.6 -59 Q-31.6 -61.6 -31.8 -65 L-31.9 -68.8 Q-31.9 -73.1 -29.2 -76.8 -26.8 -80.3 -22.9 -82.3 -19.4 -84.2 -15.2 -84.8 L-14.1 -92 Q-12.1 -101.2 -7.2 -109.2 -3.6 -115 1.7 -119.2 5 -121.6 8.4 -123.2 19.6 -128.1 31.1 -123.9 41.2 -120.2 46.7 -110.8 49.8 -105.5 50.9 -99.5 52 -93.5 51.8 -87.5 51.2 -76.7 50 -65.9 L49.1 -58.4 Q48.8 -55.1 49.6 -52 L50.3 -50.2 51.5 -48.4 56.5 -41.8 64.5 -31.4 Q68.2 -26.8 71 -21.9 L73.4 -17.4 75.9 -11.9 Q77.8 -6.5 77.8 -0.9 77.7 2.9 76.3 6.4 73.7 13.4 67.3 17.6 70.3 30.1 68.7 42.6 L67.5 49.5 Q65.3 60.2 58.4 68.5 L53.3 73.5 53.5 73.7 53.8 73.8 Q57.5 74.7 61.2 75.8 69.2 78.2 74.3 84.9 76.3 87.4 77.2 90.4 78.7 95.5 77.8 100.6 L76.7 104.5 75 108 73.2 110.7 Q71 113.3 67.9 115 L65 116.7"/><path fill="#ffffff" stroke="none" d="M16.7 -81.6 Q16.7 -81.1 16.4 -80.8 16 -80.4 15.5 -80.4 15 -80.4 14.7 -80.8 14.3 -81.1 14.3 -81.6 14.3 -82.2 14.7 -82.5 15 -82.8 15.5 -82.8 L16.4 -82.5 16.7 -81.6"/><path fill="#ffffff" stroke="none" d="M5.8 -85.9 L5.5 -85.1 Q5.2 -84.8 4.7 -84.8 4.2 -84.8 3.9 -85.1 3.5 -85.4 3.5 -85.9 3.5 -86.4 3.9 -86.7 4.2 -87 4.7 -87 5.2 -87 5.5 -86.7 L5.8 -85.9"/><path fill="#ffffff" stroke="none" d="M16.7 -81.6 Q16.7 -81.1 16.4 -80.8 16 -80.4 15.5 -80.4 15 -80.4 14.7 -80.8 14.3 -81.1 14.3 -81.6 14.3 -82.2 14.7 -82.5 15 -82.8 15.5 -82.8 L16.4 -82.5 16.7 -81.6"/><path fill="#ffffff" stroke="none" d="M5.8 -85.9 L5.5 -85.1 Q5.2 -84.8 4.7 -84.8 4.2 -84.8 3.9 -85.1 3.5 -85.4 3.5 -85.9 3.5 -86.4 3.9 -86.7 4.2 -87 4.7 -87 5.2 -87 5.5 -86.7 L5.8 -85.9"/></g><g id="c5"><path fill="#000000" fill-opacity="0.2" d="M92.6 8.3 Q92.6 11.8 83.3 14.2 74.1 16.6 61 16.6 L53.9 16.4 Q53.2 19.9 46 22.4 38.1 25.2 27 25.2 15.8 25.2 7.9 22.4 0 19.6 0 15.7 0 11.7 7.9 8.9 15.8 6.1 27 6.1 L30.4 6.2 Q32.5 4.1 38.7 2.5 48 0 61 0 74.1 0 83.3 2.5 92.6 4.9 92.6 8.3"/></g><g id="c7"><path fill="#000000" stroke="none" d="M24.2 -13.6 Q23.7 -13.8 23.4 -13.9 22.9 -14.3 22.9 -15.4 L23.1 -16.4 23.4 -16.8 21.1 -16.3 Q20.1 -15.9 20.1 -13.5 20.1 -12.8 20.2 -12.4 L20.8 -11.3 20.8 -11.1 20.7 -11.1 20.6 -11.1 Q19.7 -12 19.7 -13.5 19.7 -16.1 21.1 -16.9 L23.9 -17.4 Q24.5 -17.4 24.8 -17.9 L25.4 -19.5 24.1 -19.1 24.9 -19.6 Q25.4 -19.7 25.4 -20.2 L25.8 -20.6 25.9 -20.4 27.9 -21.1 28.6 -21.4 28.5 -21.7 26.6 -21.2 26.1 -21 26.4 -21.2 Q28.4 -22.2 34 -22.2 36.1 -22.2 37.2 -21.6 39.1 -20.6 39.2 -17.9 L40.7 -7.2 40.5 -7 Q40.3 -7 40.4 -5 L40.7 -2.4 41 -0.1 39.6 2.8 39.4 4.4 38.9 6.6 Q38.4 7.3 37.1 7.4 L36.9 8.6 Q36.2 9.1 34.1 9.6 L32.1 10 Q31.4 10 29.7 10.8 28.1 11.7 26.4 11.7 25.8 11.7 25.4 11.3 L25.1 10.8 27.1 10.9 Q29.4 10.4 30.5 8.6 L30.7 7.6 29.6 -7.4 29.6 -8.3 30.2 -9.7 31.1 -11.1 Q30.3 -9.4 30.3 -8.4 L31.3 7.3 Q31.6 7.7 32.8 7.3 L33.5 7 33.1 -2 32.6 -12.5 Q32.2 -13.7 31.2 -14.4 L29.3 -15.6 29 -14.9 26.9 -13.2 26.5 -13.1 24.5 -12.8 24.4 -13.2 26.2 -13.9 24.2 -13.6 M30.9 -20.1 L29.8 -19.9 29.6 -18.8 30.9 -18.3 Q33 -19 34.2 -19.6 L30.9 -20.1 M33.5 -19 L32.1 -18 32.6 -18 33.5 -18.1 Q35 -17.8 36.2 -16.1 38.8 -13.1 38.2 -7.2 L40 -7.5 Q40.5 -12.5 38.5 -16.3 36.7 -19.6 34.8 -19.6 34.2 -19.6 33.5 -19 M31.1 -22.1 L31.1 -20.8 Q33 -20.9 35.5 -19.6 L38.1 -18.1 38.5 -17.6 Q38.5 -20.6 37 -21.2 L32 -21.9 31.1 -22.1 M31 -15.2 Q33.5 -12.8 33.6 -11.6 L34 1.5 36.1 1.9 37.6 1.7 37.7 1.9 Q37.3 1.9 37 2.2 L36.6 2.5 36.9 6 Q37 6 37 6.8 38.9 6.3 38.8 2.5 38.5 -5 38.8 -6.7 L38.2 -6.8 38.5 -0.6 38.6 1.1 Q38.5 1.9 37.9 1.9 L37.8 1.9 37.8 1.4 Q38.1 -2.3 37.8 -6.5 37.1 -14.8 33.6 -17.1 32.6 -15.9 31 -15.2 M31.6 -16.8 L32.4 -17.4 29.8 -17.6 27.8 -17.9 27.1 -17.6 26.9 -17.6 28.8 -16.2 Q29.1 -15.9 29.7 -15.9 30.3 -15.9 30.9 -16.2 L31.6 -16.8 M33 -17.5 L30.1 -15.7 Q31 -15.8 31.9 -16.3 32.9 -16.9 33 -17.4 L33 -17.5 M26.1 -19.2 L26.9 -19.4 27.4 -19.6 27.9 -20.2 26.1 -19.6 26.1 -19.2 M26.6 -18.8 L26.1 -18.6 25.9 -18.3 26.1 -17.9 Q26.4 -17.8 26.6 -17.8 L27.1 -17.9 27.4 -18.3 27.1 -18.6 26.6 -18.8 M29.7 -20.3 Q30.2 -20.6 30.3 -21.9 L29.6 -21.1 29.7 -20.3 M28.9 -20.6 L28.6 -20.8 28.3 -20.6 28.1 -20.3 28.3 -19.9 28.6 -19.9 28.9 -19.9 28.9 -20.3 28.9 -20.6 M28.2 -19.1 L28.4 -18.8 Q28.4 -18.6 28.6 -18.6 L28.9 -18.8 28.9 -19.1 28.9 -19.3 28.6 -19.4 28.4 -19.3 28.2 -19.1 M27.9 -18.6 L27.6 -18.9 Q27.4 -18.8 27.8 -18.5 L27.9 -18.6 M24.1 -16.1 L24.8 -17 24.6 -17.1 24 -16.9 Q23.3 -16.6 23.3 -15.4 23.3 -14.8 23.6 -14.4 L24 -14.1 Q23.6 -15.2 24.1 -16.1 M24.3 -14.1 Q25.6 -13.9 26.7 -15.1 L27.4 -16 Q26.1 -16.4 25.2 -16.9 24.4 -16.2 24.2 -14.9 L24.3 -14.1 M28.4 -16.2 L28.1 -16.2 Q28.1 -15.2 27.6 -14.7 28.6 -15.2 28.6 -15.7 L28.4 -16.2 M28.3 -18.2 L29.9 -18.1 Q28.9 -18.4 29 -18.4 L28.3 -18.2 M25.9 -17.9 L25.4 -17.3 25.9 -17.5 Q26.1 -17.7 25.9 -17.9 M27.7 1.6 L29.7 2.6 29.7 2.9 28.6 4.5 27.9 4.3 27.4 4 26.8 3.5 26.7 3 27.4 3.5 28.4 4 28.6 3.8 29.1 3 26.6 1.2 26.6 0.5 27.1 0.9 27.7 1.6 M39.4 -6.8 L39.4 2.2 40 1.3 40.4 -0.1 39.7 -6.8 39.4 -6.8 M34.1 5 Q34.1 7.3 33.8 7.6 L31.3 8 31.1 9.2 32.8 9.2 Q35 9.2 35.9 8.2 37.2 6.7 36 2.5 L34.1 2.3 34.1 5"/><path fill="#ff91ea" stroke="none" d="M20.8 -11.3 L20.2 -12.4 Q20.1 -12.8 20.1 -13.5 20.1 -15.9 21.1 -16.3 L23.4 -16.8 23.1 -16.4 22.9 -15.4 Q22.9 -14.3 23.4 -13.9 23.7 -13.8 24.2 -13.6 L24.3 -13.3 Q22.8 -13.3 21.8 -12.6 20.9 -12 20.8 -11.3 M26.9 -13.2 L29 -14.9 30.9 -13.7 32 -12.1 31.1 -11.1 30.2 -9.7 29.6 -8.3 Q29 -6.3 29 -5.3 L29.9 4.5 29.9 6 Q29.9 7.3 30.4 8.2 L27.6 9.1 28.5 6.7 27.9 4.3 28.6 4.5 29.7 2.9 29.7 2.6 27.7 1.6 Q28.9 -6 28.9 -7.5 28.9 -9.2 28.1 -10.9 L26.9 -13.2 M20.6 -11.1 L20.7 -11.1 20.6 -10.8 20.6 -11.1"/><path fill="#ff99cc" stroke="none" d="M24.2 -13.6 L26.2 -13.9 24.4 -13.2 24.3 -13.3 24.2 -13.6 M24.1 -16.1 Q23.6 -15.2 24 -14.1 L23.6 -14.4 Q23.3 -14.8 23.3 -15.4 23.3 -16.6 24 -16.9 L24.6 -17.1 24.8 -17 24.1 -16.1 M28.4 -16.2 L28.6 -15.7 Q28.6 -15.2 27.6 -14.7 28.1 -15.2 28.1 -16.2 L28.4 -16.2"/><path fill="#f9d2ea" stroke="none" d="M32.8 7.3 Q31.6 7.7 31.3 7.3 L30.3 -8.4 Q30.3 -9.4 31.1 -11.1 L32 -12.1 32.8 -5.8 33 -0.7 32.8 7.3"/><path fill="#ed4e9e" stroke="none" d="M28.6 3.8 L26.4 2.1 Q26.6 1.2 26.4 0.9 L26.6 1.2 29.1 3 28.6 3.8"/><path fill="#ffff00" stroke="none" d="M25.9 -17.9 Q26.1 -17.7 25.9 -17.5 L25.4 -17.3 25.9 -17.9"/><path fill="#d769c2" stroke="none" d="M24.4 -13.2 L24.5 -12.8 26.5 -13.1 Q28.1 -11.6 28.4 -8.2 L27.7 -3.2 27.1 0.9 26.6 0.5 Q25.9 -2.2 23.9 -5.4 L20.6 -10.8 20.7 -11.1 20.8 -11.1 20.8 -11.3 Q20.9 -12 21.8 -12.6 22.8 -13.3 24.3 -13.3 L24.4 -13.2 M29.6 -7.4 L30.7 7.6 Q30.4 7.5 30.2 6 L29.8 -1.4 29.5 -5.6 Q29.5 -6.6 29.6 -7.4 M30.5 8.6 Q29.4 10.4 27.1 10.9 L25.1 10.8 Q25.1 10.8 25.1 10.4 L25.2 9.9 Q25.1 9.3 25.9 8.9 L26.6 8.6 26.5 3.2 26.8 3.5 27.4 4 Q28.1 7.3 27.8 8 27.1 8.6 26.6 9.7 L28.9 9.2 30.5 8.6"/><path fill="#c52676" stroke="none" d="M26.7 3 L26.4 2.1 28.6 3.8 28.4 4 27.4 3.5 26.7 3"/><path fill="#fde5f5" stroke="none" d="M32.6 -12.5 L33.1 -2 33.5 7 32.8 7.3 33 -0.7 32.8 -5.8 32 -12.1 32.6 -12.5"/><path fill="#ffa4f5" stroke="none" d="M29 -14.9 L29.3 -15.6 31.2 -14.4 Q32.2 -13.7 32.6 -12.5 L32 -12.1 30.9 -13.7 29 -14.9"/><path fill="#eb7dd6" stroke="none" d="M26.5 -13.1 L26.9 -13.2 28.1 -10.9 Q28.9 -9.2 28.9 -7.5 28.9 -6 27.7 1.6 L27.1 0.9 27.7 -3.2 28.4 -8.2 Q28.1 -11.6 26.5 -13.1 M29.6 -8.3 L29.6 -7.4 Q29.5 -6.6 29.5 -5.6 L29.8 -1.4 30.2 6 Q30.4 7.5 30.7 7.6 L30.5 8.6 28.9 9.2 26.6 9.7 Q27.1 8.6 27.8 8 28.1 7.3 27.4 4 L27.9 4.3 28.5 6.7 27.6 9.1 30.4 8.2 Q29.9 7.3 29.9 6 L29.9 4.5 29 -5.3 Q29 -6.3 29.6 -8.3"/></g><g id="c8"><path fill="#000000" stroke="none" d="M1.6 -6.2 L1.5 -6.2 1.5 -6.8 Q1.4 -9.4 0.6 -10.6 -0.6 -12 -3.8 -12 -8.1 -12 -8.9 -8.4 -9.7 -4.8 -9.7 -0.7 L-9.6 0.8 -9.2 2.2 Q-8.1 5.3 -3.8 5.3 L-2.3 5.2 -1.7 5.1 Q1.1 4.3 1.1 1.3 L1.2 -0.2 1.2 -0.6 0.6 -0.6 0.2 -0.6 -2.5 -0.5 -2.8 1.2 Q-3 2 -3.5 2.1 L-3.8 2.1 Q-5 2.1 -5.2 0 L-5.4 -3.4 Q-5.4 -7.7 -3.9 -7.7 -3.1 -7.7 -2.9 -7 L-2.8 -6.7 -2.8 -6.3 -2.9 -6 -2.9 -6 0.9 -6 1.5 -6.2 1.5 -6.1 1.6 -6.2 M2.9 -6 L4.5 -6 Q8.1 -6 9.7 -4.6 11.2 -3.2 11.1 2.1 10.9 7.5 4.4 7.5 L4.3 7.5 4.2 12.2 Q4.2 13.1 2.8 13.2 L0.3 13.3 -2.2 13.2 -3.2 12.9 -3.5 12.5 -3.9 6.3 Q-7.6 6.3 -9 4.8 -10.4 3.1 -10.7 1.6 -10.9 0.3 -10.9 -1.9 -10.9 -7.8 -9.9 -10.1 -8.4 -13.6 -3.9 -13.6 2.9 -13.6 2.9 -7.5 L2.9 -6 M7.9 -4 Q6.7 -4.7 3.7 -4.7 L3.5 -4.7 2.5 -4.8 -1.1 -4.6 -1.6 -4.5 -1.8 -4.5 -1.8 -1.5 -1.3 -1.4 -1.2 -1.5 -1.1 -1.5 1.4 -1.4 2 -1.4 2 -1.1 2 -0.8 1.9 -0.6 1.9 -0.5 1.9 -0.4 1.9 -0.1 1.9 0.7 1.9 2 1.9 2.8 1.8 3.1 1.6 3.5 1.3 4.4 Q0.5 5.6 -1.6 6 L-2.1 6.2 -2.1 6.2 -2.1 6.8 -2.2 8 -2.1 10.9 -2.1 11.2 -2 11.8 -1.8 11.9 0 12.1 1.1 12.1 2.8 11.9 2.8 11.7 3.1 6.5 3 6 3 6 3.6 6 Q7 6.1 8.3 5 9.8 3.7 9.8 0.3 9.8 -1.1 9.4 -2.1 9 -3.3 8.2 -3.9 L8 -4 7.9 -4 M5.1 -1.3 L5.3 0.3 Q5.3 2.3 5 3 4.5 3.8 3.1 3.9 L3.1 3.9 3 3.9 2.7 3.9 2.7 3 2.7 2.8 2.8 0.2 2.8 -0.9 2.8 -2 2.8 -2.6 3.2 -2.6 Q4.7 -2.6 5.1 -1.3 M3.5 3 Q4.5 3 4.5 0.2 4.5 -1.9 3.4 -1.9 L3.5 3 M-3.6 -5 Q-3.5 -6.4 -4 -6.5 -4.4 -6.5 -4.4 -5.3 L-4.3 -1.1 Q-4.3 1.1 -3.8 1.1 -3.5 1.1 -3.5 0.5 L-3.5 -1.4 -3.2 -1.4 -3 -1.4 -3 -5 -3.7 -5 -3.6 -5"/><path fill="#ffffff" stroke="none" d="M-2.8 -6.7 L-2.9 -7 -2.9 -7 Q-2.9 -8.2 -4 -8.2 -6.3 -8.2 -6.3 -3.4 -6.3 2.2 -4 2.2 L-3.7 2.2 -3.5 2.1 Q-3 2 -2.8 1.2 L-2.5 -0.5 0.2 -0.6 0.6 -0.6 Q0.4 -0.1 0.5 1.3 0.4 2.4 -0.1 3.1 -1.1 4.5 -3.8 4.5 -8 4.5 -9.2 2.2 L-9.6 0.8 -9.7 -0.7 Q-9.7 -4.8 -8.9 -8.4 -8.1 -12 -3.8 -12 -0.6 -12 0.6 -10.6 1.4 -9.4 1.5 -6.8 L-2.5 -6.7 -2.8 -6.7"/><path fill="#cccccc" stroke="none" d="M1.5 -6.8 L1.5 -6.2 1.6 -6.2 1.5 -6.2 0.9 -6 -2.9 -6 -2.9 -6 -2.8 -6.3 -2.8 -6.7 -2.5 -6.7 1.5 -6.8 M-2.9 -7 Q-3.1 -7.7 -3.9 -7.7 -5.4 -7.7 -5.4 -3.4 L-5.2 0 Q-5 2.1 -3.8 2.1 L-3.7 2.2 -4 2.2 Q-6.3 2.2 -6.3 -3.4 -6.3 -8.2 -4 -8.2 -2.9 -8.2 -2.9 -7 L-2.9 -7 M0.6 -0.6 L1.2 -0.6 1.2 -0.2 1.1 1.3 Q1.1 4.3 -1.7 5.1 L-2.3 5.2 -3.8 5.3 Q-8.1 5.3 -9.2 2.2 -8 4.5 -3.8 4.5 -1.1 4.5 -0.1 3.1 0.4 2.4 0.5 1.3 0.4 -0.1 0.6 -0.6"/><path fill="#ffcc00" stroke="none" d="M2 -1.4 L1.4 -1.4 -1.1 -1.5 -1.2 -1.5 -1.3 -1.4 -1.8 -1.5 -1.8 -4.5 -1.6 -4.5 -1.1 -4.6 2.5 -4.8 3.5 -4.7 3.7 -4.7 Q6.7 -4.7 7.9 -4 L8 -4 8.1 -3.8 8.6 -2.8 8.7 -2.4 8.8 -1.9 8.8 1.8 Q8.6 4.6 4.8 5.3 L2.1 5.5 2.1 5.8 2.1 6.8 2 8.1 2 11.1 Q1.9 11.5 0 11.6 L-0.1 11.6 -0.5 11.6 -1.8 11.4 -2.1 11.2 -2.1 10.9 -2.2 8 -2.1 6.8 -2.1 6.2 -2.1 6.2 -1.6 6 Q0.5 5.6 1.3 4.4 L1.6 3.5 1.8 3.1 Q1.8 3.6 2.2 3.8 L2.4 3.8 2.5 3.9 2.6 3.9 2.7 3.9 2.7 3.9 2.8 3.9 2.9 3.9 3 3.9 3.1 3.9 3.1 3.9 Q4.5 3.8 5 3 5.3 2.3 5.3 0.3 L5.1 -1.3 Q5 -3.1 2.9 -3.1 L2.1 -3 2.1 -3 2 -3 2 -1.8 2 -1.4 2 -1.4"/><path fill="#ff9900" stroke="none" d="M8 -4 L8.2 -3.9 Q9 -3.3 9.4 -2.1 9.8 -1.1 9.8 0.3 9.8 3.7 8.3 5 7 6.1 3.6 6 L3 6 3 6 3.1 6.5 2.8 11.7 2.8 11.9 1.1 12.1 0 12.1 -1.8 11.9 -2 11.8 -2.1 11.2 -1.8 11.4 -0.5 11.6 -0.1 11.6 0 11.6 Q1.9 11.5 2 11.1 L2 8.1 2.1 6.8 2.1 5.8 2.1 5.5 4.8 5.3 Q8.6 4.6 8.8 1.8 L8.8 -1.9 8.7 -2.4 8.6 -2.8 8.1 -3.8 8 -4 8 -4 M1.8 3.1 L1.9 2.8 1.9 2 1.9 0.7 1.9 -0.1 1.9 -0.4 1.9 -0.5 1.9 -0.6 2 -0.8 2 -0.8 2 -1.1 2 -1.4 2 -1.8 2 -3 2.1 -3 2.1 -3 2.9 -3.1 Q5 -3.1 5.1 -1.3 4.7 -2.6 3.2 -2.6 L2.8 -2.6 2.8 -2 2.8 -0.9 2.8 0.2 2.7 2.8 2.7 3 2.7 3.9 2.6 3.9 2.5 3.9 2.4 3.8 2.2 3.8 Q1.8 3.6 1.8 3.1"/></g><g id="c10"><path fill="#1f1f1f" stroke="none" d="M-12.3 11.3 L-10.9 11.3 Q-11.9 12.8 -13.4 13.8 L-13.7 12.7 Q-13.1 12.2 -12.3 11.3 M-10.1 9.6 L-10.1 8.3 -9.6 8 -10.1 9.6 M-6.6 -10.3 L-8.2 -10.3 -8.2 -8.3 -8.7 -8 -9.3 -8 -9.3 -7.2 -9.5 -6.4 Q-9.5 -8.4 -8.6 -9.8 -7.8 -11.3 -6.5 -11.3 L-6.6 -10.3 M-11.2 1 L-12 1 -12.1 -0.2 -12.4 -7.4 Q-12.2 -7 -11.6 -2.3 L-11.3 -0.2 -11.2 1 M-25.2 -16.6 L-25.2 -17.6 -24.9 -16.8 -25.2 -16.6"/><path fill="#000000" stroke="none" d="M-28.6 -22.9 L-29.9 -22.9 -29.9 -25.1 -29.1 -26.1 Q-26.4 -28.1 -26.1 -27.9 -26 -27.2 -25.4 -27.2 -24.2 -27.2 -24.1 -27.6 -23.9 -28.2 -23.6 -28.3 L-23.1 -28.1 Q-22.8 -27.9 -22.2 -27.9 -21.1 -27.9 -21.4 -28.2 L-21.4 -28.4 -20.9 -28.4 -19.9 -28.2 -17.9 -28.4 -16.6 -28.6 Q-16.1 -28.6 -15.6 -29.1 L-14.9 -29.5 -14.4 -29.2 Q-14 -28.9 -13.4 -28.9 L-10.3 -29.2 -6.7 -29.4 -1.8 -29.8 1.6 -30.5 3 -29.9 4.2 -29.2 5 -29.6 6.5 -29.9 Q7 -29.9 7.3 -29.5 7.7 -29.1 7.8 -29.1 L10.7 -29.4 16.5 -28.6 20.9 -27.9 22.9 -27.6 24.9 -27.4 26.1 -26.9 Q26.7 -26.5 27.2 -26.5 L28.6 -25.4 30.5 -23.8 31.2 -23.9 34.6 -23.8 34.6 -23.4 Q34.6 -22.9 35.6 -22.1 L36.3 -21.9 Q38.5 -21.4 39 -19.4 L39.4 -16.1 40 -12.1 40.5 -9.6 40.6 -6.9 Q40 -7.8 40 -6.8 L40.5 -3.4 41 -0.1 40.2 1.4 Q39.5 2.5 39.4 3.1 L39.2 5.3 Q39 6.5 38.5 7 37.3 8 36 8.8 37 7.5 36.1 3.3 L34.9 2.5 33.8 2.2 33.8 2.1 33.5 1.6 33.6 1.6 Q33.8 2.1 33.8 1.4 L37.5 1.6 37.6 -0.4 37.4 -10.8 Q36.8 -16.1 33.6 -17.1 L33.1 -16.4 32.5 -15.8 31.6 -15.2 31.2 -15.1 31 -15 30.6 -15.1 30.6 -15.1 30.6 -15.3 30.1 -15.1 30.6 -15.3 31 -15.6 32.6 -16.7 32.2 -16.9 30.6 -15.8 30.1 -15.6 29.4 -15.6 Q29.7 -15.9 29.3 -15.8 L29.6 -15.9 31.9 -17.4 27 -17.4 26.8 -17.2 26.6 -17.7 25.9 -17.9 25.4 -17.8 25.1 -17.6 Q27.9 -16.8 28.6 -16.1 L28.6 -16.1 Q28.6 -16 28.2 -15.9 L27.5 -16.1 25.1 -17.1 22.1 -16.4 Q22.6 -15 23.6 -13.9 L23.8 -14.7 24.1 -14.4 24.3 -14.1 24.8 -13.7 24.1 -13.4 Q24.9 -12.6 25.2 -13.1 L25.4 -12.8 24.4 -12.8 Q25.9 -11.3 26.4 -5.5 L26.9 1.5 26.4 0.9 Q26.4 1.9 26.7 2.5 L26.9 3 26.8 3 26.5 3.2 26.6 8.6 25.5 9.3 Q25 9.8 25 10.6 25 11.2 26.1 11.6 25.6 11.5 25.1 11.8 L24 12.8 23.5 13.2 22.5 13.6 Q20.1 13.6 16 9.6 L15.3 14.1 Q15 15.3 14.2 15.3 13.2 15.3 11.6 13.4 L8.2 8.8 7.5 7.9 Q7.7 11 7.4 12.2 7 13.6 5.8 13.6 L3.4 12.4 3.4 18.1 Q12.3 19.1 14.8 20.1 17.4 21.1 17.4 24 17.4 27.8 11.6 29.3 7.2 30.4 -0.7 30.4 -8.1 30.4 -11.8 29.2 -16.2 27.8 -16.2 24.4 -16.2 22.3 -14.3 20.8 -11.2 18.2 -3.1 18.6 L-3 12.4 -6.6 13.6 Q-7 13.1 -6.5 8.2 L-6.5 7.2 Q-7 9.2 -8.9 11.4 -11 13.9 -13.4 15.2 -14.2 13.9 -14.4 12.1 L-14.4 11.3 -13.8 11.3 -13.7 12.7 -13.4 13.8 -13.3 14.3 Q-11.3 13.3 -9.4 11 L-6.5 7.1 -6.4 6.2 -6.4 5.5 -6.5 5.6 -7.2 5.5 -7.5 5.5 -7.3 2.3 -6.7 2.3 -6.7 -1.1 -6.3 -1.1 -6.8 5 -4.5 4.8 -3.7 4.9 -3.6 5 -6 5.5 -6 7.1 -6.2 12.1 -6.2 12.8 Q-1.7 13.2 -1.4 5.2 -1.1 0.7 -1.4 -8.8 L-1.9 -12.2 -1.9 -12.4 Q-2 -10.9 -2.5 -10.2 L-2.9 -10.2 -4.3 -11.4 Q-5.4 -12.5 -5.5 -12.9 L-5.5 -13.3 -5.8 -11.2 -5.2 -11.3 Q-4 -9.8 -3.4 -4.2 -3 -0.1 -3.1 2.7 L-3.1 2.8 -3.3 3.2 -3.6 -0.6 Q-3.9 -5.3 -4.5 -9.2 L-5.8 -10.8 -5.8 -10.3 -6.6 -10.3 -6.5 -11.3 -6 -13.6 -6.8 -15.9 -7.7 -16.4 Q-8.3 -16.1 -8.3 -14.1 -8.3 -12.8 -9.6 -12.1 -10.7 -11.6 -12.2 -11.7 L-12.8 -12.7 -13.8 -10.4 -14.9 -8 -13.4 -8.4 Q-12.6 -8.3 -11.8 -7.5 L-11.3 -3.8 -11.1 -2 -11.1 -2 -11.1 1 -11.2 1 -11.3 -0.2 -11.6 -2.3 Q-12.2 -7 -12.4 -7.4 L-12.9 -7.8 -13.4 -8 -14.1 -7.8 -14.9 -7.6 Q-14.6 -4.4 -14.6 0.2 L-14.6 3.4 -15.2 3.4 -15.2 0.3 Q-15.2 -3 -15.4 -8.2 L-14.4 -10.6 -13.2 -13.6 -12.7 -14.2 -12 -15.4 -12.4 -16.8 -14.4 -17.2 -14.7 -17.2 Q-14.7 -16.1 -15.2 -14.9 L-15.2 -16.5 -15.4 -16.5 -15.3 -16.8 -16.3 -16.6 -16.3 -16.5 -18.2 -16.5 -18.2 -18 -19.3 -18 -19.5 -16.5 -19.8 -16.5 -19.5 -17 -19.6 -17.6 -20.2 -16.5 -20.8 -16.5 -21.1 -17.4 -21.9 -17.1 -22.4 -16.5 -23.4 -16.5 -22.4 -17.4 -22.6 -18 -22.7 -18 Q-23.4 -17 -24.9 -16.5 L-25.2 -16.4 -25.2 -16.6 -24.9 -16.8 -25.2 -17.6 -25.2 -18.6 -25.1 -18.6 -25.1 -20.1 -25.2 -20.1 -26.6 -20.1 -26.6 -20.5 -27 -20.4 -27.1 -20.2 -27.1 -21.2 -26.4 -20.9 -26.2 -21.5 -27.1 -22.1 -27.1 -22.9 -27.9 -22.9 -28.6 -23.6 -28.9 -23.9 -28.6 -22.9 M35.3 9.2 Q33.2 10.2 32 10 L31.8 10 32.2 9.5 34 9.2 34.2 9.2 34.3 9.2 35.3 9.2 M-19.4 2.5 L-20.1 2.5 -20.5 -2.6 Q-20.5 -5.2 -20.3 -5.5 L-20.2 -5.5 -19.9 -2.9 -19.6 1.9 -19.4 2.5 M-20.9 -6.3 L-20.9 -7.3 Q-20.6 -6.8 -20.6 -6.5 L-20.9 -6.3 M-24.7 -15.8 L-24.7 -15.3 -24.8 -15.3 -25.2 -15.2 -25.2 -15.6 -24.7 -15.8 M27.1 -22.6 L27.8 -23.4 Q28.3 -24.1 29.2 -24.4 L28.2 -24.9 26.9 -25.5 26.6 -24.8 26.2 -24.4 Q26.1 -24.4 26.1 -24.9 L26.2 -25.8 Q25.4 -26.3 24.4 -26.3 23.9 -26.3 23.9 -25.9 L23.9 -25.6 23.8 -25.9 Q23.4 -26.2 23.6 -26.4 L20.6 -26.6 19.7 -26.6 Q19.6 -27.1 19.8 -27.1 L15.9 -27.2 12.2 -27.2 Q11.8 -27.4 12.1 -28 L8.5 -28.3 Q8.8 -27.9 8.1 -27.6 8 -27.6 8.1 -28.3 L7 -28.3 4.8 -28.4 4.7 -28.4 4.7 -28.4 Q5.2 -27.1 5 -26.3 L5 -26.3 5 -25.6 Q5 -24.8 3.1 -23.8 L3.1 -23.3 3.1 -22.6 2.2 -21.9 -1.2 -21.8 -2.6 -22.2 -3 -22.1 -3 -22.1 -3.1 -22.7 -3.1 -23.4 -3 -23.8 Q-3 -24.2 -3.5 -24.6 -4.1 -24.9 -4.8 -24.9 -5.2 -25.4 -5.2 -26.2 L-5.1 -28.2 -5 -28.6 -8.5 -28.2 -12.6 -28.2 -15.7 -27.8 -20.1 -27.5 -20.1 -27.4 -20.4 -27.4 -21.8 -27.1 -22.6 -27.1 -23.9 -27.1 Q-24.8 -27 -24.8 -26.4 -24.8 -26.1 -25.7 -26.1 -27 -25.9 -27.9 -25.2 L-27.3 -24.6 -27 -23.6 -26.8 -23.4 -27.4 -23.4 -27.6 -23.4 Q-27.1 -22.9 -26.6 -22.7 L-23.9 -22.1 -23.4 -21.8 Q-23.6 -21.4 -23.9 -21.4 L-21.6 -21.2 -20.4 -20.9 Q-19.6 -20.4 -19.1 -20.4 L-18.1 -20.6 -17.2 -20.8 Q-16.6 -20.4 -15.6 -20.1 -13.4 -19.6 -10.6 -20.2 L-10.3 -19.8 -4.8 -19.6 -4.3 -20.2 -3.8 -20.2 -3.8 -19.8 -3.7 -19.6 3.9 -19.6 10.3 -19.9 11.4 -20.1 14.8 -20.2 Q16 -20.2 16.6 -20.6 L17.2 -21.1 17.4 -20.9 Q17.6 -20.5 18.2 -20.5 L21 -21 24.2 -21.8 24.6 -21.7 25.4 -21.6 Q26.6 -21.6 27.1 -22.6 M4.1 -27.9 L2.8 -29.5 2.5 -29.6 2.4 -29.6 -2.8 -29.3 -3 -29.2 -3 -29.2 -4.3 -28.2 Q-4.2 -26.9 -3.5 -26.4 L-0.8 -26.1 1.9 -26.3 4.3 -26.6 4.1 -27.9 4.1 -27.9 M3.3 -24.9 L4.2 -25.5 4.3 -25.9 3.3 -25.6 Q-0.3 -25.2 -3.6 -25.8 L-4.8 -25.9 Q-4.6 -25.4 -3.7 -25.1 L-3.7 -25.4 -3.6 -25 Q-1.1 -24.5 3.3 -24.9 M18.8 -18.9 L25.4 -20.2 25.2 -20.7 18.6 -19.7 18.8 -18.9 M17.8 -19.6 L12.8 -19.2 12.8 -18.2 18 -18.9 17.8 -19.6 M14.2 -17.4 L14.1 -17.2 15 -17.2 16.7 -17.2 16.7 -18.1 14.6 -17.8 12.8 -17.3 14.3 -17.7 14.2 -17.4 M13.9 -16.8 L14.2 -15.9 14.1 -17.2 13.9 -16.8 M13.6 -16.1 L13.3 -15.3 14.2 -14.7 14.2 -15.8 Q13.8 -15.8 13.6 -16.1 M10.7 -17.6 L10.6 -16.5 Q12.1 -17.1 12.2 -17.6 L10.7 -17.6 M12.1 -16.6 Q11.5 -16.4 11.8 -16.4 L12 -16.5 12.1 -16.6 M11.4 -12.9 L13.6 -12.9 13.6 -13.1 12.7 -13.9 Q12.5 -14.1 12.8 -15.2 12.3 -15.7 10.4 -15.7 L10.2 -14.2 10 -13.3 Q10.7 -12.9 11.1 -12.9 11.3 -14.2 10.9 -14.3 L11.5 -14.6 11.6 -13.8 Q11.6 -13.1 11.4 -12.9 M14.6 -14.9 Q14.6 -14.6 14.8 -14.4 15.1 -14.1 14.8 -14.6 L14.6 -14.9 M12.9 -14.2 L13.8 -13.6 14 -14.1 13.4 -14.5 Q13.1 -14.6 12.9 -14.2 M11.8 -10.8 L12.7 -11.5 Q13.3 -11.9 15.1 -12.7 L14.3 -12.5 12.9 -12.2 Q9.8 -12.2 8.1 -14.6 L8.1 -14.2 7.7 -10.7 7.9 -9.5 8 -8.9 Q8.2 -8.4 8.3 -8.5 L11.8 -10.8 M14.8 -13.4 L14.4 -13.8 14.1 -13.1 14.8 -13.4 M18.9 -16.9 L20.2 -16.5 21.6 -17.1 22.2 -17.1 22.1 -18.8 18.9 -18.3 18.9 -16.9 M18.2 -17.7 L18.1 -18.1 17.7 -18.2 17.4 -18.1 17.2 -17.7 Q17.2 -17.4 17.4 -17.3 17.5 -17.1 17.7 -17.1 L18.1 -17.3 18.2 -17.7 M15.4 -16.5 Q15.4 -16.2 14.8 -16.2 L15.2 -14.8 Q15.8 -13.7 16.4 -13.5 L16.9 -13.3 16.8 -16.5 15.4 -16.5 M17.6 -13.2 Q18.9 -13.2 19.4 -13.8 19.9 -14.4 20.1 -15.9 18.6 -16.8 17.3 -16.6 L17.4 -13.8 17.6 -13.2 M15.4 -13.3 L15.6 -12.3 Q15.9 -11.8 18 -11.8 18.9 -11.8 20.4 -13 21.8 -14.1 22.1 -14.8 L21.9 -14.9 19.2 -13.1 17.9 -12.6 Q16.4 -12.6 15.5 -13.5 L15.4 -13.3 M20.1 -15 L20.1 -14.3 Q20.1 -14.1 20.7 -14.6 L21.4 -15.2 20.4 -15.8 20.1 -15 M12.1 -19.2 L5.8 -18.9 5.8 -18.1 12.2 -18.1 12.1 -19.2 M1.8 -22.5 L2.4 -22.6 2.4 -24.1 1.6 -24 -0.5 -24.1 -1.5 -24.1 -2.3 -24.2 -2.5 -24.2 -2.5 -22.8 -1.2 -22.4 -0.2 -22.4 1.8 -22.5 M5 -16.1 L5.2 -17.2 2.9 -17.2 2.9 -16.8 3.5 -16.6 5 -16.1 M3.9 -16.1 L3.1 -14.1 2.6 -12.6 2.6 -11.6 3.1 -11.4 3.6 -11.9 Q3.9 -12.2 4.5 -12.2 5 -12.2 5.2 -12.6 L5.8 -13.1 4.3 -13.8 Q4.2 -13.9 4 -16.1 L3.9 -16.1 M2 22.1 Q3 20.3 3 17.6 L2.8 11.8 2.1 2.1 1.7 -10.6 2.1 -12.5 2.5 -14.4 2.5 -15.7 2.4 -17.1 -2.5 -17.1 -2.6 -14.4 -1.9 -13.2 Q-1.1 -11.8 -1 -10.7 -0.6 -8.1 -0.6 -5.7 -0.6 1.8 -0.8 4.7 -1 9.8 -1.9 11.6 -2.8 13.1 -2.7 15.1 L-2.5 16.9 Q-2.5 21.1 -1.8 22.1 L-1.1 22.4 Q0 22.6 1.3 22.4 L2 22.1 M-1.8 21.1 L-1.9 21.1 -2 18.9 -2 17.9 -1.8 17.9 Q-1.6 19.3 -1.8 21.1 M5 -15.4 L4.7 -14.1 5.8 -13.4 5 -15.4 M4.3 -14.6 L4.5 -15.1 4.6 -15.6 Q4.2 -15.9 4.3 -14.6 M8.5 -15.5 L9.1 -14.2 9.7 -13.5 9.8 -15.6 8.5 -15.5 M8.4 -15.8 L9.2 -16.3 9.9 -17.5 6 -17.3 5.8 -16.1 5.8 -16.1 8 -16.6 8.4 -15.8 M5.6 -15.6 L6.8 -13.4 6.9 -15.7 5.6 -15.6 M5.3 -18.1 L5.2 -18.9 -4.5 -18.9 -4.6 -17.8 Q2 -17.8 5.2 -18.1 L5.3 -18.1 M7.2 -14.3 L7.2 -13.7 7.4 -14.3 Q7.8 -15.2 7.8 -15.9 7.5 -15.8 7.2 -14.3 M6.8 -12 L6.3 -13.7 Q6.5 -13.1 6.2 -12.8 L4.2 -11.3 2.2 -11.3 Q2 -2.8 2.2 2.5 2.4 12.7 5.3 12.7 L6.3 12.4 6.8 11.7 6.8 11.5 Q6.7 1.2 6.3 -3 L6.2 -3.2 4.8 -3 3.6 -3.4 Q3 -3.6 3 -3.8 L3 -3.9 3.5 -3.8 4.7 -3.5 Q6.3 -3.5 7.6 -5.7 L7.5 -6.3 6.8 -12 M8.2 -7.6 L8.2 -7.2 11.7 -9.3 15.7 -11.7 15.5 -11.9 15.3 -12.2 8.2 -7.6 M4 -5 L6.3 -5 6.6 -5 6.6 -4.4 5.5 -4.2 4.5 -4.3 Q4.2 -4.5 4 -5 L4 -5 M15.4 -11.2 L8.2 -7 8.3 -4.7 Q8.3 -4.2 8.1 -4.3 L7.8 -4.5 Q7.2 -4.2 7.2 1.6 L7.7 0.7 12.2 -6.8 12.8 -7.4 13.3 -6.9 16.8 -4 17.2 -3.5 Q17.4 -4.5 16.9 -7.5 16.4 -10.7 15.8 -11.4 L15.4 -11.2 M22.5 -12.2 L21.9 -11.5 19.8 -9.3 19.3 -10.1 19.1 -9.2 17.9 -3.9 18.1 2 Q18 6.8 16.1 8.1 L15.9 8.1 Q16.5 9.1 18.9 10.9 21.4 12.8 22.2 12.8 24.3 12.8 24.4 9.7 L24.5 9.1 Q20.8 9.3 20.8 5.2 21.4 0.2 20.8 -1.2 19.6 -1 18.2 -2.5 18.1 -2.5 18.1 -2.4 L18.1 -2.9 18.3 -5 Q18.6 -6.2 18.8 -6.5 L20.8 -5.5 Q20.6 -5.2 18.9 -6.2 18.9 -5.5 19.5 -5.2 20.1 -4.8 20.9 -4.8 L21.1 -5 21.1 -4.9 Q20.9 -4.8 21.1 -4.6 21.2 0.6 21.7 5.2 L21.9 7.9 26.1 8.2 26 7.8 25.9 7 25.9 6.2 25.2 -9.7 24.8 -9.7 23.9 -9.7 22.4 -8.3 21.4 -6.5 Q22.4 -9.8 25.1 -10.2 24.1 -12.3 23.3 -13.1 L23.2 -13.2 22.5 -12.2 M18.6 -9.5 L19.1 -10.4 18.1 -10.9 Q17.8 -9.6 17.5 -8 L17.6 -7 17.8 -5.5 18.6 -9.5 M19.9 -9.9 L22.6 -13.8 20.9 -12.7 Q19.1 -11.4 18.6 -11.3 L19.9 -9.9 M17.4 -9.4 L17.9 -11.2 16.5 -11.4 Q17.2 -10.2 17.4 -9.4 M13.2 -7.5 L14.1 -8.8 Q14.6 -9.4 15.2 -9.4 16.2 -9.4 16.1 -9.1 L16.1 -8.9 14.3 -8.5 Q13.6 -8.2 13.6 -7.7 L13.2 -7.2 13.2 -7.5 M13.4 -6.2 L12.8 -7 11.9 -5.8 7.7 1.4 7.2 1.9 7.2 2.5 7.2 3.6 7.7 2.9 Q11.7 -4.5 12.9 -6.2 L13.4 -5.8 15.6 -3.9 17.2 -2 17.2 -2.9 13.4 -6.2 M15.2 8.8 L13.3 7.6 Q12.3 7 12.3 6.4 L12.1 5.3 Q11.7 4.8 11.7 4.2 L12.6 -5 12.3 -4.5 11.8 -3.8 10.2 -0.9 8.2 2.6 7.5 4 7.9 4.3 10.7 8.4 Q12.9 11.8 14.6 12.8 L15.2 12.2 15.2 8.8 M13.4 -5.5 L12.9 -5.8 12.4 0.8 12.1 4.1 Q12.1 4.5 12.5 5 13.3 5.7 15.3 5.7 L16.4 5.5 17.2 4.9 17.4 4.7 Q17.4 -1.3 16.9 -1.9 L13.4 -5.5 M20.9 -4.1 L20.6 -4.1 20.5 -4.1 Q19.5 -3.9 18.7 -4.8 L18.6 -4.5 Q18.4 -3.9 18.4 -2.9 18.4 -2.1 19.2 -1.8 L20.8 -1.4 20.8 -2 20.8 -3.3 20.9 -4.1 M34.1 -23.3 L30.6 -23.4 Q31.9 -22.1 34 -22.4 L34.1 -23.3 M31.1 -21.4 L31.1 -21.1 31.1 -20.8 33.7 -20.4 Q35.6 -20.6 36.9 -19.4 L38.5 -17.6 Q38.3 -20.8 37 -21.2 L31.1 -22.1 31.1 -21.4 M30.9 -20.1 L29.8 -19.9 29.6 -18.8 30.9 -18.3 Q31.9 -18.6 34.2 -19.6 L30.9 -20.1 M33.1 -18.4 L32.1 -18 Q36.8 -17.4 37.5 -13.9 L37.9 -10.7 Q38 -8.6 38.6 -7.3 L39.2 -7.5 40 -7.5 Q40.3 -13.8 38 -17.2 36 -19.9 34.4 -19.2 L33.1 -18.4 M27.9 -23 L28.7 -22.6 29.6 -23.4 28.9 -23.8 27.9 -23.6 27.9 -23 M25.9 -20.4 L27.9 -21.1 28.6 -21.4 28.5 -21.7 26.6 -21.2 Q25.2 -20.8 25.9 -20.4 M26.6 -18.8 L26.1 -18.6 25.9 -18.3 26.1 -17.9 Q26.4 -17.8 26.6 -17.8 L27.1 -17.9 27.4 -18.3 27.1 -18.6 26.6 -18.8 M26.1 -19.2 L26.9 -19.4 27.4 -19.6 27.9 -20.2 26.1 -19.6 26.1 -19.2 M30.4 -21.1 L30.3 -21.9 Q29.8 -21.4 30.1 -21.3 30.4 -21.2 29.6 -21.1 L30.4 -21.1 M28.9 -20.6 L28.6 -20.8 28.3 -20.6 28.1 -20.3 28.3 -19.9 28.6 -19.9 28.9 -19.9 28.9 -20.3 28.9 -20.6 M27.9 -18.6 L27.6 -18.9 Q27.4 -18.8 27.8 -18.5 L27.9 -18.6 M24.8 -17.5 L25.3 -18.7 25.4 -19.5 22.8 -18.9 22.9 -17.2 24.8 -17.5 M21.1 -16 L21.9 -15.7 22 -15.6 22 -16.4 22.1 -16.4 20.6 -16.3 21.1 -16 M28.3 -18.2 L29.9 -18.1 Q28.9 -18.4 29 -18.4 L28.3 -18.2 M37 6 L37 6.8 Q38.9 5.8 38.8 3 38.5 -3.7 38.8 -5.8 38.7 -6.7 38.4 -6.8 L38.2 -6.8 Q38.5 -1.1 38.2 1.9 L37.9 2 Q37.2 2.5 36.6 2.5 L37 6 M39.4 1.6 L39.4 2.2 Q40.4 1.4 40.4 -0.1 39.7 -7.4 39.2 -6.8 L39.4 -3.6 39.4 1.6 M15 6.8 L15 6.3 13.7 6.2 13.5 7.2 13.7 7.2 14.5 7.5 14.8 7.5 15 6.8 M10.6 9.4 L10.7 9.2 10.2 8.3 9.9 9.1 9.8 10.1 10.2 9.8 10.2 9.8 10.6 9.5 Q9.9 10 10.6 9.4 M11.2 10.6 Q11.3 10.2 10.9 9.4 L10.4 10.9 10.7 11.2 11.2 10.6 M11.6 11.7 L11.2 11.9 11.8 12.6 11.9 11.8 12.1 11.5 11.5 10.3 11.2 11.8 11.6 11.7 M16.8 7.3 L17.2 6.2 17.1 6.3 16.9 6.5 Q16.8 6.6 16.6 7.5 L16.8 7.3 M15.4 7.7 L16.3 7.6 16.3 6.7 16.3 6.3 15.2 6.4 15.2 7.7 15.4 7.7 M7.4 6.2 L7.8 5 7.2 4 7.4 6.2 M8.1 5.2 L7.7 6.1 7.7 7 8.7 6.1 8.1 5.2 M8.3 8 L8.7 8.4 9.2 7.1 8.7 6.2 Q8.2 7.7 8.3 8 M9.7 8.7 Q9.3 8.8 10.1 8.2 L9.4 7.3 9.2 9 9.4 9.5 9.8 8.6 9.7 8.7 9.7 8.7 M-1.1 20.8 L-1.1 21.4 -1.2 21.4 -1.4 20.3 -1.1 20.8 M3.5 19.1 L3.5 19.3 3.5 21.4 3.4 22.4 2.9 22.4 0.9 22.8 -1.9 22.8 -2.6 22.2 Q-3 21.8 -3.1 19.4 L-3.1 19 -3.1 18.8 -5.4 18.9 -8.8 19.4 -10.2 19.6 Q-12.4 20.2 -14.3 21.5 L-15.1 22.4 -14.8 24 -14.4 25.4 Q-13.4 26.3 -10 27.4 -5.6 28.8 -1.8 28.3 L-0.1 28.2 3.7 28.1 5.8 27.9 Q7.1 28.1 10.3 27.1 L14.8 25.6 15.9 24.1 16.1 24.1 Q16.4 23.6 16.4 23.1 L16.4 22.9 16.3 22.4 16.1 21.9 15.2 21.2 14.1 20.7 13.7 20.6 Q8.5 19.1 3.5 18.9 L3.5 19.1 M15 24.1 Q14.5 25.1 13.4 25.6 L11.3 26.5 11.2 26.4 12.9 25.4 15 23.8 15 24.1 M14.9 23.4 L14.6 23.3 Q14.9 23.4 14.8 23 L14.8 22.1 14.6 21.5 14.6 21.5 15 21.8 15.2 21.9 15.2 22.1 15.3 22.6 Q15.3 23.6 14.9 23.4 M0 21.7 L0.1 21.5 0.6 22.3 0.6 22.4 Q0.2 22.4 0 21.7 M15.1 13.4 L15.2 12.9 14.2 13 Q13.8 12.9 13.4 12.7 L13.3 13.3 13.2 13.9 13.5 14.2 14.2 14.8 Q14.8 14.4 15.1 13.4 M13.1 12.6 L13.2 12.4 12.3 11.6 12.2 13.1 12.9 13.7 13.1 12.6 Q12.2 13 13.1 12.6 M15.8 26.4 L16.6 24.9 15.4 26 14.9 26.4 12.2 27.4 5.9 28.6 3.5 28.9 -0.1 29 -1.8 29 -7.7 28.4 -12.8 27.4 -14.1 26.6 -15.8 24.2 Q-15.5 25.6 -14.8 26.4 L-12.8 28.2 Q-10.4 29.2 -8 29.6 L-1.9 29.9 -0.1 29.9 3.5 29.7 6 29.5 Q12.3 28.9 14.9 27.1 L15.8 26.4 M-29.1 -25.1 Q-28.4 -25.5 -28.1 -25.8 -27.4 -26.3 -28.5 -26.1 L-28.8 -25.6 -29.1 -25.1 M-27.1 -26.6 L-26.7 -26.8 Q-26.3 -27 -26.5 -27.1 L-27 -26.9 -27.1 -26.6 M-24.8 -19.4 L-24.8 -18.3 -22.7 -18.3 -22.7 -19.4 -24.8 -19.4 M-21.9 -19.1 L-20.2 -19.1 -19.1 -19.1 Q-18.1 -19.1 -18.1 -19.5 L-22.1 -20.1 -22.1 -19.6 Q-22.1 -19.1 -21.9 -19.1 M-28.2 -24.6 L-28 -24 -28 -24.5 -28.2 -24.6 M-25.9 -20.6 Q-22.8 -19.6 -22.8 -20.2 L-25.6 -21.2 -25.9 -20.6 M-20.7 -17.4 L-20.5 -16.8 -20.2 -17.4 -20.7 -17.4 M-23.1 -17.9 L-24.7 -17.9 -24.6 -16.9 -23.6 -17.4 -23.1 -17.9 M-21.9 -17.8 L-19.9 -18.2 -19.4 -18.4 -22.1 -18.9 -21.9 -17.8 M-8.8 -16.5 L-8.8 -17.4 -11.2 -17.4 -11.2 -16.5 -8.8 -16.5 M-8.7 -15.9 L-8.7 -16 Q-10.3 -15.9 -11.4 -15.3 L-11.2 -13.3 -11.1 -12.9 Q-9.8 -13.4 -9.7 -13.7 L-8.7 -15.9 M-9.2 -13.2 Q-11.1 -12.2 -12.2 -12.4 L-12.1 -12.1 -11.3 -11.9 Q-10.8 -11.9 -9.4 -12.7 -8.1 -13.4 -9.2 -13.2 M-6.2 -15.6 Q-5.8 -14.8 -5.8 -14.1 L-4.5 -15.4 Q-5 -17 -6 -17.2 L-8.1 -16.9 Q-6.9 -16.5 -6.2 -15.6 M-3 -17.1 L-4.5 -17.1 -4.1 -15.9 -3.5 -15.6 Q-3 -15.3 -3.1 -15.9 L-3 -17.1 M-3.5 -14.3 L-3.8 -13.3 -4 -12.2 Q-4 -11.6 -3.4 -11.3 L-2.8 -11.2 -2.6 -12.2 Q-2.9 -13.3 -3.5 -14.3 M-4.2 -15.2 Q-4.5 -13.2 -4.8 -13.2 L-4.5 -12.6 Q-4.2 -12.8 -4 -13.6 -3.9 -14.3 -4 -14.9 L-4.2 -15.2 M-5 -18.9 L-11.4 -19.1 -11.4 -18.1 -5.2 -17.9 -5 -18.9 M-17.5 -18.8 L-12 -18.2 -11.9 -19.1 -15.7 -19.4 Q-18.4 -19.6 -17.5 -18.8 M-15.3 -17.4 L-15.1 -17.6 -15.1 -17.8 -17 -18.1 -16.4 -17.1 -15.3 -17.4 M-17.1 -16.9 Q-17.2 -18.1 -17.6 -18.1 L-17.6 -16.8 -17.1 -16.9 M-12.7 -17.6 L-11.9 -16.4 Q-11.7 -15.8 -11.4 -16.2 -11.8 -16.9 -12.7 -17.6 M-14.9 -17.8 L-14.8 -17.6 Q-13.9 -17.6 -14.9 -17.8 M-11.6 -13.8 L-11.7 -14.2 -12.1 -14.2 -12.3 -13.8 Q-11.6 -13.7 -12.1 -13.6 L-12.7 -13.4 -11.9 -13.1 -11.4 -12.9 -11.6 -13.8 M-18.1 -7.2 Q-17.9 -6.5 -16.9 -5.4 L-15.3 -4 Q-15.5 -3.9 -15.8 -3.9 -16.8 -4.5 -18.2 -6.7 L-18.2 -7 -18.3 -7 -18.1 -7.2 M-17.5 11.8 L-16.9 11.4 -16.8 11.3 -15.8 11.3 -17.5 12.7 -17.5 11.8 M-1.9 26.9 L-5.3 27 Q-9.5 27 -11.4 25.4 -12.8 24.4 -12.8 23.2 L-12.6 22.2 -11.8 21.4 -12.1 21.9 -12.4 23.1 Q-12.4 24 -11.6 24.7 -10.4 25.7 -8 26.1 L-2 26.4 -0.8 26.4 -0.7 26.6 -1.9 26.9 M-0.6 20.9 Q-0.3 21.1 -0.2 22.1 L-0.6 22.3 -0.8 21.1 -0.6 20.9"/><path fill="#6699cc" stroke="none" d="M23.3 -13.1 Q24.1 -12.3 25.1 -10.2 22.4 -9.8 21.4 -6.5 L21.1 -4.6 Q20.9 -4.8 21.1 -4.9 L21.1 -5 20.9 -4.8 Q20.1 -4.8 19.5 -5.2 18.9 -5.5 18.9 -6.2 20.6 -5.2 20.8 -5.5 L18.8 -6.5 19.4 -7.9 19.5 -7.4 Q19.6 -7.2 20.1 -7.2 20.4 -7.2 21 -8.8 21.8 -11.1 23.3 -13.1 M22.4 -8.3 L23.9 -9.7 23.6 4.5 Q23.6 6.8 24.1 7 L25.9 7 26 7.8 24.1 8 22.2 7.7 22 -4.4 22.4 -8.3 M24.8 -9.7 L25.2 -9.7 25.9 6.2 25.1 0.8 24.8 -9.7 M24.4 9.7 Q24.3 12.8 22.2 12.8 21.4 12.8 18.9 10.9 16.5 9.1 15.9 8.1 L16.1 8.1 18.1 9.6 19.2 10.2 20.1 9.9 20.2 9.7 20.2 3 Q20.3 7.1 21 8.4 21.7 9.8 24.4 9.7 M19.9 -9.9 L18.6 -11.3 Q19.1 -11.4 20.9 -12.7 L22.6 -13.8 19.9 -9.9 M20.8 -3.3 L20.8 -2 19.4 -2.4 18.8 -2.9 19.8 -3.1 20.8 -3.3"/><path fill="#3366cc" stroke="none" d="M-17.4 3.4 L-17.5 3.4 -17.5 3.1 -17.4 3.4 M-17.7 2.5 L-19.4 2.5 -19.6 1.9 -19.9 -2.9 -20.2 -5.5 -20.3 -5.5 -20.6 -6.5 Q-20.6 -6.8 -20.9 -7.3 L-20.9 -9.4 -20.5 -10.1 -18 -10.1 -18.6 -8.5 Q-19.6 -5.9 -19.6 -4.5 -18.6 0.5 -17.9 2.2 L-17.7 2.5 M-14.2 -13.9 Q-14.1 -14.8 -14.2 -15.8 -14.2 -16.8 -14.4 -17.2 L-12.4 -16.8 -12 -15.4 -12.7 -14.2 -14.2 -13.9"/><path fill="#f42727" stroke="none" d="M-20.8 -16.5 L-22.4 -16.5 -21.9 -17.1 -21.1 -17.4 -20.8 -16.5 M-23.4 -16.5 L-24.7 -16.5 -24.7 -15.8 -25.2 -15.6 -25.2 -16.4 -24.9 -16.5 Q-23.4 -17 -22.7 -18 L-22.6 -18 -22.4 -17.4 -23.4 -16.5"/><path fill="#151515" stroke="none" d="M-10.9 11.3 L-10.1 11.3 -10.1 9.6 -9.6 8 Q-8.6 7.2 -7.2 5.5 L-6.5 5.6 -6.4 5.5 -6.4 6.2 -6.5 7.1 -9.4 11 Q-11.3 13.3 -13.3 14.3 L-13.4 13.8 Q-11.9 12.8 -10.9 11.3 M-8.2 -8.3 L-8.2 -8 -8.7 -8 -8.2 -8.3 M-9.3 -7.2 L-9.3 -5.3 -9.6 -5 -10 -4.7 -9.5 -6.3 -9.5 -6.4 -9.3 -7.2"/><path fill="#ffcc33" stroke="none" d="M-10.1 6 L-10.1 4.9 -9.8 4.9 -9.9 5.4 -10.1 6 M-9.9 -2 L-11.1 -2 -11.3 -3.8 -10 -4.7 -9.9 -2 M-9.2 -13.2 Q-8.1 -13.4 -9.4 -12.7 -10.8 -11.9 -11.3 -11.9 L-12.1 -12.1 -12.2 -12.4 Q-11.1 -12.2 -9.2 -13.2 M-6.8 -15.9 Q-7 -14.3 -9.2 -10.9 -11.1 -8 -11.8 -7.5 -12.6 -8.3 -13.4 -8.4 L-12.2 -11.7 Q-10.7 -11.6 -9.6 -12.1 -8.3 -12.8 -8.3 -14.1 -8.3 -16.1 -7.7 -16.4 L-6.8 -15.9"/><path fill="#333333" stroke="none" d="M-13.8 11.3 L-12.3 11.3 Q-13.1 12.2 -13.7 12.7 L-13.8 11.3 M-12 1 L-12.8 1 -13.4 -8 -12.9 -7.8 -12.4 -7.4 -12.1 -0.2 -12 1 M-14.1 1 L-14.2 1 -14.2 3.4 -14.6 3.4 -14.6 0.2 Q-14.6 -4.4 -14.9 -7.6 L-14.1 -7.8 -14 -0.2 -14.1 1 M-25.2 -18.6 L-25.2 -20.1 -25.1 -20.1 -25.1 -18.6 -25.2 -18.6 M-26.6 -20.1 L-27.1 -20.1 -27.1 -20.2 -27 -20.4 -26.6 -20.5 -26.6 -20.1 M-6.8 -15.9 L-6 -13.6 -6.5 -11.3 Q-7.8 -11.3 -8.6 -9.8 -9.5 -8.4 -9.5 -6.4 L-9.5 -6.3 -10 -4.7 -11.3 -3.8 -11.8 -7.5 Q-11.1 -8 -9.2 -10.9 -7 -14.3 -6.8 -15.9"/><path fill="#719bdb" stroke="none" d="M-15.2 -12.6 L-15.2 -14.9 Q-14.7 -16.1 -14.7 -17.2 L-14.4 -17.2 Q-14.2 -16.8 -14.2 -15.8 -14.1 -14.8 -14.2 -13.9 -14.4 -13.4 -15 -12.8 L-15.2 -12.6"/><path fill="#ffffff" stroke="none" d="M15.4 -13.3 L15.5 -13.5 Q16.4 -12.6 17.9 -12.6 L19.2 -13.1 21.9 -14.9 22.1 -14.8 Q21.8 -14.1 20.4 -13 18.9 -11.8 18 -11.8 15.9 -11.8 15.6 -12.3 L15.4 -13.3 M7.2 -14.3 Q7.5 -15.8 7.8 -15.9 7.8 -15.2 7.4 -14.3 L7.2 -13.7 7.2 -14.3 M15.5 -11.9 L10.7 -9.1 8.2 -7.6 15.3 -12.2 15.5 -11.9 M17.4 -9.4 Q17.2 -10.2 16.5 -11.4 L17.9 -11.2 17.4 -9.4 M13.4 -6.2 L17.2 -2.9 17.2 -2 15.6 -3.9 13.4 -5.8 13.4 -6.2 M7.7 1.4 L11.9 -5.8 Q11.9 -5 10.8 -3 8.6 0.6 7.7 2.4 L7.7 1.4"/><path fill="#ff99cc" stroke="none" d="M24.8 -13.7 L25.2 -13.1 Q24.9 -12.6 24.1 -13.4 L24.8 -13.7 M20.1 -15 L20.4 -15.8 21.4 -15.2 20.7 -14.6 Q20.1 -14.1 20.1 -14.3 L20.1 -15 M21.1 -16 L20.6 -16.3 22.1 -16.4 22 -16.4 22 -15.6 21.9 -15.7 21.1 -16"/><path fill="#ff91ea" stroke="none" d="M27.5 -16.1 Q27.5 -15.2 26.6 -14.7 25.6 -14.1 24.3 -14.1 L24.1 -14.4 Q23.9 -15.6 25.1 -17.1 L27.5 -16.1"/><path fill="#ffff00" stroke="none" d="M36 8.8 L35.4 9.1 35.3 9.2 34.3 9.2 Q35.4 8.4 34.8 3.6 L36.1 3.3 Q37 7.5 36 8.8 M32.2 9.5 L31.1 9.4 31.1 9.1 34 9.2 32.2 9.5 M33.1 -16.4 Q36.9 -14.3 36.2 -8.7 35.5 -2.5 37.6 -0.4 L37.5 1.6 34.6 1.4 34.5 -2.1 34.4 -7.2 Q33.9 -13.5 31.6 -15.2 L32.5 -15.8 33.1 -16.4 M31 -15.6 L30.6 -15.8 32.2 -16.9 32.6 -16.7 31 -15.6"/><path fill="#339900" stroke="none" d="M-18.2 -16.5 L-19.5 -16.5 -19.3 -18 -18.2 -18 -18.2 -16.5 M-19.8 -16.5 L-20.2 -16.5 -19.6 -17.6 -19.5 -17 -19.8 -16.5 M-17.1 -16.9 L-17.6 -16.8 -17.6 -18.1 Q-17.2 -18.1 -17.1 -16.9"/><path fill="#f20000" stroke="none" d="M5 -15.4 L5.8 -13.4 4.7 -14.1 5 -15.4 M5.6 -15.6 L6.9 -15.7 6.8 -13.4 5.6 -15.6 M7.7 0.7 L9.1 -5.8 Q9.8 -7.2 15.4 -11.2 L16.1 -8.9 16.1 -9.1 Q16.2 -9.4 15.2 -9.4 14.6 -9.4 14.1 -8.8 L13.2 -7.5 13.1 -7.8 12.2 -6.8 7.7 0.7 M16.8 -4 L13.3 -6.9 13.2 -7.2 13.6 -7.7 14.3 -8.2 15.3 -8.5 Q15.9 -8.5 16.1 -8 16.6 -7 16.8 -4 M15 6.8 L14.8 7.5 14.5 7.5 13.7 7.2 13.8 6.5 15 6.8 M10.6 9.4 Q9.9 10 10.6 9.5 L10.2 9.8 Q9.9 9.7 10.1 9.4 10.2 10 10.2 9 L10.6 9.4 M10.7 11.2 L10.9 10.1 11.2 10.6 10.7 11.2 M12.1 11.5 L11.9 11.8 11.8 12.6 11.2 11.9 11.6 11.7 Q11.9 11.4 11.6 11.1 L12.1 11.5 M17.1 6.3 L17.2 6.2 16.8 7.3 16.9 6.5 17.1 6.3 M15.4 7.7 L15.4 6.7 16.3 6.7 16.3 7.6 15.4 7.7 M8.3 8 L8.8 6.7 8.9 6.8 9.2 7.1 8.7 8.4 8.3 8 M9.7 8.7 L9.7 8.7 9.8 8.6 9.4 9.5 9.2 9 9.7 8.7 M15.1 13.4 Q14.8 14.4 14.2 14.8 L13.5 14.2 13.7 13.2 Q14.2 13.6 15.1 13.4 M13.1 12.6 Q12.2 13 13.1 12.6 L12.9 13.7 12.2 13.1 12.5 12.2 13.1 12.6"/><path fill="#febcbc" stroke="none" d="M8.1 -14.2 L8.1 -14.6 Q9.8 -12.2 12.9 -12.2 L14.3 -12.5 15.1 -12.7 Q13.3 -11.9 12.7 -11.5 L11.8 -10.8 10.3 -10.7 9.5 -10.9 9.2 -11.3 9 -12.3 Q9.4 -11.9 10.9 -11.5 L12.2 -11.4 Q11.5 -11.6 9.9 -12.6 8.3 -13.7 8.1 -14.2 M11.8 -3.8 L11.8 -2.2 Q11.8 -0.2 10.8 4.5 11.8 6.5 12.6 7.3 13.6 8.3 15.2 8.8 L15.2 12.2 14.6 12.8 Q12.9 11.8 10.7 8.4 L7.9 4.3 8.2 2.6 10.2 -0.9 11.8 -3.8 M13.4 -5.5 L16.9 -1.9 16.7 4.5 16.8 5 13.7 5 Q13.1 4.5 13.1 3.1 L13.4 -5.5 M17.4 4.7 L17.2 4.9 16.8 5 16.9 4.8 17.4 4.7"/><path fill="#eeacac" stroke="none" d="M8.1 -14.2 Q8.3 -13.7 9.9 -12.6 11.5 -11.6 12.2 -11.4 L10.9 -11.5 Q9.4 -11.9 9 -12.3 L9.2 -11.3 9.5 -10.9 10.3 -10.7 11.8 -10.8 8.3 -8.5 7.9 -9.5 7.7 -10.7 8.1 -14.2"/><path fill="#db9999" stroke="none" d="M8.3 -8.5 Q8.2 -8.4 8 -8.9 L7.9 -9.5 8.3 -8.5 M15.2 8.8 Q13.6 8.3 12.6 7.3 11.8 6.5 10.8 4.5 11.8 -0.2 11.8 -2.2 L11.8 -3.8 12.3 -4.5 12.6 -5 11.7 4.2 Q11.7 4.8 12.1 5.3 L12.3 6.4 Q12.3 7 13.3 7.6 L15.2 8.8 M8.2 2.6 L7.9 4.3 7.5 4 8.2 2.6 M17.2 4.9 L16.4 5.5 15.3 5.7 Q13.3 5.7 12.5 5 12.1 4.5 12.1 4.1 L12.4 0.8 12.9 -5.8 13.4 -5.5 13.1 3.1 Q13.1 4.5 13.7 5 L16.8 5 16.8 5 17.2 4.9"/><path fill="#cf0000" stroke="none" d="M7.7 0.7 L7.2 1.6 Q7.2 -4.2 7.8 -4.5 L8.1 -4.3 Q8.3 -4.2 8.3 -4.7 L8.2 -7 15.4 -11.2 Q9.8 -7.2 9.1 -5.8 L7.7 0.7 M13.3 -6.9 L12.8 -7.4 12.2 -6.8 13.1 -7.8 13.2 -7.5 13.2 -7.2 13.3 -6.9 M13.7 7.2 L13.5 7.2 13.7 6.2 15 6.3 15 6.8 13.8 6.5 13.7 7.2 M10.2 9.8 L10.2 9.8 9.8 10.1 9.9 9.1 10.2 8.3 10.7 9.2 10.6 9.4 10.2 9 Q10.2 10 10.1 9.4 9.9 9.7 10.2 9.8 M11.2 10.6 L10.9 10.1 10.7 11.2 10.4 10.9 10.9 9.4 Q11.3 10.2 11.2 10.6 M12.1 11.5 L11.6 11.1 Q11.9 11.4 11.6 11.7 L11.2 11.8 11.5 10.3 12.1 11.5 M16.8 7.3 L16.6 7.5 Q16.8 6.6 16.9 6.5 L17.1 6.3 16.9 6.5 16.8 7.3 M16.3 6.7 L15.4 6.7 15.4 7.7 15.2 7.7 15.2 6.4 16.3 6.3 16.3 6.7 M7.4 6.2 L7.2 4 7.8 5 7.4 6.2 M8.1 5.2 L8.7 6.1 7.7 7 7.7 6.1 8.1 5.2 M9.2 7.1 L8.9 6.8 8.8 6.7 8.3 8 Q8.2 7.7 8.7 6.2 L9.2 7.1 M9.2 9 L9.4 7.3 10.1 8.2 Q9.3 8.8 9.7 8.7 L9.2 9 M13.5 14.2 L13.2 13.9 13.3 13.3 13.4 12.7 Q13.8 12.9 14.2 13 L15.2 12.9 15.1 13.4 Q14.2 13.6 13.7 13.2 L13.5 14.2 M12.2 13.1 L12.3 11.6 13.2 12.4 13.1 12.6 12.5 12.2 12.2 13.1"/><path fill="#cccccc" stroke="none" d="M15.5 -11.9 L15.7 -11.7 11.7 -9.3 8.2 -7.2 8.2 -7.6 10.7 -9.1 15.5 -11.9 M11.9 -5.8 L12.8 -7 13.4 -6.2 13.4 -5.8 12.9 -6.2 Q11.7 -4.5 7.7 2.9 L7.2 3.6 7.2 2.5 7.2 1.9 7.7 1.4 7.7 2.4 Q8.6 0.6 10.8 -3 11.9 -5 11.9 -5.8"/><path fill="#ffd3d3" stroke="none" d="M16.9 -1.9 Q17.4 -1.3 17.4 4.7 L16.9 4.8 16.8 5 16.8 5 16.7 4.5 16.9 -1.9"/><path fill="#ff2d2d" stroke="none" d="M15.4 -11.2 L15.8 -11.4 Q16.4 -10.7 16.9 -7.5 17.4 -4.5 17.2 -3.5 L16.8 -4 Q16.6 -7 16.1 -8 15.9 -8.5 15.3 -8.5 L14.3 -8.2 13.6 -7.7 Q13.6 -8.2 14.3 -8.5 L16.1 -8.9 15.4 -11.2"/><path fill="#ff9900" stroke="none" d="M4.2 -11.3 L6.2 -12.8 Q6.5 -13.1 6.3 -13.7 L6.8 -12 4.9 -11.2 4.4 -10.6 Q6.7 -10.3 7.1 -8.8 7.2 -6.9 7.5 -6.3 L7.6 -5.7 5.6 -5.3 4 -5.5 Q3.9 -6.8 4.3 -10.2 3.8 -8 4.2 -11.3 M6.8 11.7 Q5 11.2 4.5 9.8 4 8.6 4 4.8 L4.2 -1 5.9 -1.1 5.4 8.7 Q5.4 10.1 6.8 11.5 L6.8 11.7"/><path fill="#003399" stroke="none" d="M-6.3 -1.1 L-6 -1.1 -6 -7 -5.7 -7 -5.7 -10.3 -5.8 -10.3 -5.8 -10.8 -4.5 -9.2 -4.7 -9.3 Q-5.9 -8.1 -5.9 -2.5 L-6 -1.1 -5.9 1.1 Q-5.7 3.6 -4.5 4.8 L-6.8 5 -6.3 -1.1 M-3.1 2.7 Q-3 -0.1 -3.4 -4.2 -4 -9.8 -5.2 -11.3 L-5.8 -11.2 -5.5 -13.3 -5.5 -12.9 Q-5.4 -12.5 -4.3 -11.4 L-2.9 -10.2 -2.5 -10.2 Q-2 -10.9 -1.9 -12.4 L-1.9 -12.2 -1.4 -8.8 Q-3 -7.8 -2.8 -1 L-2.2 7.1 Q-2.2 8.9 -3.4 10.3 -4.5 11.8 -6.2 12.1 L-6 7.1 Q-2.8 7.4 -2.8 5 -2.8 4.1 -3.1 2.7"/><path fill="#610061" stroke="none" d="M38.6 -7.3 Q37.9 -11.3 37.6 -14.9 37.1 -16.7 33.1 -18.4 L34.4 -19.2 Q37.5 -17.6 38.3 -14.8 L39.2 -7.5 38.6 -7.3 M26.6 -18.8 L27.1 -18.6 27.4 -18.3 27.1 -17.9 26.6 -17.8 Q26.4 -17.8 26.1 -17.9 L25.9 -18.3 26.1 -18.6 26.6 -18.8 M37.9 2 L38.2 1.9 Q38.5 -1.1 38.2 -6.8 L38.4 -6.8 Q38.7 -6.7 38.8 -5.8 38.5 -3.7 38.8 3 38.9 5.8 37 6.8 L37 6 Q38 5.5 38 4.2 L37.9 2"/><path fill="#247d24" stroke="none" d="M31.1 -21.1 L31.1 -21.4 Q37.6 -21.4 38.5 -17.6 L36.9 -19.4 Q35.6 -20.6 33.7 -20.4 L31.1 -21.1 M30.4 -21.1 L29.6 -21.1 Q30.4 -21.2 30.1 -21.3 29.8 -21.4 30.3 -21.9 L30.4 -21.1 M39.4 1.6 Q40.1 0.5 39.9 -1.1 L39.4 -3.6 39.2 -6.8 Q39.7 -7.4 40.4 -0.1 40.4 1.4 39.4 2.2 L39.4 1.6"/><path fill="#999999" stroke="none" d="M-27.1 -21.2 L-27.1 -22.1 -26.2 -21.5 -26.4 -20.9 -27.1 -21.2 M-27.9 -22.9 L-28.6 -22.9 -28.9 -23.9 -28.6 -23.6 -27.9 -22.9 M19.7 -26.6 L20.6 -26.6 23.6 -26.4 Q23.4 -26.2 23.8 -25.9 L23.9 -25.6 23.9 -25.9 Q23.9 -26.3 24.4 -26.3 25.4 -26.3 26.2 -25.8 L26.1 -24.9 Q26.1 -24.4 26.2 -24.4 L26.6 -24.8 26.9 -25.5 28.2 -24.9 29.2 -24.4 Q28.3 -24.1 27.8 -23.4 L27.1 -22.6 3.1 -23.3 3.1 -23.8 19.7 -26.6 M-23.9 -22.1 L-26.6 -22.7 Q-27.1 -22.9 -27.6 -23.4 L-27.4 -23.4 -26.8 -23.4 -27 -23.6 -27.3 -24.6 -27.9 -25.2 Q-27 -25.9 -25.7 -26.1 -24.8 -26.1 -24.8 -26.4 -24.8 -27 -23.9 -27.1 L-22.6 -27.1 -21.8 -27.1 -20.4 -27.4 -20.1 -27.4 -19.9 -27.4 -20.1 -27.3 Q-10.2 -25.6 -3 -23.8 L-3.1 -23.4 -14.2 -22.9 -23.9 -22.1 M-3 -29.2 L-3.1 -28.7 -2.6 -28.1 Q-1.9 -27.6 -0.3 -27.6 0.7 -27.6 2.4 -28.8 L3.5 -28.5 4.1 -27.9 4.1 -27.9 Q3.2 -27.2 2.6 -27.1 L-0.1 -26.8 -2.5 -27.1 Q-3.5 -27.4 -4.3 -28.2 L-3 -29.2 M3.3 -25.6 L4.3 -25.9 4.2 -25.5 3.3 -24.9 3.3 -25.6 M-3.6 -25 L-3.7 -25.4 -3.7 -25.1 Q-4.6 -25.4 -4.8 -25.9 L-3.6 -25.8 -3.6 -25 M17.8 -19.6 L18 -18.9 12.8 -18.2 12.8 -19.2 17.8 -19.6 M18.8 -18.9 L18.6 -19.7 25.2 -20.7 25.4 -20.2 18.8 -18.9 M12.1 -19.2 L12.2 -18.1 5.8 -18.1 5.8 -18.9 12.1 -19.2 M-1.2 -22.4 L-2.5 -22.8 -2.5 -24.2 -2.3 -24.2 -1.5 -24.1 -1.2 -22.4 M1.3 22.4 Q0 22.6 -1.1 22.4 L-1.1 21.4 -1.1 20.8 -1.1 20.2 Q-1.2 13.8 -0.7 13.2 L-0.2 13.1 Q0.1 12.8 0.2 11.8 L0.4 12.8 Q0.3 13.7 0.5 13.7 L0.9 13.7 Q1.6 14.3 1.3 22.4 M5.3 -18.1 L5.2 -18.1 Q2 -17.8 -4.6 -17.8 L-4.5 -18.9 5.2 -18.9 5.3 -18.1 M25.9 -20.4 Q25.2 -20.8 26.6 -21.2 L28.5 -21.7 28.6 -21.4 27.9 -21.1 25.9 -20.4 M27.9 -23 L27.9 -23.6 28.9 -23.8 29.6 -23.4 28.7 -22.6 27.9 -23 M0.3 14.9 L0.6 21.4 Q1.1 20.5 0.7 14.9 L0.3 14.9 M3.5 19.3 L3.5 19.1 Q6.7 19.1 10.2 20.4 13.7 21.6 14.8 23 14.9 23.4 14.6 23.3 L14.9 23.4 15 23.8 12.9 25.4 11.2 26.4 11.3 26.5 13.4 25.6 Q14.5 25.1 15 24.1 L15 24.4 14.8 25.6 10.3 27.1 Q7.1 28.1 5.8 27.9 L5.7 27.5 Q9.9 26.8 11.8 25.8 13.6 24.8 13.6 23.1 13.6 21.5 10.3 20.5 8 19.8 4.5 19.5 L3.5 19.3 M0 21.7 Q0.2 22.4 0.6 22.4 L0.6 22.3 0.1 21.5 0 21.7 M14.9 27.1 Q12.3 28.9 6 29.5 L5.9 28.6 12.2 27.4 14.9 26.4 14.9 27.1 M-1.9 29.9 L-8 29.6 Q-10.4 29.2 -12.8 28.2 L-12.8 27.4 -7.7 28.4 -1.8 29 -1.9 29.9 M-21.9 -19.1 Q-22.1 -19.1 -22.1 -19.6 L-22.1 -20.1 -18.1 -19.5 Q-18.1 -19.1 -19.1 -19.1 L-20.2 -19.1 -21.9 -19.1 M-25.9 -20.6 L-25.6 -21.2 -22.8 -20.2 Q-22.8 -19.6 -25.9 -20.6 M-28.2 -24.6 L-28 -24.5 -28 -24 -28.2 -24.6 M-17.5 -18.8 Q-18.4 -19.6 -15.7 -19.4 L-11.9 -19.1 -12 -18.2 -17.5 -18.8 M-5 -18.9 L-5.2 -17.9 -11.4 -18.1 -11.4 -19.1 -5 -18.9 M-14.4 25.4 Q-14.4 22.7 -11.8 20.8 -10.4 19.9 -8.8 19.4 L-5.4 18.9 -3.1 18.8 -3.1 19 Q-7.9 18.9 -10.9 20.8 -13.3 22.1 -13.3 23.6 -13.3 27.4 -1.9 27.6 L-1.8 28.3 Q-5.6 28.8 -10 27.4 -13.4 26.3 -14.4 25.4 M-0.6 20.9 L-0.8 21.1 -0.6 22.3 -0.2 22.1 Q-0.3 21.1 -0.6 20.9"/><path fill="#333300" stroke="none" d="M-24.8 -19.4 L-22.7 -19.4 -22.7 -18.3 -24.8 -18.3 -24.8 -19.4 M-20.7 -17.4 L-20.2 -17.4 -20.5 -16.8 -20.7 -17.4 M-23.1 -17.9 L-23.6 -17.4 -24.6 -16.9 -24.7 -17.9 -23.1 -17.9 M-21.9 -17.8 L-22.1 -18.9 -19.4 -18.4 -19.9 -18.2 -21.9 -17.8"/><path fill="#003333" stroke="none" d="M-15.4 -16.5 L-16.3 -16.5 -16.3 -16.6 -15.3 -16.8 -15.4 -16.5 M-8.7 -15.9 L-9.7 -13.7 Q-9.8 -13.4 -11.1 -12.9 L-11.2 -13.3 -11.4 -15.3 Q-10.3 -15.9 -8.7 -16 L-8.7 -15.9 M-8.8 -16.5 L-11.2 -16.5 -11.2 -17.4 -8.8 -17.4 -8.8 -16.5 M-15.3 -17.4 L-16.4 -17.1 -17 -18.1 -15.1 -17.8 -15.1 -17.6 -15.3 -17.4 M-12.7 -17.6 Q-11.8 -16.9 -11.4 -16.2 -11.7 -15.8 -11.9 -16.4 L-12.7 -17.6 M-14.9 -17.8 Q-13.9 -17.6 -14.8 -17.6 L-14.9 -17.8"/><path fill="#663300" stroke="none" d="M-3 -17.1 L-3.1 -15.9 Q-3 -15.3 -3.5 -15.6 L-4.1 -15.9 -4.5 -17.1 -3 -17.1 M-6.2 -15.6 Q-6.9 -16.5 -8.1 -16.9 L-6 -17.2 Q-5 -17 -4.5 -15.4 L-5.8 -14.1 Q-5.8 -14.8 -6.2 -15.6 M-4.2 -15.2 L-4 -14.9 Q-3.9 -14.3 -4 -13.6 -4.2 -12.8 -4.5 -12.6 L-4.8 -13.2 Q-4.5 -13.2 -4.2 -15.2"/><path fill="#40017e" stroke="none" d="M8.4 -15.8 L8 -16.6 5.8 -16.1 5.8 -16.1 6 -17.3 9.9 -17.5 9.2 -16.3 8.4 -15.8 M8.5 -15.5 L9.8 -15.6 9.7 -13.5 9.1 -14.2 8.5 -15.5"/><path fill="#204060" stroke="none" d="M13.9 -16.8 L14.1 -17.2 14.2 -15.9 13.9 -16.8 M14.2 -17.4 L14.3 -17.7 12.8 -17.3 14.6 -17.8 16.7 -18.1 16.7 -17.2 15 -17.2 14.1 -17.2 14.2 -17.4 M10.7 -17.6 L12.2 -17.6 Q12.1 -17.1 10.6 -16.5 L10.7 -17.6 M15.4 -16.5 L16.8 -16.5 16.9 -13.3 16.4 -13.5 Q15.8 -13.7 15.2 -14.8 L14.8 -16.2 Q15.4 -16.2 15.4 -16.5"/><path fill="#052b06" stroke="none" d="M18.2 -17.7 L18.1 -17.3 17.7 -17.1 Q17.5 -17.1 17.4 -17.3 17.2 -17.4 17.2 -17.7 L17.4 -18.1 17.7 -18.2 18.1 -18.1 18.2 -17.7 M18.9 -16.9 L18.9 -18.3 22.1 -18.8 22.2 -17.1 21.6 -17.1 20.2 -16.5 18.9 -16.9 M17.6 -13.2 L17.4 -13.8 17.3 -16.6 Q18.6 -16.8 20.1 -15.9 19.9 -14.4 19.4 -13.8 18.9 -13.2 17.6 -13.2"/><path fill="#011b54" stroke="none" d="M26.1 -19.2 L26.1 -19.6 27.9 -20.2 27.4 -19.6 26.9 -19.4 26.1 -19.2 M27.9 -18.6 L27.8 -18.5 Q27.4 -18.8 27.6 -18.9 L27.9 -18.6 M24.8 -17.5 L22.9 -17.2 22.8 -18.9 25.4 -19.5 25.3 -18.7 24.8 -17.5"/><path fill="#cc0066" stroke="none" d="M5 -16.1 L3.5 -16.6 2.9 -16.8 2.9 -17.2 5.2 -17.2 5 -16.1 M4.3 -14.6 Q4.2 -15.9 4.6 -15.6 L4.5 -15.1 4.3 -14.6 M34.1 -23.3 L34 -22.4 Q31.9 -22.1 30.6 -23.4 L34.1 -23.3"/><path fill="#6c6c6c" stroke="none" d="M3.9 -19.6 L-3.7 -19.6 -3.8 -19.8 -1.2 -21.8 2.2 -21.9 3.9 -19.6 M4.1 -27.9 L4.3 -26.6 1.9 -26.3 -0.8 -26.1 -3.5 -26.4 Q-4.2 -26.9 -4.3 -28.2 -3.5 -27.4 -2.5 -27.1 L-0.1 -26.8 2.6 -27.1 Q3.2 -27.2 4.1 -27.9 M1.6 -24 L1.8 -22.5 -0.2 -22.4 -0.5 -24.1 1.6 -24 M-1.8 22.1 Q-2.5 21.1 -2.5 16.9 L-2.7 15.1 Q-2.8 13.1 -1.9 11.6 -1 9.8 -0.8 4.7 -0.6 1.8 -0.6 -5.7 -0.6 -8.1 -1 -10.7 -1.1 -11.8 -1.9 -13.2 L-2.6 -14.4 -2.5 -17.1 2.4 -17.1 2.5 -15.7 2.5 -14.4 2.1 -12.5 1.7 -10.6 2.1 2.1 2.8 11.8 3 17.6 Q3 20.3 2 22.1 L1.5 8.6 1.1 -13.8 1.4 -14.8 -0.8 -14.6 -0.7 -13.1 -0.2 -12.7 Q0.4 -10.6 0.4 4.5 0.4 7.2 -0.4 9.5 -1.4 12.2 -1.8 17.9 L-2 17.9 -2 18.9 -1.9 21.1 -1.8 21.1 -1.8 22.1 M3.5 19.3 L4.5 19.5 Q12.2 21.4 12.2 23.6 12.2 24.2 11.6 24.6 10.1 25.6 5.3 26.6 L3.5 21.4 3.5 19.3 M3.5 26.9 L5.3 26.6 5.7 27.5 3.6 27.6 3.7 28.1 -0.1 28.2 -0.2 27.7 3.6 27.6 3.5 26.9 M3.5 29.7 L-0.1 29.9 -0.1 29 3.5 28.9 3.5 29.7 M-8 26.1 Q-11.1 24.8 -11.8 23 -11.8 20.1 -3.1 19.4 -3 21.8 -2.6 22.2 L-2 26.4 -8 26.1 M-1.9 27.6 L-1.9 27.1 -0.5 27.1 -0.2 27.7 -1.9 27.6"/><path fill="#838383" stroke="none" d="M10.3 -19.9 L3.9 -19.6 2.2 -21.9 3.1 -22.6 10.3 -19.9 M-3.8 -19.8 L-3.8 -20.2 -4.3 -20.2 -4.8 -19.6 -10.3 -19.8 -10.6 -20.2 Q-5.2 -21.4 -3 -22.1 L-3 -22.1 -2.6 -22.2 -1.2 -21.8 -3.8 -19.8 M3.3 -24.9 Q-1.1 -24.5 -3.6 -25 L-3.6 -25.8 Q-0.3 -25.2 3.3 -25.6 L3.3 -24.9 M1.6 -24 L2.4 -24.1 2.4 -22.6 1.8 -22.5 1.6 -24 M-0.2 -22.4 L-1.2 -22.4 -1.5 -24.1 -0.5 -24.1 -0.2 -22.4 M-1.8 22.1 L-1.8 21.1 Q-1.6 19.3 -1.8 17.9 -1.4 12.2 -0.4 9.5 0.4 7.2 0.4 4.5 0.4 -10.6 -0.2 -12.7 L-0.7 -13.1 -0.8 -14.6 1.4 -14.8 1.1 -13.8 1.5 8.6 2 22.1 1.3 22.4 Q1.6 14.3 0.9 13.7 L0.5 13.7 Q0.3 13.7 0.4 12.8 L0.2 11.8 Q0.1 12.8 -0.2 13.1 L-0.7 13.2 Q-1.2 13.8 -1.1 20.2 L-1.1 20.8 -1.4 20.3 -1.2 21.4 -1.1 21.4 -1.1 22.4 -1.8 22.1 M4.5 19.5 Q8 19.8 10.3 20.5 13.6 21.5 13.6 23.1 13.6 24.8 11.8 25.8 9.9 26.8 5.7 27.5 L5.8 27.9 3.7 28.1 3.6 27.6 5.7 27.5 5.3 26.6 Q10.1 25.6 11.6 24.6 12.2 24.2 12.2 23.6 12.2 21.4 4.5 19.5 M-0.2 27.7 L-0.1 28.2 -1.8 28.3 -1.9 27.6 Q-13.3 27.4 -13.3 23.6 -13.3 22.1 -10.9 20.8 -7.9 18.9 -3.1 19 L-3.1 19.4 Q-11.8 20.1 -11.8 23 -11.1 24.8 -8 26.1 -10.4 25.7 -11.6 24.7 -12.4 24 -12.4 23.1 L-12.1 21.9 -11.8 21.4 -12.6 22.2 -12.8 23.2 Q-12.8 24.4 -11.4 25.4 -9.5 27 -5.3 27 L-1.9 26.9 -1.9 27.1 -1.9 27.6 -0.2 27.7 M6 29.5 L3.5 29.7 3.5 28.9 5.9 28.6 6 29.5 M-0.1 29.9 L-1.9 29.9 -1.8 29 -0.1 29 -0.1 29.9"/><path fill="#bcbcbc" stroke="none" d="M-12.6 -28.2 L-8.5 -28.2 -5 -28.6 -5.1 -28.2 -5.2 -26.2 Q-5.2 -25.4 -4.8 -24.9 L-12.6 -28.2 M2.5 -29.6 L2.8 -29.5 4.1 -27.9 3.5 -28.5 2.4 -28.8 Q0.7 -27.6 -0.3 -27.6 -1.9 -27.6 -2.6 -28.1 L-3.1 -28.7 -3 -29.2 -3 -29.2 -2.8 -29.3 2.4 -29.6 Q2 -28.9 2.5 -28.9 L2.8 -29.3 2.5 -29.6 M5 -26.3 L5 -26.3 Q5.2 -27.1 4.7 -28.4 L4.7 -28.4 4.8 -28.4 7 -28.3 5 -26.3 M1 -28.4 L1.5 -28.9 1 -29.4 -0.2 -29.6 -1.4 -29.4 -2 -28.9 Q-2 -28.6 -1.4 -28.4 L-0.2 -28.2 1 -28.4 M14.8 25.6 L15 24.4 15 24.1 15 23.8 14.9 23.4 Q15.3 23.6 15.3 22.6 L15.2 22.1 15.9 23 15.7 23.9 15 24.4 15.9 24.1 14.8 25.6 M14.8 23 Q13.7 21.6 10.2 20.4 6.7 19.1 3.5 19.1 L3.5 18.9 Q8.5 19.1 13.7 20.6 13.3 21.3 13.8 21.3 L14.1 20.7 15.2 21.2 14.7 21.4 15 21.8 14.6 21.5 14.6 21.5 14.8 22.1 14.8 23 M15.4 26 L15.8 26.4 14.9 27.1 14.9 26.4 15.4 26 M-12.8 28.2 L-14.8 26.4 -14.1 26.8 -14.1 26.6 -12.8 27.4 -12.8 28.2 M-14.4 25.4 L-14.8 24 -15.1 22.4 -14.2 22.6 -14.2 22.1 -14.3 21.5 Q-12.4 20.2 -10.2 19.6 L-8.8 19.4 Q-10.4 19.9 -11.8 20.8 -14.4 22.7 -14.4 25.4"/><path fill="#acacac" stroke="none" d="M19.7 -26.6 L3.1 -23.8 Q5 -24.8 5 -25.6 L5 -26.3 7 -28.3 8.1 -28.3 Q8 -27.6 8.1 -27.6 8.8 -27.9 8.5 -28.3 L12.1 -28 Q11.8 -27.4 12.2 -27.2 L15.9 -27.2 19.8 -27.1 Q19.6 -27.1 19.7 -26.6 M-20.1 -27.4 L-20.1 -27.5 -15.7 -27.8 -12.6 -28.2 -4.8 -24.9 Q-4.1 -24.9 -3.5 -24.6 -3 -24.2 -3 -23.8 -10.2 -25.6 -20.1 -27.3 L-19.9 -27.4 -20.1 -27.4"/><path fill="#8e8e8e" stroke="none" d="M3.1 -23.3 L27.1 -22.6 Q26.6 -21.6 25.4 -21.6 L24.6 -21.7 24.2 -21.8 21 -21 18.2 -20.5 Q17.6 -20.5 17.4 -20.9 L17.2 -21.1 16.6 -20.6 Q16 -20.2 14.8 -20.2 L11.4 -20.1 10.3 -19.9 3.1 -22.6 3.1 -23.3 M-10.6 -20.2 Q-13.4 -19.6 -15.6 -20.1 -16.6 -20.4 -17.2 -20.8 L-18.1 -20.6 -19.1 -20.4 Q-19.6 -20.4 -20.4 -20.9 L-21.6 -21.2 -23.9 -21.4 Q-23.6 -21.4 -23.4 -21.8 L-23.9 -22.1 -14.2 -22.9 -3.1 -23.4 -3.1 -22.7 -3 -22.1 Q-5.2 -21.4 -10.6 -20.2"/><path fill="#3f3f3f" stroke="none" d="M2.9 22.4 L3.5 26.9 -0.5 27.1 -1.9 22.8 0.9 22.8 2.9 22.4"/><path fill="#565656" stroke="none" d="M-12.8 1 L-14.1 1 -14 -0.2 -14.1 -7.8 -13.4 -8 -12.8 1 M3.5 21.4 L5.3 26.6 3.5 26.9 2.9 22.4 3.4 22.4 3.5 21.4 M-1.9 22.8 L-0.5 27.1 3.5 26.9 3.6 27.6 -0.2 27.7 -0.5 27.1 -1.9 27.1 -1.9 26.9 -0.7 26.6 -0.8 26.4 -2 26.4 -2.6 22.2 -1.9 22.8"/><path fill="#d7a40b" stroke="none" d="M-9.2 4.9 L-8 4.9 -8 2.3 -7.3 2.3 -7.5 5.5 -7.2 5.5 Q-8.6 7.2 -9.6 8 L-9.3 5.4 -9.2 4.9 M-9.3 -5.3 L-9.3 -2 -9.4 -2 -9.6 -5 -9.3 -5.3"/><path fill="#ffef56" stroke="none" d="M-12.2 -11.7 L-13.4 -8.4 -14.9 -8 -13.8 -10.4 -12.8 -12.7 -12.2 -11.7"/><path fill="#ebb81f" stroke="none" d="M-10.1 8.3 L-10.1 6 -9.9 5.4 -9.8 4.9 -9.2 4.9 -9.3 5.4 -9.6 8 -10.1 8.3 M-9.4 -2 L-9.9 -2 -10 -4.7 -9.6 -5 -9.4 -2"/><path fill="#0b3ea4" stroke="none" d="M-15.2 3.4 L-17.4 3.4 -17.5 3.1 -17.5 2.5 -17.7 2.5 -17.9 2.2 -18.6 -3.5 -18.2 -6.7 Q-16.8 -4.5 -15.8 -3.9 -15.5 -3.9 -15.3 -4 L-16.9 -5.4 Q-17.9 -6.5 -18.1 -7.2 -17.9 -8.4 -16.7 -10.1 L-15.2 -10.1 -15.2 -11.8 Q-14.1 -13 -13.2 -13.6 L-14.4 -10.6 -15.4 -8.2 Q-15.2 -3 -15.2 0.3 L-15.2 3.4 M-19.4 2.5 L-19.4 2.5 -19.6 1.9 -19.4 2.5 M-20.1 2.5 L-20.9 2.5 -20.9 -6.3 -20.6 -6.5 -20.3 -5.5 Q-20.5 -5.2 -20.5 -2.6 L-20.1 2.5 M-12.3 -13.8 L-11.6 -13.8 -11.4 -12.9 -11.9 -13.1 -12.7 -13.4 -12.1 -13.6 Q-11.6 -13.7 -12.3 -13.8 M-16.8 11.3 L-16.9 11.4 -17.5 11.8 -17.5 11.3 -16.8 11.3"/><path fill="#5689ef" stroke="none" d="M-20.9 -9.4 L-20.9 -10.1 -20.5 -10.1 -20.9 -9.4"/><path fill="#1f52b8" stroke="none" d="M-18 -10.1 L-16.7 -10.1 Q-17.9 -8.4 -18.1 -7.2 L-18.3 -7 -18.2 -7 -18.2 -6.7 -18.6 -3.5 -17.9 2.2 Q-18.6 0.5 -19.6 -4.5 -19.6 -5.9 -18.6 -8.5 L-18 -10.1 M-15.2 -11.8 L-15.2 -12.6 -15 -12.8 Q-14.4 -13.4 -14.2 -13.9 L-12.7 -14.2 -13.2 -13.6 Q-14.1 -13 -15.2 -11.8 M-12.3 -13.8 L-12.1 -14.2 -11.7 -14.2 -11.6 -13.8 -12.3 -13.8"/><path fill="#cc0000" stroke="none" d="M-24.7 -15.3 L-24.7 -14.9 -25.2 -14.9 -25.2 -15.2 -24.8 -15.3 -24.7 -15.3"/><path fill="#e01515" stroke="none" d="M-24.7 -15.3 L-24.7 -15.3 -24.8 -15.3 -24.7 -15.3"/><path fill="#1346ac" stroke="none" d="M-6 -1.1 L-5.9 -2.5 Q-5.9 -8.1 -4.7 -9.3 L-4.5 -9.2 Q-3.9 -5.3 -3.6 -0.6 L-3.3 3.2 -3.1 2.8 -3 4.8 -3.7 4.9 -4.5 4.8 Q-5.7 3.6 -5.9 1.1 L-6 -1.1"/><path fill="#001f85" stroke="none" d="M-3.1 2.7 Q-2.8 4.1 -2.8 5 -2.8 7.4 -6 7.1 L-6 5.5 -3.6 5 -3.7 4.9 -3 4.8 -3.1 2.8 -3.1 2.7 M-6.2 12.1 Q-4.5 11.8 -3.4 10.3 -2.2 8.9 -2.2 7.1 L-2.8 -1 Q-3 -7.8 -1.4 -8.8 -1.1 0.7 -1.4 5.2 -1.7 13.2 -6.2 12.8 L-6.2 12.1 M-3.5 -14.3 Q-2.9 -13.3 -2.6 -12.2 L-2.8 -11.2 -3.4 -11.3 Q-4 -11.6 -4 -12.2 L-3.8 -13.3 -3.5 -14.3"/><path fill="#eb8500" stroke="none" d="M3.9 -16.1 L4 -16.1 Q4.2 -13.9 4.3 -13.8 L5.8 -13.1 5.2 -12.6 Q5 -12.2 4.5 -12.2 3.9 -12.2 3.6 -11.9 L3.1 -11.4 2.6 -11.6 2.6 -12.6 3.1 -14.1 3.9 -16.1 M4.2 -11.3 Q3.8 -8 4.3 -10.2 3.9 -6.8 4 -5.5 L5.6 -5.3 7.6 -5.7 Q6.3 -3.5 4.7 -3.5 L3.5 -3.8 3 -3.9 3 -3.8 Q3 -3.6 3.6 -3.4 L4.8 -3 6.2 -3.2 6.3 -3 Q6.3 -1.6 5.9 -1.1 L4.2 -1 4 4.8 Q4 8.6 4.5 9.8 5 11.2 6.8 11.7 L6.3 12.4 5.3 12.7 Q2.4 12.7 2.2 2.5 2 -2.8 2.2 -11.3 L4.2 -11.3 M4 -5 L4 -5 Q4.2 -4.5 4.5 -4.3 L5.5 -4.2 6.6 -4.4 6.6 -5 6.3 -5 4 -5"/><path fill="#ffbc23" stroke="none" d="M7.5 -6.3 Q7.2 -6.9 7.1 -8.8 6.7 -10.3 4.4 -10.6 L4.9 -11.2 6.8 -12 7.5 -6.3 M5.9 -1.1 Q6.3 -1.6 6.3 -3 6.7 1.2 6.8 11.5 5.4 10.1 5.4 8.7 L5.9 -1.1"/><path fill="#3e71a4" stroke="none" d="M13.6 -16.1 Q13.8 -15.8 14.2 -15.8 L14.2 -14.7 13.3 -15.3 13.6 -16.1 M11.4 -12.9 Q11.6 -13.1 11.6 -13.8 L11.5 -14.6 10.9 -14.3 Q11.3 -14.2 11.1 -12.9 10.7 -12.9 10 -13.3 L10.2 -14.2 10.4 -15.7 Q12.3 -15.7 12.8 -15.2 12.5 -14.1 12.7 -13.9 L13.6 -13.1 13.6 -12.9 11.4 -12.9 M12.1 -16.6 L12 -16.5 11.8 -16.4 Q11.5 -16.4 12.1 -16.6 M12.9 -14.2 Q13.1 -14.6 13.4 -14.5 L14 -14.1 13.8 -13.6 12.9 -14.2 M19.1 -9.2 L19.3 -10.1 19.8 -9.3 21.9 -11.5 22.5 -12.2 19.7 -8.4 19.1 -9.2 M21.4 -6.5 L22.4 -8.3 22 -4.4 22.2 7.7 24.1 8 26 7.8 26.1 8.2 21.9 7.9 21.7 5.2 Q21.2 0.6 21.1 -4.6 L21.4 -6.5 M18.2 -2.5 Q19.6 -1 20.8 -1.2 21.4 0.2 20.8 5.2 20.8 9.3 24.5 9.1 L24.4 9.7 Q21.7 9.8 21 8.4 20.3 7.1 20.2 3 L20.4 -0.1 Q19.4 -0.1 18.9 -0.8 18.2 -1.4 18.2 -2.5 M17.6 -7 L17.5 -8 Q17.8 -9.6 18.1 -10.9 L19.1 -10.4 18.6 -9.5 Q18.1 -9.2 17.6 -7 M18.6 -4.5 L18.7 -4.8 Q19.5 -3.9 20.5 -4.1 L20.6 -4.1 20.9 -4.1 20.4 -3.4 19.6 -3.1 Q19.1 -3.2 18.9 -3.6 18.6 -4 18.6 -4.5"/><path fill="#5285b8" stroke="none" d="M22.5 -12.2 L23.2 -13.2 23.3 -13.1 Q21.8 -11.1 21 -8.8 20.4 -7.2 20.1 -7.2 19.6 -7.2 19.5 -7.4 L19.4 -7.9 18.8 -6.5 Q18.6 -6.2 18.3 -5 L18.1 -2.9 18.1 -2.4 Q18.1 -2.5 18.2 -2.5 18.2 -1.4 18.9 -0.8 19.4 -0.1 20.4 -0.1 L20.2 3 20.2 9.7 20.1 9.9 19.2 10.2 18.1 9.6 16.1 8.1 Q18 6.8 18.1 2 L17.9 -3.9 19.1 -9.2 19.7 -8.4 22.5 -12.2 M18.6 -9.5 L17.8 -5.5 17.6 -7 Q18.1 -9.2 18.6 -9.5 M18.6 -4.5 Q18.6 -4 18.9 -3.6 19.1 -3.2 19.6 -3.1 L20.4 -3.4 20.9 -4.1 20.8 -3.3 19.8 -3.1 18.8 -2.9 19.4 -2.4 20.8 -2 20.8 -1.4 19.2 -1.8 Q18.4 -2.1 18.4 -2.9 18.4 -3.9 18.6 -4.5"/><path fill="#89bcef" stroke="none" d="M23.9 -9.7 L24.8 -9.7 25.1 0.8 25.9 6.2 25.9 7 24.1 7 Q23.6 6.8 23.6 4.5 L23.9 -9.7"/><path fill="#d7d700" stroke="none" d="M31.1 9.1 L31.8 8.4 32.9 8 Q34.1 7.5 34.1 6.2 L33.8 2.2 34.9 2.5 36.1 3.3 34.8 3.6 Q35.4 8.4 34.3 9.2 L34.2 9.2 34 9.2 31.1 9.1 M33.8 1.4 Q33.6 -9.2 33.4 -11.3 33 -13.9 31.2 -15.1 L31.6 -15.2 Q33.9 -13.5 34.4 -7.2 L34.5 -2.1 34.6 1.4 37.5 1.6 33.8 1.4 M30.6 -15.3 L30.1 -15.6 30.6 -15.8 31 -15.6 30.6 -15.3 M29.6 -15.9 L27 -17.4 31.9 -17.4 29.6 -15.9"/><path fill="#fefe5f" stroke="none" d="M33.1 -16.4 L33.6 -17.1 Q36.8 -16.1 37.4 -10.8 L37.6 -0.4 Q35.5 -2.5 36.2 -8.7 36.9 -14.3 33.1 -16.4"/><path fill="#390039" stroke="none" d="M38.6 -7.3 Q38 -8.6 37.9 -10.7 L37.5 -13.9 Q36.8 -17.4 32.1 -18 L33.1 -18.4 Q37.1 -16.7 37.6 -14.9 37.9 -11.3 38.6 -7.3 M37.9 2 L38 4.2 Q38 5.5 37 6 L36.6 2.5 Q37.2 2.5 37.9 2"/><path fill="#842384" stroke="none" d="M34.4 -19.2 Q36 -19.9 38 -17.2 40.3 -13.8 40 -7.5 L39.2 -7.5 38.3 -14.8 Q37.5 -17.6 34.4 -19.2"/><path fill="#005500" stroke="none" d="M31.1 -21.1 L33.7 -20.4 31.1 -20.8 31.1 -21.1 M30.9 -20.1 L34.2 -19.6 Q31.9 -18.6 30.9 -18.3 L29.6 -18.8 29.8 -19.9 30.9 -20.1 M28.9 -20.6 L28.9 -20.3 28.9 -19.9 28.6 -19.9 28.3 -19.9 28.1 -20.3 28.3 -20.6 28.6 -20.8 28.9 -20.6 M28.3 -18.2 L29 -18.4 Q28.9 -18.4 29.9 -18.1 L28.3 -18.2 M39.4 -3.6 L39.9 -1.1 Q40.1 0.5 39.4 1.6 L39.4 -3.6"/><path fill="#47a047" stroke="none" d="M38.5 -17.6 Q37.6 -21.4 31.1 -21.4 L31.1 -22.1 37 -21.2 Q38.3 -20.8 38.5 -17.6"/><path fill="#dfdfdf" stroke="none" d="M2.5 -29.6 L2.8 -29.3 2.5 -28.9 Q2 -28.9 2.4 -29.6 L2.5 -29.6 M1 -28.4 L-0.2 -28.2 -1.4 -28.4 Q-2 -28.6 -2 -28.9 L-1.4 -29.4 -0.2 -29.6 1 -29.4 1.5 -28.9 1 -28.4 M0.3 14.9 L0.7 14.9 Q1.1 20.5 0.6 21.4 L0.3 14.9 M13.7 20.6 L14.1 20.7 13.8 21.3 Q13.3 21.3 13.7 20.6 M15.2 21.2 L16.1 21.9 16.3 22.4 16.4 22.9 16.4 23.1 Q16.4 23.6 16.1 24.1 L15.9 24.1 15 24.4 15.7 23.9 15.9 23 15.2 22.1 15.2 21.9 15 21.8 14.7 21.4 15.2 21.2 M15.4 26 L16.6 24.9 15.8 26.4 15.4 26 M-14.8 26.4 Q-15.5 25.6 -15.8 24.2 L-14.1 26.6 -14.1 26.8 -14.8 26.4 M-14.3 21.5 L-14.2 22.1 -14.2 22.6 -15.1 22.4 -14.3 21.5"/></g><g id="c13"><path fill="#000000" stroke="none" d="M81 50.1 Q76.2 76.1 63.5 100.5 58.9 109.5 54.5 115.7 50.6 121 49.2 121.2 49.5 121.2 49.4 120.7 49.2 120.1 49.7 120 48.1 120.2 43.3 126.2 L36 135.7 35 136.8 Q19.2 156.5 12.3 174.1 5.2 191.9 5.2 212.9 5.2 251.8 34 274.1 46.1 283.4 61.8 288.4 76.3 292.9 91.1 292.9 103.2 292.9 114 289.8 122.1 287.4 133.7 281.8 130.7 277.2 130 275.6 129 273.4 129 270.2 129 266.8 129.4 262.9 131.2 255.4 131.7 254.4 132 254.5 132.4 253.2 L139.8 238.8 Q145.8 227.1 146.1 227.1 152.7 216.3 153.4 213.9 L155.1 210.2 159.8 197.4 128.1 171.1 123.8 167.4 121 165.1 Q122.5 165.5 123.5 166.7 L125.5 168.3 Q147.3 187.5 168.8 201.8 191.2 216.8 198.9 216.8 207.4 216.8 226.3 185.6 231.7 176.7 240.3 161 248.2 146.8 250.3 143.6 253.1 139.5 255.8 132.2 258.1 126.2 258.8 122.8 L261.2 105.4 261.1 91.5 Q252 100.3 245.8 110 241.9 115.8 239.8 120.8 L237.6 127.3 Q236.8 128.8 236.8 129.4 L236.9 129.7 230.1 135.1 188.9 166.9 Q189.4 167.1 188.4 167.1 L187.7 167 187.6 166.8 194.7 160.2 196.4 158.5 Q183.2 143.1 175.9 131.1 169.8 121 163.2 104.6 L163.1 104.2 162.8 103.6 163.3 103.8 Q163.7 104.2 164.9 106.9 L167.8 112.7 167.8 108.3 168 100.8 167.9 97.7 162.1 91 Q156 84.5 155.4 83.3 154.8 81.8 154.3 79.3 153.8 77 153.8 76.2 153.8 73 155.2 69.8 156.7 66.8 159.2 64.5 156.6 63.1 155.3 59.4 154.4 56.7 154.4 54 154.4 37.7 159.8 29.1 163.3 23.6 166.8 23.1 L169.3 24.3 Q167.8 11.8 156.1 2.8 144.7 -6.1 131 -6.1 112.5 -6.1 99.7 8.8 87.2 23.2 81 50.1 M176.2 209.8 Q175.6 218.7 170.1 238.5 163.7 261.4 159.3 261.4 158.8 261.4 156.3 264.8 L152.9 269.2 Q170.7 274.2 177.7 280.4 185.3 287.1 185.3 299.1 185.3 307.9 183 314.5 180.8 320.6 177.7 322.5 170.5 326.6 151.4 330.3 128.4 334.6 103.5 334.6 71.4 334.6 56.5 326.2 44.5 319.4 44.5 307.4 46 299.9 46.8 298.4 44.5 299.6 38.5 301.1 L30.9 302.6 Q17.8 302.6 9.4 296.9 0.1 290.6 0.1 279.3 L1.6 273 Q3 266.9 3.6 265.6 4.8 262.6 8.7 256.7 L12.2 251.2 Q12.2 248.5 9.7 243.4 6.8 237.7 6.3 235.6 L3.8 222.4 Q3 218 3 212.7 3 180.3 22.5 149.9 29.5 139.1 39.8 127.3 L55.6 110 Q58 107.3 63.4 96.5 68.4 86.6 69.4 83.3 L81.3 44.1 Q87.5 24 89.6 19.2 96.8 3.4 113.5 -3.7 123.8 -8 133.4 -8 154.9 -8 166.3 12.6 170.7 20.4 172.8 30.3 174.6 38.4 174.3 45.2 L188.5 44.5 Q203.2 44.5 213.2 50.8 223.9 57.7 223.9 69.3 223.9 78.1 215.8 84.6 207.3 91.4 194.9 91.4 L186.8 90.8 Q189.1 93.3 185.3 96.7 181.7 99.9 177.8 99.5 177.8 102.5 178.7 115.5 179.5 127.7 179.6 132.9 L180 133.7 198.1 157.2 235.2 128.5 Q238.5 116 246.3 105.5 253.3 96 258.2 91.2 261.4 88.2 262 88.2 L262.8 88.4 262.9 88.5 263.2 105.5 Q263.2 116.5 258.1 130.5 253.2 144.1 242.9 161.8 231.8 183.4 223.4 195.8 207.9 218.7 195.3 218.7 L192.8 218.3 190.8 217.9 Q188.8 217.5 184 214.8 179.8 212.4 177.3 210.6 L176.2 209.8 M174.3 45.2 L174.3 45.2 174.3 46.1 174.3 45.2 174.3 46.1 174.3 45.2 174.3 45.2 M221.2 74.5 Q221.9 71.7 221.9 69.7 221.9 61.6 215.6 55.5 206.7 46.9 187.9 46.9 L177.8 47.4 Q176.1 47.9 175 48.8 L174.9 48.4 174.6 48.2 173.9 52.5 173.7 54 Q173 56.2 170.7 59.2 L170.6 59.2 173.3 60 174.8 61.1 174.4 61 Q166.7 61 161.3 66.6 159.8 68.2 158.7 69.9 156 73.5 155.4 78 L155.8 80 Q157.4 84.4 163.6 90.8 171.1 98.5 176.5 97.6 L176.8 97.6 177.9 97.5 Q180.8 97.3 182.9 96.3 185.9 94.9 185.9 92.8 L185.6 91.5 Q185 90.5 184.2 89.8 L181.4 88.8 181.4 89.1 Q181.9 89.5 182.2 91.2 L182.7 91.3 183.2 91.2 Q180.8 93.3 179.2 93.3 173.4 93.3 170.8 91.4 169.3 90.3 165.2 84.7 L165.1 84.6 Q163.7 81.8 163.4 77.8 163.1 73.5 162.6 72.2 L162.6 72.3 160.2 75.1 160 75.1 Q160.3 71.7 162.8 69.8 164.7 68.3 166.8 68.3 L167.8 68.5 168.2 69 167.3 69.2 165.2 70 164.4 70.5 Q164.4 77.8 175.8 84.3 186.8 90.5 194.6 89.2 203 89.5 210.8 85.1 218.6 80.8 221.2 74.5 M164.1 26.3 Q162.3 27.9 160.8 30.6 156.4 38.5 156.4 52.4 156.4 54.9 157.2 57.5 158.2 61.5 160.5 63.2 163.4 61 167.6 59 172.2 25.1 165.8 25.1 165.3 25.1 164.1 26.3 M167.6 59.5 L167.4 59.5 167.6 59.5 M175.9 87 Q175.7 86.4 174.8 86.4 170.9 86.4 167.6 80.8 166.3 78.8 163.6 72.2 L163.6 72.5 Q163.9 73.3 163.7 77.9 164 82.3 167.2 83.5 171.9 85.2 175.1 88.6 177.2 90.8 177.6 92.2 181.6 92.5 176.2 87.2 L180.9 89.2 Q180.4 88.9 177.3 87.5 L176.1 87.2 175.9 87 176.1 87.2 175.9 87.1 175.9 87 M166.9 85 Q167.9 87.5 170.7 89.8 173.7 92.3 176.2 92.1 L176.2 92 Q176.1 90.7 175.2 89.5 173.7 87.5 168.7 85.3 L166.9 85 M170.2 98 L170.2 109 170.2 117.2 Q170.2 117.8 172.3 121.3 L177.1 129.2 Q176.9 117.8 176.3 109.5 L176 99.2 171.7 98.5 170.2 97.9 170.2 98 M155 215.7 Q152.6 220.9 149.2 226.6 146.4 231.3 145.6 232.2 L143.2 236.7 135.1 252.8 133.4 257.6 131.9 262.4 Q131.2 266.7 131.2 269.5 131.2 270.8 132.6 274.5 134.2 278.8 135.9 280.5 148.8 271.2 154.1 264.8 L156.8 260.7 158.1 258.2 158.8 257.1 161.8 251.8 165.7 244.3 Q169.2 237.1 170.6 230.6 L171.9 222.9 173.2 213.3 173.7 208.1 161.8 199 Q160.2 203.8 156.8 211.8 L155 215.7 M152.7 271.8 Q152.1 271.6 143.2 278.4 134.5 284.9 133.9 284.6 120.8 290.8 112 293.1 102.8 295.4 90.6 295.4 L76.5 294.6 Q64.2 293.1 57.2 289.7 L50.5 296.3 Q49.1 298.4 47.9 301.9 46.6 305.6 46.6 307.8 46.6 318.1 57.9 324.5 71.7 332.2 99.9 332.2 119.9 332.2 142.5 329.1 169.8 325.2 177.2 319.2 179.6 317.4 181.2 312.5 182.8 307.4 182.8 301.6 182.8 296.6 181.7 292.4 L179.3 285 Q174.9 280.4 168.4 277.2 162.7 274.4 153.9 272.1 L152.7 271.8 M56.6 302.9 L56 301.1 Q55.5 299.4 55.9 299.2 L59.5 303.1 63.4 306.8 Q65.3 308 68.8 309.4 74.8 311.9 80.2 312.2 L87.2 312.6 94.5 312.6 Q115.4 311.6 135.2 305.9 144.7 303.9 159.3 297.3 L176.9 288.9 177.2 289.3 Q174.4 297.1 142.8 306.2 112.6 314.9 92.8 314.9 L86 314.4 77.3 313.7 Q65.8 310.9 62 308.4 60.6 307.5 59.3 305.9 L56.6 302.9 M12.2 272.8 L11.9 271.4 Q11.7 270 11.8 269.9 L13.8 272.7 Q15.2 274.9 16.8 276.2 21.5 280.4 30.4 280.4 L37.2 279.8 Q32.5 277.1 25.2 269.6 16.6 260.6 12.9 252.8 L12.6 253.3 10.9 256.1 Q8.6 260.2 6 266.5 2.2 275.8 2.2 279.9 2.2 285.2 6.5 290.9 13.7 300.4 28.9 300.4 36.6 300.4 43.5 297.6 51.2 294.4 54.4 288.6 L39.2 281.1 35.4 281.6 31.5 282.2 Q18.1 282.2 12.2 272.8"/><path fill="#ff8888" stroke="none" d="M166.8 23.1 Q162.5 7.7 149.4 0.6 141.4 -3.8 134.2 -3.8 L125.2 -3 Q133.6 -2.7 137.2 -1.4 140.2 -0.2 140.2 1.9 140.2 4.3 136.1 6.7 131.2 9.4 124 9.4 111.6 9.4 111.6 4.8 L112.4 3.1 Q113.3 1.2 114 0.3 112.2 0.6 106 5.5 99.6 10.6 97.9 13.2 96.3 15.6 93.8 21.9 92.2 26.2 90.3 26.6 L81 50.1 Q87.2 23.2 99.7 8.8 112.5 -6.1 131 -6.1 144.7 -6.1 156.1 2.8 167.8 11.8 169.3 24.3 L166.8 23.1 M258.8 122.8 L259.4 115.4 260 108.5 Q260 103.8 259 100.9 258.4 99.1 257.7 98.5 256.1 99.6 253.2 102.7 247.8 108.8 239.8 120.8 241.9 115.8 245.8 110 252 100.3 261.1 91.5 L261.2 105.4 258.8 122.8 M194.7 160.2 Q187.3 153 176.9 135.7 165 116 163.2 104.6 169.8 121 175.9 131.1 183.2 143.1 196.4 158.5 L194.7 160.2"/><path fill="#ff6565" stroke="none" d="M81 50.1 L90.3 26.6 Q92.2 26.2 93.8 21.9 96.3 15.6 97.9 13.2 99.6 10.6 106 5.5 112.2 0.6 114 0.3 113.3 1.2 112.4 3.1 L111.6 4.8 Q111.6 9.4 124 9.4 131.2 9.4 136.1 6.7 140.2 4.3 140.2 1.9 140.2 -0.2 137.2 -1.4 133.6 -2.7 125.2 -3 L134.2 -3.8 Q141.4 -3.8 149.4 0.6 162.5 7.7 166.8 23.1 163.3 23.6 159.8 29.1 154.4 37.7 154.4 54 154.4 56.7 155.3 59.4 156.6 63.1 159.2 64.5 156.7 66.8 155.2 69.8 153.8 73 153.8 76.2 153.8 77 154.3 79.3 154.8 81.8 155.4 83.3 155.2 90.8 157.9 97.6 160.2 103.6 163.2 105.5 L163.1 104.2 163.2 104.6 Q165 116 176.9 135.7 187.3 153 194.7 160.2 L187.6 166.8 187.7 167 188.4 167.1 Q189.4 167.1 188.9 166.9 L230.1 135.1 248.4 136.1 250.2 136.2 244.2 132.9 Q239.9 130.4 237.6 127.3 L239.8 120.8 Q247.8 108.8 253.2 102.7 256.1 99.6 257.7 98.5 258.4 99.1 259 100.9 260 103.8 260 108.5 L259.4 115.4 258.8 122.8 Q258.1 126.2 255.8 132.2 253.1 139.5 250.3 143.6 L248.4 140.9 246.2 138.4 Q247.1 140.4 247.1 141.1 247.1 143.4 245.6 146.8 L239.4 160 Q227.6 176.8 217.3 187.2 203.1 201.4 193.7 201.4 186.8 201.4 176.9 198.2 164.1 194 154.4 186.2 L138.2 173.8 126.2 165 Q125.6 165 125.8 165.4 L126 165.8 122.8 163.4 Q122.6 164.3 123.5 166.7 122.5 165.5 121 165.1 L123.8 167.4 Q127.1 177.1 136.2 191.3 145.3 205.5 153.4 213.9 152.7 216.3 146.1 227.1 145.8 227.1 139.8 238.8 L132.4 253.2 115.3 254.3 Q71 254.3 47.2 234.5 25.2 216.1 25.2 184.9 25.2 175.1 27.9 163.3 30.3 152.2 36 135.7 L43.3 126.2 Q48.1 120.2 49.7 120 49.2 120.1 49.4 120.7 49.5 121.2 49.2 121.2 50.6 121 54.5 115.7 58.9 109.5 63.5 100.5 76.2 76.1 81 50.1 M167.8 108.3 L167.8 112.7 164.9 106.9 167.8 108.3"/><path fill="#eb5151" stroke="none" d="M36 135.7 Q30.3 152.2 27.9 163.3 25.2 175.1 25.2 184.9 25.2 216.1 47.2 234.5 71 254.3 115.3 254.3 L132.4 253.2 Q132 254.5 131.7 254.4 131.2 255.4 129.4 262.9 119.9 265.1 106.7 265.1 62.6 265.1 39.5 245.8 19.1 228.8 19.1 201.2 19.1 176.1 24.9 160.6 26.2 156.7 30.1 148.8 33.4 141.7 35 136.8 L36 135.7 M153.4 213.9 Q145.3 205.5 136.2 191.3 127.1 177.1 123.8 167.4 L128.1 171.1 Q134.7 184 139 190.9 146.8 203.2 155.1 210.2 L153.4 213.9 M123.5 166.7 Q122.6 164.3 122.8 163.4 L126 165.8 125.8 165.4 Q125.6 165 126.2 165 L138.2 173.8 154.4 186.2 Q164.1 194 176.9 198.2 186.8 201.4 193.7 201.4 203.1 201.4 217.3 187.2 227.6 176.8 239.4 160 231.2 176.9 218.4 191.2 203.3 207.8 192.1 207.8 181.8 207.8 153.2 188.4 144.3 182.4 134.3 174.9 L125.5 168.2 125.5 168.3 123.5 166.7"/><path fill="#d73d3d" stroke="none" d="M239.4 160 L245.6 146.8 Q247.1 143.4 247.1 141.1 247.1 140.4 246.2 138.4 L248.4 140.9 250.3 143.6 Q248.2 146.8 240.3 161 231.7 176.7 226.3 185.6 207.4 216.8 198.9 216.8 191.2 216.8 168.8 201.8 147.3 187.5 125.5 168.3 L125.5 168.2 134.3 174.9 Q144.3 182.4 153.2 188.4 181.8 207.8 192.1 207.8 203.3 207.8 218.4 191.2 231.2 176.9 239.4 160 M237.6 127.3 Q239.9 130.4 244.2 132.9 L250.2 136.2 248.4 136.1 230.1 135.1 236.9 129.7 236.8 129.4 Q236.8 128.8 237.6 127.3 M163.1 104.2 L163.2 105.5 Q160.2 103.6 157.9 97.6 155.2 90.8 155.4 83.3 156 84.5 162.1 91 L167.9 97.7 168 100.8 167.8 108.3 164.9 106.9 Q163.7 104.2 163.3 103.8 L162.8 103.6 163.1 104.2 M35 136.8 Q33.4 141.7 30.1 148.8 26.2 156.7 24.9 160.6 19.1 176.1 19.1 201.2 19.1 228.8 39.5 245.8 62.6 265.1 106.7 265.1 119.9 265.1 129.4 262.9 129 266.8 129 270.2 129 273.4 130 275.6 130.7 277.2 133.7 281.8 122.1 287.4 114 289.8 103.2 292.9 91.1 292.9 76.3 292.9 61.8 288.4 46.1 283.4 34 274.1 5.2 251.8 5.2 212.9 5.2 191.9 12.3 174.1 19.2 156.5 35 136.8 M155.1 210.2 Q146.8 203.2 139 190.9 134.7 184 128.1 171.1 L159.8 197.4 155.1 210.2 M100.8 286.8 L102 286.2 Q100.8 286.5 100.8 286.6 L100.8 286.8"/><path fill="#ffffff" stroke="none" d="M164.1 26.3 Q165.3 25.1 165.8 25.1 172.2 25.1 167.6 59 163.4 61 160.5 63.2 158.2 61.5 157.2 57.5 156.4 54.9 156.4 52.4 156.4 38.5 160.8 30.6 162.3 27.9 164.1 26.3 M170.2 109 L176.3 109.5 Q176.9 117.8 177.1 129.2 L172.3 121.3 Q170.2 117.8 170.2 117.2 L170.2 109 M135.1 252.8 L143.2 236.7 145.6 232.2 Q146.4 231.3 149.2 226.6 152.6 220.9 155 215.7 L170.6 230.6 Q169.2 237.1 165.7 244.3 136.9 252.6 135.1 252.8"/><path fill="#ffdc31" stroke="none" d="M175 48.8 Q176.1 47.9 177.8 47.4 L187.9 46.9 Q206.7 46.9 215.6 55.5 221.9 61.6 221.9 69.7 221.9 71.7 221.2 74.5 L221.3 71.8 Q221.3 62.8 213.2 56.4 203.7 49 187 49 L174.9 50.2 175 48.8 M153.9 272.1 Q162.7 274.4 168.4 277.2 174.9 280.4 179.3 285 L176.9 288.9 159.3 297.3 Q144.7 303.9 135.2 305.9 L155.2 297.9 Q174.4 289.2 174.4 284 174.4 280.6 167.6 277.6 158.4 274.4 153.9 272.1"/><path fill="#f99108" stroke="none" d="M194.6 89.2 Q186.8 90.5 175.8 84.3 164.4 77.8 164.4 70.5 L165.2 70 167.3 69.2 168.2 69 167.8 68.5 166.8 68.3 Q164.7 68.3 162.8 69.8 160.3 71.7 160 75.1 L160.2 75.1 162.6 72.3 162.6 72.2 Q163.1 73.5 163.4 77.8 163.7 81.8 165.1 84.6 L165.2 84.7 Q169.3 90.3 170.8 91.4 173.4 93.3 179.2 93.3 180.8 93.3 183.2 91.2 L182.7 91.3 182.2 91.2 Q181.9 89.5 181.4 89.1 L181.4 88.8 184.2 89.8 Q184.2 93 182.1 95.3 180.2 97.2 177.9 97.5 L176.8 97.6 176.5 97.6 Q171.1 98.5 163.6 90.8 157.4 84.4 155.8 80 L155.4 78 Q156 73.5 158.7 69.9 L159.6 68.7 Q163.6 64 169.1 64 170.8 64 173.6 65.2 176.3 66.2 177.7 67.5 L177.3 66.1 175.7 62.9 174.4 61 174.8 61.1 173.3 60 181.8 58.9 189.1 58.2 Q199.3 58.2 205.3 62.5 211.2 66.8 211.2 74 211.2 78.8 207.2 83.3 202.3 88.7 194.6 89.2 M173.7 54 L173.9 52.5 174.6 48.2 174.9 48.4 175 48.8 174.9 50.2 Q174.7 53 174.2 54.2 173.8 55.4 172.8 56.6 L173.4 55.2 173.7 54 M50.5 296.3 L57.2 289.7 Q64.2 293.1 76.5 294.6 L90.6 295.4 Q102.8 295.4 112 293.1 120.8 290.8 133.9 284.6 134.5 284.9 143.2 278.4 152.1 271.6 152.7 271.8 151.2 278.6 149 282.9 146.1 288.8 140.6 293.4 127.6 304.4 94.5 312.6 L87.2 312.6 80.2 312.2 Q74.8 311.3 69.3 309.3 65.8 308.1 63.4 306.8 L59.5 303.1 55.9 299.2 Q55.5 299.4 56 301.1 L56.6 302.9 53.5 299.7 50.5 296.3 M179.3 285 L181.7 292.4 Q182.8 296.6 182.8 301.6 182.8 307.4 181.2 312.5 179.6 317.4 177.2 319.2 180.8 311.6 180.8 302.9 180.8 294.5 177.9 294.5 L163.7 301.5 Q148.5 308.9 143.6 310.3 131.2 313.9 122.5 315.3 113.7 316.8 103.7 316.8 L86.2 315.4 77.3 313.7 86 314.4 92.8 314.9 Q112.6 314.9 142.8 306.2 174.4 297.1 177.2 289.3 L176.9 288.9 179.3 285 M10.9 256.1 L12.6 253.3 12.9 252.8 Q16.6 260.6 25.2 269.6 32.5 277.1 37.2 279.8 L30.4 280.4 Q21.5 280.4 16.8 276.2 15.2 274.9 13.8 272.7 L11.8 269.9 Q11.7 270 11.9 271.4 L12.2 272.8 10.4 269.9 Q9.2 267.9 9.2 264.6 9.2 261.3 9.9 258.9 10.2 257.4 10.9 256.1"/><path fill="#ffb409" stroke="none" d="M221.2 74.5 Q218.6 80.8 210.8 85.1 203 89.5 194.6 89.2 202.3 88.7 207.2 83.3 211.2 78.8 211.2 74 211.2 66.8 205.3 62.5 199.3 58.2 189.1 58.2 L181.8 58.9 173.3 60 170.6 59.2 170.7 59.2 Q173 56.2 173.7 54 L173.4 55.2 172.8 56.6 Q173.8 55.4 174.2 54.2 174.7 53 174.9 50.2 L187 49 Q203.7 49 213.2 56.4 221.3 62.8 221.3 71.8 L221.2 74.5 M184.2 89.8 Q185 90.5 185.6 91.5 L185.9 92.8 Q185.9 94.9 182.9 96.3 180.8 97.3 177.9 97.5 180.2 97.2 182.1 95.3 184.2 93 184.2 89.8 M158.7 69.9 Q159.8 68.2 161.3 66.6 166.7 61 174.4 61 L175.7 62.9 177.3 66.1 177.7 67.5 Q176.3 66.2 173.6 65.2 170.8 64 169.1 64 163.6 64 159.6 68.7 L158.7 69.9 M63.4 306.8 Q65.8 308.1 69.3 309.3 74.8 311.3 80.2 312.2 74.8 311.9 68.8 309.4 65.3 308 63.4 306.8 M94.5 312.6 Q127.6 304.4 140.6 293.4 146.1 288.8 149 282.9 151.2 278.6 152.7 271.8 L153.9 272.1 Q158.4 274.4 167.6 277.6 174.4 280.6 174.4 284 174.4 289.2 155.2 297.9 L135.2 305.9 Q115.4 311.6 94.5 312.6"/><path fill="#cdcdcd" stroke="none" d="M167.6 59.5 L167.4 59.5 167.6 59.5 M170.2 98 L171.7 98.5 176 99.2 176.3 109.5 170.2 109 170.2 98 M156.8 211.8 Q160.2 203.8 161.8 199 L173.7 208.1 173.2 213.3 171.9 222.9 Q161.9 216.8 156.8 211.8 M161.8 251.8 L158.8 257.1 158.1 258.2 156.8 260.7 154.1 264.8 Q148.8 271.2 135.9 280.5 134.2 278.8 132.6 274.5 131.2 270.8 131.2 269.5 131.2 266.7 131.9 262.4 159.3 254.1 161.8 251.8"/><path fill="#663300" stroke="none" d="M176.1 87.2 L177.3 87.5 Q180.4 88.9 180.9 89.2 L176.2 87.2 Q181.6 92.5 177.6 92.2 177.2 90.8 175.1 88.6 171.9 85.2 167.2 83.5 164 82.3 163.7 77.9 163.9 73.3 163.6 72.5 L163.6 72.2 Q166.3 78.8 167.6 80.8 170.9 86.4 174.8 86.4 175.7 86.4 175.9 87 L175.4 86.8 175.9 87.1 176 87.2 176.2 87.2 176.1 87.2"/><path fill="#0076a9" stroke="none" d="M171.7 98.5 L170.2 98 170.2 97.9 171.7 98.5 M100.8 286.8 L100.8 286.6 Q100.8 286.5 102 286.2 L100.8 286.8"/><path fill="#cc0000" stroke="none" d="M166.9 85 L168.7 85.3 Q173.7 87.5 175.2 89.5 176.1 90.7 176.2 92 L176.2 92.1 Q173.7 92.3 170.7 89.8 167.9 87.5 166.9 85"/><path fill="#e0e0e0" stroke="none" d="M135.1 252.8 Q136.9 252.6 165.7 244.3 L161.8 251.8 Q159.3 254.1 131.9 262.4 L133.4 257.6 135.1 252.8 M170.6 230.6 L155 215.7 156.8 211.8 Q161.9 216.8 171.9 222.9 L170.6 230.6"/><path fill="#e37b04" stroke="none" d="M10.9 256.1 Q10.2 257.4 9.9 258.9 9.2 261.3 9.2 264.6 9.2 267.9 10.4 269.9 L12.2 272.8 Q18.1 282.2 31.5 282.2 L35.4 281.6 39.2 281.1 54.4 288.6 Q51.2 294.4 43.5 297.6 36.6 300.4 28.9 300.4 13.7 300.4 6.5 290.9 2.2 285.2 2.2 279.9 2.2 275.8 6 266.5 8.6 260.2 10.9 256.1"/><path fill="#e17902" stroke="none" d="M50.5 296.3 L53.5 299.7 56.6 302.9 59.3 305.9 Q60.6 307.5 62 308.4 65.8 310.9 77.3 313.7 L86.2 315.4 103.7 316.8 Q113.7 316.8 122.5 315.3 131.2 313.9 143.6 310.3 148.5 308.9 163.7 301.5 L177.9 294.5 Q180.8 294.5 180.8 302.9 180.8 311.6 177.2 319.2 169.8 325.2 142.5 329.1 119.9 332.2 99.9 332.2 71.7 332.2 57.9 324.5 46.6 318.1 46.6 307.8 46.6 305.6 47.9 301.9 49.1 298.4 50.5 296.3"/><path fill="none" stroke="#000000" stroke-width="5" d="M174.3 45.2 Q174.6 38.4 172.8 30.3 170.7 20.4 166.3 12.6 154.9 -8 133.4 -8 123.8 -8 113.5 -3.7 96.8 3.4 89.6 19.2 87.5 24 81.3 44.1 L69.4 83.3 Q68.4 86.6 63.4 96.5 58 107.3 55.6 110 L39.8 127.3 Q29.5 139.1 22.5 149.9 3 180.3 3 212.7 3 218 3.8 222.4 L6.3 235.6 Q6.8 237.7 9.7 243.4 12.2 248.5 12.2 251.2 L8.7 256.7 Q4.8 262.6 3.6 265.6 3 266.9 1.6 273 L0.1 279.3 Q0.1 290.6 9.4 296.9 17.8 302.6 30.9 302.6 L38.5 301.1 Q44.5 299.6 46.8 298.4 46 299.9 44.5 307.4 44.5 319.4 56.5 326.2 71.4 334.6 103.5 334.6 128.4 334.6 151.4 330.3 170.5 326.6 177.7 322.5 180.8 320.6 183 314.5 185.3 307.9 185.3 299.1 185.3 287.1 177.7 280.4 170.7 274.2 152.9 269.2 L156.3 264.8 Q158.8 261.4 159.3 261.4 163.7 261.4 170.1 238.5 175.6 218.7 176.2 209.8 M190.8 217.9 L192.8 218.3 195.3 218.7 Q207.9 218.7 223.4 195.8 231.8 183.4 242.9 161.8 253.2 144.1 258.1 130.5 263.2 116.5 263.2 105.5 L262.9 88.5 262.8 88.4 262 88.2 Q261.4 88.2 258.2 91.2 253.3 96 246.3 105.5 238.5 116 235.2 128.5 L198.1 157.2 180 133.7 179.6 132.9 Q179.5 127.7 178.7 115.5 177.8 102.5 177.8 99.5 181.7 99.9 185.3 96.7 189.1 93.3 186.8 90.8 L194.9 91.4 Q207.3 91.4 215.8 84.6 223.9 78.1 223.9 69.3 223.9 57.7 213.2 50.8 203.2 44.5 188.5 44.5 L174.3 45.2 174.3 46.1 174.3 45.2 174.3 45.2 M175.9 87 L176.1 87.2 M175.9 87.1 L176 87.2 176.2 87.2 176.1 87.2 M175.9 87 L175.4 86.8 175.9 87.1"/></g><g id="c14"><path fill="#000000" stroke="none" d="M1.9 0 Q2.7 0 3.2 0.9 3.8 1.9 3.8 3.3 3.8 4.7 3.2 5.6 2.7 6.6 1.9 6.6 1.1 6.6 0.6 5.6 0 4.7 0 3.3 0 1.9 0.6 0.9 1.1 0 1.9 0 M1.8 0.6 Q1.4 0.6 1.1 0.9 0.8 1.3 0.8 1.8 0.8 2.3 1.1 2.6 1.4 3 1.8 3 2.2 3 2.5 2.6 L2.9 1.8 Q2.9 1.3 2.5 0.9 2.2 0.6 1.8 0.6"/><path fill="#ffffff" stroke="none" d="M1.8 0.6 Q2.2 0.6 2.5 0.9 2.9 1.3 2.9 1.8 L2.5 2.6 Q2.2 3 1.8 3 1.4 3 1.1 2.6 0.8 2.3 0.8 1.8 0.8 1.3 1.1 0.9 1.4 0.6 1.8 0.6"/></g></defs></svg>