<?xml version='1.0' encoding='UTF-8'?>
<svg xmlns="http://www.w3.org/2000/svg" xmlns:xlink="http://www.w3.org/1999/xlink"><defs><linearGradient gradientUnits="userSpaceOnUse" x1="-819.2" x2="819.2" spreadMethod="pad" gradientTransform="matrix(-4.6e-05,0,0,3.1e-05,-13.2,-8.1)" id="gradient1"><stop offset="0" stop-color="#0052af"/><stop offset="0.5" stop-color="#0280cd"/><stop offset="1" stop-color="#81cdfa"/></linearGradient><g id="c1"><path fill="#ddddea" stroke="none" d="M-3.1 -8.3 L-3.4 -8.1 Q-2.8 -9.3 -1.8 -10.1 -2.8 -9.3 -3.4 -8.1 L-3.1 -8.3 M-3.3 -9.1 Q-2.6 -9.8 -1.9 -10.2 L-1.8 -10.2 Q-1.8 -10.3 -1.8 -10.1 -1.1 -10.2 -1.2 -9.8 -1.6 -9.4 -1.7 -9.2 -2.7 -7.2 -1.8 -5.3 -1.1 -4.2 -1.1 -4 -1.1 -4.1 -1.6 -4.9 L-2.7 -5 Q-2.5 -4.9 -3.5 -5 -3.6 -5 -3.5 -5 -3.9 -5 -3.8 -4.7 -3.9 -5 -3.9 -5 -3.9 -5 -3.9 -5 L-3.9 -5 -3.9 -5 Q-3.9 -5 -3.9 -5 L-4 -5.1 -4 -5.2 -4 -5.1 -4 -5.2 -4 -5.1 -4 -5.2 -4 -5.2 -4 -5.1 -4 -5 Q-4 -5.3 -4 -5.2 L-4 -5.5 Q-4.2 -5.5 -4.2 -5.8 -4 -5.8 -4 -5.8 -4 -5.8 -4 -6.1 -3.9 -6.1 -3.7 -6.9 L-3.7 -6.8 -3.6 -7.2 -3.6 -7.3 -3.4 -8.1 -4.2 -6.9 Q-4.2 -7 -4.3 -6.8 -4.3 -7.2 -4.5 -6.6 L-4.5 -6.7 Q-4.7 -6.3 -5 -6.1 L-5.2 -6 Q-5.2 -6 -5.5 -6.1 L-6.2 -6.5 Q-5 -7.4 -5.2 -7.5 -5.2 -7.5 -5.2 -7.4 -5.2 -7.2 -3.3 -9.1"/><path fill="#efeefc" stroke="none" d="M-3.8 -4.7 Q-3.5 -3.8 -3.1 -3.2 -3.5 -3.6 -3.7 -4.3 L-3.8 -4.4 -3.8 -4.5 -3.8 -4.5 Q-3.9 -4 -4.3 -5 -4.2 -5.2 -4.3 -5.4 -4.2 -5.2 -4.3 -5.7 L-4.2 -5.6 Q-4.3 -5.8 -4.2 -6 -4.1 -6 -4.2 -6.1 -4.2 -6.2 -4.1 -6.2 -4.1 -6.2 -4 -6.2 -3.9 -6.2 -3.9 -6.7 -3.9 -6.5 -3.6 -7.2 L-3.7 -6.8 -3.7 -6.9 Q-3.9 -6.1 -4 -6.1 -4 -5.8 -4 -5.8 -4 -5.8 -4.2 -5.8 -4.2 -5.5 -4 -5.5 L-4 -5.2 -4 -5.2 -4 -5.1 -3.9 -5 Q-3.9 -5 -3.8 -4.7 M-3.6 -7.2 L-3.6 -7.2 -3.6 -7.2 M-4 -5.1 L-4 -5.2 Q-4 -5.3 -4 -5 L-4 -5.1 M-3.9 -5 L-4 -5 -3.9 -5"/><path stroke="none" fill="url(#gradient1)" d="M-4.2 -6.1 L-5 -6.1 Q-4.7 -6.3 -4.5 -6.7 L-4.5 -6.6 Q-4.3 -7.2 -4.3 -6.8 -4.2 -7 -4.2 -6.9 L-3.4 -8.1 -3.6 -7.3 -3.6 -7.2 -3.6 -7.3 -3.6 -7.2 Q-3.9 -6.5 -3.9 -6.7 -3.9 -6.2 -4 -6.2 -4.1 -6.2 -4.1 -6.2 -4.2 -6.2 -4.2 -6.1 M-3.3 -9.1 Q-5.2 -7.2 -5.2 -7.4 -5.2 -7.5 -5.2 -7.5 -5 -7.4 -6.2 -6.5 L-5.5 -6.1 -8.3 -6.1 -8.3 -10.2 -3.3 -10.2 -3.3 -9.1 M-6.4 -6.5 L-6.2 -6.5 -6.4 -6.5 M-3.6 -7.3 L-3.6 -7.3 -3.6 -7.3 M-3.6 -7.2 L-3.6 -7.3 -3.6 -7.2 M-6.5 -6.7 L-6.2 -6.5 -6.5 -6.7"/><path fill="none" stroke="#8aa0c4" stroke-width="0.5" d="M-1.8 -10.1 Q-2.8 -9.3 -3.4 -8.1 L-3.1 -8.3 M-3.3 -9.1 Q-2.6 -9.8 -1.9 -10.2 M-1.8 -10.2 Q-1.8 -10.3 -1.8 -10.1 M-1.2 -9.8 Q-1.6 -9.4 -1.7 -9.2 -2.7 -7.2 -1.8 -5.3 -1.1 -4.2 -1.1 -4 -1.1 -4.1 -1.6 -4.9 L-2.7 -5 Q-2.5 -4.9 -3.5 -5 -3.6 -5 -3.5 -5 -3.9 -5 -3.8 -4.7 M-3.7 -4.3 Q-3.8 -4.3 -3.8 -4.4 M-3.8 -4.5 L-3.8 -4.5 Q-3.9 -4 -4.3 -5 -4.2 -5.2 -4.3 -5.4 -4.2 -5.2 -4.3 -5.7 L-4.2 -5.6 Q-4.3 -5.8 -4.2 -6 -4.1 -6 -4.2 -6.1 M-5 -6.1 L-5.2 -6 -5.2 -6 M-6.2 -6.5 Q-5 -7.4 -5.2 -7.5 -5.2 -7.5 -5.2 -7.4 -5.2 -7.2 -3.3 -9.1 M-5.5 -6.1 L-6.2 -6.5 -6.4 -6.5 M-3.6 -7.3 L-3.4 -8.1 -4.2 -6.9 Q-4.2 -7 -4.3 -6.8 -4.3 -7.2 -4.5 -6.6 L-4.5 -6.7 Q-4.7 -6.3 -5 -6.1 M-3.6 -7.3 L-3.6 -7.2 -3.6 -7.2 Q-3.9 -6.5 -3.9 -6.7 -3.9 -6.2 -4 -6.2 -4.1 -6.2 -4.1 -6.2 -4.2 -6.2 -4.2 -6.1 M-3.6 -7.3 L-3.6 -7.3 M-3.6 -7.3 L-3.6 -7.2 M-4.2 -5.8 Q-4 -5.8 -4 -5.8 -4 -5.8 -4 -6.1 -3.9 -6.1 -3.7 -6.9 L-3.7 -6.8 -3.6 -7.2 M-6.2 -6.5 L-6.5 -6.7 M-5.5 -6.1 Q-5.2 -6 -5.2 -6 M-3.9 -5 Q-3.9 -5 -3.9 -5 L-3.9 -5 M-4.2 -5.8 Q-4.2 -5.5 -4 -5.5 L-4 -5.2 -4 -5.1 -4 -5 -3.9 -5 M-4 -5.2 L-4 -5.1"/></g><g id="c2"><path fill="#000000" stroke="none" d="M0.5 0.4 Q0.5 0.2 0.4 0.3 0.3 0.3 0.3 0.3 L0.3 0.3 Q0.2 0.3 0.2 0.3 0.2 0.3 0.2 0.3 L0.2 0.4 Q0.1 0.5 0.2 0.5 0.4 0.4 0.5 0.5 L0.5 0.4 0.5 0.4 M0.5 0.3 L0.5 0.3 0.5 0.3 Q0.6 0.4 0.5 0.4 0.6 0.5 0.5 0.5 0.6 0.6 0.6 0.6 0.6 0.7 0.6 0.7 0.8 0.8 0.7 0.8 0.7 0.9 0.7 0.9 L0.8 1.1 Q0.7 1.1 0.6 1 0.6 1.1 0.5 1 0.5 1.1 0.5 1 0.4 1.1 0.3 1.1 0.3 1.1 0.2 1.1 0.1 1.1 0.1 1 L0 1.1 0.1 0.9 Q0.1 0.8 0.1 0.8 0.1 0.8 0.1 0.8 0 0.8 0.1 0.7 0.1 0.7 0.1 0.6 0.1 0.6 0.2 0.5 0.1 0.5 0.2 0.4 0.2 0.3 0.2 0.3 0.1 0.3 0.2 0.2 L0.2 0.1 0.3 0.1 Q0.3 -0.1 0.3 0.1 L0.4 0.1 Q0.5 0.1 0.4 0.2 0.5 0.3 0.5 0.3 L0.5 0.3 0.5 0.2 0.4 0.1 Q0.2 0.1 0.2 0.2 L0.2 0.3 0.2 0.3 0.3 0.3 Q0.3 0.2 0.4 0.3 L0.4 0.3 0.5 0.3 M0.5 0.5 L0.5 0.5 Q0.3 0.5 0.3 0.5 0.2 0.5 0.2 0.5 L0.1 0.6 Q0.2 0.5 0.3 0.6 0.3 0.5 0.4 0.6 0.4 0.5 0.5 0.6 0.5 0.5 0.6 0.6 L0.5 0.5 M0.3 0.1 Q0.3 0 0.3 0.1 L0.3 0.1 Q0.2 0.1 0.3 0.1 L0.2 0.1 Q0.3 0.1 0.4 0.1 0.5 0.1 0.3 0.1 M0.6 0.6 Q0.6 0.6 0.5 0.6 0.5 0.6 0.5 0.6 L0.4 0.6 Q0.3 0.6 0.3 0.6 0.2 0.5 0.2 0.6 L0.1 0.6 0.1 0.7 Q0.2 0.7 0.3 0.7 0.4 0.7 0.5 0.7 0.6 0.7 0.6 0.6 M0.6 0.7 L0.5 0.7 0.3 0.7 Q0.2 0.7 0.1 0.7 L0.1 0.7 0.1 0.8 Q0.2 0.7 0.2 0.8 0.3 0.8 0.3 0.8 L0.4 0.8 Q0.5 0.8 0.5 0.8 0.6 0.8 0.5 0.8 0.5 0.8 0.7 0.8 L0.6 0.7 M0.7 0.8 Q0.6 0.8 0.6 0.8 0.6 0.8 0.5 0.8 0.5 0.8 0.4 0.8 L0.3 0.8 Q0.3 0.8 0.2 0.8 L0.1 0.8 0.1 0.8 Q0.1 0.8 0.1 0.9 0.1 0.9 0.4 0.9 L0.5 0.9 Q0.7 0.9 0.7 0.9 L0.7 0.8 0.7 0.8 M0.7 0.9 Q0.6 0.9 0.6 0.9 0.5 0.9 0.4 0.9 0.1 1 0.1 0.9 L0.1 1 0 1.1 0.1 1 Q0.1 1.1 0.2 1 0.3 1.1 0.3 1 0.4 1.1 0.5 1 L0.5 1.1 Q0.5 0.9 0.6 1 0.6 0.9 0.6 1 L0.7 1 0.7 0.9"/><path fill="#bbc2c8" stroke="none" d="M0.2 0.3 Q0.2 0.3 0.2 0.3 0.2 0.3 0.3 0.3 L0.3 0.3 Q0.3 0.3 0.4 0.3 0.5 0.2 0.5 0.4 0.4 0.3 0.4 0.4 0.3 0.4 0.3 0.3 0.3 0.4 0.2 0.3 L0.2 0.3 M0.5 0.4 L0.5 0.5 Q0.4 0.4 0.2 0.5 0.1 0.5 0.2 0.4 0.2 0.5 0.2 0.4 L0.3 0.4 Q0.3 0.5 0.3 0.4 0.5 0.4 0.5 0.4 M0.2 0.1 L0.3 0.1 0.3 0.1 Q0.3 0.1 0.3 0.1 0.5 0.1 0.4 0.1 0.3 0.1 0.2 0.1 M0.6 0.6 Q0.5 0.6 0.5 0.6 L0.4 0.6 Q0.3 0.6 0.3 0.6 L0.2 0.6 Q0.2 0.6 0.2 0.6 0.2 0.5 0.3 0.6 0.3 0.6 0.4 0.6 L0.5 0.6 Q0.5 0.6 0.5 0.6 0.6 0.6 0.6 0.6 0.6 0.7 0.5 0.7 0.4 0.7 0.3 0.7 0.2 0.7 0.1 0.7 L0.1 0.6 Q0.1 0.7 0.2 0.7 L0.3 0.7 Q0.3 0.7 0.5 0.7 0.5 0.7 0.6 0.7 L0.6 0.6 M0.1 0.8 L0.1 0.8 0.2 0.8 Q0.3 0.8 0.3 0.8 L0.4 0.8 Q0.5 0.8 0.5 0.8 0.6 0.8 0.6 0.8 0.6 0.8 0.7 0.8 0.6 0.8 0.6 0.8 L0.5 0.8 Q0.5 0.8 0.3 0.8 0.3 0.8 0.3 0.8 0.2 0.8 0.1 0.8 M0.7 0.8 L0.7 0.9 Q0.7 0.9 0.5 0.9 L0.4 0.9 Q0.1 0.9 0.1 0.9 0.1 0.9 0.2 0.9 0.5 0.8 0.6 0.9 0.7 0.9 0.7 0.8"/><path fill="#ffffff" stroke="none" d="M0.2 0.3 L0.2 0.3 Q0.3 0.4 0.3 0.3 0.3 0.4 0.4 0.4 0.4 0.3 0.5 0.4 L0.5 0.4 Q0.5 0.4 0.3 0.4 0.3 0.5 0.3 0.4 L0.2 0.4 Q0.2 0.5 0.2 0.4 L0.2 0.3 M0.3 0.1 Q0.3 0.1 0.3 0.1 L0.3 0.1 0.2 0.1 0.3 0.1 Q0.2 0.1 0.3 0.1 L0.3 0.1 Q0.3 0 0.3 0.1 M0.2 0.6 Q0.2 0.6 0.2 0.6 L0.3 0.6 Q0.3 0.6 0.4 0.6 L0.5 0.6 Q0.5 0.6 0.6 0.6 L0.6 0.7 Q0.5 0.7 0.5 0.7 0.3 0.7 0.3 0.7 L0.2 0.7 Q0.1 0.7 0.1 0.6 L0.2 0.6 M0.1 0.8 Q0.2 0.8 0.3 0.8 0.3 0.8 0.3 0.8 0.5 0.8 0.5 0.8 L0.6 0.8 Q0.6 0.8 0.7 0.8 L0.7 0.8 Q0.7 0.9 0.6 0.9 0.5 0.8 0.2 0.9 0.1 0.9 0.1 0.9 0.1 0.8 0.1 0.8"/><path fill="#4b8845" stroke="none" d="M0.2 0.3 L0.2 0.2 Q0.3 0.3 0.3 0.2 0.3 0.2 0.4 0.2 0.3 0.2 0.5 0.2 L0.5 0.3 Q0.4 0.2 0.4 0.3 0.3 0.2 0.3 0.3 0.2 0.2 0.2 0.3 M0.2 0.5 L0.2 0.5 Q0.3 0.5 0.3 0.5 0.4 0.5 0.4 0.5 0.5 0.5 0.5 0.5 L0.6 0.6 Q0.5 0.5 0.5 0.6 0.4 0.5 0.4 0.6 0.3 0.5 0.3 0.6 0.2 0.5 0.1 0.6 L0.2 0.5 M0.1 0.7 L0.2 0.7 Q0.2 0.8 0.3 0.7 0.3 0.8 0.4 0.7 0.5 0.8 0.5 0.7 0.5 0.7 0.6 0.7 L0.7 0.8 Q0.5 0.8 0.5 0.8 0.5 0.8 0.5 0.8 0.4 0.8 0.3 0.8 0.3 0.8 0.2 0.8 0.2 0.7 0.1 0.8 L0.1 0.7 M0.1 0.9 L0.1 0.9 Q0.1 1 0.2 0.9 0.3 1 0.3 0.9 0.4 1 0.4 0.9 L0.5 0.9 Q0.5 1 0.5 0.9 0.6 1 0.6 0.9 L0.7 0.9 0.7 1 Q0.7 1 0.6 0.9 L0.6 1 Q0.5 0.9 0.5 1.1 0.4 0.9 0.4 1.1 0.3 1 0.3 1.1 0.2 1 0.2 1.1 0.1 1 0.1 1 L0.1 0.9"/><path fill="#195613" stroke="none" d="M0.5 0.3 L0.5 0.3 0.4 0.3 0.4 0.3 Q0.3 0.2 0.3 0.3 L0.2 0.3 0.2 0.3 Q0.2 0.2 0.3 0.3 0.3 0.2 0.4 0.3 0.4 0.2 0.5 0.3 M0.2 0.2 Q0.2 0.1 0.4 0.1 L0.5 0.2 Q0.3 0.2 0.4 0.2 0.3 0.2 0.3 0.2 0.3 0.3 0.2 0.2 M0.5 0.5 Q0.5 0.5 0.4 0.5 0.4 0.5 0.3 0.5 0.3 0.5 0.2 0.5 L0.2 0.5 Q0.2 0.5 0.3 0.5 0.3 0.5 0.5 0.5 L0.5 0.5 M0.1 0.6 Q0.2 0.5 0.3 0.6 0.3 0.5 0.4 0.6 0.4 0.5 0.5 0.6 0.5 0.5 0.6 0.6 0.5 0.5 0.5 0.6 0.4 0.5 0.4 0.6 0.3 0.5 0.3 0.6 0.2 0.5 0.1 0.6 M0.6 0.7 Q0.5 0.7 0.5 0.7 0.5 0.8 0.4 0.7 0.3 0.8 0.3 0.7 0.2 0.8 0.2 0.7 L0.1 0.7 0.1 0.7 Q0.2 0.7 0.3 0.7 L0.5 0.7 0.6 0.7 M0.1 0.8 Q0.2 0.7 0.2 0.8 0.3 0.8 0.3 0.8 0.4 0.8 0.5 0.8 0.5 0.8 0.5 0.8 0.5 0.8 0.7 0.8 0.5 0.8 0.5 0.8 0.6 0.8 0.5 0.8 0.5 0.8 0.4 0.8 L0.3 0.8 Q0.3 0.8 0.2 0.8 0.2 0.7 0.1 0.8 M0.1 0.9 Q0.1 1 0.4 0.9 0.5 0.9 0.6 0.9 0.6 0.9 0.7 0.9 L0.6 0.9 Q0.6 1 0.5 0.9 0.5 1 0.5 0.9 L0.4 0.9 Q0.4 1 0.3 0.9 0.3 1 0.2 0.9 0.1 1 0.1 0.9 L0.1 0.9 M0.7 1 L0.6 1 Q0.6 0.9 0.6 1 0.5 0.9 0.5 1.1 L0.5 1 Q0.4 1.1 0.3 1 0.3 1.1 0.2 1 0.1 1.1 0.1 1 L0 1.1 0.1 1 Q0.1 1 0.2 1.1 0.2 1 0.3 1.1 0.3 1 0.4 1.1 0.4 0.9 0.5 1.1 0.5 0.9 0.6 1 L0.6 0.9 Q0.7 1 0.7 1"/></g><g id="c3"><path fill="#000000" stroke="none" d="M0.6 0.1 L0.6 0.1 Q0.7 0.2 0.6 0.3 0.7 0.3 0.7 0.4 0.7 0.5 0.8 0.6 0.8 0.6 0.8 0.7 0.8 0.8 0.9 0.8 L0.9 0.8 Q0.9 0.9 0.9 1 1.1 1.1 1 1.2 1.1 1.4 1.2 1.4 1.2 1.4 1.1 1.4 1.2 1.5 1.2 1.5 1.3 1.6 1.2 1.6 0.8 1.7 0.1 1.6 -0.1 1.6 0.1 1.6 L0.1 1.5 Q0.1 1.4 0.2 1.3 0.1 1.2 0.3 1.1 0.2 1 0.3 0.9 0.2 1 0.2 0.9 0.3 0.8 0.3 0.8 0.2 0.7 0.3 0.6 0.3 0.5 0.3 0.5 0.2 0.6 0.3 0.3 0.3 0.2 0.3 0.2 L0.3 0.1 Q0.3 0.2 0.4 0.2 0.3 0.2 0.3 0.2 0.3 0.3 0.4 0.2 L0.3 0.2 Q0.6 0.2 0.6 0.2 0.7 0.2 0.6 0.1 M0.3 0.4 L0.3 0.5 Q0.4 0.3 0.4 0.5 L0.5 0.4 Q0.6 0.5 0.6 0.4 0.7 0.5 0.7 0.4 0.7 0.3 0.6 0.3 L0.6 0.2 Q0.3 0.2 0.3 0.3 L0.3 0.4 M0.3 0.5 Q0.3 0.6 0.3 0.7 0.3 0.7 0.3 0.8 L0.3 0.7 Q0.3 0.7 0.5 0.7 0.7 0.6 0.7 0.7 0.7 0.6 0.8 0.7 L0.8 0.6 0.7 0.5 0.7 0.5 Q0.6 0.5 0.6 0.4 0.6 0.6 0.5 0.5 0.4 0.6 0.4 0.5 0.4 0.4 0.3 0.5 M0.8 0.7 Q0.7 0.6 0.6 0.7 0.5 0.7 0.4 0.7 L0.3 0.8 0.2 0.9 Q0.3 0.9 0.3 0.9 L0.3 0.9 Q0.5 0.8 0.5 0.9 0.5 1 0.6 0.9 0.7 0.9 0.7 0.9 L0.8 0.9 Q0.7 0.8 0.8 0.9 0.8 0.8 0.8 0.8 0.8 0.8 0.9 0.8 0.8 0.8 0.8 0.7 M0.9 0.9 Q0.9 0.8 0.8 0.8 0.8 0.9 0.8 0.9 0.8 1 0.7 0.9 0.7 1 0.6 0.9 0.5 1 0.5 0.9 0.3 1.1 0.3 0.9 L0.3 1 Q0.3 1.1 0.2 1.1 0.2 1.2 0.2 1.2 0.2 1.2 0.3 1.2 L0.4 1.2 Q0.8 1.1 0.9 1.2 1 1.1 1 1.2 1.1 1.1 1 1.1 0.9 0.9 0.9 0.9 M0.1 1.4 L0.1 1.5 Q0.2 1.4 0.2 1.6 0.3 1.4 0.3 1.6 0.5 1.4 0.5 1.6 0.5 1.5 0.6 1.4 0.6 1.6 0.7 1.4 0.7 1.5 0.8 1.6 0.8 1.5 0.8 1.4 L0.9 1.5 Q0.9 1.4 1 1.5 L1 1.4 Q1.1 1.4 1.1 1.5 1.1 1.4 1.1 1.4 L1.1 1.4 Q1.1 1.4 1.1 1.2 0.9 1.1 0.4 1.2 0.4 1.3 0.3 1.2 0.2 1.2 0.2 1.3 L0.1 1.4 M1.2 1.6 Q1.1 1.5 1.1 1.4 1.1 1.6 1.1 1.4 1.1 1.6 0.9 1.4 L0.9 1.6 Q0.8 1.5 0.8 1.5 0.8 1.6 0.7 1.5 0.6 1.6 0.6 1.5 0.5 1.6 0.5 1.5 0.4 1.6 0.3 1.5 L0.2 1.6 Q0.2 1.4 0.1 1.6 L0.1 1.6 0 1.6 Q0.8 1.6 1.1 1.6 1.1 1.6 1.2 1.6 1.2 1.6 1.2 1.6"/><path fill="#bbc2c8" stroke="none" d="M0.6 0.1 Q0.7 0.2 0.6 0.2 0.6 0.2 0.3 0.2 L0.4 0.2 Q0.3 0.3 0.3 0.2 L0.5 0.1 0.6 0.1 M0.7 0.5 Q0.6 0.5 0.6 0.6 L0.5 0.5 0.4 0.6 0.3 0.5 Q0.4 0.4 0.4 0.5 0.4 0.6 0.5 0.5 0.6 0.6 0.6 0.4 0.6 0.5 0.7 0.5 L0.7 0.5 M0.3 0.7 L0.3 0.7 Q0.4 0.7 0.5 0.7 0.5 0.7 0.6 0.7 0.6 0.6 0.7 0.6 L0.8 0.6 0.8 0.7 Q0.7 0.6 0.7 0.7 0.7 0.6 0.5 0.7 0.3 0.7 0.3 0.7 L0.3 0.8 Q0.3 0.7 0.3 0.7 M0.9 0.9 L0.9 0.9 0.8 0.9 Q0.8 0.9 0.8 1 0.7 1 0.6 1 L0.5 1 Q0.5 1.1 0.5 1 0.4 1 0.3 1.1 L0.3 1 0.3 0.9 Q0.3 1.1 0.5 0.9 0.5 1 0.6 0.9 0.7 1 0.7 0.9 0.8 1 0.8 0.9 0.8 0.9 0.8 0.8 0.9 0.8 0.9 0.9 M0.2 1.1 Q0.2 1.2 0.3 1.2 0.5 1.2 0.5 1.2 0.7 1.1 0.8 1.1 1 1.1 1 1.1 1.1 1.1 1 1.2 1 1.1 0.9 1.2 0.8 1.1 0.4 1.2 L0.3 1.2 Q0.2 1.2 0.2 1.2 0.2 1.2 0.2 1.1 M0.1 1.6 Q0.2 1.4 0.2 1.6 L0.3 1.5 Q0.4 1.6 0.5 1.5 0.5 1.6 0.6 1.5 0.6 1.6 0.7 1.5 0.8 1.6 0.8 1.5 0.8 1.5 0.9 1.6 L0.9 1.4 Q1.1 1.6 1.1 1.4 1.1 1.6 1.1 1.4 1.1 1.5 1.2 1.6 1.2 1.6 1.2 1.6 1.1 1.6 1.1 1.6 0.8 1.6 0 1.6 L0.1 1.6 Q0.1 1.6 0.1 1.6 L0.5 1.6 Q0.9 1.6 1.1 1.6 1.1 1.6 1.2 1.6 1.2 1.6 1.2 1.6 1.2 1.5 1.1 1.6 L1 1.6 Q0.9 1.6 0.9 1.6 L0.8 1.6 0.8 1.6 Q0.7 1.6 0.7 1.6 0.6 1.6 0.6 1.6 L0.6 1.6 Q0.5 1.6 0.5 1.6 L0.4 1.6 Q0.3 1.6 0.2 1.6 L0.1 1.6"/><path fill="#ffffff" stroke="none" d="M0.3 0.2 Q0.3 0.2 0.4 0.2 0.3 0.2 0.3 0.1 L0.5 0.1 0.3 0.2 M0.3 0.5 L0.4 0.6 0.5 0.5 0.6 0.6 Q0.6 0.5 0.7 0.5 L0.8 0.6 0.7 0.6 Q0.6 0.6 0.6 0.7 0.5 0.7 0.5 0.7 0.4 0.7 0.3 0.7 L0.3 0.7 Q0.3 0.6 0.3 0.5 M0.3 1 L0.3 1.1 Q0.4 1 0.5 1 0.5 1.1 0.5 1 L0.6 1 Q0.7 1 0.8 1 0.8 0.9 0.8 0.9 L0.9 0.9 0.9 0.9 Q0.9 0.9 1 1.1 1 1.1 0.8 1.1 0.7 1.1 0.5 1.2 0.5 1.2 0.3 1.2 0.2 1.2 0.2 1.1 0.3 1.1 0.3 1 M0.1 1.6 L0.1 1.6 0.2 1.6 Q0.3 1.6 0.4 1.6 L0.5 1.6 Q0.5 1.6 0.6 1.6 L0.6 1.6 Q0.6 1.6 0.7 1.6 0.7 1.6 0.8 1.6 L0.8 1.6 0.9 1.6 Q0.9 1.6 1 1.6 L1.1 1.6 Q1.2 1.5 1.2 1.6 1.2 1.6 1.2 1.6 1.1 1.6 1.1 1.6 0.9 1.6 0.5 1.6 L0.1 1.6 Q0.1 1.6 0.1 1.6"/><path fill="#56874f" stroke="none" d="M0.3 0.4 L0.3 0.3 0.4 0.3 Q0.4 0.3 0.5 0.3 0.5 0.3 0.6 0.3 L0.6 0.3 Q0.7 0.3 0.7 0.4 0.5 0.3 0.6 0.5 0.5 0.3 0.4 0.5 0.4 0.3 0.3 0.4 M0.8 0.7 Q0.8 0.8 0.9 0.8 0.8 0.8 0.8 0.8 0.7 0.8 0.8 0.9 0.6 0.8 0.6 0.9 0.6 0.8 0.5 0.9 0.5 0.8 0.3 0.9 0.3 0.8 0.2 0.9 L0.3 0.8 0.3 0.8 0.4 0.8 Q0.4 0.8 0.5 0.8 0.5 0.8 0.6 0.8 0.6 0.8 0.6 0.8 L0.7 0.8 Q0.7 0.7 0.7 0.8 0.8 0.8 0.8 0.7 M0.1 1.4 L0.2 1.3 0.2 1.3 Q0.3 1.4 0.3 1.4 0.4 1.4 0.5 1.4 0.5 1.4 0.6 1.4 0.6 1.4 0.7 1.3 0.8 1.4 0.8 1.4 0.8 1.3 0.8 1.4 0.8 1.4 0.8 1.3 0.9 1.4 0.9 1.2 1 1.3 1.1 1.2 1.1 1.4 1.1 1.4 1.1 1.4 1.1 1.4 1 1.4 1 1.4 0.9 1.4 0.9 1.5 0.8 1.4 0.8 1.5 0.7 1.4 0.6 1.5 0.6 1.4 0.5 1.5 0.5 1.4 0.3 1.6 0.3 1.4 0.2 1.5 0.2 1.4 0.1 1.4"/><path fill="#3b5f31" stroke="none" d="M0.7 0.4 Q0.7 0.5 0.6 0.4 0.6 0.5 0.5 0.4 L0.4 0.5 Q0.4 0.3 0.3 0.5 L0.3 0.4 Q0.4 0.3 0.4 0.5 0.5 0.3 0.6 0.5 0.5 0.3 0.7 0.4 M0.3 0.3 Q0.3 0.2 0.6 0.2 L0.6 0.3 0.6 0.3 Q0.5 0.3 0.5 0.3 0.4 0.3 0.4 0.3 L0.3 0.3 M0.3 0.8 L0.4 0.7 Q0.5 0.7 0.6 0.7 0.7 0.6 0.8 0.7 0.8 0.8 0.7 0.8 0.7 0.7 0.7 0.8 L0.6 0.8 Q0.6 0.8 0.6 0.8 0.5 0.8 0.5 0.8 0.4 0.8 0.4 0.8 L0.3 0.8 0.3 0.8 M0.9 0.8 Q0.8 0.8 0.8 0.8 0.8 0.8 0.8 0.9 0.7 0.8 0.8 0.9 L0.7 0.9 Q0.7 0.9 0.6 0.9 0.5 1 0.5 0.9 0.5 0.8 0.3 0.9 L0.3 0.9 Q0.3 0.9 0.2 0.9 0.3 0.8 0.3 0.9 0.5 0.8 0.5 0.9 0.6 0.8 0.6 0.9 0.6 0.8 0.8 0.9 0.7 0.8 0.8 0.8 0.8 0.8 0.9 0.8 M0.8 1.4 Q0.8 1.5 0.8 1.6 0.7 1.5 0.7 1.4 0.6 1.6 0.6 1.4 0.5 1.5 0.5 1.6 0.5 1.4 0.3 1.6 0.3 1.4 0.2 1.6 0.2 1.4 0.1 1.5 L0.1 1.4 Q0.2 1.4 0.2 1.5 0.3 1.4 0.3 1.6 0.5 1.4 0.5 1.5 0.6 1.4 0.6 1.5 0.7 1.4 0.8 1.5 0.8 1.4 0.9 1.5 0.9 1.4 1 1.4 1 1.4 1.1 1.4 1.1 1.4 1.1 1.4 L1.1 1.4 Q1.1 1.4 1.1 1.5 1.1 1.4 1 1.4 L1 1.5 Q0.9 1.4 0.9 1.5 L0.8 1.4 M0.2 1.3 Q0.2 1.2 0.3 1.2 0.4 1.3 0.4 1.2 0.9 1.1 1.1 1.2 1 1.3 0.9 1.2 0.9 1.4 0.8 1.3 0.8 1.4 0.8 1.4 0.8 1.3 0.8 1.4 0.8 1.4 0.7 1.3 0.6 1.4 0.6 1.4 0.5 1.4 0.5 1.4 0.4 1.4 0.3 1.4 0.3 1.4 0.2 1.3 L0.2 1.3"/></g><g id="c4"><path fill="#bbc2c8" stroke="none" d="M1.2 -0.1 L1.2 0 Q1.2 0 1.1 0 L0.6 0.1 Q0.1 0.1 -0.5 0.1 -0.8 0 -1.1 0.1 L-1.1 0 Q-0.8 -0.1 -0.5 0 0.1 0.1 0.3 0 L1.2 -0.1 M1.2 0.2 L1.2 0.3 0.8 0.3 Q0.6 0.4 0 0.3 L-0.4 0.3 Q-0.7 0.4 -0.8 0.3 -1.4 0.3 -1.4 0.3 -1.4 0.2 -1.8 0.2 L-1.2 0.2 Q-1.5 0.3 -0.7 0.2 -0.8 0.3 0.1 0.2 0.5 0.3 0.8 0.2 1 0.2 1.2 0.2 M1.2 0.3 L1.2 0.5 Q-2.4 0.6 -2.1 0.3 -1.3 0.5 1.2 0.3 M-0.9 -0.3 Q-0.7 -0.3 -0.5 -0.3 -0.3 -0.4 -0.2 -0.3 -0.1 -0.4 0.1 -0.4 L0.1 -0.5 Q0.5 -0.5 0.3 -0.4 0.7 -0.4 0.7 -0.3 0.6 -0.3 0.4 -0.3 0.1 -0.3 -0.1 -0.3 -0.4 -0.2 -0.6 -0.3 -0.9 -0.2 -0.9 -0.3 M-0.8 -0.1 Q-0.8 -0.1 -0.6 -0.1 0.1 0 0.1 -0.2 0.8 -0.1 0.8 -0.2 0.9 -0.1 1 -0.1 0.9 -0.1 0.8 -0.1 0.8 0 0.2 -0.1 -0.1 0 -0.6 -0.1 L-0.8 -0.1"/><path fill="#000000" stroke="none" d="M1.2 0.5 Q-0.1 0.5 -1.4 0.5 -2.9 0.4 -1.4 0.2 -1.9 0.2 -2.2 0.2 -1.1 0.1 -1.1 0.1 -1.3 0 -0.8 -0.1 L-0.8 -0.1 Q-1 -0.1 -1.2 -0.1 L-0.7 -0.3 Q-0.8 -0.2 -0.9 -0.2 -1.1 -0.3 -0.8 -0.3 -0.6 -0.3 -0.7 -0.5 -0.6 -0.6 -0.1 -0.5 0.4 -0.5 0.4 -0.4 0.8 -0.4 0.7 -0.3 0.9 -0.3 1.2 -0.2 L0.8 -0.3 0.7 -0.3 0.3 -0.3 Q0.1 -0.3 -0.1 -0.3 -0.3 -0.2 -0.5 -0.2 -0.5 -0.3 -0.8 -0.2 L-1 -0.1 Q-1.1 -0.1 -1.1 -0.1 -1 -0.1 -0.6 -0.2 -0.1 -0.1 -0.1 -0.1 0 -0.1 0.1 -0.2 L0.7 -0.1 Q0.7 -0.1 0.7 -0.2 0.6 -0.2 1.2 -0.2 1.3 -0.1 0.9 -0.2 1.1 -0.1 1.2 -0.1 1.1 -0.1 1.1 -0.1 L1 -0.1 Q0.9 -0.1 0.8 -0.2 0.8 -0.1 0.1 -0.2 0.1 0 -0.6 -0.1 -0.8 -0.1 -0.8 -0.1 -0.7 -0.1 -0.9 -0.1 L-1.1 0 -1.1 0.1 Q-0.8 0 -0.5 0.1 0.1 0.1 0.6 0.1 L1.1 0 Q1.2 0 1.2 0 L1.2 0.1 Q0.9 0 0.6 0.1 0.1 0.1 -0.3 0.1 -0.8 0 -1.1 0.1 L-1.1 0.1 Q-1.4 0.1 -1.7 0.1 L-2 0.2 -1.1 0.2 Q-1.1 0.2 -1.2 0.2 -0.5 0.2 -0.6 0.3 L0.1 0.2 0.5 0.3 0.7 0.2 1.2 0.2 Q1 0.2 0.8 0.2 0.5 0.3 0.1 0.2 -0.8 0.3 -0.7 0.2 -1.5 0.3 -1.2 0.2 L-1.8 0.2 Q-2 0.3 -2.1 0.3 -2.4 0.6 1.2 0.5 M1.2 0.2 L1.2 0.2 1.2 0.2 M0.1 -0.5 Q-0.1 -0.4 -0.3 -0.5 -0.7 -0.5 -0.6 -0.4 -0.5 -0.3 -0.7 -0.3 -0.9 -0.3 -0.9 -0.3 -0.9 -0.2 -0.6 -0.3 -0.4 -0.2 -0.1 -0.3 0.1 -0.3 0.4 -0.3 0.6 -0.3 0.7 -0.3 0.7 -0.4 0.3 -0.4 0.5 -0.5 0.1 -0.5"/><path fill="#ffffff" stroke="none" d="M1.2 -0.1 L1.2 -0.1 0.3 0 Q0.1 0.1 -0.5 0 -0.8 -0.1 -1.1 0 L-0.9 -0.1 Q-0.7 -0.1 -0.8 -0.1 L-0.6 -0.1 Q-0.1 0 0.2 -0.1 0.8 0 0.8 -0.1 0.9 -0.1 1 -0.1 L1.1 -0.1 Q1.1 -0.1 1.2 -0.1 M1.2 0.3 L1.2 0.3 Q-1.3 0.5 -2.1 0.3 -2 0.3 -1.8 0.2 -1.4 0.2 -1.4 0.3 -1.4 0.3 -0.8 0.3 -0.7 0.4 -0.4 0.3 L0 0.3 Q0.6 0.4 0.8 0.3 L1.2 0.3 M-0.9 -0.3 Q-0.9 -0.3 -0.7 -0.3 -0.5 -0.3 -0.6 -0.4 -0.7 -0.5 -0.3 -0.5 -0.1 -0.4 0.1 -0.5 L0.1 -0.4 Q-0.1 -0.4 -0.2 -0.3 -0.3 -0.4 -0.5 -0.3 -0.7 -0.3 -0.9 -0.3"/><path fill="#2b5516" stroke="none" d="M1.2 0.1 L1.2 0.2 1.2 0.2 0.7 0.2 0.5 0.3 0.1 0.2 -0.6 0.3 Q-0.5 0.2 -1.2 0.2 -1.1 0.2 -1.1 0.2 L-2 0.2 -1.7 0.1 -1 0.1 -1.1 0.2 Q-0.5 0.1 -0.5 0.2 0.2 0.1 0.4 0.2 0.8 0.1 1.1 0.2 L1.2 0.1 M-1 -0.1 L-0.6 -0.2 Q-0.5 -0.2 -0.1 -0.1 0.1 -0.2 0.6 -0.1 L0.7 -0.2 Q0.9 -0.2 1.2 -0.2 0.6 -0.2 0.7 -0.2 0.7 -0.1 0.7 -0.1 L0.1 -0.2 Q0 -0.1 -0.1 -0.1 -0.1 -0.1 -0.6 -0.2 -1 -0.1 -1.1 -0.1 -1.1 -0.1 -1 -0.1 M0.8 -0.3 L0.5 -0.3 Q0.3 -0.2 0.1 -0.3 -0.4 -0.1 -0.6 -0.2 L-0.8 -0.2 Q-0.5 -0.3 -0.5 -0.2 -0.3 -0.2 -0.1 -0.3 0.1 -0.3 0.3 -0.3 L0.7 -0.3 0.8 -0.3 M-1.1 0.1 L-1.1 0.1 Q-0.8 0 -0.3 0.1 0.1 0.1 0.6 0.1 0.9 0 1.2 0.1 L1.1 0.1 Q1.2 0.1 0.8 0.1 0.4 0.2 0.2 0.1 -0.2 0.1 -0.3 0.1 -0.9 0.1 -0.8 0.1 L-1.1 0.1"/><path fill="#527c3d" stroke="none" d="M1.2 -0.2 L1.2 -0.2 Q0.9 -0.2 0.7 -0.2 L0.6 -0.1 Q0.1 -0.2 -0.1 -0.1 -0.5 -0.2 -0.6 -0.2 L-1 -0.1 -0.8 -0.2 -0.6 -0.2 Q-0.4 -0.1 0.1 -0.3 0.3 -0.2 0.5 -0.3 L0.8 -0.3 1.2 -0.2 M1.2 0.1 L1.2 0.1 1.1 0.2 Q0.8 0.1 0.4 0.2 0.2 0.1 -0.5 0.2 -0.5 0.1 -1.1 0.2 L-1 0.1 -1.7 0.1 Q-1.4 0.1 -1.1 0.1 L-0.8 0.1 Q-0.9 0.1 -0.3 0.1 -0.2 0.1 0.2 0.1 0.4 0.2 0.8 0.1 1.2 0.1 1.1 0.1 L1.2 0.1"/></g><linearGradient gradientUnits="userSpaceOnUse" x1="-819.2" x2="819.2" spreadMethod="pad" gradientTransform="matrix(-0,0,-0,-0,6.4,5.2)" id="gradient2"><stop offset="0" stop-color="#dae1eb"/><stop offset="1" stop-color="#ffffff"/></linearGradient><g id="c5"><path fill="#ffffff" stroke="none" d="M4.3 -0.1 L6.2 -0.1 Q6.7 0.5 7 0.6 7.7 1.1 8 1.6 8.7 3.6 11.8 3.8 L11.8 4.6 Q11.2 4.5 10.6 4.3 10 4 9.5 4 7.1 3.7 6.7 2.6 6 1.1 4.3 -0.1"/><path fill="#000000" stroke="none" d="M6.2 -0.1 Q6.7 0.4 7 0.6 7.7 1 8 1.6 8.7 3.6 11.8 3.8 8.7 3.6 8 1.6 7.7 1.1 7 0.6 6.7 0.5 6.2 -0.1"/><path stroke="none" fill="url(#gradient2)" d="M11.8 4.6 L11.8 9.9 2.9 9.9 2.9 -0.1 4.3 -0.1 Q6 1.1 6.7 2.6 7.1 3.7 9.5 4 10 4 10.6 4.3 11.2 4.5 11.8 4.6"/></g><g id="c7"/><g id="c9"><path fill="#000000" stroke="none" d="M3 2.6 Q4.2 3 4.3 4.1 4.7 5.6 3.2 5.8 0.8 6.1 0.2 4.3 -0.1 3.1 1 2.8 L1.1 2.8 Q0.8 2.8 0.7 3 0.8 3 1 3.2 L1.1 3.1 0.9 3.3 Q1.1 3 1.4 3 1.2 3.1 1.1 3.2 0.5 3.9 1.2 4.5 1.6 4.8 2.5 4.5 3.1 4.2 3.5 4.2 3.5 4.2 3.7 4.2 4.2 4.3 4.3 4.8 4.2 4.3 3.6 4.3 L3.5 4.3 3 4.3 2.5 4.5 Q1.7 4.8 1.3 4.5 1.2 4.5 1.1 4.4 0.9 4.5 0.8 4.9 0.9 4.6 1.1 4.4 0.6 3.9 0.9 3.2 1 3.1 0.9 3.2 0.8 2.9 0.6 3 0.2 3.2 0.2 3.7 0.1 4.1 0.4 4.7 0.6 5 0.9 5.3 L1.1 5.4 Q2 6 2.6 5.6 3.8 4.8 4.2 5.3 L4.2 5.3 Q4.6 4.5 4.2 3.6 4 3.4 3.6 3.5 3.9 3.4 4.2 3.5 3.7 2.9 3 2.7 L3 2.6 M3 3.2 Q3.1 3.3 3.4 3.5 3.5 3.5 3.6 3.5 3.5 3.5 3.4 3.5 3.8 4 3.5 4.2 L3 3.2 M0.9 5.2 Q0.8 5 0.8 4.9 0.8 5 0.9 5.2 L0.9 5.3 Q0.9 5.2 0.9 5.2 M2.3 4.9 Q2.1 4.7 2.5 4.5 2.6 4.5 2.9 4.5 3.2 4.5 3.2 4.8 L3.1 4.9 Q3.1 4.9 3 4.9 3 4.8 3 4.8 3.1 4.7 2.9 4.7 2.7 4.7 2.5 4.7 2.3 4.8 2.4 4.9 2.4 5 2.3 4.9 M2.5 4.6 Q2.3 4.7 2.2 4.8 2.2 4.9 2.3 5 2.4 5 2.4 4.9 2.2 4.8 2.5 4.7 2.6 4.6 2.8 4.7 3.2 4.7 3 4.8 3.1 4.9 3.1 4.8 3.2 4.7 3.1 4.7 3.2 4.6 2.8 4.5 2.7 4.5 2.5 4.6 M2.4 5.8 L2.2 5.8 Q3.7 6 4.2 5.3 3.8 5 2.8 5.5 2.6 5.7 2.4 5.8"/><path fill="#ef2323" stroke="none" d="M3 2.6 L3 2.7 Q3.7 2.9 4.2 3.5 3.9 3.4 3.6 3.5 3 2.9 1.6 2.9 1.3 2.9 1.1 3.1 L1 3.2 Q0.8 3 0.7 3 0.8 2.8 1.1 2.8 L1 2.8 3 2.6 M3.4 3.5 Q3.5 3.5 3.6 3.5 4 3.5 4.2 3.6 4.6 4.5 4.2 5.3 4.3 5 4.3 4.9 3.9 4.5 3.2 4.8 L3.2 4.7 Q3.6 4.5 3.5 4.3 L3.6 4.3 Q4.2 4.4 4.3 4.9 L4.3 5 Q4.3 4.8 4.3 4.8 4.2 4.3 3.7 4.2 4 4 3.6 3.5 3.5 3.5 3.4 3.5 M0.2 3.7 Q0.2 3.2 0.6 3 0.8 3 0.9 3.2 0.6 3.9 1.1 4.4 0.9 4.6 0.8 4.9 0.3 4.4 0.2 3.7 M0.9 5.2 Q0.8 5 0.8 4.9 L0.9 5 Q0.9 4.7 1.1 4.4 1.2 4.5 1.3 4.5 1.4 4.9 2.1 4.8 2.1 4.9 2.3 4.9 2.4 5 2.4 4.9 2.6 4.8 3 4.8 1.9 5.5 0.9 5 0.9 5.1 0.9 5.2 L0.9 5.2 M2.5 4.5 L3 4.3 2.9 4.5 Q2.6 4.5 2.5 4.5 2.5 4.5 2.5 4.5 M2.5 4.7 Q2.7 4.7 2.9 4.7 L2.9 4.8 Q2.5 4.8 2.5 4.7 M3.9 4.5 Q3.5 4.4 4.2 4.7 4.1 4.5 3.9 4.5 M3.6 4.5 L3.8 4.5 Q3.8 4.5 3.6 4.5"/><path fill="#9a0000" stroke="none" d="M1.2 4.5 Q0.5 3.9 1.1 3.2 0.9 3.5 1.2 3.9 1.3 4 1.2 4.2 1.2 4.3 1.2 4.5 M3 4.8 Q3 4.8 3 4.9 L3 4.8 3 4.8 M3.1 4.9 L3.2 4.8 3.2 4.8 Q3.2 4.8 3.1 4.9 M4.2 5.3 Q3.8 5.9 2.4 5.8 2.6 5.7 2.8 5.5 3.8 5 4.2 5.3"/><path fill="#ffffff" stroke="none" d="M2.5 4.6 Q2.7 4.5 2.8 4.5 2.8 4.6 2.8 4.7 2.6 4.6 2.5 4.7 2.5 4.6 2.5 4.6 M3.1 4.7 Q3.2 4.7 3.1 4.8 L3.1 4.8 3.1 4.7 M2.3 5 Q2.2 4.9 2.2 4.8 2.4 4.8 2.3 5"/><path fill="#c70000" stroke="none" d="M3.6 3.5 Q3.5 3.5 3.4 3.5 3.1 3.3 3 3.2 L1.4 3 Q1.1 3 0.9 3.3 L1.1 3.1 Q1.3 2.9 1.6 2.9 3 2.9 3.6 3.5 M3.5 4.2 Q3.8 4 3.4 3.5 3.5 3.5 3.6 3.5 4 4 3.7 4.2 3.5 4.2 3.5 4.2 L3.5 4.2 M4.2 5.3 L4.2 5.3 Q3.8 4.8 2.6 5.6 1.9 6 0.9 5.2 0.9 5.1 0.9 5 1.9 5.5 3 4.8 2.6 4.8 2.4 4.9 2.3 4.8 2.5 4.7 2.5 4.8 2.9 4.8 L2.9 4.7 Q3.1 4.7 3 4.8 L3 4.8 3 4.9 Q3.1 4.9 3.1 4.9 3.2 4.8 3.2 4.8 L3.2 4.8 Q3.2 4.5 2.9 4.5 L3 4.3 3.5 4.3 Q3.6 4.5 3.2 4.7 L3.2 4.8 Q3.9 4.5 4.3 4.9 4.3 5 4.2 5.3 M0.4 4.7 Q0.1 4.1 0.2 3.7 0.3 4.4 0.8 4.9 0.8 5 0.9 5.2 0.6 4.9 0.4 4.7 M1.3 4.5 Q1.7 4.8 2.5 4.5 2.5 4.5 2.5 4.5 2.1 4.7 2.3 4.9 2.1 4.9 2.1 4.8 1.4 4.9 1.3 4.5"/><path fill="#ff6767" stroke="none" d="M3.6 3.5 Q4 3.4 4.2 3.6 4 3.5 3.6 3.5 M0.6 3 Q0.8 2.9 0.9 3.2 1 3.1 0.9 3.2 0.8 3 0.6 3 M0.8 4.9 Q0.9 4.5 1.1 4.4 0.9 4.7 0.9 5 L0.8 4.9 M3.6 4.3 Q4.2 4.3 4.3 4.8 4.3 4.8 4.3 5 L4.3 4.9 Q4.2 4.4 3.6 4.3 M3.9 4.5 Q4.1 4.5 4.2 4.7 3.5 4.4 3.9 4.5 M3.6 4.5 Q3.8 4.5 3.8 4.5 L3.6 4.5"/><path fill="#999999" stroke="none" d="M2.2 4.8 Q2.3 4.7 2.5 4.6 2.5 4.6 2.5 4.7 2.2 4.8 2.4 4.9 2.4 5 2.3 5 2.4 4.8 2.2 4.8 M2.8 4.5 Q3.2 4.6 3.1 4.7 L3.1 4.8 3.1 4.8 Q3.1 4.9 3 4.8 3.2 4.7 2.8 4.7 2.8 4.6 2.8 4.5"/><path fill="#890000" stroke="none" d="M3 3.2 L3.5 4.2 3.5 4.2 Q3.1 4.2 2.5 4.5 1.6 4.8 1.2 4.5 1.2 4.3 1.2 4.2 1.3 4 1.2 3.9 0.9 3.5 1.1 3.2 1.2 3.1 1.4 3 L3 3.2"/><path fill="#b4919b" stroke="none" d="M2.6 5.6 Q2 6 1.1 5.4 1 5.3 0.9 5.2 1.9 6 2.6 5.6 M0.9 5.3 Q0.6 5 0.4 4.7 0.6 4.9 0.9 5.2 0.9 5.2 0.9 5.3 M2.4 5.8 Q3.8 5.9 4.2 5.3 3.7 6 2.2 5.8 L2.4 5.8"/><path fill="#cca4b1" stroke="none" d="M1.1 5.4 L0.9 5.3 0.9 5.2 0.9 5.2 Q1 5.3 1.1 5.4"/><path fill="#000000" stroke="none" d="M1.6 1.2 Q2 1.5 1.8 2.1 L1.9 2.1 Q1.9 1.6 2.2 1.7 2.3 1.7 2.3 1.6 2.3 1.5 2.4 1.5 2.5 1.4 2.6 1.8 3 1.9 2.9 2.4 3.2 2.6 3.2 3.3 3.2 3.5 3.2 3.5 4.1 4.1 3.1 4.6 3.1 4.8 3 4.8 2.7 4.5 3 4.2 2.5 4.5 2.2 4.3 L2.2 4.4 Q2.5 4.5 2.5 4.7 2.5 4.9 2.2 4.8 2.1 4.8 2 4.8 1.1 5 1.5 3.9 1.1 3.5 1.1 3 0.8 3 0.6 2.6 0.5 2.3 0.8 1.9 0.9 1.8 0.8 1.6 1.1 1.4 1.1 1.8 1.6 1.6 1.5 2 L1.5 2.1 Q1.8 1.7 1.6 1.4 1.7 1.5 1.7 1.6 1.7 1.6 1.7 1.8 L1.6 1.9 Q1.6 2 1.6 2 L1.5 2.2 Q1.4 2.3 1.4 2.4 1.4 2.5 1.4 2.6 1.4 2.8 1.4 2.8 L1.6 3 Q1.8 3.1 1.7 3 1.7 3.1 1.7 3.2 1.7 3.4 1.7 3.4 1.8 3.5 1.9 3.5 1.9 3.4 1.9 3.4 L1.9 3.4 Q1.8 3.5 1.8 3.5 1.8 3.5 1.8 3.6 1.8 3.7 1.9 3.9 1.8 3.5 2.1 3.4 2.5 3 2.6 3.1 2.8 3.1 3 3.2 3.1 3.5 3 3.3 3 3.4 3 3.5 L3 3.4 Q3.1 3.2 2.8 3 L2.8 3 2.8 3 Q2.7 3 2.8 3 L2.8 3 Q3 3 3 3.1 2.9 2.8 2.5 2.9 2.4 2.9 2.4 2.9 2.4 2.9 2.7 2.9 L2.6 2.8 Q2.5 2.6 2 2.6 1.9 2.6 1.9 2.6 L1.8 2.5 Q1.7 2.5 1.8 2.5 L1.7 2.5 Q1.6 2.6 1.6 2.6 1.6 2.7 1.6 2.5 L1.7 2.3 1.8 2.1 1.9 1.9 Q1.9 1.8 1.9 1.7 1.9 1.6 1.8 1.6 1.8 1.4 1.7 1.4 1.8 1.4 1.8 1.6 1.8 1.6 1.7 1.4 1.7 1.4 1.6 1.2 M1.8 1.7 L1.8 1.6 Q1.8 1.8 1.8 1.7 M1.7 2.7 Q1.6 2.8 1.6 2.6 1.6 2.7 1.7 2.7 M1.8 3.2 Q1.8 3.1 1.7 3 1.8 3.1 1.8 3.2 M1.6 1.4 L1.6 1.4 1.6 1.4 M2.9 2 Q2.9 1.9 2.5 1.8 2.5 1.8 2.6 1.8 2.6 1.8 2.5 1.6 2.4 1.4 2.4 1.6 2.4 1.7 2.3 1.7 2.4 1.8 2.4 1.8 2 1.7 1.9 1.8 1.9 1.9 1.9 1.9 1.9 2.1 2.1 2 2.3 2 2.5 2.1 2.8 2.2 2.9 2.4 3 2.1 2.9 2 2.9 2 2.8 2.1 2.9 2 2.9 2 M2 1.9 Q2.3 1.9 2.6 2 2.2 1.9 2 1.9 M2.6 2.4 Q2.5 1.9 1.8 2.1 1.6 2.5 1.8 2.5 L1.8 2.5 Q2.4 2.3 2.6 2.5 L2.6 2.4 M3.4 3.6 Q3 3.5 3.2 3.5 3.2 3.5 3.1 3 3.1 2.3 2.5 2.1 2.6 2.2 2.6 2.5 2.4 2.3 1.8 2.5 1.9 2.6 2.3 2.6 2.5 2.6 2.8 2.9 2.9 2.9 3 3.1 3.1 3.2 3.1 3.4 3 3.5 3 3.5 3.2 3.8 3 4.2 3 4.2 3 4.2 3.2 3.9 3.3 4 3.1 4 2.9 4.5 2.9 4.5 3 4.5 3.2 4.7 3.4 4.5 3.6 4.2 3.6 4 3.5 3.6 3.1 3.6 3.2 3.6 3.4 3.6 3.4 3.5 3.4 3.6 M2.5 3 Q2.2 3.1 2.2 3.1 2.3 3 2.5 3 L2.5 3 2.5 3 M1.8 0.4 L1.8 0.4 M1.9 0.4 L1.9 0.4 M0.2 0.6 L0.2 0.6 M0.5 0.6 L0.5 0.6 M1 1.6 Q0.9 1.5 0.9 1.6 0.9 1.7 0.7 2 0.3 2.8 1.1 3 1.1 2.6 1.4 2.4 1.6 2 1.4 2.1 1.6 2 1.4 1.8 1.3 1.8 1 1.9 1.1 1.8 1 1.6 M0.9 2.2 Q1.1 1.9 1.4 1.9 L1.4 1.9 Q1 2 0.8 2.4 0.8 2.3 0.9 2.2 M0.6 2.7 Q0.4 2.4 -0.2 0.7 L0.6 2.7 M0.1 2.2 L0.2 2.2 0.7 3.1 0.1 2.2 M1.2 2.5 Q0.9 3.2 1.4 3.9 L1.5 3.8 1.5 3.7 Q1.4 4.4 1.4 4.5 1.4 4.8 1.9 4.8 2.1 4.8 2.2 4.7 2.1 4.7 2.3 4.5 2.4 4.5 2.4 4.5 2.2 4.3 1.8 4.3 1.8 4.3 1.9 4.3 1.7 4.3 1.8 4.3 1.8 4.2 1.9 4.3 L1.9 4.2 Q2 4.4 2.1 4.3 1.9 4.2 1.9 4 1.9 4 1.9 3.9 1.9 4 1.8 3.8 1.7 3.6 1.7 3 1.2 2.8 1.4 2.4 1.3 2.5 1.2 2.5 M0.8 2.5 Q0.8 2.5 0.7 2.5 0.8 2.5 0.8 2.5 M1.1 2.5 Q1 2.6 1.3 2.4 L1.1 2.5 M1.3 2.5 Q1.4 2.4 1.4 2.3 1.4 2.4 1.3 2.5 M2.5 2.3 Q2.5 2.2 2.5 2.3 2.6 2.4 2.5 2.3 2.5 2.4 2.5 2.3 2.5 2.3 2.5 2.3 M3 3.5 Q2.6 2.6 1.9 3.6 1.8 4.2 2.1 4.3 2 4.2 2 4.2 2 4 2.1 4 1.9 3.8 2.1 3.5 2.3 3.2 2.5 3.4 2.5 3.1 2.8 3.4 3 3.6 2.9 3.9 3 3.9 3 4 L3 4 Q3.1 3.9 3 3.6 3 3.8 3 3.7 L3 3.5 M2.5 3.5 Q2.4 3.2 2.1 3.5 1.9 3.8 2.1 3.9 2.2 3.9 2.2 3.6 2.2 3.8 2.2 3.8 2.5 3.7 2.7 3.8 2.7 3.6 2.6 3.5 2.8 3.8 2.8 3.8 3 3.6 2.8 3.4 2.5 3.2 2.5 3.5 M3 4 Q2.6 3.5 2.1 4 L2.1 4 Q2 4.1 2.1 4.2 L2.1 4.2 Q2.4 4.5 2.9 4.2 3 4.2 3 4.1 L3 4 M2.4 4.2 Q2.2 4.2 2.2 4.2 L2.2 4.3 2.5 4.2 2.4 4.2 M2.4 4.2 Q2.5 4.2 2.7 4.1 2.9 4 3 4.2 2.5 4.2 2.2 4.3 2.2 4.2 2.4 4.2 M2.3 4.5 Q2.1 4.8 2.4 4.7 2.4 4.6 2.5 4.6 L2.5 4.5 Q2.4 4.5 2.3 4.5 M2.4 4.7 Q2.4 4.6 2.3 4.7 2.5 4.9 2.4 4.7 M3.1 3.8 Q3.1 3.7 3.1 3.6 L3.1 3.7 Q3.1 3.8 3.1 3.8 M2.8 4.1 Q2.9 4 2.5 4.2 3.2 4.2 2.7 4.2 2.8 4.2 2.8 4.1 M2.9 4.6 Q3.1 4.9 3.1 4.6 3 4.5 2.9 4.6 2.9 4.5 3 4.5 3.2 4.6 3 4.5 2.8 4.5 2.9 4.6"/><path fill="#ffb409" stroke="none" d="M3 4 L3 4.1 Q2.9 3.8 2.1 4.2 L2.1 4.2 Q2.4 3.5 3 4"/><path fill="#cccccc" stroke="none" d="M2.5 3.5 Q2.4 3.4 2.2 3.4 1.9 3.6 2.1 3.9 1.9 3.8 2.1 3.5 2.4 3.2 2.5 3.5 2.5 3.2 2.8 3.4 3 3.6 2.8 3.8 2.9 3.5 2.6 3.4 2.5 3.3 2.5 3.5 M2.4 4.2 L2.5 4.2 2.2 4.3 2.2 4.2 Q2.2 4.2 2.4 4.2 M2.8 4.1 Q2.8 4.2 2.7 4.2 3.2 4.2 2.5 4.2 2.9 4 2.8 4.1"/><path fill="#ff6500" stroke="none" d="M3 3.5 L3 3.7 Q3 3.9 3 4 3 3.9 2.9 3.9 3 3.6 2.8 3.4 2.5 3.1 2.5 3.4 2.3 3.2 2.1 3.5 1.9 3.8 2.1 4 2 4 2 4.2 1.7 3.8 2.1 3.4 2.7 2.9 3 3.5 M2.4 4.7 Q2.5 4.9 2.3 4.7 2.4 4.6 2.4 4.7 M2.9 4.6 Q3 4.5 3.1 4.6 3.1 4.9 2.9 4.6"/><path fill="#cc0001" stroke="none" d="M2.5 1.8 Q2.9 1.9 2.9 2 2.9 2 2.8 2.1 2.8 2.1 2.6 2 2.3 1.9 2 1.9 1.9 1.9 1.9 1.8 2 1.7 2.4 1.8 2.4 1.7 2.4 1.8 2.4 1.6 2.3 1.7 2.4 1.7 2.4 1.6 2.4 1.4 2.5 1.6 2.5 1.8 2.5 1.8 M2.5 2.1 Q2.3 2 2.1 2 2.4 1.9 2.5 2.1 M2.6 2.4 Q2.3 2.3 1.8 2.5 1.6 2.5 1.8 2.1 2.5 1.9 2.6 2.4 M3.1 3.4 Q3.1 3.2 3 3.1 2.9 2.9 2.8 2.9 2.5 2.6 2.3 2.6 1.9 2.6 1.8 2.5 2.4 2.3 2.6 2.5 2.6 2.2 2.5 2.1 3.1 2.3 3.1 3 3.2 3.5 3.2 3.5 3 3.5 3.4 3.6 3 3.6 3 3.5 3.1 3.5 3.1 3.4 M3.1 3.6 Q3.5 3.6 3.6 4 3.3 4 3.2 4.2 3.2 4.3 3 4.5 2.9 4.5 2.9 4.5 3.1 4 3.3 4 3.2 3.9 3.1 3.8 3.1 3.8 3.1 3.7 L3.1 3.6 M1 1.6 Q0.9 1.6 1 1.6 0.9 1.9 1 1.9 1.3 1.8 1.4 1.8 1.4 1.9 1.4 1.9 1.1 1.9 0.9 2.2 0.6 2.5 0.7 2 0.9 1.7 0.9 1.6 0.9 1.5 1 1.6 M1.4 1.9 Q1.4 2.2 0.8 2.4 1 2 1.4 1.9 M1.5 3.8 L1.6 3.6 Q1.4 3.7 1.4 3.6 1 3.2 1.2 2.5 1.3 2.5 1.4 2.4 1.2 2.8 1.7 3 1.7 3.6 1.8 3.8 1.6 4.2 1.8 4.2 1.8 4.2 1.8 4.3 1.7 4.3 1.9 4.3 1.8 4.3 1.8 4.3 2.2 4.3 2.4 4.5 2.4 4.5 2.3 4.5 L2.2 4.5 Q1.4 4.5 1.4 4.5 1.4 4.4 1.5 3.7 L1.5 3.8 M2.5 2.3 Q2.6 2.4 2.5 2.3 2.5 2.2 2.5 2.3 M2.3 4.5 Q2.4 4.5 2.5 4.5 L2.5 4.6 Q2.4 4.6 2.4 4.7 2.4 4.6 2.3 4.5 M3 4.5 Q2.9 4.5 2.9 4.6 2.8 4.5 3 4.5 3 4.5 3 4.5"/><path fill="#8ec5fd" stroke="none" d="M1.6 1.2 Q1.7 1.4 1.7 1.4 L1.6 1.4 1.6 1.4 Q1.5 1.3 1.6 1.2 M1.8 1.6 L1.8 1.7 1.7 1.8 Q1.7 1.6 1.7 1.6 L1.8 1.6 M1.8 1.6 Q1.9 1.6 1.9 1.7 L1.8 1.8 Q1.8 1.6 1.8 1.6 M1.9 1.9 L1.8 2.1 Q1.8 2.1 1.6 2 1.7 2 1.8 1.9 L1.9 1.9 M1.7 2.3 L1.6 2.5 Q1.6 2.4 1.4 2.4 1.4 2.3 1.5 2.2 1.6 2.2 1.7 2.3 M1.6 2.6 Q1.6 2.8 1.7 2.7 L1.8 2.6 Q1.6 2.7 1.7 2.6 1.6 2.6 1.8 2.5 L1.9 2.6 Q1.8 2.8 1.4 2.8 1.4 2.8 1.4 2.6 1.4 2.6 1.6 2.6 M2 2.6 Q2.5 2.6 2.6 2.8 L2.6 2.8 Q2.5 2.8 2.5 2.8 1.9 2.6 1.7 3 1.8 3.1 1.6 3 1.8 2.8 2 2.6 M2.4 2.9 Q2.4 2.9 2.5 2.9 2.2 2.9 1.8 3.4 1.8 3.2 1.8 3.2 L1.9 3.3 1.8 3.2 Q2 2.9 2.4 2.9 M2.8 3 Q3.1 3.2 3 3.4 3 3.1 2.6 3.1 2.5 3 2.1 3.4 1.9 3.5 1.8 3.6 1.8 3.5 1.8 3.5 1.8 3.5 1.9 3.4 L2.2 3.1 Q2.2 3.1 2.5 3 2.6 3 2.8 3 M1.6 2 Q1.6 2 1.6 1.9 L1.7 1.9 1.6 2 Q1.6 2 1.6 2 M1.7 1.8 Q1.8 1.8 1.7 1.8"/><path fill="#a30000" stroke="none" d="M2.5 1.8 Q2.5 1.8 2.5 1.6 2.6 1.8 2.6 1.8 2.5 1.8 2.5 1.8 M2.3 1.7 Q2.4 1.6 2.4 1.8 2.4 1.7 2.4 1.8 2.4 1.8 2.3 1.7 M1.9 1.8 Q1.9 1.9 2 1.9 2.2 1.9 2.6 2 2.8 2.1 2.8 2.1 2.9 2 2.9 2 3 2.1 2.9 2.4 2.8 2.2 2.5 2.1 2.4 1.9 2.1 2 1.9 2.1 1.9 1.9 1.9 1.9 1.9 1.8 M1.8 2.5 Q2.3 2.3 2.6 2.4 L2.6 2.5 Q2.4 2.3 1.8 2.5 L1.8 2.5 M3.4 3.6 Q3.4 3.5 3.4 3.6 3.2 3.6 3.1 3.6 L3.1 3.7 3.1 3.6 Q3.1 3.7 3.1 3.8 3.2 3.9 3.3 4 3.2 3.9 3 4.2 3 4.2 3 4.2 3.2 3.8 3 3.5 3 3.5 3.1 3.4 3.1 3.5 3 3.5 3 3.6 3.4 3.6 M3.6 4 Q3.6 4.2 3.4 4.5 3.2 4.7 3 4.5 3.2 4.3 3.2 4.2 3.3 4 3.6 4 M1 1.9 Q0.9 1.9 1 1.6 0.9 1.6 1 1.6 1.1 1.8 1 1.9 M0.7 2 Q0.6 2.5 0.9 2.2 0.8 2.3 0.8 2.4 1.4 2.2 1.4 1.9 L1.4 1.9 Q1.4 1.9 1.4 1.8 1.6 2 1.4 2.1 1.6 2 1.4 2.4 1.1 2.6 1.1 3 0.3 2.8 0.7 2 M1.2 2.5 Q1 3.2 1.4 3.6 1.4 3.7 1.6 3.6 L1.5 3.8 1.4 3.9 Q0.9 3.2 1.2 2.5 M1.4 4.5 Q1.4 4.5 2.2 4.5 L2.3 4.5 Q2.1 4.7 2.2 4.7 2.1 4.8 1.9 4.8 1.4 4.8 1.4 4.5 M1.8 4.3 Q1.8 4.2 1.8 4.2 1.6 4.2 1.8 3.8 1.9 4 1.9 3.9 1.9 4 1.9 4 1.9 4.2 2.1 4.3 2 4.4 1.9 4.2 L1.9 4.3 Q1.8 4.2 1.8 4.3 M1.3 2.5 Q1.4 2.4 1.4 2.3 1.4 2.4 1.3 2.5 M1.1 2.5 L1.3 2.4 Q1 2.6 1.1 2.5 M0.8 2.5 Q0.8 2.5 0.7 2.5 0.8 2.5 0.8 2.5 M2.5 2.3 Q2.5 2.3 2.5 2.3 2.5 2.4 2.5 2.3 M2.4 4.7 Q2.1 4.8 2.3 4.5 2.4 4.6 2.4 4.7 M3 4.5 Q3.2 4.6 3 4.5 3 4.5 3 4.5"/><path fill="#f99108" stroke="none" d="M3 4.1 Q3 4.2 2.9 4.2 2.4 4.5 2.1 4.2 2.9 3.8 3 4.1 M2.4 4.2 Q2.2 4.2 2.2 4.3 2.5 4.2 3 4.2 2.9 4 2.7 4.1 2.5 4.2 2.4 4.2"/><path fill="#ffffff" stroke="none" d="M1.7 1.4 Q1.8 1.6 1.8 1.6 L1.7 1.6 Q1.7 1.5 1.6 1.4 L1.7 1.4 M1.9 1.7 Q1.9 1.8 1.9 1.9 L1.8 1.9 1.8 1.8 1.9 1.7 M1.8 2.1 L1.7 2.3 Q1.6 2.2 1.5 2.2 L1.6 2 Q1.6 2 1.6 2 L1.6 2.2 Q1.6 2.1 1.6 2 1.8 2.1 1.8 2.1 M1.6 2.5 Q1.6 2.7 1.6 2.6 1.4 2.6 1.4 2.6 1.4 2.5 1.4 2.4 1.6 2.4 1.6 2.5 M1.8 2.5 Q1.7 2.5 1.8 2.5 1.6 2.6 1.7 2.6 1.7 2.5 1.8 2.5 M1.9 2.6 Q1.9 2.6 2 2.6 1.8 2.8 1.6 3 L1.4 2.8 Q1.8 2.8 1.9 2.6 M2.6 2.8 L2.7 2.9 2.6 2.8 2.6 2.8 M2.5 2.9 Q2.9 2.8 3 3.1 3 3 2.8 3 L2.8 3 Q2.7 3 2.8 3 2.6 3 2.5 3 2.3 3 2.2 3.1 L1.9 3.4 1.9 3.4 Q1.9 3.4 1.9 3.5 1.9 3.4 1.8 3.4 2.2 2.9 2.5 2.9 M1.8 3.2 Q1.8 3.1 1.7 3 1.9 2.6 2.5 2.8 2.3 2.8 2.4 2.9 2 2.9 1.8 3.2 M1.6 1.9 L1.7 1.8 1.7 1.9 1.6 1.9 M1.7 1.8 Q1.8 1.8 1.7 1.8 M2.1 3.9 Q1.9 3.6 2.2 3.4 2.4 3.4 2.5 3.5 2.5 3.3 2.6 3.4 2.9 3.5 2.8 3.8 2.8 3.8 2.6 3.5 2.7 3.6 2.7 3.8 2.5 3.7 2.2 3.8 2.2 3.8 2.2 3.6 2.2 3.9 2.1 3.9"/><path fill="#cd3300" stroke="none" d="M2 4.2 Q2 4.2 2.1 4.3 1.8 4.2 1.9 3.6 2.6 2.6 3 3.5 2.7 2.9 2.1 3.4 1.7 3.8 2 4.2 M3 3.7 Q3 3.8 3 3.6 3.1 3.9 3 4 L3 4 Q3 3.9 3 3.7"/><path fill="#ffdc31" stroke="none" d="M2.1 4.2 Q2 4.1 2.1 4 L2.1 4 Q2.6 3.5 3 4 2.4 3.5 2.1 4.2"/><path fill="#cdcdcd" stroke="none" d="M1.8 1.6 Q1.8 1.4 1.7 1.4 1.8 1.4 1.8 1.6 L1.8 1.6 M1.6 2.6 Q1.6 2.6 1.7 2.5 L1.8 2.5 Q1.7 2.5 1.7 2.6 1.6 2.6 1.6 2.6 M2.7 2.9 Q2.4 2.9 2.4 2.9 2.3 2.8 2.5 2.8 2.5 2.8 2.6 2.8 L2.7 2.9 M1.9 3.5 Q1.8 3.5 1.7 3.4 1.8 3.4 1.8 3.4 1.9 3.4 1.9 3.5 M1.7 3.2 Q1.7 3.1 1.7 3 1.8 3.1 1.8 3.2 L1.8 3.2 1.7 3.2 M1.7 1.8 Q1.8 1.8 1.8 1.8 L1.8 1.9 1.7 1.9 1.7 1.8 M1.6 2 Q1.6 2.1 1.6 2.2 L1.6 2"/><path fill="#5d94cc" stroke="none" d="M1.8 1.7 Q1.8 1.8 1.8 1.6 L1.8 1.6 Q1.8 1.6 1.8 1.8 1.8 1.8 1.7 1.8 L1.8 1.7 M1.7 2.7 Q1.6 2.7 1.6 2.6 1.6 2.6 1.7 2.6 1.6 2.7 1.8 2.6 L1.7 2.7 M3 3.4 L3 3.5 Q3 3.4 3 3.3 3.1 3.5 3 3.2 2.8 3.1 2.6 3.1 3 3.1 3 3.4 M2.1 3.4 Q1.8 3.5 1.9 3.9 1.8 3.7 1.8 3.6 1.9 3.5 2.1 3.4 M1.7 3.4 Q1.7 3.4 1.7 3.2 L1.8 3.2 Q1.8 3.2 1.8 3.4 1.8 3.4 1.7 3.4 M1.7 1.9 L1.8 1.9 Q1.7 2 1.6 2 L1.7 1.9 M2.5 2.8 Q2.5 2.8 2.6 2.8 2.5 2.8 2.5 2.8 M1.8 3.2 L1.9 3.3 1.8 3.2 1.8 3.2"/><path fill="none" stroke="#525a61" stroke-width="0.5" d="M2.8 3 L2.8 3 2.8 3 Q2.6 3 2.5 3 M2.2 3.1 L1.9 3.4 M1.6 1.4 L1.7 1.4 M1.8 1.6 L1.8 1.6 M1.7 1.6 L1.8 1.6 M1.8 1.8 L1.9 1.7 M1.8 1.8 Q1.8 1.8 1.7 1.8 1.8 1.8 1.7 1.8 M1.7 1.9 L1.8 1.9 M1.7 1.9 L1.6 1.9 M1.9 1.9 L1.8 1.9 M1.6 2 Q1.8 2.1 1.8 2.1 M1.6 2 Q1.6 2 1.6 2 M1.5 2.2 Q1.6 2.2 1.7 2.3 M1.7 2.6 Q1.6 2.6 1.8 2.5 M1.6 2.6 Q1.6 2.6 1.7 2.6 M1.9 2.6 Q1.8 2.8 1.4 2.8 M1.6 3 Q1.8 2.8 2 2.6 M1.6 2.5 Q1.6 2.4 1.4 2.4 M1.4 2.6 Q1.4 2.6 1.6 2.6 M2.5 2.8 Q1.9 2.6 1.7 3 M2.5 2.8 Q2.5 2.8 2.6 2.8 L2.6 2.8 M2.5 2.9 Q2.2 2.9 1.8 3.4 1.8 3.4 1.7 3.4 M1.8 3.2 Q2 2.9 2.4 2.9 M2.5 3 L2.5 3 M1.8 3.2 L1.7 3.2 M1.8 3.2 L1.8 3.2"/></g><g id="c10"><path fill="#000000" stroke="none" d="M0.6 0.1 Q0.7 0.5 0.3 0.6 0.1 0.6 0.1 0.5 -0.1 0.1 0.3 0 0.5 0 0.6 0.1 M0.5 0.1 Q0.1 -0.1 0.1 0.3 0.1 0.6 0.3 0.5 0.4 0.3 0.3 0.3 0.2 0.3 0.2 0.2 0.3 0.2 0.3 0.2 0.5 0.3 0.4 0.5 L0.5 0.5 Q0.6 0.3 0.5 0.1 M0.4 0.3 Q0.3 0.2 0.3 0.5 0.5 0.4 0.4 0.3"/><path fill="#121212" stroke="none" d="M0.4 0.3 Q0.5 0.4 0.3 0.5 0.3 0.2 0.4 0.3"/><path fill="#ffd009" stroke="none" d="M0.1 0.3 Q0.1 0.1 0.5 0.2 L0.5 0.1 Q0.6 0.3 0.5 0.5 0.6 0.2 0.3 0.2 0.3 0.2 0.2 0.2 0 0.5 0.3 0.5 0.1 0.6 0.1 0.3"/><path fill="#ffff3f" stroke="none" d="M0.3 0.5 Q0 0.5 0.2 0.2 0.2 0.3 0.3 0.3 0.4 0.3 0.3 0.5 M0.2 0.5 Q0.4 0.3 0.2 0.4 0.1 0.5 0.2 0.5"/><path fill="#f09f2c" stroke="none" d="M0.5 0.1 L0.5 0.2 Q0.1 0.1 0.1 0.3 0.1 -0.1 0.5 0.1"/><path fill="#ffffff" stroke="none" d="M0.3 0.2 Q0.6 0.2 0.5 0.5 L0.4 0.5 Q0.5 0.3 0.3 0.2 M0.2 0.5 Q0.1 0.5 0.2 0.4 0.4 0.3 0.2 0.5"/></g><g id="c12"><path fill="none" stroke="#9a0000" stroke-width="0.5" d="M3.5 0.8 Q3.5 0.8 3.5 0.8 3.6 0.6 3.5 0.6 3.5 0.5 3.4 0.8 M3.2 0.5 Q3.3 0.5 3.5 0.6 L3.4 0.3 M3.5 0.6 L3.5 0.5 M3.6 0.7 L3.5 0.6 M2.8 1.1 L2.8 1.1 2.9 1.2 M3.6 0.9 Q3.7 0.8 3.5 0.8 L3.5 0.8 M3.7 0.7 Q3.6 0.8 3.8 0.8 M3.6 1.8 L3.7 1.9 3.8 1.7 M3.7 1.9 Q3.6 2 3.8 2.1 4 1.9 3.7 1.9 L3.7 1.9 M3.9 1.9 Q3.9 2.1 4 1.7 M3.9 2.1 Q3.8 2.1 3.8 2.2 M3.6 2 Q3.6 2.1 3.6 2.1 M3.6 1.9 L3.6 2 M4 2.1 Q4 2 3.9 1.9 M4.2 1.9 Q4 2 4.1 2.1 M4 1.8 L4.1 1.9 4.1 1.9 M2.3 0.8 Q2.4 1 2.5 0.8 M2.5 1.1 Q2.4 0.9 2.3 1.1 2.5 1.2 2.5 1.1 2.5 1.1 2.7 0.8 M2 0.9 Q2.1 1 2.2 0.9 M1.9 1.1 L2 1.1 1.9 1 M2.2 1.2 Q2.5 0.8 2 1.1 L2.4 1.2 M2.1 1.2 Q2.1 1.3 2.2 1.2 M2.4 1.2 L2.5 1.1 M1.1 2.5 Q1.2 2.8 1.3 2.8 M1.3 3 Q1.2 2.8 0.9 2.8 1.1 3 1.1 3 M0.8 2.7 L0.9 2.8 Q0.9 2.5 0.9 2.5 M1.1 5 L1.1 5.2 1.2 5.1 M1.2 5.3 L1.1 5.2 Q1 5.2 1.1 5.4 1.4 5.2 1.3 5.2 M1.1 5.5 Q1.1 5.4 1.1 5.5 M1.2 5.3 L1.3 5.5 M0.9 5.3 Q1.1 5.2 1 5.2 M1.4 5.3 L1.4 5.2 M1.8 5.5 Q1.6 5.3 1.4 5.5 L1.5 5.5 M1.6 5.3 Q1.6 5.4 1.6 5.3 M1.3 5.5 L1.4 5.5 1.4 5.3 M4.5 4.5 Q4.4 4.7 4.7 4.7 4.7 4.5 4.5 4.5 M4.3 4.8 Q4.5 4.8 4.4 4.7 M4.7 4.7 L4.8 4.7 M4.7 4.5 Q4.6 4.5 4.8 4.6 M4.4 4.8 L4.6 4.8 M4.4 5 Q4.4 5 4.4 4.8 M4.7 4.8 L4.7 4.7 M2.6 1.3 Q2.6 1.2 2.8 1.1 L2.5 1.1 M-0.4 0.6 Q-0.3 0.9 -0.2 0.4 M-0.1 0.4 Q-0.2 0.5 -0.1 0.7 L0 0.5 M-0.1 0.8 L-0.1 0.7 -0.2 0.8 M-0.3 0.9 Q-0.3 0.9 -0.3 0.8 L-0.5 0.9"/></g><g id="c14"><path fill="#000000" stroke="none" d="M2.6 3.6 Q2.6 3.6 2.6 3.8 2.5 3.8 2.5 3.6 2.5 3.5 2.6 3.6 M2.3 3.7 Q2.4 3.4 2.5 3.8 2.3 3.8 2.3 3.7"/><path fill="#ffffff" stroke="none" d="M2.4 3.6 Q2.4 3.7 2.4 3.6 2.4 3.6 2.4 3.6"/><path fill="#ffffff" stroke="none" d="M2.6 3.6 Q2.5 3.6 2.5 3.6 2.6 3.5 2.6 3.6"/></g><g id="c16"><path fill="#000000" stroke="none" d="M1.7 3 Q0.8 2.6 0 1.1 0.8 2.6 1.7 3 M0.6 2 Q1.1 2.5 1.4 2.7 1.1 2.5 0.6 2 M0.2 2.1 Q0.7 2.8 1.2 3.1 0.7 2.8 0.2 2.1 M0.9 1.8 Q1.2 2.1 1.6 2.4 1.2 2.1 0.9 1.8"/></g><g id="c17"><path fill="#000000" stroke="none" d="M3 3.6 L3 3.6 Q3 3.6 3.5 2.5 6.6 2.2 6.5 2.3 L6.5 2.5 Q5.6 5.1 5.4 5.3 L6.5 2.5 Q6.5 2.5 6.5 2.4 5.7 4.8 5.2 5.5 5 5.7 5 5.7 5.3 5.4 6.5 2.4 L6 2.4 5.3 2.4 4.7 2.5 4 2.5 Q4.2 2.5 3.6 2.5 3.5 2.9 3 3.6 L3 3.6 M6.5 2.4 L6.5 2.4"/><path fill="#72522d" stroke="none" d="M6 2.4 L6.5 2.4 Q5.3 5.4 5 5.7 4.7 6 4.3 6 L4.2 6 Q4.4 5.9 4.5 5.7 4.6 5.5 4.7 5.5 L6 2.4 M5.2 5.5 Q5.7 4.8 6.5 2.4 6.5 2.5 6.5 2.5 L5.4 5.3 Q5.4 5.2 5.2 5.5"/><path fill="#4b361f" stroke="none" d="M3 3.6 L3 3.6 3 3.6 M5.3 2.4 L6 2.4 4.7 5.5 4.5 5.7 Q4.4 5.9 4.2 6 L4.3 6 Q4 6 3.8 5.8 3.8 5.8 3.8 5.7 3.9 5.5 4 5.4 L5.3 2.4 M3.5 4.5 L3.5 4.5 3.5 4.5"/><path fill="#865e35" stroke="none" d="M4.7 2.5 L5.3 2.4 4 5.4 Q3.9 5.5 3.8 5.7 3.5 5.3 3.5 5.2 L4.1 3.8 4.2 3.6 4.7 2.5"/><path fill="#664928" stroke="none" d="M6.5 2.4 L6.5 2.4 M3.2 4.2 Q3.3 3.9 3.5 3.5 L3.2 4.2 3.2 4.2 3.2 4.2 3.2 4.2 3.2 4.2 M3.2 4.3 L3.2 4.3 M3.5 4.5 L3.5 4.5 3.5 4.5 M4.7 5.5 Q4.6 5.5 4.5 5.7 L4.7 5.5"/><path fill="#66482b" stroke="none" d="M3 3.6 Q3.5 2.9 3.6 2.5 4.2 2.5 4 2.5 L3.5 3.5 Q3 3.5 3 3.7 L3 3.6 3 3.6"/><path fill="#5b3f24" stroke="none" d="M4 2.5 L4.7 2.5 4.2 3.6 4.1 3.8 3.5 5.2 Q3.4 5 3.5 4.7 3.5 4.6 3.5 4.5 3.3 4.6 3.2 4.3 3.1 4.2 3.2 4.2 L3.2 4.2 3.2 4.2 3.5 3.5 4 2.5 M3.2 4.2 L3.2 4.2 3.2 4.2 3.2 4.2 M3.5 4.5 L3.5 4.5 3.5 4.5 M3.5 4.5 L3.5 4.5"/><path fill="#5f4425" stroke="none" d="M3.5 4.5 L3.5 4.5"/><path fill="#664928" stroke="none" d="M6.5 2.4 L6.5 2.4 M4.7 5.5 Q4.6 5.5 4.5 5.7 L4.7 5.5"/><path fill="#5f4425" stroke="none" d="M3.5 4.5 L3.5 4.5"/><path fill="#ffffff" fill-opacity="0.1" d="M4.1 5.9 L4.1 6 4 5.9 4.1 5.9 M3.8 5.8 L3.8 5.8 Q3.6 5.6 3.7 5.7 L3.6 5.6 3.6 5.5 3.7 5.5 3.8 5.7 3.7 5.7 3.8 5.7 Q3.9 5.8 3.8 5.8 M3.5 4 Q3.4 4.1 3.3 4 L3.8 3.8 Q3.7 3.9 3.6 4 L3.5 4"/><path fill="#000000" fill-opacity="0.2" d="M3.4 4.8 Q3.3 4.8 3.3 4.7 2.9 4.4 3.1 4.3 L3.1 4.3 3.2 4.3 3.1 4.3 Q3.2 4.2 3.2 4.2 2.9 3.8 3.1 3.5 3.5 2.7 3.6 2.5 L4.8 2.4 Q5.9 3.2 5.7 4.2 5.2 6.1 4.1 5.9 L4 5.9 Q3.8 5.9 3.8 5.8 3.9 5.8 3.8 5.7 L3.7 5.5 Q3.4 5.2 3.5 4.7 3.4 4.8 3.4 4.8 M3.8 5.8 L3.7 5.7 Q3.6 5.7 3.7 5.7 L3.8 5.7 Q3.9 5.7 3.8 5.7 L3.7 5.7 Q3.6 5.6 3.8 5.8 M3.6 5.5 Q3.5 5.5 3.5 5.3 L3.6 5.5 M3.4 5.2 Q3.4 5.2 3.4 4.8 3.3 4.9 3.4 4.8 3.4 5 3.4 5.2 M3.6 4 Q3.7 3.9 3.8 3.8 L3.3 4 Q3.4 4.1 3.5 4 L3.6 4 M3.5 4.5 L3.5 4.5 M3.2 5 L3.2 5 Q3.2 5 3.2 5 M4.7 5.5 L4.5 5.7 Q4.6 5.5 4.7 5.5"/><path fill="#ffffff" fill-opacity="0.2" d="M3.5 5.3 Q3.5 5.2 3.4 5.2 3.4 5 3.4 4.8 L3.4 4.8 Q3.4 4.8 3.5 4.7 3.4 5.2 3.7 5.5 L3.6 5.5 3.5 5.3 M3.5 4 L3.6 4 3.5 4"/></g><linearGradient gradientUnits="userSpaceOnUse" x1="-819.2" x2="819.2" spreadMethod="pad" gradientTransform="matrix(-3.1e-05,-0,0,-0,1.8,0.2)" id="gradient3"><stop offset="0" stop-color="#8d94cd"/><stop offset="0.5" stop-color="#70c5e2"/><stop offset="1" stop-color="#b1e6ec"/></linearGradient><linearGradient gradientUnits="userSpaceOnUse" x1="-819.2" x2="819.2" spreadMethod="pad" gradientTransform="matrix(-6.1e-05,-7.6e-05,-0,-0,1.6,0.2)" id="gradient4"><stop offset="0" stop-color="#9be7ff"/><stop offset="1" stop-color="#ffffff" stop-opacity="0"/></linearGradient><linearGradient gradientUnits="userSpaceOnUse" x1="-819.2" x2="819.2" spreadMethod="pad" gradientTransform="matrix(-4.6e-05,-7.6e-05,0,-9.2e-05,1.9,0.1)" id="gradient5"><stop offset="0" stop-color="#9be7ff"/><stop offset="1" stop-color="#ffffff" stop-opacity="0"/></linearGradient><g id="c19"><path fill="#000000" stroke="none" d="M2.6 1.6 Q3.3 2.1 3.6 2.5 4 2.5 3.9 2.9 3.8 3 3.8 3.5 3.5 4.2 3 3.7 2.9 3.9 2.6 4 2.3 4.5 1.8 4 0.4 3.5 1.4 1.9 1.4 1.8 1.4 1.6 1.1 1.5 1.4 1.1 1.2 0.5 1.8 0.3 2.4 0.2 2.5 1.1 2.5 1.5 2.6 1.6 M3.6 2.7 Q3.4 2.2 2.8 1.7 3.2 2.2 3.3 2.5 3.3 2.5 3.5 2.8 3.5 2.6 3.5 2.8 3.6 3.1 3.6 2.7 M2.2 1.6 Q3.2 2.4 3.1 2.6 3.5 2.5 2.9 1.9 2.5 1.6 2.5 0.9 2.4 0.2 1.8 0.3 1.4 0.5 1.4 1 1.4 1.1 1.4 1.1 1.4 1.1 1.4 0.8 1.6 0.6 1.7 0.7 1.8 0.6 1.9 0.7 2.3 0.8 2 1.1 2.1 1.2 2.1 1.2 2.1 1.4 2.2 1.6 2.1 1.5 2.1 1.4 2.1 1.6 1.9 1.6 2 1.6 2.1 2.2 2.5 2.6 2.9 2.9 2.9 2.8 3.1 2.6 3.1 2.4 2.9 2.1 2.3 1.7 2.2 1.6 L2.2 1.6 2.2 1.6 M3.3 2.6 Q2.9 2.8 2.9 3 3 3.1 2.9 3.2 3 3.9 3.4 3.9 3.7 3.8 3.8 3.3 3.8 3.2 3.9 2.8 3.9 2.5 3.6 2.5 3.6 2.6 3.7 2.7 3.7 3 3.5 2.9 3.5 2.9 3.5 2.8 3.4 2.6 3.3 2.6 M3.2 3.7 Q3 3.1 3.1 3 3 2.9 3 2.9 3.2 3 3.1 3 3.2 2.9 3.4 2.8 3.5 2.8 3.5 2.8 3.3 2.9 3.1 3 3 3 3.2 3.7 M3 3 Q2 2.4 1.9 1.8 1.9 2 2.1 2.2 2 1.6 1.9 1.6 1.6 1.7 1.4 1.6 1.4 1.8 1.2 2.1 0.6 3.5 1.8 4 1.1 3.1 1.9 2.9 1.6 2.7 1.5 2.5 1.7 2.9 2.7 3.1 2.7 3 2.8 3.2 3 3.4 3 3 M2.6 4 Q2.6 4 2.6 3.1 L2.2 3 Q1.4 3.1 2 3.9 L2 3.9 Q1.8 3.6 1.8 3.2 L1.6 3.2 1.8 3.2 Q1.9 3.1 2.1 3 2.1 3 2.2 3 2 3 1.9 2.9 1.9 2.9 1.8 2.9 1.6 3 1.6 3.1 1.4 3.4 1.6 3.7 2.1 4.5 2.6 4 M2.8 3.1 Q2.6 3.1 2.6 3.7 3 3.8 2.9 3.2 2.9 3.3 2.8 3.1 M3.3 2.6 L3.3 2.6 M3.5 3.2 Q3.5 3.3 3.4 3.4 3.5 3.3 3.5 3.2 M2 1.1 Q2.2 1 1.9 0.7 1.9 0.7 1.9 0.7 1.9 0.7 1.8 0.7 1.5 0.7 1.4 0.8 1.4 1 1.4 1.1 1.8 0.9 2 1.1 M2.1 1.2 Q1.9 1 1.6 1.1 1.1 1.2 1.4 1.6 1.6 1.7 1.9 1.6 2.1 1.6 2.1 1.4 2.1 1.2 2.1 1.2 M1.9 1.3 L2 1.3 Q2.1 1.6 1.7 1.6 1.9 1.5 1.9 1.3 M2 1.4 Q1.9 1.4 1.9 1.5 L1.9 1.4 Q2 1.4 2 1.4 L1.9 1.4 Q1.9 1.4 1.9 1.5 1.9 1.6 2 1.5 2 1.4 2 1.4 L2 1.4 M2.3 3.5 L2.4 3.5 Q2.2 3.5 2.3 3.5 M2.4 3.5 Q2.2 3.6 2.2 3.6 2.2 3.6 2.4 3.5 M3.5 3.4 L3.5 3.4 M2.6 3.9 Q3.1 3.8 3 3.6 2.9 3.8 2.6 3.8 2.6 3.9 2.6 3.9"/><path fill="#ffb409" stroke="none" d="M3.7 2.7 Q3.6 2.6 3.6 2.5 3.9 2.5 3.9 2.8 3.9 2.7 3.7 2.7 M2.6 4 Q2.1 4.5 1.6 3.7 1.6 3.5 1.6 3.1 1.6 3 1.8 2.9 L1.8 3 Q1.6 3.1 1.6 3.2 L1.8 3.2 Q1.8 3.6 2 3.9 2.4 4.2 2.6 4 M2.1 1.2 Q2.1 1.2 2.1 1.4 2 1.2 1.9 1.3 1.8 1.6 1.4 1.5 1.4 1.5 1.4 1.6 1.2 1.3 1.4 1.2 1.8 1 2.1 1.2"/><path fill="#cccccc" stroke="none" d="M2.2 1.6 Q2.3 1.7 2.9 2.1 3.1 2.4 3.1 2.6 2.9 2.8 2.9 2.9 2.5 2.6 2.1 2.2 2 1.6 1.9 1.6 2.1 1.6 2.1 1.4 2.1 1.5 2.2 1.6 L2.2 1.6 2.2 1.6 M2.8 3.1 Q2.9 3.3 2.9 3.2 3 3.8 2.6 3.7 2.6 3.1 2.8 3.1 M1.9 0.7 Q2.2 1 2 1.1 2.2 0.9 1.9 0.7 M1.4 0.8 Q1.5 0.7 1.8 0.7 1.7 0.8 1.6 0.8 L1.6 0.8 Q1.6 0.8 1.4 0.8 M1.9 1.4 L1.9 1.5 Q1.9 1.4 2 1.4 L2 1.5 Q1.9 1.6 1.9 1.5 1.9 1.4 1.9 1.4 2 1.4 1.9 1.4"/><path fill="#996500" stroke="none" d="M3.6 2.7 Q3.6 3.1 3.5 2.8 3.5 2.6 3.6 2.7 M2.2 1.6 L2.2 1.6 Q2.2 1.4 2.1 1.2 2.1 1.2 2 1.1 2.3 0.8 1.9 0.7 1.9 0.5 2 0.5 2 0.7 2.2 0.8 2.2 0.9 2.4 1 2.6 1.3 2.2 1.6 M1.4 0.8 Q1.4 1.1 1.4 1.1 1.4 1.1 1.4 1 1.4 0.8 1.4 0.8 M2.8 3.2 Q2.8 3 3 3 3 3.4 2.8 3.2"/><path fill="#f99108" stroke="none" d="M3.4 3.9 Q3 3.9 2.9 3.2 3 3.1 2.9 3 2.9 2.8 3.3 2.6 3.4 2.8 3.4 2.8 3.2 2.9 3.1 3 3.2 3 3 2.9 3 2.9 3.1 3 3 3.1 3.2 3.7 3.2 3.8 3.4 3.9 M2 3.9 L2 3.9 Q1.4 3.1 2.2 3 L2.6 3.1 Q2.6 4 2.6 4 2.4 4.2 2 3.9 M1.9 2.9 Q2 3 2.2 3 2.1 3 2.1 3 1.9 3 1.9 3 L1.8 3 1.9 2.9 M2.1 1.4 Q2.1 1.6 1.9 1.6 1.6 1.7 1.4 1.6 1.4 1.5 1.4 1.5 1.8 1.6 1.9 1.3 2 1.2 2.1 1.4 M1.9 1.3 Q1.9 1.5 1.7 1.6 2.1 1.6 2 1.3 L1.9 1.3 M2.4 3.5 Q2.2 3.6 2.2 3.6 2.2 3.6 2.4 3.5 M2.3 3.5 Q2.2 3.5 2.4 3.5 L2.3 3.5"/><path fill="#ffffff" stroke="none" d="M2.2 1.6 L2.2 1.6 2.2 1.6 2.2 1.6 M2 1.1 Q1.8 0.9 1.4 1.1 1.4 1 1.4 0.8 1.6 0.8 1.6 0.8 L1.6 0.8 Q1.7 0.8 1.8 0.7 1.9 0.7 1.9 0.7 1.9 0.7 1.9 0.7 2.2 0.9 2 1.1"/><path fill="#bababa" stroke="none" d="M2 1.4 L2 1.4 Q2 1.4 2 1.5 L2 1.4 M1.9 1.4 L2 1.4 Q2 1.4 1.9 1.4 2 1.4 1.9 1.4"/><path fill="#673300" stroke="none" d="M3.5 2.8 Q3.5 2.6 3.5 2.8 3.3 2.5 3.3 2.5 3.2 2.2 2.8 1.7 3.4 2.2 3.6 2.7 3.5 2.6 3.5 2.8 M1.4 1 Q1.4 0.5 1.8 0.3 2.4 0.2 2.5 0.9 2.5 1.6 2.9 1.9 3.5 2.5 3.1 2.6 3.2 2.4 2.2 1.6 2.6 1.3 2.4 1 2.2 0.9 2.2 0.8 2 0.7 2 0.5 1.9 0.5 1.9 0.7 1.8 0.6 1.7 0.7 1.6 0.6 1.4 0.8 1.4 0.8 1.4 1 M2.2 1.6 Q2.1 1.4 2.1 1.2 2.2 1.4 2.2 1.6 M1.4 1.6 Q1.6 1.7 1.9 1.6 2 1.6 2.1 2.2 1.9 2 1.9 1.8 2 2.4 3 3 2.8 3 2.8 3.2 2.7 3 2.7 3.1 1.7 2.9 1.5 2.5 1.6 2.7 1.9 2.9 1.1 3.1 1.8 4 0.6 3.5 1.2 2.1 1.4 1.8 1.4 1.6 M2.6 3.9 Q2.6 3.9 2.6 3.8 2.9 3.8 3 3.6 3.1 3.8 2.6 3.9"/><path fill="#ffa114" stroke="none" d="M1.8 2.9 Q1.9 2.9 1.9 2.9 L1.8 3 1.9 3 Q1.9 3 2.1 3 1.9 3.1 1.8 3.2 L1.6 3.2 Q1.6 3.1 1.8 3 L1.8 2.9"/><path fill="#c26a0f" stroke="none" d="M3.3 2.6 Q3.4 2.6 3.5 2.8 3.5 2.8 3.4 2.8 3.4 2.8 3.3 2.6 M3.5 2.9 Q3.7 3 3.7 2.7 3.9 2.7 3.9 2.8 3.8 3.2 3.8 3.3 3.7 3.8 3.4 3.9 3.2 3.8 3.2 3.7 3 3 3.1 3 3.3 2.9 3.5 2.8 3.5 2.9 3.5 2.9 M3.5 3.2 Q3.5 3.3 3.4 3.4 3.5 3.3 3.5 3.2 M3.5 3.4 L3.5 3.4"/><path fill="#b1600c" stroke="none" d="M3.5 2.8 Q3.5 2.9 3.5 2.9 3.5 2.9 3.5 2.8"/><path fill="#ffdc31" stroke="none" d="M1.6 3.7 Q1.4 3.4 1.6 3.1 1.6 3.5 1.6 3.7 M1.4 1.6 Q1.1 1.2 1.6 1.1 1.9 1 2.1 1.2 1.8 1 1.4 1.2 1.2 1.3 1.4 1.6"/><path fill="#000000" stroke="none" d="M2.5 0.8 L2.5 0.8 Q2.5 0.7 2.5 0.6 2.5 0.4 2.3 0.3 2.2 0.3 2.2 0.3 2.2 0.3 2.4 0.5 2.4 0.5 2.5 0.6 2.4 0.5 2.2 0.4 1.7 0.5 1.7 0.2 L1.6 0.3 Q1.6 0.5 1.3 0.6 1.4 0.5 1.2 0.5 1.2 0.6 1.2 0.7 1.2 0.6 1.3 0.6 1.2 0.6 1.2 0.7 1.1 0.2 1.6 0.1 2.5 -0.2 2.5 0.8 M2.4 0.6 Q2.3 0.6 2.4 0.6 2.2 0.5 2 0.5 L1.9 0.5 Q1.6 0.5 1.4 0.6 1.4 0.6 1.4 0.6 1.3 0.7 1.4 0.7 L1.3 0.7 1.4 0.6 Q1.9 0.2 2.4 0.6 M2.5 0.5 Q2.5 0.3 2.3 0.2 2.2 0.2 2.2 0.3 2.4 0.3 2.5 0.5 L2.5 0.5 M1.6 0.4 Q1.7 0.1 1.8 0.3 2 0.4 2.1 0.3 2.2 0.2 2.2 0.1 2.2 0 1.8 0.1 1.1 0.1 1.3 0.5 1.3 0.5 1.4 0.5 L1.6 0.4 M2.1 0.1 L2.1 0.1 Q2.1 0.5 1.8 0.2 1.6 0.1 1.6 0.3 1.3 0.6 1.3 0.3 1.5 0 2.1 0.1 M2.1 0.1 Q1.6 0.1 1.4 0.3 L1.4 0.3 Q1.4 0.5 1.6 0.2 1.6 0.1 1.8 0.2 1.8 0.3 2 0.2 2.2 0.2 2.1 0.1 M1.2 0.5 L1.2 0.4 Q1.2 0.5 1.2 0.6 1.2 0.5 1.2 0.5"/><path fill="#d1a623" stroke="none" d="M2.5 0.8 Q2.8 0.8 2.9 0.7 2.8 0.8 2.6 0.8 2.8 0.9 2.9 0.8 2.8 1 2.7 1 2.8 1.1 2.9 1 2.9 1.1 2.6 1.1 2.6 1.3 2.5 1.3 2.5 1.2 2.4 1.1 2 0.6 2 0.5 2.2 0.5 2.4 0.6 2.3 0.6 2.4 0.6 2.5 0.7 2.5 0.8 L2.5 0.8 M1.9 0.5 Q1.8 0.7 1.6 0.8 1.4 0.8 1.3 1 1.1 1.1 1.1 1.1 1.1 1.1 1.2 1.1 1.2 1.1 1.3 1.1 L1.2 1.1 Q1.2 1.1 1.1 1.1 1.2 1.2 1.4 1.1 1.2 1.2 1.2 1.2 L1.2 1.2 1.3 1.2 Q1.2 1.3 1.1 1.2 1.2 1.2 1.3 1.2 1.1 1.1 1.1 1 1.1 1.1 1.2 1 1.1 1 1.1 0.8 1.1 0.9 1.1 0.9 L1.1 0.8 Q1.1 0.9 1.2 0.9 1.1 0.8 1.1 0.8 1.1 0.8 1.2 0.8 1.1 0.8 1.2 0.8 L1.2 0.8 Q1.1 0.7 1.1 0.6 1.1 0.7 1.2 0.7 L1.3 0.7 1.4 0.6 1.4 0.7 Q1.2 0.8 1.1 0.7 1.1 0.8 1.3 0.8 1.4 0.8 1.6 0.5 1.4 0.8 1.2 0.8 1.4 0.8 1.4 0.8 1.6 0.7 1.8 0.6 1.6 0.7 1.4 0.8 1.6 0.8 1.8 0.6 1.6 0.7 1.6 0.8 1.6 0.8 1.8 0.7 L1.9 0.6 Q1.9 0.5 1.9 0.5 M2.5 0.8 Q2.5 0.9 2.6 0.8 2.8 0.8 2.8 0.7 2.5 0.8 2.4 0.7 2 0.5 2.5 0.8 M2.7 1 Q2.8 0.9 2.9 0.9 2.8 0.9 2.8 0.9 2.5 0.8 2.4 0.8 2 0.4 2.2 0.7 2.3 0.8 2.5 0.8 2.5 0.9 2.6 0.9 2.5 0.9 2.4 0.8 2.5 1.2 2.9 1.1 2.6 1.1 2.5 0.9 2.6 1 2.7 1.1 2.7 1 2.6 0.9 2.6 1 2.7 1 M2.6 0.9 Q2.3 0.8 2 0.5 2.1 0.8 2.5 0.9 2.5 0.9 2.6 0.9 M1.4 0.7 L1.3 0.7 1.4 0.7 M1.3 0.8 L1.4 0.8 Q1.3 0.8 1.2 0.8 L1.3 0.8 M1.3 0.8 L1.4 0.8 1.3 0.8 Q1.1 0.8 1.1 0.8 1.1 0.9 1.3 0.8 M1.4 0.8 L1.4 0.8 Q1.4 0.8 1.3 0.9 L1.1 0.9 Q1.1 0.9 1.2 0.9 1.3 0.9 1.4 0.8 M1.2 1 Q1.4 1 1.4 0.9 1.2 1 1.1 0.9 1.1 1 1.2 1 M2.4 1 L2.3 0.8 Q2.4 0.8 2.2 0.8 L2.3 0.8 Q2.4 1.1 2.6 1.1 2.5 1.1 2.4 1 M2.5 1.2 L2.5 1.2 Q2.5 1.1 2.5 1.3 2.7 1.1 2.5 1.1 2.5 1.1 2.5 1.1 2.5 1.1 2.5 1.2 M1.2 1 Q1.1 0.9 1.1 0.9 1.1 1 1.2 1"/><path fill="#ffec60" stroke="none" d="M1.4 1.1 L1.4 1.1 1.3 1.2 Q1.2 1.2 1.2 1.2 L1.2 1.2 Q1.2 1.2 1.4 1.1 1.2 1.2 1.1 1.1 1.2 1.1 1.2 1.1 1.2 1.1 1.4 1.1 M2.6 0.8 L2.7 0.8 Q2.5 0.8 2.4 0.8 2.4 0.8 2.5 0.8 2 0.5 2.4 0.7 2.5 0.8 2.8 0.7 2.8 0.8 2.6 0.8 M2.7 1 Q2.6 1 2.6 0.9 2.7 0.9 2.8 0.9 2.8 0.9 2.9 0.9 2.8 0.9 2.7 1 M2.4 0.8 L2.5 0.8 Q2.3 0.8 2.2 0.7 2 0.4 2.4 0.8 M2.7 1.1 L2.8 1.1 Q2.5 1.1 2.5 0.9 2.5 0.9 2.5 0.9 2.5 1.1 2.7 1.1 M2.6 0.9 Q2.5 0.9 2.5 0.9 2.1 0.8 2 0.5 2.3 0.8 2.6 0.9 M2.1 0.7 Q2.2 0.7 2.3 0.8 2.2 0.7 2.1 0.7 M2.4 0.8 Q2.5 0.8 2.5 0.8 2.5 0.8 2.4 0.8 M1.4 0.6 Q1.6 0.5 1.4 0.7 1.4 0.7 1.4 0.7 1.4 0.8 1.3 0.8 1.1 0.8 1.1 0.7 1.2 0.8 1.4 0.7 L1.4 0.6 M1.6 0.5 L1.7 0.5 Q1.6 0.6 1.4 0.8 1.4 0.8 1.2 0.8 1.4 0.8 1.6 0.5 M1.8 0.6 L1.8 0.5 Q1.8 0.7 1.9 0.5 L1.8 0.7 Q1.6 0.8 1.6 0.8 1.6 0.7 1.8 0.6 1.6 0.8 1.4 0.8 1.6 0.7 1.8 0.6 M1.6 0.6 Q1.6 0.6 1.5 0.7 1.6 0.6 1.6 0.6 1.6 0.6 1.6 0.6 M1.4 0.7 Q1.4 0.7 1.3 0.7 1.3 0.7 1.4 0.7 M1.3 0.8 L1.2 0.8 Q1.3 0.8 1.4 0.8 L1.3 0.8 M1.8 0.6 Q1.8 0.6 1.6 0.7 1.7 0.7 1.8 0.6 M1.3 0.8 Q1.2 0.8 1.2 0.8 1.2 0.8 1.3 0.8 1.1 0.9 1.1 0.8 1.1 0.8 1.3 0.8 M1.2 0.9 Q1.1 0.9 1.1 0.9 L1.3 0.9 Q1.2 0.9 1.2 0.9 L1.2 1 Q1.1 1 1.1 0.9 1.2 1 1.4 0.9 1.3 1 1.2 0.9 M2.3 0.8 L2.4 1 Q2.5 1.1 2.6 1.1 2.4 1.1 2.3 0.8 M2.5 1.1 Q2.6 1.1 2.5 1.3 2.5 1.2 2.5 1.1 M1.1 0.8 L1.1 0.8 M1.2 1 Q1.1 1 1.1 0.9 1.1 0.9 1.2 1 M1.2 1.1 Q1.1 1.1 1.1 1.1 1.1 1.1 1.3 1 1.2 1.1 1.2 1.1 M1.2 1.1 L1.2 1.1 Q1.2 1.1 1.2 1.1"/><path fill="#363a4e" stroke="none" d="M2.5 0.6 Q2.5 0.6 2.5 0.7 2.4 0.5 2.1 0.4 L2.2 0.4 Q2.4 0.5 2.5 0.6 M1.3 0.6 L1.4 0.6 1.4 0.6 1.3 0.7 1.2 0.7 Q1.2 0.6 1.3 0.6 M1.7 0.3 Q1.7 0.4 1.8 0.4 L1.6 0.4 Q1.6 0.3 1.7 0.3"/><path fill="#3698a3" stroke="none" d="M2.3 0.3 Q2.5 0.4 2.5 0.6 2.4 0.5 2.4 0.5 2.3 0.3 2.2 0.3 L2.3 0.3 M1.2 0.5 L1.3 0.6 Q1.2 0.6 1.2 0.7 1.2 0.6 1.2 0.5"/><path fill="#eeeeee" stroke="none" d="M2.5 0.5 Q2.2 0.2 2.3 0.2 2.5 0.3 2.5 0.5 M2.2 0.1 L2.2 0.1 Q2.2 0.5 1.8 0.2 1.6 0.2 1.6 0.3 1.4 0.5 1.4 0.5 L1.3 0.5 Q1.1 0.1 1.8 0.1 2.2 0 2.2 0.1 M2.1 0.1 Q1.5 0 1.3 0.3 1.3 0.6 1.6 0.3 1.6 0.1 1.8 0.2 2.1 0.5 2.1 0.1 L2.1 0.1 M1.2 0.5 Q1.2 0.5 1.2 0.6 1.2 0.5 1.2 0.4 L1.2 0.5"/><path fill="#626296" stroke="none" d="M2.3 0.2 Q2.3 0.2 2.2 0.3 2.2 0.2 2.3 0.2 M1.6 0.3 Q1.6 0.5 1.6 0.4 L1.4 0.5 Q1.4 0.5 1.4 0.5 1.4 0.5 1.6 0.3 M1.8 0.3 L1.8 0.3 Q2 0.4 2.2 0.3 L2.1 0.3 Q2 0.4 1.8 0.3"/><path fill="#b3b6cc" stroke="none" d="M2.3 0.2 Q2.2 0.2 2.5 0.5 L2.5 0.5 Q2.4 0.3 2.2 0.3 2.3 0.2 2.3 0.2 M1.6 0.3 Q1.6 0.2 1.8 0.2 2.2 0.5 2.2 0.1 L2.2 0.1 Q2.2 0.2 2.1 0.3 L2.2 0.3 Q2 0.4 1.8 0.3 L1.8 0.3 Q1.7 0.1 1.6 0.4 1.6 0.5 1.6 0.3 M1.3 0.5 L1.4 0.5 Q1.4 0.5 1.4 0.5 1.3 0.5 1.3 0.5"/><path fill="#127886" stroke="none" d="M2.4 0.5 Q2.2 0.3 2.2 0.3 2.2 0.3 2.3 0.3 L2.2 0.3 Q2.3 0.3 2.4 0.5 M1.2 0.5 Q1.4 0.5 1.3 0.6 L1.2 0.5"/><path fill="#1a192b" stroke="none" d="M2.5 0.8 Q2.5 0.7 2.4 0.6 1.9 0.2 1.4 0.6 L1.4 0.6 1.3 0.6 Q1.6 0.5 1.6 0.3 L1.7 0.2 Q1.7 0.5 2.2 0.4 L2.1 0.4 Q2.4 0.5 2.5 0.7 2.5 0.6 2.5 0.6 2.5 0.7 2.5 0.8 M1.7 0.3 Q1.6 0.3 1.6 0.4 L1.8 0.4 Q1.7 0.4 1.7 0.3"/><path fill="#d9b731" stroke="none" d="M1.3 1.1 L1.4 1.1 1.2 1.1 1.3 1.1 M1.9 0.6 Q1.9 0.3 1.4 0.6 1.6 0.5 1.9 0.5 1.9 0.5 1.9 0.6 M1.3 0.9 Q1.4 0.8 1.4 0.8 L1.4 0.8 1.3 0.9 M2.4 1 L2.3 0.8 2.2 0.8 Q2.4 0.8 2.3 0.8 L2.4 1 M2.5 1.1 L2.5 1.1 Q2.5 1.1 2.5 1.2 2.5 1.1 2.5 1.1 2.5 1.1 2.5 1.1"/><path fill="#edd841" stroke="none" d="M1.3 1 L1.3 1.1 Q1.2 1.1 1.2 1.1 1.2 1.1 1.3 1 M1.4 1.1 L1.3 1.2 1.2 1.2 Q1.2 1.2 1.3 1.2 L1.4 1.1 M2.5 0.8 Q2.4 0.8 2.4 0.8 2.5 0.8 2.7 0.8 L2.6 0.8 Q2.5 0.9 2.5 0.8 M2.8 0.9 Q2.7 0.9 2.6 0.9 2.6 1 2.7 1 2.6 1 2.6 0.9 2.7 1 2.7 1.1 2.6 1 2.5 0.9 2.6 1.1 2.9 1.1 2.5 1.2 2.4 0.8 2.5 0.9 2.6 0.9 2.5 0.9 2.5 0.8 L2.4 0.8 Q2.5 0.8 2.8 0.9 M2.7 1.1 Q2.5 1.1 2.5 0.9 2.5 0.9 2.5 0.9 2.5 1.1 2.8 1.1 L2.7 1.1 M1.4 0.6 Q1.9 0.3 1.9 0.6 L1.8 0.7 1.9 0.5 Q1.8 0.7 1.8 0.5 L1.8 0.6 Q1.6 0.7 1.4 0.8 1.6 0.6 1.7 0.5 L1.6 0.5 Q1.4 0.8 1.3 0.8 1.4 0.8 1.4 0.7 1.4 0.7 1.4 0.7 1.3 0.7 1.4 0.6 1.4 0.6 1.4 0.6 M1.4 0.6 L1.3 0.7 1.4 0.7 Q1.6 0.5 1.4 0.6 M1.3 0.8 L1.4 0.8 1.3 0.8 Q1.2 0.8 1.2 0.8 1.2 0.8 1.3 0.8 M1.4 0.8 Q1.3 0.9 1.2 0.9 1.3 1 1.4 0.9 1.4 1 1.2 1 L1.2 0.9 Q1.2 0.9 1.3 0.9 L1.4 0.8 M1.4 1.1 Q1.2 1.1 1.2 1.1 L1.4 1.1 M2.5 1.1 Q2.7 1.1 2.5 1.3 2.5 1.1 2.5 1.2 L2.5 1.2 Q2.5 1.1 2.5 1.1 L2.5 1.1 M2.5 1.1 Q2.5 1.2 2.5 1.3 2.6 1.1 2.5 1.1"/><path fill="#fff4a8" stroke="none" d="M2.1 0.7 Q2.2 0.7 2.3 0.8 2.2 0.7 2.1 0.7 M2.4 0.8 Q2.5 0.8 2.5 0.8 2.5 0.8 2.4 0.8 M1.6 0.6 Q1.6 0.6 1.6 0.6 1.6 0.6 1.5 0.7 1.6 0.6 1.6 0.6 M1.4 0.7 Q1.3 0.7 1.3 0.7 1.4 0.7 1.4 0.7 M1.8 0.6 Q1.7 0.7 1.6 0.7 1.8 0.6 1.8 0.6 M1.1 0.8 L1.1 0.8 M1.2 1.1 Q1.2 1.1 1.2 1.1 L1.2 1.1"/><path fill="#4eb3e1" stroke="none" d="M2.1 0.1 Q2.2 0.2 2 0.2 2.1 0.1 1.9 0.1 1.6 0.1 1.4 0.3 L1.4 0.3 Q1.6 0.1 2.1 0.1"/><path stroke="none" fill="url(#gradient3)" d="M2 0.2 Q1.8 0.3 1.8 0.2 1.6 0.1 1.6 0.2 1.4 0.5 1.4 0.3 1.6 0.1 1.9 0.1 2.1 0.1 2 0.2"/><path fill="#aae2ea" stroke="none" d="M1.4 0.3 Q1.6 0.1 2.1 0.1 1.6 0.1 1.4 0.3"/><path stroke="none" fill="url(#gradient4)" d="M1.6 0.2 Q1.6 0.2 1.6 0.3 1.4 0.6 1.4 0.3 1.5 0.1 1.7 0.1 L1.6 0.2"/><path stroke="none" fill="url(#gradient5)" d="M2 0.1 Q1.9 0.3 1.8 0.2 1.9 0.1 2 0.1"/></g><g id="c20"><path fill="#000000" stroke="none" d="M5.5 4.9 Q5 6.2 4 5.7 3.2 5.2 3.6 4.2 3.8 3.9 4.1 3.6 L3.1 3.8 2.3 3.8 Q1 3.9 1.5 3.9 L0.8 3.9 Q-0.2 3.8 0.2 5.3 0.6 6.1 1.2 6.2 L1.8 6.2 Q3.1 6.1 2.7 6.1 L3.5 6 3.6 6 Q5.2 6.1 5.5 5 L5.5 5.1 Q5.2 5.8 4.6 6 3.6 6.2 1.1 6.2 0.6 6 0.2 5.3 -0.1 4.5 0.3 3.9 0.1 3.9 1.5 3.8 1 3.9 2.4 3.8 L3.5 3.6 4.2 3.6 4.2 3.7 4.2 3.8 Q3 4.8 3.9 5.6 4.8 6.2 5.5 4.9 M3.5 4.5 Q3.8 4.1 4.2 3.8 4.2 3.7 4.2 3.6 3.7 4 3.5 4.5 L3.5 4.5"/><path fill="#72522d" stroke="none" d="M3.1 3.8 L4.1 3.6 Q3.8 3.9 3.6 4.2 3.2 5.2 4 5.7 5 6.2 5.5 4.9 L5.5 5 Q5.2 6.1 3.6 6 L3.5 6 Q2.3 5.2 3.1 3.8"/><path fill="#4b361f" stroke="none" d="M3.1 3.8 Q2.3 5.2 3.5 6 L2.7 6.1 Q1.6 5.2 2.3 3.8 L3.1 3.8"/><path fill="#865e35" stroke="none" d="M1.5 3.9 Q1 3.9 2.3 3.8 1.6 5.2 2.7 6.1 3.1 6.1 1.8 6.2 0.9 5.2 1.5 3.9 M3.5 4.5 Q3.7 4 4.2 3.6 4.2 3.7 4.2 3.8 3.8 4.1 3.5 4.5"/><path fill="#664928" stroke="none" d="M3.5 6 L3.6 6 3.5 6 M3.5 4.5 L3.5 4.5"/><path fill="#66482b" stroke="none" d="M1.2 6.2 Q0.6 6.1 0.2 5.3 -0.2 3.8 0.8 3.9 0.3 5.2 1.2 6.2"/><path fill="#5b3f24" stroke="none" d="M0.8 3.9 L1.5 3.9 Q0.9 5.2 1.8 6.2 L1.2 6.2 Q0.3 5.2 0.8 3.9"/><path fill="#865e35" stroke="none" d="M3.9 5.5 L3.9 5.5 Q3.9 5.5 3.9 5.5"/><path fill="#664928" stroke="none" d="M3.6 6 L3.5 6 3.6 6 M3.5 4.5 L3.5 4.5"/><path fill="#ffffff" fill-opacity="0.1" d="M4.5 5.8 L4.6 5.8 4.5 5.8 M0.2 4 L0.2 4 Q1.5 4.7 3.8 3.9 3.8 4 3.6 4.1 1.4 5 0.2 4 M3.8 5.5 Q4 5.8 4.2 5.8 3.8 5.8 2.9 5.4 0.9 4.7 0.5 5.7 0.2 5.4 0.1 5.1 1.6 4.5 3.8 5.5"/><path fill="#000000" fill-opacity="0.2" d="M4.6 5.8 Q5 5.8 5.5 5 L5.3 5.4 Q5 6 3.6 6 L3.5 6 2.7 6.1 1.8 6.2 Q1.1 6.2 1.1 6.2 0.9 6.1 0.7 6 2.6 6 4.5 5.8 L4.6 5.8"/><path fill="#ffffff" fill-opacity="0.2" d="M0.2 4 Q1.4 5 3.6 4.1 3.2 4.8 3.8 5.5 1.6 4.5 0.1 5.1 0 4.5 0.2 4"/></g><g id="c22"><path fill="#000000" stroke="none" d="M1.9 0.9 Q1.9 1.1 1.8 1.1 1.7 0.8 1.9 0.9 M1.6 1 Q1.6 1.2 1.6 0.9 1.6 0.9 1.6 1"/><path fill="#ffffff" stroke="none" d="M1.9 0.9 Q1.8 1 1.8 0.9 1.9 0.9 1.9 0.9"/><path fill="#ffffff" stroke="none" d="M1.6 0.9 Q1.6 1 1.6 0.9 1.6 0.9 1.6 0.9"/><path fill="#000000" stroke="none" d="M2.7 3 Q2.5 3.4 2.9 3 2.9 3 2.9 3 L2.9 3 Q3 3 3 3.1 3 3.4 2.8 3.2 3 3.4 3 3 3 3 2.9 3 2.7 3.1 2.8 3.2 L2.8 3.2 Q2.5 3.3 2.8 3 L2.7 3 M2.8 3.1 Q2.6 3.3 2.8 3.1 M3.6 2.6 Q3.8 2.8 3.6 2.9 3.6 3 3.5 2.7 L3.5 2.8 3.5 2.7 3.5 2.8 Q3.6 3.1 3.6 2.7 L3.6 2.6"/><path fill="#673300" stroke="none" d="M2.9 3 Q3 3 3 3 2.8 3 2.8 3.2 2.7 3.1 2.9 3 M3.6 2.6 L3.6 2.7 Q3.5 2.6 3.5 2.8 L3.5 2.7 3.5 2.8 3.5 2.7 3.5 2.7 3.6 2.6"/><path fill="#996500" stroke="none" d="M3 3 Q3 3.4 2.8 3.2 2.8 3 3 3 M3.6 2.7 Q3.6 3.1 3.5 2.8 3.5 2.6 3.6 2.7"/><path fill="#d03e08" stroke="none" d="M2.9 3 L2.9 3 Q2.5 3.4 2.7 3 L2.8 3 2.9 3"/><path fill="#e8560e" stroke="none" d="M2.9 3 L2.9 3 2.9 3 Q2.9 3 2.9 3 M2.8 3 L2.7 3 2.8 3"/><path fill="#b62400" stroke="none" d="M2.8 3.2 L2.8 3.2 2.8 3.2 M2.8 3.1 Q2.6 3.3 2.8 3.1"/><path fill="#ddddea" stroke="none" d="M0.4 2.9 Q0.5 2.9 0.8 3.5 L0.8 3.4 Q0.8 3.4 0.9 3.5 0.9 3.4 0.9 3.3 1.1 3.8 1.6 4.2 1.6 4.1 1.5 4 L1.5 4 1.6 4.1 1.6 4 Q1.9 4.4 2.1 4.5 2.1 4.5 2.4 4.8 2.1 4.7 2.2 4.9 2.3 5.2 1.9 4.7 1.9 4.7 1.9 4.7 1.6 4.3 1.6 4.3 1.6 4.4 1.2 4 0.9 3.7 0.9 3.9 0.6 3.3 0.3 3.1 0.5 3 0.4 2.9 L0.3 2.9 0.4 2.9 M0.4 3 L0.4 2.9 0.4 3"/><path fill="none" stroke="#3e454f" stroke-width="0.5" d="M0.4 2.9 L0.3 2.9 0.3 2.8 0.4 2.9 Q0.5 2.9 0.8 3.5 L0.8 3.4 Q0.8 3.4 0.9 3.5 0.9 3.4 0.9 3.3 1.1 3.8 1.6 4.2 1.6 4.1 1.5 4 L1.5 4 1.6 4.1 1.6 4 Q1.9 4.4 2.1 4.5 2.1 4.5 2.4 4.8 M0.4 2.9 L0.3 2.9 0.3 2.9 M0.4 2.9 L0.4 3"/></g><g id="c23"><path fill="#3e454f" stroke="none" d="M2.8 -0.1 Q3 -0.1 3 0.4 2.9 1 2.4 0.6 2.2 0.3 2.5 0.3 2.6 0.2 2.8 -0.1 M9.8 3.5 Q10.3 3.4 9.8 3.2 9.2 3.2 9.4 3 9.5 2.9 9.3 2.9 8.9 3 9.1 2.9 10.3 2.1 9.2 2.4 8.9 2.4 9.1 2.1 9.7 1.4 9.3 1.6 8.6 2.1 9.1 1.5 9.2 1.2 9.2 1.2 8.9 1.2 9.1 1.1 9.6 0.2 8.7 1.3 8.2 1.8 8.3 1.4 8.4 0.8 8.2 1.1 8 1.4 8.1 0.6 8.2 -0.2 7.5 0.9 7.3 1.4 7.2 1.1 7.2 0.8 7.2 1.1 7.2 1.7 7 1.4 6.8 1.1 6.8 1.5 7 2.9 6.5 1.9 6.5 1.6 6.5 1.8 6.3 2 6.2 1.7 6 1.4 6 1.7 6.3 2.5 5.9 2 5.2 0.8 5.1 1.1 5 1.4 4.7 0.8 4 0.1 4.5 1 4.5 1.2 4.4 1.2 4.2 1.1 4.2 1.4 4.2 1.8 3.9 1.5 2.9 0.7 2.7 1.1 2.9 1.4 2.4 1.1 2.2 0.9 2.1 0.9 1.4 0.6 2.3 1.5 2.7 1.9 1.8 1.9 1.2 2 2.1 2.8 2.9 3.5 2 3.1 1.4 3 2.2 3.5 L2.2 3.5 2.2 3.5 Q2.7 4 2.3 3.8 2 3.6 2.2 3.9 2.4 4 2.2 4 1.7 4.2 1.6 4.3 1.6 4.5 1.9 4.5 2.1 4.5 2.6 4.3 4.2 4 3.1 4.5 2.8 4.7 3.2 4.6 4.1 4.3 4 4.5 3.9 4.7 4.2 4.5 4.5 4.2 4.9 4.5 5.1 4.5 5.2 4.3 5.3 4.2 5.4 4.2 5.8 4.4 5.8 4.3 5.9 4.2 5.9 4.2 6.3 4.6 6.4 4.5 6.6 4.2 6.7 4.4 6.8 4.5 7 4.3 7.1 4.1 7.3 4.3 7.5 4.5 7.8 4.2 8 4 8.4 4.2 8.8 4.4 8.8 4.2 8.8 4.2 8.9 4.2 9.6 4.5 9.2 4 8.8 3.6 9.1 3.6 9.5 3.6 9.8 3.5 L9.8 3.5 9.8 3.5 M2.2 3.5 Q1.3 3 2 3.1 2.9 3.5 1.9 2.6 1.1 1.9 2.2 1.9 2.5 1.9 2.3 1.6 1.4 0.6 2 0.8 2.2 0.8 2.5 1.1 2.8 1.4 2.6 1 2.6 0.7 3.5 1.1 4.3 1.9 4.2 1.4 4.1 1.1 4.5 1.2 4.5 1.2 4.3 0.8 4.1 0.1 4.8 0.8 5 1.3 5.1 1.1 5.2 0.8 5.9 2 6.2 2.5 6 1.6 6 1.4 6.2 1.6 6.3 1.9 6.4 1.8 6.5 1.6 6.5 1.8 6.9 2.9 6.8 1.6 6.8 0.9 7 1.4 7.1 1.6 7.1 1.1 7.2 0.8 7.2 1 7.3 1.2 7.3 1.1 8.3 -0.8 8.1 1.1 8.1 1.1 8.2 1.1 8.4 0.8 8.4 1.1 8.2 1.6 8.4 1.4 9.6 0.2 9.2 0.9 9 1.2 9.2 1.2 9.3 1.2 9.2 1.4 8.7 2 9.2 1.6 9.8 1.4 9.2 2.2 8.9 2.4 9.4 2.2 10.2 2.2 9.2 2.8 9 2.9 9.2 2.9 9.6 2.8 9.4 3 9.3 3.1 9.7 3.1 10.4 3.2 9.8 3.5 9.6 3.6 9.1 3.7 8.9 3.7 9.1 3.9 9.4 4.2 9.3 4.3 9.3 4.4 9.1 4.3 8.8 4.2 8.8 4.3 8.8 4.5 8.4 4.2 8 4 7.7 4.3 7.5 4.5 7.2 4.2 7.2 4.2 7 4.5 6.8 4.5 6.8 4.5 6.6 4.3 6.5 4.5 6.3 4.7 6.2 4.5 5.8 4.1 5.8 4.4 5.7 4.5 5.5 4.3 5.3 4.2 5.2 4.5 5.2 4.6 4.8 4.5 4.4 4.2 4 4.6 3.8 4.8 3.9 4.5 3.9 4.4 3.1 4.7 2.9 4.8 2.9 4.6 3 4.5 3.2 4.4 3.9 4.1 2.8 4.3 1.7 4.7 1.6 4.4 1.6 4.1 2.2 4 2.2 4 2.1 3.9 1.9 3.6 2.2 3.8 2.7 4 2.2 3.5 M5.7 1.2 Q5.8 1.1 5.8 1.1 6.1 0.9 6 1.4 6 1.6 5.9 1.6 5.8 1.7 5.7 1.2 M5.8 1.2 Q5.8 1.8 6 1.5 6 1.1 6 1.1 5.8 1 5.8 1.2 M4.8 0.4 Q4.5 0.3 4.8 0.6 4.8 0.6 4.8 0.7 4.8 0.8 5 0.7 5.2 0.7 4.8 0.4 M4.7 0.3 Q4.8 0.2 5 0.5 5.3 0.8 4.8 0.8 4.7 0.8 4.8 0.7 4.8 0.7 4.7 0.6 4.6 0.5 4.7 0.3 M4.1 1.2 Q4 1.5 3.6 1 3.1 0.7 3.5 0.5 4.2 0.5 4.1 1.2 M3 0.2 Q3 -0.2 2.7 0.1 2.6 0.3 2.5 0.3 2.3 0.3 2.5 0.5 2.9 1 3 0.2 M4 1.2 Q4 1.3 4 1.2 4.2 0.8 3.8 0.6 3 0.6 3.8 1.1 4 1.3 4 1.2 M3.1 0.6 Q3.4 0.6 3.2 0.8 3 0.9 3 0.8 2.9 0.6 3.1 0.6 M3 0.6 Q2.9 0.8 3 0.8 3.5 0.6 3 0.6 M1.2 2.8 Q1.2 2.6 1.4 2.6 1.6 2.6 1.6 2.8 1.4 3.1 1.2 2.8 M1.6 2.8 Q1.3 2.5 1.2 2.8 1.4 3 1.6 2.8 M1.6 3.5 Q1.7 3.2 1.4 3.2 1.2 3.1 1.1 3.3 1.1 3.4 1 3.5 0.8 3.5 0.7 3.7 0.7 4 1.1 3.7 0.7 4 0.7 3.7 0.7 3.5 1 3.4 1.1 3.4 1.1 3.3 1.2 3 1.6 3.2 1.7 3.3 1.6 3.5 L1.6 3.5 1.6 3.5 Q1.6 3.7 1.1 3.7 1.6 3.6 1.6 3.5"/><path fill="#ddddea" stroke="none" d="M2.2 3.5 Q1.4 3 2 3.1 2.9 3.5 2.1 2.8 1.2 2 1.8 1.9 2.7 1.9 2.3 1.5 1.4 0.6 2.1 0.9 2.2 0.9 2.4 1.1 2.9 1.4 2.7 1.1 2.9 0.7 3.9 1.5 4.2 1.8 4.2 1.4 4.2 1.1 4.4 1.2 4.5 1.2 4.5 1 4 0.1 4.7 0.8 5 1.4 5.1 1.1 5.2 0.8 5.9 2 6.3 2.5 6 1.7 6 1.4 6.2 1.7 6.3 2 6.5 1.8 6.5 1.6 6.5 1.9 7 2.9 6.8 1.5 6.8 1.1 7 1.4 7.2 1.7 7.2 1.1 7.2 0.8 7.2 1.1 7.3 1.4 7.5 0.9 8.2 -0.2 8.1 0.6 8 1.4 8.2 1.1 8.4 0.8 8.3 1.4 8.2 1.8 8.7 1.3 9.6 0.2 9.1 1.1 8.9 1.2 9.2 1.2 9.2 1.2 9.1 1.5 8.6 2.1 9.3 1.6 9.7 1.4 9.1 2.1 8.9 2.4 9.2 2.4 10.3 2.1 9.1 2.9 8.9 3 9.3 2.9 9.5 2.9 9.4 3 9.2 3.2 9.8 3.2 10.3 3.4 9.8 3.5 L8.6 3.5 9.8 3.5 Q9.5 3.6 9.1 3.6 8.8 3.6 9.2 4 9.6 4.5 8.9 4.2 9 3.9 8.8 3.8 8.3 3.6 8.6 3.5 9.4 3.3 8.7 3.2 7.9 3.2 8.7 2.9 9.2 2.5 8.8 2.5 8.6 2.5 8.8 2.1 9.1 1.9 8.6 2.1 8.4 2.3 8.6 1.9 9.2 1 8.4 1.8 7.8 2.4 8.1 1.8 8.3 1.1 7.9 1.6 7.5 2.1 7.9 0.8 7.9 0.7 7.8 0.7 7.7 0.7 7.7 1 7.6 1.4 7.5 1.4 7.3 1.6 7.3 1.9 7.3 2 7.1 1.9 7.1 1.9 7 2.4 6.8 3.2 6.6 2.6 6.5 2.4 6.5 2.4 6.3 2.5 6.3 2.2 6.3 1.9 6.2 2.4 5.8 2.9 5.7 2.1 5.6 1.5 5.3 1.6 5.2 1.6 4.7 1.1 4.5 1.1 4.8 1.8 4.5 1.6 4.6 1.7 5.1 2.6 4.6 2.1 4.2 1.7 4.5 2.5 4.9 3.4 4.5 3 4 2.5 3.8 2.2 3.5 2 3.7 1.9 4 1.9 3.5 1.5 2.9 1.1 3 1.5 3.1 1.9 2.9 1.6 2 1.1 2.8 2 2.8 2 2.6 2 2.5 2 2.7 2.3 2.2 2.1 2.2 2.2 2.2 2.2 2.8 3 2.5 2.9 2.5 3 3.1 3.8 2.5 3.4 2.4 3.3 2.5 3.5 2.6 3.5 2.5 3.5 L2.2 3.5 2.5 3.5 2.5 3.6 Q2.9 4 2.5 4 2.4 4 2.5 4.2 2.5 4.2 2.2 4.3 1.9 4.3 1.9 4.5 1.6 4.5 1.6 4.3 1.7 4.2 2.2 4 2.4 4 2.2 3.9 2 3.6 2.3 3.8 2.7 4 2.2 3.5 M5.8 1.2 Q5.8 1 6 1.1 6 1.1 6 1.5 5.8 1.8 5.8 1.2 M5.8 1.2 Q5.8 1.8 6 1.4 5.9 1.2 5.8 1.2 M4.8 0.4 Q5.2 0.7 5 0.7 4.8 0.8 4.8 0.7 4.8 0.6 4.8 0.6 4.5 0.3 4.8 0.4 M4 1.1 Q4 1.2 4 0.9 4 0.7 3.8 0.8 3.5 0.8 4 1.1 M4.8 0.5 Q4.8 0.8 5 0.7 5.1 0.5 4.8 0.5 M4 1.2 Q4 1.3 3.8 1.1 3 0.6 3.8 0.6 4.2 0.8 4 1.2 4 1.3 4 1.2 M3 0.2 Q2.9 1 2.5 0.5 2.3 0.3 2.5 0.3 2.6 0.3 2.7 0.1 3 -0.2 3 0.2 M2.8 0.3 Q2.1 0.5 2.7 0.7 2.9 0.7 2.9 0.3 2.8 0.2 2.8 0.3 M3 0.6 Q3.5 0.6 3 0.8 2.9 0.8 3 0.6 M3.1 0.7 Q3 0.8 3.1 0.8 3.2 0.7 3.1 0.7 M1.6 2.8 Q1.4 3 1.2 2.8 1.3 2.5 1.6 2.8 M1.5 2.8 Q1.4 2.7 1.4 2.8 1.6 2.9 1.5 2.8 M1.5 3.5 Q1.6 3.2 1.3 3.2 1.2 3.2 1.2 3.4 0.8 3.8 1.1 3.6 L1.1 3.7 1.1 3.6 Q1.6 3.6 1.5 3.5 L1.6 3.5 1.5 3.5 M1.1 3.7 Q0.7 4 0.7 3.7 0.8 3.5 1 3.5 1.1 3.4 1.1 3.3 1.2 3.1 1.4 3.2 1.7 3.2 1.6 3.5 1.6 3.6 1.1 3.7"/><path fill="#8aa0c4" stroke="none" d="M2.5 3.5 Q2.6 3.5 2.5 3.5 2.4 3.3 2.5 3.4 3.1 3.8 2.5 3 2.5 2.9 2.8 3 2.2 2.2 2.2 2.2 2.2 2.1 2.7 2.3 2.5 2 2.6 2 2.8 2 2.8 2 2 1.1 2.9 1.6 3.1 1.9 3 1.5 2.9 1.1 3.5 1.5 4 1.9 3.7 1.9 3.5 2 3.8 2.2 4 2.5 4.5 3 4.9 3.4 4.5 2.5 4.2 1.7 4.6 2.1 5.1 2.6 4.6 1.7 4.5 1.6 4.8 1.8 4.5 1.1 4.7 1.1 5.2 1.6 5.3 1.6 5.6 1.5 5.7 2.1 5.8 2.9 6.2 2.4 6.3 1.9 6.3 2.2 6.3 2.5 6.5 2.4 6.5 2.4 6.6 2.6 6.8 3.2 7 2.4 7.1 1.9 7.1 1.9 7.3 2 7.3 1.9 7.3 1.6 7.5 1.4 7.6 1.4 7.7 1 7.7 0.7 7.8 0.7 7.9 0.7 7.9 0.8 7.5 2.1 7.9 1.6 8.3 1.1 8.1 1.8 7.8 2.4 8.4 1.8 9.2 1 8.6 1.9 8.4 2.3 8.6 2.1 9.1 1.9 8.8 2.1 8.6 2.5 8.8 2.5 9.2 2.5 8.7 2.9 7.9 3.2 8.7 3.2 9.4 3.3 8.6 3.5 8.3 3.6 8.8 3.8 9 3.9 8.9 4.2 8.8 4.2 8.8 4.2 8.8 4.4 8.4 4.2 8 4 7.8 4.2 7.5 4.5 7.3 4.3 7.1 4.1 7 4.3 6.8 4.5 6.7 4.4 6.6 4.2 6.4 4.5 6.3 4.6 5.9 4.2 5.9 4.2 5.8 4.3 5.8 4.4 5.4 4.2 5.3 4.2 5.2 4.3 5.1 4.5 4.9 4.5 4.5 4.2 4.2 4.5 3.9 4.7 4 4.5 4.1 4.3 3.2 4.6 2.8 4.7 3.1 4.5 4.2 4 2.6 4.3 2.1 4.5 1.9 4.5 1.9 4.3 2.2 4.3 2.5 4.2 2.5 4.2 2.4 4 2.5 4 2.9 4 2.5 3.6 L2.5 3.5 8.6 3.5 2.5 3.5 M5.8 1.2 Q5.9 1.2 6 1.4 5.8 1.8 5.8 1.2 M4.8 0.5 Q5.1 0.5 5 0.7 4.8 0.8 4.8 0.5 M4 1.1 Q3.5 0.8 3.8 0.8 4 0.7 4 0.9 4 1.2 4 1.1 M2.8 0.3 Q2.8 0.2 2.9 0.3 2.9 0.7 2.7 0.7 2.1 0.5 2.8 0.3 M3.1 0.7 Q3.2 0.7 3.1 0.8 3 0.8 3.1 0.7 M1.5 2.8 Q1.6 2.9 1.4 2.8 1.4 2.7 1.5 2.8 M1.1 3.6 Q0.8 3.8 1.2 3.4 1.2 3.2 1.3 3.2 1.6 3.2 1.5 3.5 1.1 3.5 1.1 3.6 1.1 3.5 1.5 3.5 1.6 3.6 1.1 3.6"/><path fill="none" stroke="#3e454f" stroke-width="0.5" d="M2.8 -0.1 Q2.6 0.2 2.5 0.3 2.2 0.3 2.4 0.6 2.9 1 3 0.4 3 -0.1 2.8 -0.1 M2.2 3.5 Q1.4 3 2 3.1 2.9 3.5 2.1 2.8 1.2 2 1.8 1.9 2.7 1.9 2.3 1.5 1.4 0.6 2.1 0.9 2.2 0.9 2.4 1.1 2.9 1.4 2.7 1.1 2.9 0.7 3.9 1.5 4.2 1.8 4.2 1.4 4.2 1.1 4.4 1.2 4.5 1.2 4.5 1 4 0.1 4.7 0.8 5 1.4 5.1 1.1 5.2 0.8 5.9 2 6.3 2.5 6 1.7 6 1.4 6.2 1.7 6.3 2 6.5 1.8 6.5 1.6 6.5 1.9 7 2.9 6.8 1.5 6.8 1.1 7 1.4 7.2 1.7 7.2 1.1 7.2 0.8 7.2 1.1 7.3 1.4 7.5 0.9 8.2 -0.2 8.1 0.6 8 1.4 8.2 1.1 8.4 0.8 8.3 1.4 8.2 1.8 8.7 1.3 9.6 0.2 9.1 1.1 8.9 1.2 9.2 1.2 9.2 1.2 9.1 1.5 8.6 2.1 9.3 1.6 9.7 1.4 9.1 2.1 8.9 2.4 9.2 2.4 10.3 2.1 9.1 2.9 8.9 3 9.3 2.9 9.5 2.9 9.4 3 9.2 3.2 9.8 3.2 10.3 3.4 9.8 3.5 9.5 3.6 9.1 3.6 8.8 3.6 9.2 4 9.6 4.5 8.9 4.2 8.8 4.2 8.8 4.2 8.8 4.4 8.4 4.2 8 4 7.8 4.2 7.5 4.5 7.3 4.3 7.1 4.1 7 4.3 6.8 4.5 6.7 4.4 6.6 4.2 6.4 4.5 6.3 4.6 5.9 4.2 5.9 4.2 5.8 4.3 5.8 4.4 5.4 4.2 5.3 4.2 5.2 4.3 5.1 4.5 4.9 4.5 4.5 4.2 4.2 4.5 3.9 4.7 4 4.5 4.1 4.3 3.2 4.6 2.8 4.7 3.1 4.5 4.2 4 2.6 4.3 2.1 4.5 1.9 4.5 1.6 4.5 1.6 4.3 1.7 4.2 2.2 4 2.4 4 2.2 3.9 2 3.6 2.3 3.8 2.7 4 2.2 3.5 M5.7 1.2 Q5.8 1.7 5.9 1.6 6 1.6 6 1.4 6.1 0.9 5.8 1.1 5.8 1.1 5.7 1.2 M4.7 0.3 Q4.6 0.5 4.7 0.6 4.8 0.7 4.8 0.7 4.7 0.8 4.8 0.8 5.3 0.8 5 0.5 4.8 0.2 4.7 0.3 M4.1 1.2 Q4.2 0.5 3.5 0.5 3.1 0.7 3.6 1 4 1.5 4.1 1.2 M3.1 0.6 Q2.9 0.6 3 0.8 3 0.9 3.2 0.8 3.4 0.6 3.1 0.6 M1.2 2.8 Q1.4 3.1 1.6 2.8 1.6 2.6 1.4 2.6 1.2 2.6 1.2 2.8 M1.6 3.5 Q1.7 3.3 1.6 3.2 1.2 3 1.1 3.3 1.1 3.4 1 3.4 0.7 3.5 0.7 3.7 0.7 4 1.1 3.7 M1.6 3.5 Q1.6 3.7 1.1 3.7"/></g><linearGradient gradientUnits="userSpaceOnUse" x1="-819.2" x2="819.2" spreadMethod="pad" gradientTransform="matrix(-0,0,-9.2e-05,4.6e-05,6.7,1.1)" id="gradient6"><stop offset="0" stop-color="#f4fe9a"/><stop offset="1" stop-color="#ffffff" stop-opacity="0"/></linearGradient><linearGradient gradientUnits="userSpaceOnUse" x1="-819.2" x2="819.2" spreadMethod="pad" gradientTransform="matrix(0,0,-0,0,5.7,0.8)" id="gradient7"><stop offset="0" stop-color="#f4fe9a"/><stop offset="1" stop-color="#ffffff" stop-opacity="0"/></linearGradient><linearGradient gradientUnits="userSpaceOnUse" x1="-819.2" x2="819.2" spreadMethod="pad" gradientTransform="matrix(7.6e-05,0,-0,9.2e-05,5.3,0.9)" id="gradient8"><stop offset="0" stop-color="#f4fe9a"/><stop offset="1" stop-color="#ffffff" stop-opacity="0"/></linearGradient><g id="c26"><path fill="#000000" stroke="none" d="M7.5 5.7 Q7.8 5.2 8 4.2 7.8 5.2 7.5 5.7 M7.5 5.8 Q8.1 5.1 8.2 4.1 8.1 5.2 7.5 5.8 M7.5 4.5 Q7.5 4 7.6 3.5 7.5 4.7 7 5.4 7.3 5 7.5 4.5 M7 4.7 Q7.1 4.3 7.2 4 7 4.8 6.6 5.4 6.9 4.9 7 4.7 M7.2 4.7 Q7.1 4.8 6.8 5.5 7.1 4.8 7.2 4.7 M8 2.5 L8 2.5"/><path fill="#000000" stroke="none" d="M6.2 5.2 L5.1 5.3 Q5 5.5 4.5 6.4 L5 6.3 5.6 6.3 Q5.7 6.3 5.7 6.4 L5.7 6.5 Q4.5 7.5 5.3 8.4 5.3 8.4 5.3 8.4 5.8 8.9 6.2 8.7 6.8 8.6 8 5.2 L7.5 5.2 6.8 5.2 6.2 5.2 M2.9 6.5 L2.9 6.5 4.5 6.4 5.1 5.2 Q8.1 5 8.1 5.1 8.2 5 7.2 7.6 6.7 8.8 6.2 8.9 6.8 9 8 5.3 8 5.2 8 5.2 L8 5.2 Q7.2 7.2 6.8 8.1 6.5 8.7 6 8.8 5.8 8.8 5.7 8.8 5.5 8.7 5.2 8.3 4.7 7.7 5.2 6.8 5.2 6.7 5.3 6.6 5.4 6.5 5.6 6.3 L4.6 6.5 Q3.4 6.5 3.8 6.5 2.5 6.6 3 6.5 L2.9 6.5 M8 5.2 L8 5.2 M5 7.3 L5 7.3 Q5.2 6.8 5.7 6.5 L5.6 6.3 Q5.2 6.7 5 7.3"/><path fill="#5b3f24" stroke="none" d="M2.9 6.5 L3 6.5 Q2.9 6.7 2.9 6.8 L2.9 6.5 M3.1 8.9 Q2.8 8.9 2.9 8.4 2.9 8.6 3.1 8.9"/><path fill="#4b361f" stroke="none" d="M6.8 5.2 L7.5 5.2 7.1 6.1 Q7 5.8 6.7 5.5 L6.8 5.2 M3.8 6.5 Q3.4 6.5 4.6 6.5 4.5 6.7 4.4 6.9 3.9 7 3.6 7 3.6 6.8 3.8 6.5 M4.8 8.9 L4 8.9 Q3.6 8.5 3.5 8.1 4 8.2 4.5 8.3 4.6 8.7 4.8 8.9"/><path fill="#72522d" stroke="none" d="M7.5 5.2 L8 5.2 Q6.8 8.6 6.2 8.7 7.5 7.2 7.1 6.1 L7.5 5.2 M4.6 6.5 L5.6 6.3 Q5.4 6.5 5.3 6.6 4.9 6.8 4.4 6.9 4.5 6.7 4.6 6.5 M5.7 8.8 Q5.8 8.8 6 8.8 L6 8.8 5.2 8.9 4.8 8.9 Q4.6 8.7 4.5 8.3 5.2 8.7 5.7 8.8 M8 5.2 L8 5.2 Q8 5.2 8 5.2"/><path fill="#865e35" stroke="none" d="M6.2 5.2 L6.8 5.2 6.7 5.5 Q6.4 5.2 6.2 5.2 M5.3 8.4 Q5.3 8.4 5.3 8.4 L5.3 8.4 M3 6.5 Q2.5 6.6 3.8 6.5 3.6 6.8 3.6 7 3.2 7 2.9 7 L2.9 6.8 Q2.9 6.7 3 6.5 M4 8.9 L3.1 8.9 Q2.9 8.6 2.9 8.4 L2.9 8 Q3.2 8 3.5 8.1 3.6 8.5 4 8.9 M5 7.3 Q5.2 6.7 5.6 6.3 L5.7 6.5 Q5.2 6.8 5 7.3"/><path fill="#664928" stroke="none" d="M8 5.2 L8 5.2 M5 7.3 L5 7.3 M6.2 8.2 Q6.1 8.3 6 8.4 L6.2 8.2"/><path fill="#000000" fill-opacity="0.2" d="M5 6.3 L4.5 6.4 Q5 5.5 5.1 5.3 L6.2 5.2 Q6.4 5.2 6.7 5.5 7 5.8 7.1 6.1 7.5 7.2 6.2 8.7 5.8 8.9 5.3 8.4 L5.3 8.4 Q4.5 7.5 5.7 6.5 L5.7 6.4 Q5.7 6.3 5.6 6.3 L5 6.3 M6 8.8 Q6.5 8.7 6.8 8.1 7.2 7.2 8 5.2 8 5.2 8 5.2 8 5.2 8 5.3 6.8 9 6.2 8.9 L5.2 8.9 6 8.8 Q6.1 8.8 6 8.8 M6.2 8.2 L6 8.4 Q6.1 8.3 6.2 8.2"/><path fill="#ffffff" fill-opacity="0.2" d="M5.2 6.8 Q4.7 7.7 5.2 8.3 4.1 7.8 2.9 7.7 L2.9 7.2 Q4.3 7.3 5.2 6.8"/><path fill="#ffffff" fill-opacity="0.1" d="M5.3 6.6 Q5.2 6.7 5.2 6.8 4.3 7.3 2.9 7.2 L2.9 7 Q3.2 7 3.6 7 3.9 7 4.4 6.9 4.9 6.8 5.3 6.6 M5.2 8.3 Q5.5 8.7 5.7 8.8 5.2 8.7 4.5 8.3 4 8.2 3.5 8.1 3.2 8 2.9 8 L2.9 7.7 Q4.1 7.8 5.2 8.3 M6 8.8 Q6.1 8.8 6 8.8 L6 8.8"/><path fill="#000000" stroke="none" d="M6.2 1.8 Q6.5 1.7 6.6 2.1 6.7 2.6 6.7 2.2 6.5 1.1 5.4 1.2 4.8 1.3 4.5 2.2 4.2 3 4.2 2.9 3.8 2.5 3.6 2.2 3.5 2.6 4.2 0.9 4.5 0.3 3.5 1.1 3.1 1.4 2.9 1.9 3.1 1.4 4 0.7 4.7 0.3 3.6 2.2 3.8 2.5 4.2 2.9 L4.6 1.9 Q4.9 1.1 5.7 1.1 6.8 1.2 6.7 2.4 7 2.5 7 2.9 7 3.4 6.4 3.5 6.2 4 6.9 5.6 7.3 7 6.5 7.8 6.3 8.2 5.7 8.3 5.2 8.3 4.9 8.1 4.3 8.2 3.8 7.9 3.5 8.4 2.9 8.1 L2.9 8 Q3.2 8.2 3.5 8.2 L3.5 8.2 Q3.9 8 3.7 7.5 3.4 6.8 3.5 6 3.4 5.6 2.9 5.7 L2.9 5.7 Q3.5 5.5 3.5 6 3.4 7.7 4.5 7.4 4.2 7 4.2 6.5 3.6 6.1 5.3 4.2 5.4 3.8 5.7 3.6 5.3 3.5 5.2 3.1 5.2 3.3 4.1 3.9 3 4.5 2.9 5.4 L2.9 5.2 Q3.1 4.3 4.2 3.8 5 3.4 5.2 3 5.2 2.9 5.3 2.6 5.5 2.5 5.2 2.5 5.3 2.5 5.3 2.5 5.2 2.2 5.5 2 5.5 1.9 5.6 1.9 6 1.6 6.2 1.9 L6.2 1.8 M2.9 3.2 Q3.1 3.9 3.4 4.1 3.9 3.6 4 3.4 3.9 3.6 3.6 3.9 3 4.5 2.9 4.8 2.8 4.7 3.4 4.1 2.9 3.5 2.9 3.2 M6.5 2.1 Q6.5 1.8 6.2 1.9 L6.2 1.9 Q6.1 1.7 6 1.8 5.5 1.8 5.3 2.3 5.3 2.5 5.4 2.5 5.5 2.5 5.5 2.5 6 2.1 6.5 2.4 6.6 2.2 6.5 2.1 M6.8 3.4 Q7.3 2.6 6.3 2.4 5.6 2.3 5.3 2.8 5.3 2.9 5.3 3 5.5 3.9 6 3.5 6.1 3.5 6.3 3.5 6.5 3.5 6.8 3.4 M5.5 2.9 Q5.5 3 6 3.1 6 3.2 6.1 3.2 6 3.2 6 3.4 5.8 3.6 5.6 3.5 5.4 3.3 5.5 2.9 5.5 2.9 5.5 2.9 M5.8 3.1 Q5.5 3 5.5 3 5.5 3 5.5 3.1 5.7 3.1 5.7 3.4 5.8 3.5 5.7 3.5 5.8 3.5 5.8 3.5 6.1 3.1 5.8 3.1 M4.5 6.6 Q4.5 6.2 4.5 6.3 4.7 6.2 5.4 5.7 6 5.3 6.2 4.9 6.1 5.2 5.6 5.7 6.8 5.7 6.5 6.5 6.3 6.7 6.5 7.7 7.3 6.8 6.8 5.2 6.2 4 6.4 3.5 6.2 3.5 6 3.5 5.9 3.7 5.7 3.6 5.5 3.8 5.3 4.2 5.5 3.9 5.7 3.8 4.2 5.2 4.2 6.2 4.3 6.8 4.5 6.6 M5.7 3.4 Q5.6 3.2 5.5 3.1 5.5 3.4 5.7 3.5 5.7 3.4 5.7 3.4 M2.9 6.2 L2.9 6.2 Q3 6.2 2.9 6.2 3.1 5.9 3.4 5.8 2.6 6 3.5 7.8 3.5 7.9 3.5 8 3.5 7.8 3.4 7.5 3 7 3 6.7 3 6.1 2.9 6.2 M5.5 5.7 L5 6 Q5.7 6 6.1 6.2 6 6.3 6.3 6 6 6.2 6.2 7.1 6.3 7.7 6.2 7.9 6.2 7.8 6.2 7.5 6 6.6 6.1 6.2 5 5.8 4.5 6.4 4.7 6.8 4.3 6.6 4.6 8.4 5.8 8.2 6.5 8.1 6.4 7.5 6.3 6.8 6.4 6.4 6.7 5.7 5.5 5.7 L5.5 5.7 M5.1 7 Q5.2 7.1 5.3 7.2 5.3 7.2 5.1 7 M5.2 7.1 Q5.6 7.3 5.2 7.1 M4.5 7.4 Q4 7.5 3.7 7.3 3.9 7.7 3.8 7.8 4.2 8.1 4.8 8 4.7 7.8 4.5 7.4"/><path fill="#ffcc00" stroke="none" d="M5.6 1.9 Q5.5 1.3 6.1 1.5 6.2 1.6 6.2 1.8 L6.2 1.9 Q6 1.6 5.6 1.9 M6.6 2.1 L6.7 2.2 Q6.7 2.6 6.6 2.1 M4.2 0.9 Q4.3 0.6 3.6 1.2 3.5 1.2 3.5 1.1 4.5 0.3 4.2 0.9 M5.3 2.6 Q4.9 2.6 5.3 1.8 5.4 1.9 5.5 2 5.2 2.2 5.3 2.5 5.3 2.5 5.2 2.5 5.5 2.5 5.3 2.6 M4.5 6.6 Q4.3 6.8 4.2 6.2 4.4 6.1 4.5 6.6 M6 3.6 L6.2 3.6 Q6 3.7 5.8 3.8 L6 3.6"/><path fill="#cc0000" stroke="none" d="M5.6 3.3 Q5.7 3.4 5.7 3.4 5.7 3.3 5.6 3.3"/><path fill="#660000" stroke="none" d="M5.8 3.1 Q6.1 3.1 5.8 3.5 5.8 3.5 5.7 3.5 5.8 3.5 5.7 3.4 5.8 3.3 5.8 3.1"/><path fill="#ffb409" stroke="none" d="M6.8 3.4 Q6.5 3.5 6.3 3.5 6.8 3.2 6.5 2.9 5.8 2.2 5.3 3 5.3 2.9 5.3 2.8 5.4 2.6 5.5 2.5 6.2 2.2 6.6 2.5 7.2 2.9 6.8 3.4 M6 3.5 Q6 3.5 5.8 3.5 L6 3.5 M3.5 8.2 L3.5 8.2 3.5 8.1 3.5 8.2 M2.9 6.2 L2.9 5.7 Q3.1 5.7 3.2 5.8 3 5.8 2.9 6.2 3 6.2 2.9 6.2 M5.5 5.7 Q6.7 5.8 6.1 6.2 5.7 6 5 6 L5.5 5.7 M6.3 6 Q6.4 6.2 6.3 6.5 6.2 6.8 6.4 7.5 6.5 8.1 5.8 8.2 6 8.1 6.2 7.9 6.3 7.7 6.2 7.1 6 6.2 6.3 6 M3.5 7.8 Q2.6 6 3.4 5.8 3.4 5.5 3.5 7.8"/><path fill="#cccccc" stroke="none" d="M2.9 5.4 Q3 4.5 4.1 3.9 5.2 3.3 5.2 3.1 5.3 3.5 5.7 3.6 5.4 3.8 5.3 4.2 3.6 6.1 4.2 6.5 4.2 7 4.5 7.4 3.4 7.7 3.5 6 3.5 5.5 2.9 5.7 L2.9 5.4"/><path fill="#f99108" stroke="none" d="M6.3 3.5 Q6.1 3.5 6 3.5 5.5 3.9 5.3 3 5.8 2.2 6.5 2.9 6.8 3.2 6.3 3.5 M5.5 2.9 Q5.5 2.9 5.5 2.9 5.4 3.3 5.6 3.5 5.8 3.6 6 3.4 6 3.2 6.1 3.2 6 3.2 6 3.1 5.5 3 5.5 2.9 M6 3.5 L5.8 3.5 Q6 3.5 6 3.5 M3.5 8.2 Q3.2 8.2 2.9 8 L2.9 6.2 Q3 6.1 3 6.7 3 7 3.4 7.5 3.5 7.8 3.5 8 L3.5 8.1 3.5 8.2 M5.8 8.2 Q4.6 8.4 4.3 6.6 4.7 6.8 4.5 6.4 5 5.8 6.1 6.2 6 6.6 6.2 7.5 6.2 7.8 6.2 7.9 6 8.1 5.8 8.2 M5.2 7.1 Q5.6 7.3 5.2 7.1 M5.1 7 Q5.3 7.2 5.3 7.2 5.2 7.1 5.1 7"/><path fill="#cd9a00" stroke="none" d="M6.2 1.8 Q6.2 1.6 6.1 1.5 5.5 1.3 5.6 1.9 5.5 1.9 5.5 2 5.4 1.9 5.3 1.8 4.9 2.6 5.3 2.6 5.2 2.9 5.2 3 5 3.4 4.2 3.8 3.1 4.3 2.9 5.2 L2.9 4.8 Q3 4.5 3.6 3.9 3.9 3.6 4 3.4 3.9 3.6 3.4 4.1 3.1 3.9 2.9 3.2 L2.9 1.9 Q3.1 1.4 3.5 1.1 3.5 1.2 3.6 1.2 4.3 0.6 4.2 0.9 3.5 2.6 3.6 2.2 3.8 2.5 4.2 2.9 4.2 3 4.5 2.2 4.8 1.3 5.4 1.2 6.5 1.1 6.7 2.2 L6.6 2.1 Q6.5 1.7 6.2 1.8 M4.2 6.2 Q4.2 5.2 5.7 3.8 5.5 3.9 5.3 4.2 5.5 3.8 5.7 3.6 5.9 3.7 6 3.5 6.2 3.5 6.4 3.5 6.2 4 6.8 5.2 7.3 6.8 6.5 7.7 6.3 6.7 6.5 6.5 6.8 5.7 5.6 5.7 6.1 5.2 6.2 4.9 6 5.3 5.4 5.7 4.7 6.2 4.5 6.3 4.5 6.2 4.5 6.6 4.4 6.1 4.2 6.2 M6 3.6 L5.8 3.8 Q6 3.7 6.2 3.6 L6 3.6 M4.5 7.4 Q4.7 7.8 4.8 8 4.2 8.1 3.8 7.8 3.9 7.7 3.7 7.3 4 7.5 4.5 7.4"/><path fill="#990000" stroke="none" d="M5.6 3.3 Q5.7 3.3 5.7 3.4 5.7 3.4 5.6 3.3 M5.7 3.4 Q5.7 3.4 5.7 3.5 5.5 3.4 5.5 3.1 5.6 3.2 5.7 3.4"/><path fill="#330000" stroke="none" d="M5.7 3.4 Q5.7 3.1 5.5 3.1 5.5 3 5.5 3 5.5 3 5.8 3.1 5.8 3.3 5.7 3.4"/><path fill="#e8e8e8" stroke="none" d="M6.5 2.1 Q6.6 2.2 6.5 2.4 6 2.1 5.5 2.5 5.5 2.5 5.4 2.5 5.3 1.9 5.7 2.1 L5.7 2.1 Q5.5 1.8 6 1.8 6.2 1.8 6.2 1.9 L6.2 1.9 6.2 1.9 Q6.3 1.9 6.5 2.1"/><path fill="#c1c1c1" stroke="none" d="M6.2 1.9 Q6.5 1.8 6.5 2.1 6.3 1.9 6.2 1.9 M5.4 2.5 Q5.3 2.5 5.3 2.3 5.5 1.8 6 1.8 6.1 1.7 6.2 1.9 L6.2 1.9 Q6.2 1.8 6 1.8 5.5 1.8 5.7 2.1 L5.7 2.1 Q5.3 1.9 5.4 2.5"/><path fill="#ffdc31" stroke="none" d="M5.3 2.8 Q5.6 2.3 6.3 2.4 7.3 2.6 6.8 3.4 7.2 2.9 6.6 2.5 6.2 2.2 5.5 2.5 5.4 2.6 5.3 2.8 M2.9 5.7 Q3.4 5.6 3.5 6 3.4 6.8 3.7 7.5 3.9 8 3.5 8.2 L3.5 8.1 3.5 8 Q3.5 7.9 3.5 7.8 3.4 5.5 3.4 5.8 3.1 5.9 2.9 6.2 3 5.8 3.2 5.8 3.1 5.7 2.9 5.7 M6.1 6.2 Q6.7 5.8 5.5 5.7 L5.5 5.7 Q6.7 5.7 6.4 6.4 6.3 6.8 6.4 7.5 6.2 6.8 6.3 6.5 6.4 6.2 6.3 6 6 6.3 6.1 6.2"/><path fill="#000000" stroke="none" d="M7 1.4 L7 1.5 7 1.6 Q6.9 1.8 6.9 1.9 6.9 1.9 6.8 1.9 7 1.8 6.4 1.4 6.3 1.4 6.3 1.3 L6.3 1.2 Q6 1.1 6 1.2 6 1.3 5.9 1.2 5.3 1.1 4.9 1.2 4.8 1.2 4.8 1.1 4 1.6 4.2 1.9 L4.2 2 4.2 2 Q4 1.9 4.2 1.6 4.2 0.9 5 0.7 5.1 0.6 5.1 0.7 5.3 0.5 5.7 0.5 6.9 0.7 7 1.4 M6.8 1.9 Q6.8 1.8 6.7 1.8 6.7 1.7 6.5 1.6 6.5 1.6 6.5 1.6 6.5 1.6 6.4 1.6 L6.3 1.5 6.2 1.4 Q5.9 1.4 5.6 1.4 5.5 1.4 5.5 1.4 5.2 1.4 5.4 1.4 L5.3 1.4 Q5.2 1.4 5 1.4 L5 1.5 Q4.8 1.6 4.7 1.6 4.6 1.7 4.5 1.7 4.5 1.8 4.3 1.9 L4.3 1.9 4.2 2 Q4.7 1.4 5.6 1.4 6.5 1.3 6.8 1.9 M6.9 1.6 Q7 0.9 6.3 0.8 5.5 0.5 5.2 0.6 4.8 1.1 5 1.2 5.3 1.1 5.9 1.2 6 1 6 1.1 6.5 1.1 6.4 1.4 6.8 1.6 6.8 1.8 L6.9 1.6 M5.1 1.1 Q5.2 0.6 5.7 0.7 6.7 0.8 6.8 1.2 7 1.9 6.5 1.1 5.8 0.8 5.8 1.1 5.3 1 5.1 1.1 L5.1 1.1 M6.8 1.2 Q6.6 0.8 5.8 0.7 5.5 0.7 5.4 0.7 5.3 0.7 5.3 0.8 5.2 0.8 5.2 0.8 5.2 0.9 5.2 1.1 5.4 1 5.8 1.1 5.8 0.8 6.5 1.2 6.5 1.2 6.8 1.4 6.8 1.4 6.8 1.5 6.8 1.4 6.8 1.2 M4.4 1.1 Q4.3 1.1 4.3 1.2 4.5 1 5 0.8 L5 0.8 Q4.6 0.8 4.4 1.1 M4.2 1.5 Q4.2 1.6 4.2 1.6 4.5 1.3 4.8 1.1 4.8 1.1 4.9 0.9 L5 0.9 Q4.2 1.2 4.2 1.5"/><path fill="#946709" stroke="none" d="M7.8 1.5 Q7.8 1.4 7.7 1.4 7.8 1.4 7.8 1.5 M7 1.4 Q7 1.4 7.1 1.4 7.3 1.1 7.8 1.3 7.4 1.1 7.2 1.4 7.7 1.2 8 1.6 7.5 1.3 7.5 1.9 7.6 1.8 7.8 1.8 7.7 1.8 7.8 1.7 7.6 1.8 7.5 2.2 7.7 1.9 7.9 1.9 7.6 2 7.6 2.6 7.7 2.6 7.7 2.5 7.6 2.6 7.5 2.8 7.7 2.8 7.8 2.7 7.7 2.9 7.5 2.9 7.3 3 7.2 3 7.5 3 7.6 2.9 7.2 3.4 6.8 3.4 L6.8 3.4 6.8 3.3 Q7 3.4 7.2 3.1 7.1 3.2 7 3.2 L7.2 3.1 Q7.3 3.1 7.5 2.9 7.3 3 7 3 7 3 7 3 7.2 3 7.4 2.9 L7.3 2.9 Q7.2 2.9 7 2.7 7 2.8 7.2 2.9 7.6 2.9 7.8 2.8 7.5 2.8 7 2.6 6.9 2.5 6.8 2.4 6.9 2.5 7 2.5 7.2 2.7 7.5 2.6 7.2 2.7 7 2.5 6.8 2.4 6.7 2.1 L6.7 2 Q6.2 1.8 6.2 1.4 6.2 1.8 6.7 2 6.9 2.1 7.1 2.1 7.2 2 7.2 1.9 7 2.1 6.6 1.9 6.5 1.8 6.3 1.6 6.3 1.6 6.3 1.5 L6.4 1.6 6.5 1.6 Q6.5 1.8 6.7 1.9 6.6 1.9 6.5 1.7 L6.5 1.6 Q6.5 1.6 6.5 1.6 6.6 1.9 6.7 1.9 L6.7 1.8 Q6.8 1.9 6.8 1.9 7.2 2 7.2 1.9 7.2 2.1 6.9 2.1 7.3 2.4 7.5 2 7.2 2.5 6.8 2.4 L6.9 2.4 Q7.5 2.9 7.5 2.2 L7.5 2.1 Q7.5 1.9 7.7 1.9 7.5 1.9 7.5 2 7.5 1.5 7.8 1.4 7.4 1.5 7.4 2 L7.4 2 7.5 1.7 Q7.5 1.5 7.7 1.4 7.5 1.4 7.3 1.6 7.4 1.4 7.7 1.4 7.4 1.2 7.2 1.5 7.2 1.4 7.3 1.4 7.2 1.4 7.1 1.6 L7 1.7 Q7.2 1.1 7.5 1.2 7.2 1.1 7 1.5 7 1.6 7 1.6 7 1.6 7.1 1.4 7 1.4 7 1.5 L7 1.4 M6.8 1.9 L6.7 1.8 Q6.8 1.8 6.8 1.9 M7 3.2 L7 3.2 M6.8 3.4 Q6.8 3.4 6.9 3.4 6.8 3.4 6.8 3.4 M7.8 2.6 L7.8 2.6 M4.2 2 L4.2 2 4.2 2 4.3 1.9 Q4.2 2.2 4.2 2.5 L4.2 2.6 4.2 2.6 4.3 2.5 Q4.1 2.3 4.4 1.9 L4.4 1.9 Q4.2 2.3 4.3 2.5 4.5 2.4 4.7 2.2 4.7 2 4.8 1.9 4.7 2.1 4.6 2.3 4.5 2.5 4.2 2.6 4.6 2.5 4.8 2.2 5 1.6 5 1.6 L5 1.5 5 1.5 5 1.4 5 1.6 Q4.8 2 4.8 2.4 4.8 2.1 5 1.9 4.8 2.5 5.1 2.9 5 2.8 5 2.6 5 2.4 5 2.1 5.1 1.8 5.2 1.5 5 2 5 2.5 5 2.2 5.2 1.9 5.3 1.6 5.3 1.4 L5.4 1.4 Q5.3 1.6 5.4 1.8 5.3 1.6 5.5 1.9 5.5 1.9 5.5 2 5.4 1.8 5.5 1.5 L5.5 1.4 5.5 1.4 Q5.5 1.4 5.6 1.4 5.4 1.8 5.6 2.1 5.3 1.9 5.3 1.6 4.9 2.5 5.2 3 5 2.9 5 2.7 5 3.2 5.3 3.4 4.8 3.1 5.4 3.5 5.2 3.5 5 3.4 5 3.5 5.3 3.7 4.8 3.6 4.4 3 3.9 2.7 4.2 2 M7 2.4 Q7.1 2.4 7.2 2.2 7.2 2.3 7 2.3 6.8 2.3 6.8 2.2 6.8 2.3 7 2.4 M7.6 2.4 Q7.6 2.2 7.7 2.1 7.6 2.2 7.5 2.5 7.5 2.6 7.4 2.6 7.6 2.7 7.6 2.4 M7.8 2 Q7.5 2.1 7.5 2.3 7.5 2.6 7.3 2.6 7.5 2.6 7.5 2.5 7.6 2.1 7.8 2 M6.8 2.1 Q6.5 2 6.9 2.2 7 2.3 7.2 2.2 7 2.2 6.8 2.1 M7.5 2.6 Q7.4 2.7 7.3 2.7 7.5 2.8 7.5 2.6 M4.5 1.7 Q4.6 1.7 4.7 1.6 L4.6 1.8 Q4.5 1.9 4.5 2.3 4.5 1.9 4.6 1.7 L4.5 1.7 M4.9 2.6 Q4.8 2.4 4.8 2.1 4.7 2.5 4.4 2.6 4.5 2.6 4.5 2.7 4.7 2.7 4.8 2.7 4.2 2.9 4.5 3 4.5 2.9 4.5 2.9 4.5 3 4.7 3 4.6 2.9 4.7 2.9 4.7 3 4.8 3 L4.7 3 Q4.8 3.2 4.8 3.3 4.9 3.4 5 3.5 5 3.4 5 3.4 4.8 3 4.8 2.9 4.8 3.2 5 3.4 5.1 3.4 5.2 3.5 5.1 3.4 5 3.1 5 3.2 5.2 3.3 5 3.2 5 3 4.9 2.9 4.9 2.6 M4.2 2.6 Q4.2 2.8 4.6 2.8 L4.7 2.8 Q4.3 2.6 4.2 2.6 M4.2 2.6 Q4.2 2.5 4.2 2.4 4 2.8 4.5 3 4.2 2.8 4.2 2.6 M4.4 2.9 Q4.4 2.8 4.3 2.8 4.3 2.9 4.4 2.9 L4.4 2.9 M4.5 3 L4.5 3 Q4.5 3.1 4.7 3.2 4.5 3.1 4.5 3 M4.7 3 L4.6 3 Q4.7 3.5 5.3 3.6 4.8 3.5 4.7 3"/><path fill="#cccccc" stroke="none" d="M6.9 1.6 L6.8 1.8 Q6.8 1.6 6.4 1.4 6.5 1.1 6 1.1 6 1 5.9 1.2 5.3 1.1 5 1.2 4.8 1.1 5.2 0.6 5 0.9 5 1.1 5 1.1 5.1 1.1 L5.1 1.1 Q5.3 1 5.8 1.1 5.8 0.8 6.5 1.1 7 1.9 6.8 1.2 6.8 1.4 6.9 1.6"/><path fill="#257aa3" stroke="none" d="M4.2 1.9 Q4 1.6 4.8 1.1 4.8 1.2 4.9 1.2 4.8 1.3 5 1.3 4.3 1.6 4.2 1.9"/><path fill="#999999" stroke="none" d="M4.4 1.1 Q4.6 0.8 5 0.8 L5 0.8 Q4.5 1 4.3 1.2 4.3 1.1 4.4 1.1"/><path fill="#c79836" stroke="none" d="M7.8 1.5 Q7.8 1.4 7.7 1.4 7.8 1.4 7.8 1.5 M7 1.5 Q7 1.4 7.1 1.4 7 1.6 7 1.6 L7 1.5 M6.5 1.7 Q6.6 1.9 6.7 1.9 6.5 1.8 6.5 1.6 L6.5 1.7 M6.3 1.6 Q6.5 1.8 6.6 1.9 6.7 1.9 6.8 2 6.7 2 6.7 1.9 6.7 2 6.8 2 7 2.1 7.1 2.1 6.9 2.1 6.7 2 6.5 1.9 6.3 1.6 L6.3 1.6 M5 2.1 Q5 2.4 5 2.6 5 2.3 5 1.9 5 1.7 5 1.9 4.8 2.1 4.8 2.4 4.8 2 5 1.6 L5.2 1.6 Q5 1.9 5 2.1 M5 1.6 Q5 1.6 4.8 2.2 4.8 2 4.8 1.8 4.8 2.1 4.6 2.3 4.7 2.1 4.8 1.9 4.8 1.6 5 1.6 M4.7 2.2 Q4.5 2.4 4.3 2.5 4.2 2.2 4.5 1.9 4.5 2.1 4.5 2.3 4.5 1.9 4.6 1.8 4.7 1.7 4.7 1.7 4.7 1.8 4.7 2.2 M4.2 2.6 L4.2 2.6 4.2 2.5 Q4.2 2.6 4.2 2.6 M5.2 1.5 Q5.2 1.6 5.2 1.9 5 2.2 5 2.5 5 2 5.2 1.5 M5.5 1.4 L5.5 1.5 Q5.4 1.6 5.5 1.9 5.3 1.6 5.4 1.8 5.3 1.4 5.5 1.4 M7 2.3 Q7.2 2.3 7.2 2.2 7.1 2.4 7 2.4 6.9 2.4 7 2.3 M6.9 2.2 Q7 2.2 7 2.2 6.8 2.2 6.8 2.1 7 2.2 7.2 2.2 7 2.3 6.9 2.2 M4.9 2.6 Q4.9 2.9 5 3 4.9 2.9 4.8 2.8 L4.8 2.8 Q4.8 2.7 4.8 2.5 4.8 3.1 5 3.4 4.8 3.2 4.8 2.9 4.8 3 5 3.4 4.8 3.1 4.7 2.9 4.7 3 4.8 3 4.7 3 4.7 2.9 4.6 2.9 4.7 3 4.5 3 4.5 2.9 L4.5 2.9 4.8 2.7 Q4.7 2.7 4.5 2.7 4.7 2.6 4.8 2.4 4.8 2.5 4.9 2.6 M4.8 3.3 Q4.8 3.2 4.7 3 L4.8 3 Q4.8 3.2 4.8 3.3 M4.2 2.6 Q4.3 2.8 4.6 2.8 4.2 2.8 4.2 2.6 M4.2 2.6 Q4.2 2.8 4.5 3 4 2.8 4.2 2.4 4.2 2.5 4.2 2.6 M4.7 3 Q4.8 3.5 5.3 3.6 4.7 3.5 4.6 3 L4.7 3"/><path fill="#b98a28" stroke="none" d="M7 1.6 Q7 1.6 7 1.5 7.2 1.1 7.5 1.2 7.2 1.1 7 1.7 L7.1 1.6 Q7.2 1.4 7.3 1.4 7.2 1.4 7.2 1.5 7.4 1.2 7.7 1.4 7.4 1.4 7.3 1.6 7.5 1.4 7.7 1.4 7.5 1.5 7.5 1.7 L7.4 2 Q7.3 1.9 7.5 1.7 7.3 1.8 7.3 1.8 7.4 1.6 7.5 1.6 7.2 1.6 7 1.8 L7.1 1.7 Q7 1.8 6.9 1.9 6.9 1.8 7 1.6 M7.4 2 Q7.4 1.5 7.8 1.4 7.5 1.5 7.5 2 7.5 1.9 7.7 1.9 7.5 1.9 7.5 2.1 L7.5 2.2 Q7.5 2.1 7.5 2 7.5 2 7.5 1.9 L7.4 2.1 7.4 2 M6.9 2.4 L6.8 2.4 6.9 2.4 M6.7 1.8 L6.7 1.9 Q6.6 1.9 6.5 1.6 6.7 1.7 6.7 1.8 M6.5 1.6 L6.5 1.7 6.5 1.6 6.4 1.6 Q6.5 1.6 6.5 1.6 M6.3 1.5 Q6.3 1.6 6.3 1.6 L6.3 1.6 Q6.5 1.9 6.7 2 6.2 1.8 6.2 1.4 L6.3 1.5 M6.7 2.1 Q6.8 2.4 7 2.5 7 2.5 7 2.5 6.9 2.5 6.8 2.4 6.9 2.5 7 2.6 7.2 2.8 7.5 2.8 7.4 2.8 7.2 2.9 7 2.8 7 2.7 6.7 2.4 6.7 2.1 M7.3 2.9 L7.4 2.9 Q7.2 3 7 3 7.2 3 7.3 2.9 M7 3 Q7.3 3 7.5 2.9 7.3 3.1 7.2 3.1 L7.3 3 Q7.2 3.1 7 3 M5.4 1.4 Q5.2 1.4 5.5 1.4 L5.5 1.4 Q5.3 1.4 5.4 1.8 5.3 1.6 5.4 1.4 M5.2 1.5 Q5.1 1.8 5 2.1 5 1.9 5.2 1.6 L5 1.6 5 1.4 Q5.2 1.4 5.3 1.4 5.3 1.6 5.2 1.9 5.2 1.6 5.2 1.5 M5 1.5 L5 1.5 5 1.6 Q4.8 1.6 4.8 1.9 4.7 2 4.7 2.2 4.7 1.8 4.7 1.7 4.7 1.7 4.6 1.8 L4.7 1.6 Q4.8 1.6 5 1.5 M4.3 2.5 Q4.2 2.3 4.4 1.9 L4.4 1.9 4.3 1.9 Q4.5 1.8 4.5 1.7 L4.6 1.7 Q4.5 1.9 4.5 2.3 4.5 2.1 4.5 1.9 4.2 2.2 4.3 2.5 M7 2.4 Q6.8 2.3 6.8 2.2 6.8 2.3 7 2.3 6.9 2.4 7 2.4 M7.6 2.4 Q7.5 2.5 7.5 2.5 7.6 2.2 7.7 2.1 7.6 2.2 7.6 2.4 M7.8 2 Q7.6 2.1 7.5 2.5 7.5 2.6 7.3 2.6 7.5 2.6 7.5 2.3 7.5 2.1 7.8 2 M6.8 2.1 Q6.8 2.2 7 2.2 7 2.2 6.9 2.2 6.5 2 6.8 2.1 M7 3 Q7 3 7 3 M4.5 2.7 Q4.5 2.6 4.4 2.6 4.7 2.5 4.8 2.1 4.8 2.4 4.9 2.6 4.8 2.5 4.8 2.4 4.7 2.6 4.5 2.7 M4.5 2.9 Q4.5 2.9 4.5 3 4.2 2.9 4.8 2.7 L4.5 2.9 4.5 2.9 M4.5 3 Q4.5 3.1 4.7 3.2 4.5 3.1 4.5 3 L4.5 3"/><path fill="#daab49" stroke="none" d="M6.6 1.9 Q7 2.1 7.2 1.9 7.2 2 7.1 2.1 7 2.1 6.8 2 7 2.1 7.1 2 7 2 7 2 6.9 2 6.8 2 6.7 1.9 6.6 1.9 M7 2.5 Q7.2 2.7 7.5 2.6 7.2 2.7 7 2.5 7 2.5 7 2.5 M7 2.6 Q7.5 2.8 7.8 2.8 7.6 2.9 7.2 2.9 7.4 2.8 7.5 2.8 7.2 2.8 7 2.6 M5 2.6 Q5 2.8 5.1 2.9 4.8 2.5 5 1.9 5 1.7 5 1.9 5 2.3 5 2.6 M4.8 2.2 Q4.6 2.5 4.2 2.6 4.5 2.5 4.6 2.3 4.8 2.1 4.8 1.8 4.8 2 4.8 2.2 M4.4 1.9 Q4.1 2.3 4.3 2.5 L4.2 2.6 Q4.2 2.6 4.2 2.5 4.2 2.2 4.3 1.9 L4.3 1.9 4.4 1.9 M5.5 1.9 Q5.4 1.6 5.5 1.5 5.4 1.8 5.5 2 5.5 1.9 5.5 1.9 M5.5 1.6 Q5.5 1.8 5.5 1.9 5.5 1.8 5.5 1.6 M4.8 2 Q4.8 2.2 4.5 2.5 4.8 2.4 4.8 2 M5 3 Q5 3.2 5.2 3.3 5 3.2 5 3.1 5.1 3.4 5.2 3.5 5.1 3.4 5 3.4 4.8 3.1 4.8 2.5 4.8 2.7 4.8 2.8 4.9 2.9 5 3 M5 3.4 Q5 3.4 5 3.5 4.9 3.4 4.8 3.3 4.8 3.2 4.8 3 4.7 3 4.7 2.9 4.8 3.1 5 3.4 M5 2.4 Q4.9 2.5 5 2.7 5 2.5 5 2.4 M4.6 2.8 Q4.3 2.8 4.2 2.6 4.3 2.6 4.7 2.8 L4.6 2.8"/><path fill="#a97a18" stroke="none" d="M7.4 2 L7.4 2 7.4 2.1 7.5 1.9 Q7.5 2 7.5 2 7.5 2.1 7.5 2.2 L7.5 2.1 7.5 2.2 Q7.5 2.9 6.9 2.4 L6.8 2.4 Q7.2 2.5 7.5 2 7.3 2.4 6.9 2.1 7.2 2.1 7.2 1.9 7.2 2 6.8 1.9 6.9 1.9 6.9 1.9 7 1.8 7.1 1.7 L7 1.8 Q7.2 1.6 7.5 1.6 7.4 1.6 7.3 1.8 7.3 1.8 7.5 1.7 7.3 1.9 7.4 2 M7 2.7 Q7.2 2.9 7.3 2.9 7.2 3 7 3 7 3 7 3 7 3 7 3 7.2 3.1 7.3 3 L7.2 3.1 7 3.2 Q7.1 3.2 7.2 3.1 7 3.4 6.8 3.3 6.9 3.2 7 3.2 7 3.1 7 3 7 2.9 7 2.7 M6.8 3.4 Q6.8 3.4 6.9 3.4 6.8 3.4 6.8 3.4 M7.5 2.5 Q7.5 2.5 7.6 2.4 7.6 2.7 7.4 2.6 7.5 2.6 7.5 2.5 M7.5 2.6 Q7.5 2.8 7.3 2.7 7.4 2.7 7.5 2.6"/><path fill="#eabb59" stroke="none" d="M5.5 1.6 Q5.5 1.8 5.5 1.9 5.5 1.8 5.5 1.6 M6.8 2 Q6.7 2 6.7 1.9 6.7 2 6.8 2 6.9 2 7 2 7 2 7.1 2 7 2.1 6.8 2 M4.8 2 Q4.8 2.4 4.5 2.5 4.8 2.2 4.8 2 M5 2.4 Q5 2.5 5 2.7 4.9 2.5 5 2.4"/><path fill="#025780" stroke="none" d="M6.8 1.9 Q6.8 1.9 6.7 1.8 L6.8 1.9 Q6.5 1.3 5.6 1.4 4.7 1.4 4.2 2 L4.2 2 4.2 1.9 Q4.3 1.6 5 1.3 4.8 1.3 4.9 1.2 5.3 1.1 5.9 1.2 6 1.3 6 1.2 6.2 1.2 6.3 1.3 6.3 1.4 6.4 1.4 7 1.8 6.8 1.9"/><path fill="#007cb9" stroke="none" d="M4.9 0.9 Q4.8 1.1 4.8 1.1 4.5 1.3 4.2 1.6 4.2 1.6 4.2 1.5 4.4 1.2 4.9 0.9"/><path fill="#069ad7" stroke="none" d="M4.2 1.5 Q4.2 1.2 5 0.9 L4.9 0.9 Q4.4 1.2 4.2 1.5"/><path fill="#003962" stroke="none" d="M6 1.2 Q6 1.1 6.3 1.2 L6.3 1.3 Q6.2 1.2 6 1.2"/><path fill="#fdaa2f" stroke="none" d="M5.4 0.7 Q6.5 0.8 6.8 1.2 6.8 1.4 6.8 1.5 6.8 1.4 6.8 1.4 6.7 0.8 5.3 0.8 5.3 0.7 5.4 0.7"/><path fill="#fdc26b" stroke="none" d="M6.8 1.4 Q6.5 1.2 6.5 1.2 5.8 0.8 5.8 1.1 5.4 1 5.2 1.1 5.2 0.9 5.2 0.8 5.2 0.8 5.3 0.8 6.7 0.8 6.8 1.4"/><path fill="#ffffff" stroke="none" d="M5.2 0.6 Q5.5 0.5 6.3 0.8 7 0.9 6.9 1.6 6.8 1.4 6.8 1.2 6.7 0.8 5.7 0.7 5.2 0.6 5.1 1.1 5 1.1 5 1.1 5 0.9 5.2 0.6"/><path fill="#fdd197" stroke="none" d="M5.4 0.7 Q5.5 0.7 5.8 0.7 6.6 0.8 6.8 1.2 6.5 0.8 5.4 0.7"/><path fill="#eabb59" stroke="none" d="M5.2 1.9 Q5.1 1.9 5.1 2.1 5 1.9 5.2 1.8 5.2 1.9 5.2 1.9 M5 1.8 Q5 2 5 2.3 4.9 2.2 5 1.9 5 1.9 4.9 2 4.9 1.9 5 1.8 M4.7 2 L4.7 2.1 Q4.7 2 4.7 1.9 4.6 2.1 4.5 2.2 4.5 2 4.6 1.9 4.5 1.9 4.6 2 4.7 1.9 4.8 1.8 L4.7 2 M4.8 2 Q4.8 2.1 4.7 2.2 4.8 2.1 4.8 1.9 4.8 2 4.8 2.1 4.8 2.1 4.8 2 M4.5 2.1 L4.5 2.2 Q4.5 2.2 4.5 2.1 4.3 2.2 4.3 2.4 4.2 2.1 4.4 1.9 4.3 2.1 4.3 2.2 L4.5 2 Q4.5 2.1 4.5 2.1"/><path stroke="none" fill="url(#gradient6)" d="M6.8 1.1 Q6.8 1.3 6.8 1.4 L6.3 0.8 Q6.7 1 6.8 1.1"/><path stroke="none" fill="url(#gradient7)" d="M5.4 0.7 Q5.8 0.6 6 0.9 5.8 0.9 5.8 1.1 5.7 1.1 5.3 0.7 5.3 0.7 5.4 0.7"/><path stroke="none" fill="url(#gradient8)" d="M5.5 1 Q5 1.1 5.2 0.8 L5.5 1 5.5 1"/><path fill="#000000" stroke="none" d="M6.7 4.8 Q6.3 4.2 6.4 3.8 L6.3 3.8 Q6.2 4 5.7 4 6 4 5.8 4 5.3 3.9 5.2 4.2 5.4 4.1 5.5 4.1 5.2 4.2 5 4.5 4.8 4.8 4.8 4.7 L4.2 5.2 Q4.8 4.8 5 4.7 4.8 4.8 4.3 5.2 3.9 5.5 4.1 5.8 4.2 5.6 4.8 6.2 L4.8 6.2 4.8 6.2 4.8 6.2 4.8 6.2 Q5 6.3 5.2 5.9 5.8 5.5 6 5.3 6.1 5.1 6.2 4.9 6.2 4.9 6.1 5.2 6.2 5.1 6.2 5 L5.8 5.5 Q5.6 5.7 5.7 5.7 5.5 5.8 5.5 5.7 5.3 5.9 5.2 6 5 6.3 4.7 6.3 4.6 6.5 4.5 6.4 4.7 6.3 4.7 6.2 4.3 5.7 4.2 5.8 4 5.9 4 6 4 6.1 4.1 6.2 4.1 6.2 4.1 6.2 3.9 6 4 5.9 3.9 5.5 4.2 5.2 4.2 5.2 4.3 5.1 4.5 4.7 4.7 4.3 L4.7 4.3 Q4.8 4.3 4.8 4.1 L4.8 4.1 Q4.5 4.2 4.3 4.2 4.4 4 4.5 4 4.1 3.5 4 3.1 4 2.9 4 2.6 4 2.6 4 2.6 3.9 3.2 3.9 3 4 2.5 3.8 2.5 3.8 2.4 3.8 2.4 3.7 2.4 3.8 2.4 3.6 2.6 3.6 2.5 3.9 2.2 3.8 2.1 3.9 2.1 3.8 2.3 L4 2.6 Q4.1 2.6 4.1 2.6 4 2.7 4.2 3.3 4.1 3 4 2.9 4 3.1 4.3 3.8 4.5 4.1 4.5 3.8 4.5 3.7 4.3 3.4 4.5 3.5 4.5 3.6 4.6 3.4 4.7 3.4 4.5 3.2 4.3 3 L4.7 3.4 Q4.5 3.5 4.5 3.8 4.5 4.2 4.6 3.8 4.6 3.9 4.6 4 4.8 4 5.3 4 5.2 4 6 3.9 6.2 3.9 6.3 3.9 6.4 3.8 6.4 3.5 L6.4 3.5 Q6.5 3.5 6.5 4 6.4 4.2 6.7 4.8 7.6 6.5 6.8 7.5 6.5 8 6.2 8.1 L6.3 8.1 Q6.7 7.8 6.7 7.3 6.7 7.5 6.7 7.6 6.8 7.5 6.8 7.2 6.8 7.2 6.8 7.3 6.8 7.3 6.8 7.4 6.9 7.2 6.9 7.3 7 7 7 6.9 7 6.8 6.7 6.8 6.8 7 6.5 6.8 6.5 6.7 6.4 6.6 L6.4 6.5 Q6.5 6.6 6.6 6.6 6.9 6.5 6.9 6.5 L6.5 6.7 Q6.6 6.8 7 6.7 7.2 6.6 7.1 6.5 7 6.6 7 6.5 7.2 6.3 7.1 6 L6.8 5.3 6.7 4.8 M6.7 7.6 L6.7 7.6 M5.2 3.8 Q4.8 3.8 4.7 3.7 4.6 3.8 4.6 3.8 4.6 3.5 4.8 3.4 4.3 3.9 5.5 3.7 L5.2 3.8 M4.5 3.6 L4.5 3.6 M4.2 4 Q4.2 4.2 4.3 4.2 3.6 4.7 3.5 6 3.5 5.9 3.5 5.8 3.5 5.3 3.7 4.9 3.9 4.6 4 4.4 4.1 4.2 4.2 4.2 4.2 4.2 4.2 4 M6.3 3.5 L6.3 3.5 6.4 3.5 Q6.4 3.5 6.3 3.6 6 3.9 5.2 3.8 L5.5 3.8 Q5.8 3.8 5.7 3.8 6 3.8 6.2 3.6 6.2 3.6 6.3 3.5 M5.2 3.5 L5.2 3.4 Q5.5 3.4 5.4 3.4 L5.2 3.5 M5 3.5 L5 3.4 Q5 3.4 5.1 3.5 L5 3.5 M5.2 4.1 L5.2 4 5 4 Q4.8 4 4.8 4.1 4.8 4.2 4.8 4.2 5.2 4.1 5.2 4.2 4.7 4.2 4.5 4.6 4.5 4.7 4.4 5 4.7 4.8 4.8 4.7 5 4.2 5.2 4.2 5.2 4.2 5.2 4.1 M3.8 0.9 Q3.9 1.2 4.2 1.1 4.2 1.2 4 1.2 3.8 1.2 3.8 0.9 L3.8 0.9 M4.2 1.1 L4.2 1.1 Q4.2 1.2 4 1.4 4.2 1.8 3.8 2.1 L3.7 2.2 3.5 2.5 3.4 2.5 3.7 2.1 Q4.1 1.7 4 1.4 L4 1.5 Q3.5 1.6 3.5 1 3.5 0.9 3.6 0.9 3.1 0.8 3.1 1.6 3.1 1.4 3.1 1.2 L3.1 1.3 2.9 1.6 Q2.9 1.4 3.1 1.2 3.2 0.8 3.6 0.9 3.8 0.8 3.8 0.8 4 0.8 3.8 0.8 3.6 0.9 3.5 1.1 3.6 1.5 3.9 1.5 4.2 1.4 4.2 1.1 M3.6 2.3 L3.6 2.5 Q3.5 2.6 3.6 2.5 L3.6 2.3 M3 3.2 Q3 3.1 3 3.4 3 4.2 3.2 4.2 3.2 3.9 3.2 3.6 3.2 4 3.2 4.2 L3.3 4.1 Q3.5 3.9 3.8 3.6 4 3.2 3.9 3.4 4 3.3 3.9 3.4 3.7 3.8 3.5 4 L3 4.4 Q3 4.5 2.9 4.7 2.8 4.6 3.1 4.2 3 4.1 3 3.8 2.9 3.5 2.9 3.4 L2.9 3.5 3 3.8 3 3.6 3 3.5 3 3.2 M4.3 4.2 L4.8 4 Q4.4 4 4.3 4.1 L4.3 4.2 M2.9 5.2 Q3 5.3 3.2 5.3 3.2 5.6 2.9 5.5 L2.9 5.5 Q3.1 5.6 3.2 5.3 3 5.4 2.9 5.3 L2.9 5.2 M4.5 6.3 Q4.4 6.2 4.1 6.1 4 6 4 6 4.5 6.1 4.6 6.3 4.5 6.4 4.5 6.3 M4.2 6.6 L4.2 6.7 Q3.8 6.7 3.5 6.5 L3.5 6.5 Q3.9 6.6 4.2 6.6 M4.2 6.8 L4.2 6.8 Q3.8 6.8 3.6 6.7 L3.8 6.8 3.9 7 3.8 7 3.8 7 Q3.9 7.2 3.7 6.8 3.6 6.7 3.5 6.6 L3.5 6.5 Q3.7 6.8 4.2 6.8 M4.5 7.6 L4.6 7.7 Q4.4 7.5 4.5 7.6 M4.8 8 Q5 8.1 4.9 8.1 L4.9 8.1 Q4.2 8.2 4 8 3.8 8.1 3.6 8.1 L3.7 8.1 Q4 8 3.9 7.3 L3.9 7.4 Q4 7.8 3.9 8 4 8 4 7.9 4 7.9 4.2 7.8 L4.2 7.8 4.2 7.8 Q4 8 4 8 4.4 8.2 4.8 8.1 4.7 8 4.7 8 4.5 7.8 4.5 7.7 4.7 8 4.8 8 M4 8 Q4 8 4 8 M7 6.7 Q7 6.8 6.6 6.8 6.7 6.8 7 6.8 7.1 6.8 7.1 6.7 L7 6.7 M6.5 7.6 Q6.5 7.8 6.5 7.8 L6.5 7.7 Q6.6 7.5 6.5 7 6.6 7.3 6.5 7.6 M6.4 6.7 Q6.7 7 6.7 7.2 6.6 7 6.4 6.8 L6.4 6.7"/><path fill="#b10121" stroke="none" d="M6.4 3.5 L6.4 3.5 Q6.3 3.6 6.3 3.9 6.2 3.9 6 3.9 L5.8 3.9 Q6.3 3.8 6.3 3.6 6.4 3.5 6.4 3.5 M4.6 3.8 Q4.6 3.8 4.7 3.7 4.8 3.8 5.2 3.8 4.6 3.9 4.6 3.8 L4.5 3.8 Q4.5 3.5 4.7 3.4 L4.8 3.4 Q4.6 3.5 4.6 3.8 M4.3 3.4 Q4.5 3.7 4.5 3.8 4.3 3.6 4.2 3.2 4.2 3.3 4.3 3.4 M4.3 4.2 Q4.5 4.2 4.8 4.1 L4.8 4.1 4.3 4.3 4.7 4.3 4.7 4.3 Q4.5 4.7 4.3 5.1 4.2 5.2 4.2 5.2 3.9 5.5 4 5.9 3.9 6 4.1 6.2 4.1 6.3 4.2 6.5 L4.2 6.6 Q3.9 6.6 3.5 6.5 3.5 4.9 4.3 4.2 M4 6 Q4 5.9 4.2 5.8 4.5 5.9 4.5 6.1 4.2 5.9 4 6 M6.3 3.5 L6.2 3.6 6.3 3.5 6.3 3.5 6.3 3.5 M6.2 3.6 Q6.2 3.7 6.2 3.6 6 3.8 5.7 3.8 5.8 3.8 5.5 3.8 6 3.5 6.2 3.6 M4 1.2 Q4.2 1.2 4.2 1.1 L4.2 1.1 Q4.2 1.4 3.9 1.5 4 1.4 4 1.2 M4.2 3 L4.5 3.4 Q4.2 3.2 4.1 2.8 4.2 2.9 4.2 3 M7 6.7 L7.1 6.7 Q7.1 6.8 7 6.8 7 6.8 7 6.7"/><path fill="#a73348" stroke="none" d="M3.4 2.5 L3.5 2.5 Q3.4 2.5 3.4 2.5"/><path fill="#f2b705" stroke="none" d="M6.8 7.2 Q6.8 7.5 6.7 7.6 6.8 7.2 6.8 7.1 6.8 7.2 6.8 7.2 M3.5 6.8 L3.5 6.6 Q3.6 6.7 3.7 6.8 3.8 7 3.8 7.2 3.6 6.9 3.5 6.8 M6.5 7 L6.5 7 Q6.8 7.5 6.5 7.7 L6.5 7.6 Q6.6 7.3 6.5 7"/><path fill="#890000" stroke="none" d="M6 3.9 Q5.2 4 5.3 4 4.8 4 4.6 4 4.6 3.9 4.6 3.8 4.5 4.2 4.5 3.8 L4.6 3.8 Q4.6 3.9 5.2 3.8 L5.5 3.7 Q4.3 3.9 4.8 3.4 4.9 3.6 5.3 3.7 5 3.5 5 3.5 L5.1 3.5 Q5.6 3.6 5.2 3.5 L5.4 3.4 Q5.5 3.5 5.7 3.6 L5.6 3.6 Q5.9 3.7 6 3.5 6.2 3.5 6.3 3.5 L6.2 3.6 Q6 3.5 5.5 3.8 L5.2 3.8 Q6 3.9 6.3 3.6 6.3 3.8 5.8 3.9 L6 3.9 M4.3 3 Q4.5 3.2 4.7 3.4 4.6 3.4 4.5 3.6 4.5 3.5 4.3 3.4 4.2 3.3 4.2 3.2 4.3 3.6 4.5 3.8 4.5 4.1 4.3 3.8 4 3.1 4 2.9 4.1 3 4.2 3.3 4 2.7 4.1 2.6 4.2 2.8 4.3 3 M3.5 6 Q3.6 4.7 4.3 4.2 3.5 4.9 3.5 6.5 L3.5 6.5 Q3.5 6.1 3.5 6 M4.8 4.1 Q4.8 4.3 4.7 4.3 L4.3 4.3 4.8 4.1 M4.1 6.2 Q4 6.1 4 6 4.2 5.9 4.5 6.1 4.5 5.9 4.2 5.8 4.3 5.7 4.7 6.2 4.7 6.3 4.5 6.4 L4.5 6.3 Q4.5 6.4 4.6 6.3 4.5 6.1 4 6 4 6 4.1 6.1 L4.1 6.2 M3.8 0.9 L3.8 0.9 Q3.8 1.2 4 1.2 4 1.4 3.9 1.5 3.6 1.5 3.5 1.1 3.6 0.9 3.8 0.8 3.8 0.9 3.8 0.9 M4.2 3 Q4.2 2.9 4.1 2.8 4.2 3.2 4.5 3.4 L4.2 3 M4.3 4.1 Q4.4 4 4.8 4 L4.3 4.2 4.3 4.1 M2.9 5.5 L2.9 5.3 Q3 5.4 3.2 5.3 3.1 5.6 2.9 5.5 M4.2 6.7 L4.2 6.8 Q3.7 6.8 3.5 6.5 L3.5 6.5 Q3.8 6.7 4.2 6.7 M6.6 6.8 Q7 6.8 7 6.7 7 6.8 7 6.8 6.7 6.8 6.6 6.8"/><path fill="#d42444" stroke="none" d="M6.4 3.5 Q6.4 3.8 6.3 3.9 6.3 3.6 6.4 3.5 M6.2 3.6 L6.3 3.5 Q6.2 3.6 6.2 3.6 6.2 3.7 6.2 3.6"/><path fill="#9f2b40" stroke="none" d="M3.6 2.5 Q3.6 2.6 3.8 2.4 L3.8 2.5 Q3.7 2.8 3.7 2.9 3.6 3.4 3.2 3.4 3.2 3.1 3.1 3.5 L3 3.4 Q3 3.1 3 3.2 2.9 2.7 2.9 3 L2.9 1.8 2.9 1.7 3 1.8 Q3.1 2.3 3.5 2.2 3.5 2.2 3.4 2.5 3.4 2.5 3.5 2.5 3.5 2.5 3.5 2.5 L3.6 2.5 Q3.5 2.6 3.6 2.5 L3.6 2.5 M4.2 4 Q4.2 4.2 4.2 4.2 4.1 4.2 4 4.4 3.7 4.2 3.5 4 3.8 3.6 3.9 3.4 4 3.3 3.9 3.4 4 3.3 4 3.1 4 3.6 4.3 4 L4.2 4 M3.7 4.9 Q3.5 5.3 3.5 5.8 3.4 5.6 2.9 5.7 L2.9 5.5 Q3.2 5.6 3.2 5.3 3 5.3 2.9 5.2 L2.9 4.9 Q2.9 4.7 3.1 4.5 3.5 4.8 3.7 4.9 M6.2 5 Q6.2 5.1 6.1 5.2 6.2 4.9 6.2 4.9 6.3 4.3 5.8 4 6 4 5.7 4 6.2 4 6.3 3.8 6.2 4.1 6.3 4.1 6.2 4.4 6.5 4.9 6.4 5 6.3 5 L6.2 5 M6 5.3 Q5.8 5.5 5.2 5.9 5 5.2 4.5 5.2 L5.2 4.7 Q5.7 4.7 6 5.3 M5.1 4.5 Q5.2 4.5 5.2 4.6 5 4.7 4.9 4.7 L5.1 4.5 M5.2 4.1 Q5.2 4.2 5.2 4.2 5 4.2 4.8 4.7 4.7 4.7 4.5 4.6 4.7 4.2 5.2 4.2 L5.2 4.1 M4.8 4.1 Q4.8 4 5 4 L4.8 4.1 M6.2 5.5 Q6.6 5.5 6.8 5.4 7 5.8 7 6 6.8 6.1 6.5 6.2 6.5 5.9 6.2 5.8 6.2 5.5 6.2 5.5 M2.9 3.5 L2.9 3.4 2.9 3.1 Q2.9 3.2 3 3.5 3 3.5 2.9 3.5"/><path fill="#8c182d" stroke="none" d="M4 3.1 Q4.1 3.5 4.5 4 4.4 4 4.3 4.2 4.2 4.2 4.2 4 L4.3 4 Q4 3.6 4 3.1 L4 3.1 M5.7 5.7 Q5.6 5.7 5.8 5.5 L6.2 5.5 Q6.2 5.5 6.2 5.8 6 5.7 5.7 5.7 M4.8 6.2 L4.8 6.2 4.8 6.2 4.8 6.2 4.8 6.2 M4.3 5.2 Q4.8 4.8 5 4.7 4.8 4.8 4.2 5.2 L4.8 4.7 Q4.8 4.8 5 4.5 5 4.5 5.1 4.5 L4.9 4.7 Q5 4.7 5.2 4.6 L5.2 4.7 4.5 5.2 Q4.4 5.2 4.3 5.2 M5 4 L5.2 4 5.2 4.1 5.2 4.2 Q5.2 4.1 4.8 4.2 4.8 4.2 4.8 4.1 L5 4 M3.7 2.2 L3.6 2.3 3.6 2.5 3.5 2.5 Q3.5 2.5 3.5 2.5 L3.7 2.2 M2.9 3 Q2.9 2.7 3 3.2 L3 3.5 Q3 3.5 3 3.5 2.9 3.2 2.9 3.1 L2.9 3 M3.1 3.5 Q3.2 3.1 3.2 3.4 L3.2 3.5 Q3.2 3.5 3.1 3.5"/><path fill="#af3b50" stroke="none" d="M6.3 3.8 L6.4 3.8 Q6.3 4.2 6.7 4.8 L6.5 4.9 Q6.2 4.4 6.3 4.1 6.2 4.1 6.3 3.8 M6.8 5.3 L7.1 6 7 6 Q7 5.8 6.8 5.4 L6.8 5.3 M3.8 2.1 Q3.9 2.2 3.6 2.5 L3.6 2.5 3.6 2.3 3.7 2.2 3.8 2.1 M3.8 2.4 Q3.7 2.4 3.8 2.4 3.8 2.4 3.8 2.5 L3.8 2.5 3.8 2.4 M3.7 2.1 L3.4 2.5 Q3.5 2.2 3.5 2.2 L3.7 2.1 M2.9 1.6 L2.9 1.7 2.9 1.8 2.9 1.6 M3.9 3.4 Q3.8 3.6 3.5 4 L3.5 4 Q3.7 3.8 3.9 3.4 M3 4.4 L3.1 4.5 Q2.9 4.7 2.9 4.9 L2.9 4.7 Q3 4.5 3 4.4"/><path fill="#d92949" stroke="none" d="M7 6.5 Q7 6.6 7.1 6.5 7.2 6.6 7 6.7 7 6.6 6.9 6.5 6.9 6.5 6.6 6.6 6.5 6.6 6.4 6.5 L6.5 6.2 Q6.8 6.1 7 6 7 6.3 6.8 6.5 L7 6.5 M3.9 3 Q3.9 3.2 4 2.6 4 2.6 4 2.6 4 2.9 4 3.1 L4 3.1 Q4 3.3 3.9 3.4 4 3.2 3.8 3.6 3.8 3.5 3.6 3.2 3.2 3.6 3.3 4.1 L3.2 4.2 Q3.2 4 3.2 3.6 L3.2 3.5 3.2 3.4 Q3.6 3.4 3.7 2.9 3.7 2.8 3.8 2.5 3.9 2.5 3.9 3 M4 4.4 Q3.9 4.6 3.7 4.9 3.5 4.8 3.1 4.5 3.5 4.1 3.5 4 3.7 4.2 4 4.4 M6.2 4.9 Q6.1 5.1 6 5.3 5.7 4.7 5.2 4.7 L5.4 4.5 5.2 4.6 Q5.2 4.5 5.1 4.5 5.3 4.2 5.6 4.2 5.5 4.1 5.5 4.1 5.4 4.1 5.2 4.2 5.3 3.9 5.8 4 6.3 4.3 6.2 4.9 M5.2 5.9 Q5 6.3 4.8 6.2 L4.8 6.2 4.8 6.2 Q4.9 5.5 4.3 5.5 4.2 5.5 4.5 5.2 5 5.2 5.2 5.9 M4.8 4.7 Q4.7 4.8 4.4 5 4.5 4.7 4.5 4.6 4.7 4.7 4.8 4.7 M6.3 5 Q6.4 5 6.5 4.9 L6.8 5.4 Q6.6 5.5 6.2 5.5 6.2 5.3 6.3 5 M3.1 1.3 L3.1 1.2 Q3.1 1.4 3.1 1.6 3.2 1 3.5 1 3.5 1.6 4 1.5 4 1.8 3.5 2.2 3.1 2.3 3 1.8 L2.9 1.7 3.1 1.3 M3 3.4 L3.1 3.5 Q3 4 3.2 4.2 3 4.2 3 3.4 M3 3.6 L3 3.8 2.9 3.5 Q3 3.5 3 3.5 L3 3.6"/><path fill="#c51535" stroke="none" d="M7 6.7 Q6.6 6.8 6.5 6.7 L6.9 6.5 Q7 6.6 7 6.7 M5.8 5.5 L6.2 5 6.3 5 Q6.2 5.3 6.2 5.5 L5.8 5.5 M4.8 6.2 Q4.2 5.6 4.1 5.8 3.9 5.5 4.3 5.2 4.4 5.2 4.5 5.2 4.2 5.5 4.3 5.5 4.9 5.5 4.8 6.2 M5 4.5 Q5.2 4.2 5.5 4.1 5.5 4.1 5.6 4.2 5.3 4.2 5.1 4.5 5 4.5 5 4.5 M5.2 4.6 L5.4 4.5 5.2 4.7 5.2 4.6 M3.8 3.6 Q3.5 3.9 3.3 4.1 3.2 3.6 3.6 3.2 3.8 3.5 3.8 3.6 M3.2 3.6 Q3.2 3.9 3.2 4.2 3 4 3.1 3.5 3.2 3.5 3.2 3.5 L3.2 3.6 M3 3.5 L3 3.6 3 3.5 Q3 3.5 3 3.5"/><path fill="#f44464" stroke="none" d="M6.7 4.8 L6.8 5.3 6.8 5.4 6.5 4.9 6.7 4.8 M7.1 6 Q7.2 6.3 7 6.5 L6.8 6.5 Q7 6.3 7 6 L7.1 6 M3.8 2.5 Q4 2.5 3.9 3 3.9 2.5 3.8 2.5 L3.8 2.5 M2.9 1.6 L3.1 1.3 2.9 1.7 2.9 1.6 M3.1 1.6 Q3.1 0.8 3.6 0.9 3.5 0.9 3.5 1 3.2 1 3.1 1.6 M4 1.5 L4 1.4 Q4.1 1.7 3.7 2.1 L3.5 2.2 Q4 1.8 4 1.5 M3.5 4 L3.5 4 Q3.5 4.1 3.1 4.5 L3 4.4 3.5 4"/><path fill="#dea303" stroke="none" d="M6.4 6.6 Q6.5 6.7 6.5 6.8 L6.8 7.1 Q6.8 7 6.8 6.9 L7 6.9 Q7 7 6.9 7.3 6.9 7.2 6.8 7.4 6.8 7.3 6.8 7.3 6.8 7.2 6.8 7.2 6.8 7.2 6.8 7.1 6.8 7.2 6.7 7.6 6.7 7.5 6.7 7.3 6.7 7.8 6.3 8.1 6.4 7.9 6.5 7.8 6.5 7.8 6.5 7.6 L6.5 7.7 Q6.8 7.5 6.5 7 L6.5 7 Q6.6 7.5 6.5 7.7 L6.5 7.7 6.4 6.8 Q6.6 7 6.7 7.2 6.7 7 6.4 6.7 L6.4 6.6 M4.3 7 Q4.3 7.2 4.5 7.6 4.4 7.5 4.6 7.7 4.7 7.8 4.8 8 4.7 8 4.5 7.7 4.5 7.8 4.7 8 4 8 4.3 7.8 4.3 7.8 4.2 7.8 4 7.9 4 7.9 4 8 3.9 8 4 7.8 3.9 7.4 L3.9 7.3 Q4 8 3.7 8.1 3.8 8 3.8 7.9 3.9 7.7 3.7 7.3 3.5 7 3.5 6.8 3.6 6.9 3.8 7.2 3.8 7 3.7 6.8 3.9 7.2 3.8 7 L3.9 7 3.8 6.8 Q4 6.9 4.3 7 M4.2 7.8 Q4.3 7.8 4.2 7.8"/><path fill="#ca8f00" stroke="none" d="M6.5 6.8 Q6.8 7 6.7 6.8 7 6.8 7 6.9 L6.8 6.9 Q6.8 7 6.8 7.1 L6.5 6.8 M4.2 6.8 Q4.2 6.8 4.3 7 4 6.9 3.8 6.8 L3.6 6.7 Q3.8 6.8 4.2 6.8 M4 8 Q4 8 4.2 7.8 L4.2 7.8 4.2 7.8 Q4.3 7.8 4.3 7.8 4 8 4.7 8 4.7 8 4.8 8.1 4.4 8.2 4 8 M4.2 7.8 Q4.3 7.8 4.2 7.8"/><path fill="#000000" stroke="none" d="M5 6.3 L5.6 6.3 Q5.7 6.3 5.7 6.4 L5.7 6.5 Q4.5 7.5 5.3 8.4 5.3 8.4 5.3 8.4 5.8 9 6.4 8.6 L6.4 8.7 Q6.2 8.8 6 8.8 5.8 8.8 5.7 8.8 5.5 8.7 5.2 8.3 4.7 7.7 5.2 6.8 5.2 6.7 5.3 6.6 5.4 6.5 5.6 6.3 L4.6 6.5 Q3.4 6.5 3.8 6.5 2.5 6.6 3 6.5 L2.9 6.5 2.9 6.5 4.5 6.4 4.5 6.4 5 6.3 M5 7.3 L5 7.3 Q5.2 6.8 5.7 6.5 L5.6 6.3 Q5.2 6.7 5 7.3 M6.4 8.8 Q6.3 8.9 6.2 8.9 6.3 8.8 6.4 8.8"/><path fill="#664928" stroke="none" d="M5 7.3 L5 7.3"/><path fill="#72522d" stroke="none" d="M4.6 6.5 L5.6 6.3 Q5.4 6.5 5.3 6.6 4.9 6.8 4.4 6.9 4.5 6.7 4.6 6.5 M5.7 8.8 Q5.8 8.8 6 8.8 L6 8.8 5.2 8.9 4.8 8.9 Q4.6 8.7 4.5 8.3 5.2 8.7 5.7 8.8"/><path fill="#865e35" stroke="none" d="M3 6.5 Q2.5 6.6 3.8 6.5 3.6 6.8 3.6 7 3.2 7 2.9 7 L2.9 6.8 Q2.9 6.7 3 6.5 M5.3 8.4 Q5.3 8.4 5.3 8.4 L5.3 8.4 M5 7.3 Q5.2 6.7 5.6 6.3 L5.7 6.5 Q5.2 6.8 5 7.3 M2.9 8 Q3.2 8 3.5 8.1 3.6 8.5 4 8.9 L3.1 8.9 Q2.9 8.6 2.9 8.4 L2.9 8"/><path fill="#4b361f" stroke="none" d="M3.8 6.5 Q3.4 6.5 4.6 6.5 4.5 6.7 4.4 6.9 3.9 7 3.6 7 3.6 6.8 3.8 6.5 M4 8.9 Q3.6 8.5 3.5 8.1 4 8.2 4.5 8.3 4.6 8.7 4.8 8.9 L4 8.9"/><path fill="#5b3f24" stroke="none" d="M2.9 6.5 L3 6.5 Q2.9 6.7 2.9 6.8 L2.9 6.5 M2.9 8.4 Q2.9 8.6 3.1 8.9 2.8 8.9 2.9 8.4"/><path fill="#ffffff" fill-opacity="0.2" d="M5.2 6.8 Q4.7 7.7 5.2 8.3 4.1 7.8 2.9 7.7 L2.9 7.2 Q4.3 7.3 5.2 6.8"/><path fill="#ffffff" fill-opacity="0.1" d="M5.3 6.6 Q5.2 6.7 5.2 6.8 4.3 7.3 2.9 7.2 L2.9 7 Q3.2 7 3.6 7 3.9 7 4.4 6.9 4.9 6.8 5.3 6.6 M5.2 8.3 Q5.5 8.7 5.7 8.8 5.2 8.7 4.5 8.3 4 8.2 3.5 8.1 3.2 8 2.9 8 L2.9 7.7 Q4.1 7.8 5.2 8.3 M6 8.8 L6 8.8 Q6.1 8.8 6 8.8"/><path fill="#000000" fill-opacity="0.2" d="M6 8.8 Q6.2 8.8 6.4 8.7 L6.4 8.8 Q6.3 8.8 6.2 8.9 L5.2 8.9 6 8.8 Q6.1 8.8 6 8.8"/><path fill="#000000" stroke="none" d="M6.2 2.2 Q6.2 2.2 6.1 2.3 5.9 2.4 6 2.1 6.2 1.8 6.2 2.2 M6.5 2.1 Q6.5 2.2 6.5 2.4 6.2 2.4 6.3 2.1 6.5 2 6.5 2.1"/><path fill="#ffffff" stroke="none" d="M6.5 2.2 Q6.4 2.2 6.4 2.1 6.5 2 6.5 2.2"/><path fill="#ffffff" stroke="none" d="M6.1 2.1 Q6.1 2.1 6 2.1 6 2 6.1 2 6.2 2 6.1 2.1"/><path fill="#000000" stroke="none" d="M4.5 6.6 Q4.5 6.5 4.5 6.3 L4.6 6.3 4.5 6.4 Q4.7 6.8 4.3 6.6 4.2 6.5 4.1 6.3 L4.2 6.3 Q4.4 6.8 4.5 6.6"/><path fill="#cd9a00" stroke="none" d="M4.5 6.6 Q4.5 6.5 4.4 6.3 L4.5 6.3 Q4.5 6.5 4.5 6.6"/><path fill="#ffcc00" stroke="none" d="M4.4 6.3 Q4.5 6.5 4.5 6.6 4.4 6.8 4.2 6.3 4.3 6.3 4.4 6.3"/></g><g id="c27"><path fill="#3e454f" stroke="none" d="M4.1 7.2 Q3.6 6.7 3.8 7.2 3.9 7.2 3.8 7.2 3.8 7.4 4 7.3 4.2 7.2 4.1 7.2 M4.2 7.2 Q4.2 7.3 4 7.3 3.7 7.4 3.8 7.2 3.8 7.2 3.8 7.2 3.6 7 3.7 6.9 4 6.8 4.2 7.2 M2.9 8 L2.9 8 Q3.3 8.3 3.2 8 3.1 7.7 3.5 7.8 3.5 7.8 3.4 7.3 3.1 6.7 3.8 7.4 4.1 7.8 4.2 7.7 4.3 7.3 5 8.6 5.3 9 5 8.2 5 8.1 5.2 8.2 5.4 8.5 5.5 8.3 5.5 8.2 5.6 8.3 6 9.4 5.9 8.1 5.8 7.5 6.1 8 6.2 8.2 6.2 7.6 6.2 7.3 6.3 7.6 6.3 7.8 6.4 7.7 7.3 5.8 7.2 7.7 7.2 7.8 7.2 7.6 7.5 7.4 7.5 7.7 7.3 8.2 7.5 8 8.6 6.8 8.2 7.5 8.1 7.8 8.2 7.8 8.3 7.8 8.2 8 7.7 8.6 8.3 8.2 8.7 8.1 8.5 8.3 8.1 8.9 8.2 8.9 L8.1 8.9 Q8 8.9 8.5 8.2 8.6 8.1 8.2 8.2 7.7 8.6 8.1 8.1 8.3 7.8 8.2 7.8 8 7.8 8.2 7.6 8.6 6.8 7.7 7.8 7.3 8.3 7.3 7.9 7.5 7.3 7.3 7.7 7 8 7.2 7.2 7.2 6.3 6.5 7.5 6.3 8 6.3 7.7 6.2 7.4 6.2 7.8 6.2 8.3 6 8 5.9 7.8 5.9 8.1 6 9.5 5.6 8.4 5.5 8.2 5.5 8.4 5.4 8.6 5.2 8.2 5 8.1 5.1 8.2 5.4 9 5 8.7 4.2 7.3 4.2 7.7 4.1 7.9 3.8 7.4 3.1 6.7 3.5 7.6 3.6 7.8 3.5 7.8 3.2 7.7 3.3 8 3.3 8.4 2.9 8 M4.8 7.7 Q4.7 7.8 4.9 8.2 5 8.2 5 8.1 5.2 7.5 4.8 7.7 M4.8 8 Q4.7 7.7 4.8 7.6 5.2 7.5 5 8.1 4.9 8.4 4.8 8 M2.9 7.7 Q3 8 3.1 7.8 3.2 7.3 2.9 7.2 L2.9 7.1 Q3.2 7.2 3.2 7.7 3.1 8.1 2.9 7.8 L2.9 7.7 M8.8 8.9 Q8.8 8.8 8.4 8.9 L8.2 8.9 Q8.8 8.8 8.8 8.9 L8.8 8.9"/><path fill="#ddddea" stroke="none" d="M4.1 7.2 Q4.2 7.2 4 7.3 3.8 7.4 3.8 7.2 3.9 7.2 3.8 7.2 3.6 6.7 4.1 7.2 M4 7.2 Q4.2 7 3.8 7.1 3.9 7.3 4 7.2 M2.9 8 Q3.3 8.4 3.3 8 3.2 7.7 3.5 7.8 3.6 7.8 3.5 7.6 3.1 6.7 3.8 7.4 4.1 7.9 4.2 7.7 4.2 7.3 5 8.7 5.4 9 5.1 8.2 5 8.1 5.2 8.2 5.4 8.6 5.5 8.4 5.5 8.2 5.6 8.4 6 9.5 5.9 8.1 5.9 7.8 6 8 6.2 8.3 6.2 7.8 6.2 7.4 6.3 7.7 6.3 8 6.5 7.5 7.2 6.3 7.2 7.2 7 8 7.3 7.7 7.5 7.3 7.3 7.9 7.3 8.3 7.7 7.8 8.6 6.8 8.2 7.6 8 7.8 8.2 7.8 8.3 7.8 8.1 8.1 7.7 8.6 8.2 8.2 8.6 8.1 8.5 8.2 8 8.9 8.1 8.9 L7.8 8.9 Q8.2 8.4 7.7 8.8 7.5 8.9 7.7 8.5 8.2 7.6 7.5 8.4 6.9 8.9 7.2 8.3 7.4 7.7 7 8.1 6.5 8.6 6.8 7.8 7 7.2 6.9 7.2 6.7 7.2 6.7 7.6 6.7 8 6.5 8 6.3 8.1 6.3 8.5 6.4 8.6 6.2 8.6 6.2 8.5 6 8.9 L5.4 8.9 Q5.3 8.5 5.2 8.9 L4.8 8.9 Q4.7 8 4.4 8.2 4.3 8.2 3.8 7.8 3.6 7.7 3.9 8.3 3.5 8.1 3.6 8.3 4 8.9 3.9 8.9 3.2 8.2 3.5 8.9 L2.9 8.9 2.9 8.8 2.9 8 M4.8 7.7 Q5.2 7.5 5 8.1 5 8.2 4.9 8.2 4.7 7.8 4.8 7.7 M4.9 7.8 Q4.8 7.8 4.8 8.1 5 8.2 5 7.9 5 7.8 4.9 7.8 M2.9 7.2 Q3.2 7.3 3.1 7.8 3 8 2.9 7.7 L2.9 7.7 Q3.1 7.9 3.1 7.5 3 7.2 2.9 7.3 L2.9 7.2 M8.4 8.9 Q8.8 8.8 8.8 8.9 L8.4 8.9"/><path fill="#8aa0c4" stroke="none" d="M4 7.2 Q3.9 7.3 3.8 7.1 4.2 7 4 7.2 M7.8 8.9 L6 8.9 Q6.2 8.5 6.2 8.6 6.4 8.6 6.3 8.5 6.3 8.1 6.5 8 6.7 8 6.7 7.6 6.7 7.2 6.9 7.2 7 7.2 6.8 7.8 6.5 8.6 7 8.1 7.4 7.7 7.2 8.3 6.9 8.9 7.5 8.4 8.2 7.6 7.7 8.5 7.5 8.9 7.7 8.8 8.2 8.4 7.8 8.9 M5.4 8.9 L5.2 8.9 Q5.3 8.5 5.4 8.9 M4.8 8.9 L3.9 8.9 3.5 8.9 Q3.2 8.2 3.9 8.9 4 8.9 3.6 8.3 3.5 8.1 3.9 8.3 3.6 7.7 3.8 7.8 4.3 8.2 4.4 8.2 4.7 8 4.8 8.9 M2.9 8.9 Q2.9 8.9 2.9 8.8 L2.9 8.9 M4.9 7.8 Q5 7.8 5 7.9 5 8.2 4.8 8.1 4.8 7.8 4.9 7.8 M2.9 7.3 Q3 7.2 3.1 7.5 3.1 7.9 2.9 7.7 L2.9 7.3"/><path fill="none" stroke="#3e454f" stroke-width="0.5" d="M4.2 7.2 Q4 6.8 3.7 6.9 3.6 7 3.8 7.2 3.8 7.2 3.8 7.2 3.7 7.4 4 7.3 4.2 7.3 4.2 7.2 M2.9 8 Q3.3 8.4 3.3 8 3.2 7.7 3.5 7.8 3.6 7.8 3.5 7.6 3.1 6.7 3.8 7.4 4.1 7.9 4.2 7.7 4.2 7.3 5 8.7 5.4 9 5.1 8.2 5 8.1 5.2 8.2 5.4 8.6 5.5 8.4 5.5 8.2 5.6 8.4 6 9.5 5.9 8.1 5.9 7.8 6 8 6.2 8.3 6.2 7.8 6.2 7.4 6.3 7.7 6.3 8 6.5 7.5 7.2 6.3 7.2 7.2 7 8 7.3 7.7 7.5 7.3 7.3 7.9 7.3 8.3 7.7 7.8 8.6 6.8 8.2 7.6 8 7.8 8.2 7.8 8.3 7.8 8.1 8.1 7.7 8.6 8.2 8.2 8.6 8.1 8.5 8.2 8 8.9 8.1 8.9 M4.8 8 Q4.9 8.4 5 8.1 5.2 7.5 4.8 7.6 4.7 7.7 4.8 8 M2.9 7.8 Q3.1 8.1 3.2 7.7 3.2 7.2 2.9 7.1 M8.4 8.9 Q8.8 8.8 8.8 8.9"/></g></defs></svg>