<?xml version='1.0' encoding='UTF-8'?>
<svg xmlns="http://www.w3.org/2000/svg" xmlns:xlink="http://www.w3.org/1999/xlink"><defs><g id="c1"><path fill="#a69a99" stroke="none" d="M-60.4 -87.3 L0.7 -87.3 0.7 -36.7 Q-31.8 -59.8 -60.4 -87.3 M-159.8 16.2 Q-153.3 24.1 -146.2 31.1 L-147.8 35.9 Q-150.6 44.5 -153.5 51.8 -153.5 52.4 -150.5 54.9 L-150.5 55.2 -150.5 55.4 Q-150.4 57.4 -149 64.5 -149 65.6 -151 71.2 -153 76.7 -153 79.2 -153 80.8 -152.5 82.3 -151.8 84.7 -149.6 86.8 L-151.3 89 -157.4 97.1 -158.2 98.3 Q-160.3 90.5 -161.3 80.2 -162.5 67.2 -162.5 44 -162.5 29.9 -159.8 16.2"/><path fill="#000000" stroke="none" d="M0.7 18.8 L0.7 23.2 -50 24.8 Q-69.5 26.4 -77 29.5 -81.4 31.4 -86 36.2 L-86.2 36.5 Q-89.7 40.2 -93.5 42.9 L-97.2 45.2 Q-102.7 48.2 -108.5 52.8 L-108.6 52.9 -110.3 54.3 -112 55.6 -113.7 57.1 -115.6 58.9 -131.7 73.8 Q-136.8 78 -141.4 82.8 L-141.8 83.2 -147.1 89 -148.5 90.8 Q-152.8 96 -156.7 101.9 L-156.9 102.2 -157 102.4 Q-160.5 107.8 -165.4 116.9 L-169.5 116.9 -169.5 115.8 Q-165.6 108.5 -158.2 98.3 L-157.4 97.1 -151.3 89 -149.6 86.8 -145.4 81.7 -145.2 81.5 -144.9 81.1 Q-138.3 73.4 -133.9 70.3 -127.2 65.6 -117.8 57.5 L-115.7 55.8 -114.2 54.5 -110.6 51.4 -107.2 48.5 -98.8 40.8 -96.2 38.5 Q-90.9 34 -85.2 30.6 -71.7 22.6 -55.8 20.8 L-51.5 20.4 -34 19.9 -10.5 19 0.7 18.8"/><path fill="#e3dcb3" stroke="none" d="M0.7 23.2 L0.7 116.9 -165.4 116.9 Q-160.5 107.8 -157 102.4 L-156.9 102.2 -156.7 101.9 Q-152.8 96 -148.5 90.8 L-146.2 91 Q-140.3 91 -134 89.5 L-134 89.4 -133.6 89.5 Q-131.2 89.7 -129.8 91 L-129.1 92.2 -127.5 94.5 Q-124.3 99.5 -116.2 99.5 -101 99.5 -85.5 95.5 -65.5 90.3 -65.5 81.8 -65.5 79.8 -67.5 78 -69.6 76 -70 73.5 -66.2 72.4 -46.5 69.1 -28.5 65.2 -28.5 59.5 -28.5 52.7 -37.5 50 -44.2 48 -57.5 48 L-64.8 48.1 Q-90.2 49 -112 55.6 L-110.3 54.3 -108.6 52.9 -108.5 52.8 Q-102.7 48.2 -97.2 45.2 L-93.5 42.9 Q-89.7 40.2 -86.2 36.5 L-86 36.2 Q-81.4 31.4 -77 29.5 -69.5 26.4 -50 24.8 L0.7 23.2"/><path fill="#920000" stroke="none" d="M-60.4 -87.3 Q-31.8 -59.8 0.7 -36.7 L0.7 18.8 -10.5 19 -34 19.9 -51.5 20.4 Q-52.5 17.8 -54 15.2 -57.5 8.8 -67 -2.5 -74.9 -11.8 -78.7 -17.9 L-78 -25.4 Q-79.1 -30.9 -82.2 -37 -83.9 -40.5 -86 -43.6 L-86 -43.8 Q-86 -46.3 -84.5 -49.8 -83 -53.2 -83 -55.2 -83 -59.5 -90.2 -59.5 -95 -57.3 -96.7 -55.7 -98.9 -53.7 -99.6 -50.4 -100 -48.8 -100 -46.8 L-98.8 -38.1 Q-97.5 -29.9 -97.5 -27.5 -97.5 -22.2 -98.5 -13.8 L-99.5 -6.8 Q-101 3.5 -101.4 10.9 L-101.5 15.2 Q-101.5 22.8 -98.6 32.2 -97.5 35.9 -96.2 38.5 L-98.8 40.8 -107.2 48.5 -110.6 51.4 -112.5 32 -113.5 26.1 Q-114.8 20 -117.6 12.2 L-116.2 9.4 Q-112 1.4 -112 -1.5 -112 -2.1 -115.2 -5.4 L-121 -11.5 Q-121.7 -12.3 -124.8 -14.3 L-125 -17.8 Q-124.5 -29.6 -125.5 -34.2 -126.2 -37 -127.5 -37 -128.2 -37 -130.5 -34 L-131.3 -33 Q-128.3 -38.5 -125.4 -40.2 L-125.5 -40.4 Q-126.5 -43.6 -129.8 -44 -132.2 -42.9 -134.2 -40.8 -138.6 -36.4 -138.5 -31 -138.5 -27.8 -142.2 -18.1 -146 -8.4 -146 -7.2 -146 -6.7 -144 -2.6 -142 1.4 -142 4.5 -142 16.7 -146.2 31.1 -153.3 24.1 -159.8 16.2 -156.9 0.8 -150.6 -14 -138.8 -41.7 -117 -63 -102.4 -77.2 -84.6 -87.3 L-60.4 -87.3"/><path fill="#7e0000" stroke="none" d="M-169.5 -0.8 L-169.5 -78.3 Q-163.2 -83.5 -156.5 -87.3 L-108 -87.3 Q-146.8 -57.8 -169.5 -0.8 M-98.5 -13.8 Q-97.5 -22.2 -97.5 -27.5 -97.5 -29.9 -98.8 -38.1 L-100 -46.8 Q-100 -48.8 -99.6 -50.4 -98.9 -53.7 -96.7 -55.7 -95 -57.3 -90.2 -59.5 -83 -59.5 -83 -55.2 -83 -53.2 -84.5 -49.8 -86 -46.3 -86 -43.8 L-86 -43.6 Q-83.9 -40.5 -82.2 -37 -79.1 -30.9 -78 -25.4 L-78.7 -17.9 -80 -20.3 Q-86 -31.2 -86 -43.6 -88 -46.8 -90.5 -49.4 L-91.5 -49.5 Q-96.5 -49.5 -96.5 -39.5 -96.5 -36.1 -95.8 -32.6 -95 -29.2 -95 -27.5 -95 -25.4 -98.5 -13.8 M-146.2 31.1 Q-142 16.7 -142 4.5 -142 1.4 -144 -2.6 -146 -6.7 -146 -7.2 -146 -8.4 -142.2 -18.1 -138.5 -27.8 -138.5 -31 -138.6 -36.4 -134.2 -40.8 -132.2 -42.9 -129.8 -44 -126.5 -43.6 -125.5 -40.4 L-125.4 -40.2 Q-128.3 -38.5 -131.3 -33 -133.6 -28.7 -135.9 -22.1 -140.5 -8.9 -140.5 -4 -140.5 -2.2 -139.8 2.2 -139 6.8 -139 8.8 -139 16.6 -144.5 32.8 L-146.2 31.1 M-125.5 -34.2 Q-124.5 -29.6 -125 -17.8 L-124.8 -14.3 Q-121.7 -12.3 -121 -11.5 L-115.2 -5.4 Q-112 -2.1 -112 -1.5 -112 1.4 -116.2 9.4 L-117.6 12.2 Q-114.8 20 -113.5 26.1 L-117.7 24.9 Q-120.5 23.6 -120.5 21 -120.5 18.1 -117.6 12.2 L-119.7 6.5 Q-124.2 -5.2 -124.8 -14.3 L-127.2 -15.8 Q-130.5 -17.8 -130.5 -21.5 -130.5 -25.4 -127.8 -29.8 -126.2 -32.2 -125.5 -34.2"/><path fill="#6a0000" stroke="none" d="M-78.7 -17.9 Q-74.9 -11.8 -67 -2.5 -57.5 8.8 -54 15.2 -52.5 17.8 -51.5 20.4 L-55.8 20.8 Q-71.7 22.6 -85.2 30.6 -90.9 34 -96.2 38.5 -97.5 35.9 -98.6 32.2 -101.5 22.8 -101.5 15.2 L-101.4 10.9 Q-101 3.5 -99.5 -6.8 L-98.5 -13.8 Q-95 -25.4 -95 -27.5 -95 -29.2 -95.8 -32.6 -96.5 -36.1 -96.5 -39.5 -96.5 -49.5 -91.5 -49.5 L-90.5 -49.4 Q-88 -46.8 -86 -43.6 -86 -31.2 -80 -20.3 L-78.7 -17.9 M-131.3 -33 L-130.5 -34 Q-128.2 -37 -127.5 -37 -126.2 -37 -125.5 -34.2 -126.2 -32.2 -127.8 -29.8 -130.5 -25.4 -130.5 -21.5 -130.5 -17.8 -127.2 -15.8 L-124.8 -14.3 Q-124.2 -5.2 -119.7 6.5 L-117.6 12.2 Q-120.5 18.1 -120.5 21 -120.5 23.6 -117.7 24.9 L-113.5 26.1 -112.5 32 -110.6 51.4 -114.2 54.5 -115.7 55.8 Q-129.7 46.9 -142.4 34.8 L-144.5 32.8 Q-139 16.6 -139 8.8 -139 6.8 -139.8 2.2 -140.5 -2.2 -140.5 -4 -140.5 -8.9 -135.9 -22.1 -133.6 -28.7 -131.3 -33"/><path fill="#bbb48b" stroke="none" d="M-112 55.6 Q-90.2 49 -64.8 48.1 -39.1 49.2 -33.5 60 -36 60.7 -47.1 66.1 -56.1 70.5 -61.2 70.5 -63.2 70.5 -66.8 69.5 -70.2 68.5 -72.2 68.5 -77.8 68.5 -80 70 -79.5 70 -79.5 70.5 -77.8 71.2 -75.5 73.2 -72 76.2 -72 79 -72 86.2 -88 91 -101.3 95 -114.2 95 -124.8 95 -126.5 94 L-129.1 92.2 -129.8 91 Q-131.2 89.7 -133.6 89.5 L-134 89.4 -137.5 89.5 Q-137.6 87.5 -139.4 85.2 L-141.4 82.8 Q-136.8 78 -131.7 73.8 L-115.6 58.9 -113.7 57.1 -112 55.6"/><path fill="#cfc89f" stroke="none" d="M-64.8 48.1 L-57.5 48 Q-44.2 48 -37.5 50 -28.5 52.7 -28.5 59.5 -28.5 65.2 -46.5 69.1 -66.2 72.4 -70 73.5 -69.6 76 -67.5 78 -65.5 79.8 -65.5 81.8 -65.5 90.3 -85.5 95.5 -101 99.5 -116.2 99.5 -124.3 99.5 -127.5 94.5 L-129.1 92.2 -126.5 94 Q-124.8 95 -114.2 95 -101.3 95 -88 91 -72 86.2 -72 79 -72 76.2 -75.5 73.2 -77.8 71.2 -79.5 70.5 -79.5 70 -80 70 -77.8 68.5 -72.2 68.5 -70.2 68.5 -66.8 69.5 -63.2 70.5 -61.2 70.5 -56.1 70.5 -47.1 66.1 -36 60.7 -33.5 60 -39.1 49.2 -64.8 48.1 M-134 89.4 L-134 89.5 Q-140.3 91 -146.2 91 L-148.5 90.8 -147.1 89 -141.8 83.2 -141.4 82.8 -139.4 85.2 Q-137.6 87.5 -137.5 89.5 L-134 89.4"/><path fill="#880000" stroke="none" d="M-169.5 3.7 L-169.5 -0.8 Q-146.8 -57.8 -108 -87.3 L-84.6 -87.3 Q-102.4 -77.2 -117 -63 -138.8 -41.7 -150.6 -14 -156.9 0.8 -159.8 16.2 -164.8 10.2 -169.5 3.7"/><path fill="#740000" stroke="none" d="M-169.5 -78.3 L-169.5 -87.3 -156.5 -87.3 Q-163.2 -83.5 -169.5 -78.3"/><path fill="#887c7b" stroke="none" d="M-144.5 32.8 L-142.4 34.8 Q-129.7 46.9 -115.7 55.8 L-117.8 57.5 Q-127.2 65.6 -133.9 70.3 -138.3 73.4 -144.9 81.1 L-145.2 81.5 -145.4 81.7 -145.7 81.5 -146.3 81.2 Q-150 79.4 -150 78.8 L-149.9 77.5 Q-149.7 74.1 -148.2 70 -146.5 65 -146.5 62 -146.5 58.2 -150 55.3 L-150.3 55 -150.5 54.9 Q-150.3 49.5 -144.8 33.4 L-144.5 32.8"/><path fill="#928685" stroke="none" d="M-150.5 54.9 Q-153.5 52.4 -153.5 51.8 -150.6 44.5 -147.8 35.9 L-146.2 31.1 -144.5 32.8 -144.8 33.4 Q-150.3 49.5 -150.5 54.9 L-150.3 55 -150 55.3 Q-146.5 58.2 -146.5 62 -146.5 65 -148.2 70 -149.7 74.1 -149.9 77.5 L-150 78.8 Q-150 79.4 -146.3 81.2 L-145.7 81.5 -145.4 81.7 -149.6 86.8 Q-151.8 84.7 -152.5 82.3 -153 80.8 -153 79.2 -153 76.7 -151 71.2 -149 65.6 -149 64.5 -150.4 57.4 -150.5 55.4 L-150.5 55.2 -150.5 54.9"/><path fill="#9c908f" stroke="none" d="M-169.5 115.8 L-169.5 3.7 Q-164.8 10.2 -159.8 16.2 -162.5 29.9 -162.5 44 -162.5 67.2 -161.3 80.2 -160.3 90.5 -158.2 98.3 -165.6 108.5 -169.5 115.8"/></g><g id="c2"><path fill="#000000" stroke="none" d="M23.4 -79.4 L24.8 -75.2 25.9 -72.3 Q27.1 -69.6 26.2 -67.5 L20.8 -63.7 Q22 -57.2 22.1 -50.6 22.2 -47.6 22.9 -46 L26.7 -45.6 28.4 -45 Q35.2 -41.4 38.4 -35 45.8 -19.7 49 -3.1 L54.6 -2.9 Q55.3 -2.4 55.5 -1.4 56.2 4.7 55.5 10.7 55.2 13.6 52.1 14.9 53.5 30.4 48.3 45 L47.5 46.2 Q44.4 49.2 40.4 51 28.9 56.3 16.5 55.1 L16.6 58.8 Q16.7 62.2 15.5 65.4 L13.4 67.2 Q13.2 68.6 12.5 69.5 6.8 77.2 -2.4 79.8 -17.7 84.4 -33.3 81.2 -38 80 -38.9 75.7 L-41.5 74.5 Q-43.4 73.8 -44.2 71.6 -47 64.2 -48.6 56.4 -49.5 52.4 -49 48.1 -52.9 47 -54.1 43.9 L-55.4 40.5 Q-56.5 37 -55 33.9 L-55 33.3 Q-54.5 32.3 -53.5 31.5 -51.1 29.9 -48.4 29.1 -48.8 14.2 -44.6 -0.1 -41.2 -12.2 -32.4 -20.5 L-33.8 -31.8 Q-34.4 -36.5 -35.4 -40.3 L-37 -40.5 Q-40.9 -41.2 -44.4 -43 L-41.1 -52.1 -41.5 -52.8 -40.6 -53.8 -38.6 -55.6 -37.9 -56.5 Q-39.5 -60.2 -35.9 -61.4 -33 -62.1 -31.7 -60 L-31.4 -60 Q-30.2 -59.8 -29.4 -59.1 -28.4 -58.4 -27.7 -57.4 L-27.1 -57.2 Q-23.9 -51.6 -23.6 -45.4 L-29.1 -40.8 -26.6 -23 -24.6 -23.2 -20.2 -23.1 -17.4 -21.9 Q-9.8 -17.8 -5.5 -9.9 -6.1 -22.1 0.7 -32.2 L4.4 -37.3 Q8.7 -43 15.2 -45.1 L13.7 -63.1 8.3 -65.7 8.1 -66.3 8.3 -66.8 7.7 -77.8 10.3 -80.2 12.5 -81.6 Q17.2 -83.3 21.8 -80.2 L23.4 -79.4 M22.8 -75.5 L21.6 -78.2 Q17.6 -80.4 13.4 -80.5 L14.1 -77.1 14.3 -71 16 -71 24.2 -69.5 24.3 -69.9 23.6 -73.5 22.8 -75.5 M11.8 -79.2 L9 -77.1 Q10 -72.8 9.8 -68.2 L12.6 -70.6 13.2 -70.9 12 -79.2 12 -79.2 11.8 -79.2 M20.1 -68.2 L19.5 -68.4 20 -68 20.8 -66.8 20.4 -65.1 23.4 -67.5 20.1 -68.2 M14.7 -69.5 L14.3 -69.2 Q12.9 -67.7 11.2 -66.7 L12.6 -65.5 13.6 -64.9 13.2 -66.6 Q13.9 -68.8 16.5 -69.1 L14.7 -69.5 M19.4 -63.2 L19.2 -66 18.8 -66.5 14.8 -66.5 15.5 -64.5 17.1 -42.2 17.2 -42 Q18.6 -41 20.1 -41.7 L20.1 -41.8 21.4 -43.1 21.3 -43.6 Q19.7 -53.5 19.4 -63.2 M42.2 4 Q42.2 4.6 42 4.3 41 3.1 40.8 1.5 39.4 -8.9 36.5 -19 L35.3 -23.4 Q32.2 -34.8 22.6 -41.4 L20.4 -40 19.1 -39.8 Q17.8 -39.8 16.8 -40.5 L15.6 -41.5 15.2 -42.4 15.3 -43.5 10.8 -40.4 Q-1 -31.2 -3.4 -16.4 L-3.8 -14.1 -4.2 -7.8 -0.5 0.3 Q-1.1 -6.8 3.7 -12.3 L6.3 -14.2 Q3.5 -17.2 5 -21.1 7.8 -28.1 15.3 -28.6 18.1 -28.8 20.4 -27 25.7 -23 23.9 -16.6 23.4 -13.4 20.4 -12.2 L19.6 -11.8 Q24.6 -7.3 22.9 -0.6 L21.9 2.5 Q21.2 4 19.7 5.4 16.6 8.7 12.4 8.7 7.5 8.7 3.4 5.9 L1.1 4.2 4 10.7 15.2 11.7 25.4 10.8 Q32.9 9.6 39.4 6.6 L42.5 5.1 47.9 1.8 46.8 -4.2 46.2 -7.2 Q43.4 -21.9 36 -34.7 L36.4 -34.5 36.2 -34.9 Q31.6 -41.6 26.1 -43.5 L22.9 -44.3 23.2 -42.4 Q29.4 -40.2 32.4 -34.2 L36.1 -25.9 Q41.9 -11.4 42.2 4 M30 -24.8 L30.6 -25.7 Q32.9 -25.6 32.1 -23.1 L31.5 -23.1 Q30.9 -23.1 30.4 -23.6 30 -24.1 30 -24.8 M22.2 -35.8 Q22.2 -36.8 23.2 -36.8 24.2 -36.8 24.2 -35.8 24.2 -34.9 23.2 -34.9 22.2 -34.9 22.2 -35.8 M27.5 -32.8 Q28.6 -32.8 28.5 -31.6 28.5 -30.2 27.5 -30.2 26.9 -30.2 26.5 -31 L26.2 -31.9 Q26.2 -32.8 27.5 -32.8 M13.2 -22.9 L15 -22.7 Q17.4 -22.4 18.2 -20.3 L18.6 -18.2 Q18.7 -16.8 17.9 -15.8 16.1 -13.6 13 -14.5 11.3 -14.9 10.8 -16.4 9.2 -21.1 13.2 -22.9 M13.1 -21 Q12.1 -20.2 11.7 -19 11.2 -17.4 12.6 -16.6 15.6 -14.8 16.9 -17.6 L17 -18.3 Q17 -21.2 13.8 -21.2 L13.1 -21 M8.8 -13.1 L7.7 -13.2 Q3.4 -10.1 1.6 -5.3 0.8 -3.4 1.4 -1.2 2.5 4.2 7.8 6 12.6 7.7 16.8 5.2 21.5 2.3 21.4 -3.4 21.2 -8.1 17.6 -11.1 L16.8 -11.6 16.8 -11.8 18.6 -12.8 Q22.4 -15.2 22.4 -19.9 22.2 -26.4 15.3 -26.9 8.9 -26.4 6.2 -20.5 5.2 -18.3 6.8 -16.4 8.6 -14.6 8.8 -13.1 M9.4 -8.8 Q6.8 -7.8 6.5 -4 6 1.9 11.3 1.9 15.1 1.9 16.8 -1.6 17.6 -3.2 17.6 -5 L17.6 -5.7 Q17.2 -8.7 13.2 -9 L9.4 -8.8 M17.5 -9.3 Q20.8 -5 17.8 -0.1 L16.5 1.4 Q12.2 5.3 7.1 2.4 L5.5 0.9 Q3.5 -2.5 5.7 -6.3 8.8 -11.8 15.1 -10.8 16.6 -10.4 17.5 -9.3 M34.2 -15.4 Q33.7 -15.4 33.5 -16.1 L33.2 -16.8 Q33.2 -18.1 34.4 -18.1 35.5 -18.1 35.5 -16.9 35.5 -16.1 34.2 -15.4 M37.1 -8.6 Q37.1 -7.5 36 -6.7 35.1 -7 35.1 -8.2 35.1 -9.8 36.2 -9.8 37.3 -9.8 37.1 -8.6 M53.9 0.2 L53.7 -1.3 49.2 -1.6 49.5 2.4 Q46.5 5.2 42.8 7 36.5 10.4 29.4 11.9 17.1 14.8 4.8 12.7 L6 16.6 8.2 16.4 11.6 16.2 Q15 15.6 16.6 18.1 17.8 20.1 18.6 24.9 20.3 24.9 28.2 22.6 L36.5 20.2 40.1 19.2 Q45.1 17.2 47.9 15.8 L48.1 15.7 51.3 13.4 Q53.1 12 54.5 10.1 L53.9 0.2 M27.4 17.6 L27.5 16.9 Q29.4 15.2 31.6 14.3 36.5 12.8 41 10.8 47.8 8.2 52 2.6 L52.2 3.2 Q52.2 5 48.4 7.8 L47.3 8.5 Q38 14.4 27.4 17.6 M29.9 43.5 Q29.9 44.3 28.5 45.1 L28.1 45 27.9 44.6 Q27 43.6 27.8 42.5 L29.6 42.5 29.9 43.5 M45.5 46.1 L48.6 36.1 48.9 34.9 Q50.6 25.4 51.2 15.5 L48.2 17.4 40.9 20.9 36.7 22.2 21.9 26.9 Q23.6 31.6 24.2 52.7 L24.3 53 28.6 52.2 Q37.6 51 45.5 46.1 M38 2.6 Q37.2 2.6 37 2 L37 1.4 Q37 -0.1 38 -0.1 39 -0.1 38.9 1.4 38.9 2.6 38 2.6 M11.6 33.9 L16.8 28.1 Q16.5 22.5 14.6 17.4 L6.2 17.8 6.5 19.9 7.2 20.2 7.2 20.6 Q6.8 24.6 3 26.6 -16.1 39.1 -39 36.9 -43.6 36.7 -46.8 33.9 L-47.6 33.6 -48 32.8 -48.4 30.6 -48.4 30.1 -48.6 30.2 -54.6 34 -54.6 34.4 Q-54.7 39.5 -52.8 44.2 L-49.9 46.1 -48 46.9 Q-39.7 50 -30.8 50.1 L-22.6 49.2 -9.2 46.4 -4.9 45.1 Q3.9 42.5 10 35.5 L11.4 34.1 11.6 33.9 M13.4 20.4 L13.3 19.4 14.1 19.2 14.3 19.6 Q14.7 19.4 14.3 19.8 L14.3 20.7 Q13.4 23.6 11.4 26.1 10.3 28.1 8.9 28.6 L10.2 26.6 11.2 25.4 Q12.9 23.6 13.2 21.4 L13.4 20.4 M2.9 23.6 Q4.5 22.7 4.9 21.2 1.9 11.3 -2.1 1.8 -6 -7.7 -12.2 -15.7 -17.8 -22.9 -26.4 -21.3 L-26.4 -19.9 -26.6 -18.8 Q-23 -18.3 -16.6 -12.2 -11.8 -7.5 -9.2 -4 -4.3 2.6 -2.9 11.7 L-3.2 12.2 Q-4.6 9.8 -5.5 7.2 -6.8 3.6 -8.7 0.2 -14.8 -11.4 -26.8 -17.8 L-27.8 -16.2 -32.2 -16.3 -32.4 -17.5 -32.4 -17.7 -32.5 -17.7 -36.7 -12.5 Q-40.1 -8.2 -41.8 -3.1 -45 7 -46.1 17.6 -46.9 25.1 -46.4 32.6 L-43 34 -40.2 35 -35.8 35.6 -23.9 34.8 Q-17.6 34 -12.3 32.1 -7.2 30.4 -2.9 27.8 -0.1 26.1 2 24.4 L2.9 23.6 M20 27.4 L18.5 26.9 Q18.4 27.4 18.4 27.9 18.4 28.9 17.9 29.6 16.6 32.1 14.3 33.9 16.6 43.4 16.5 53.3 L16.9 53.3 Q19.9 54 22.7 53.2 21.9 49.4 22.2 45.4 22.7 36.1 20 27.4 M9.8 38.6 Q7.8 41.1 5.2 42.5 -13.5 52.3 -34.5 51.5 L-32.8 58.8 -30.6 73.2 -30.2 76.3 Q-26.9 76.8 -18.2 76.5 L-12.3 76 -10.1 75.7 Q1.4 73.5 11.6 67.2 L14.6 64.7 15 54.6 14.6 54.1 15 53.5 13.3 34.7 9.8 38.6 M-30.8 58.3 Q-30.7 57.5 -29.8 57.5 -29.2 57.5 -28.9 58 L-28.9 58.5 Q-28.8 59.5 -29.8 59.9 L-30.8 58.3 M-3.3 37.1 Q-5.8 38.4 -9.5 39.7 L-14.2 41.1 -16.1 41.6 Q-31.6 44.5 -47.2 41.6 L-48.5 41 -49.5 40.5 -50.5 39.6 -50.5 38.9 -50 38.9 -41.8 41 -40 41.2 Q-19.6 43 -0.8 35.1 L-0.7 35.5 Q-1.6 36.3 -3.3 37.1 M26.1 27.9 Q26.1 26.4 27.5 26.4 28.6 26.4 28.5 27.5 L28.2 28.7 Q27.9 29.1 27.2 29.1 26.5 29.1 26.2 28.5 L26.1 27.9 M27.4 30.1 L27.6 30.1 Q28.8 30.1 28.8 31.1 28.8 32.2 27.6 32.2 L27.6 32.2 27.2 32.2 26.5 31.7 26.4 31.1 Q26.4 30.1 27.4 30.1 M27.4 36.2 L28 36 Q29.1 36 29.1 37.2 29.1 38.8 27.8 38.8 L27.5 38.8 27.2 38.5 Q26.4 37.3 27.4 36.2 M30.1 50.2 Q30.1 51.5 28.5 51.5 27.4 51.5 27.4 50 27.4 49 28.9 49 30.2 49 30.1 50.2 M-33.6 -59.4 L-35.1 -59.9 Q-35.9 -59.9 -36.2 -59.4 -37 -58.4 -36.2 -57.2 -34.5 -58 -33.6 -59.4 M-31.5 -54 L-31.9 -58.1 -40 -52.3 -41.4 -48.1 -42.9 -44.3 -30.4 -48.5 -31.5 -54 M-28 -55.9 L-30.4 -57.9 -28.8 -48.4 -25.4 -47.2 -28 -55.9 M-35.4 -42.2 Q-34.6 -44.2 -32.6 -45 -31.1 -45.5 -29.9 -44.6 -28.9 -43.8 -29.4 -42.5 L-26.4 -45 -30 -46.9 -30.9 -46.6 Q-36.2 -45.4 -41.5 -43.1 L-35.5 -41.9 -35.4 -41.8 -35.4 -42.2 M-30.5 -40.2 Q-30.2 -42 -31.2 -43.2 L-31.4 -43.4 Q-34.6 -42.8 -33.8 -39.6 -31.4 -28.6 -30.4 -17.1 -29.3 -16.8 -28.6 -17.7 L-28.3 -18.4 -28.2 -19.3 Q-29.1 -29.9 -30.5 -40.1 L-30.5 -40.2 M-26.6 -14.8 Q-26.4 -15.3 -25.6 -15.3 -24.4 -15.3 -24.5 -14.3 -24.5 -13.6 -25.4 -13.4 L-26.6 -13.8 -26.6 -14.8 M-39.4 1.6 L-38 -2.8 -35.4 -3.5 -35.1 -3.5 -31.8 -4 -26.9 -4.4 -21.2 -4.5 Q-20.2 -4.5 -20.4 -3.1 -20.4 -1.4 -22.6 4.8 -26 12.7 -28.2 20.9 L-28.8 21.8 Q-31.1 23.4 -34.2 23 L-37.4 22.6 -38.1 22.1 -38.2 21.6 Q-38.2 20.4 -35.1 13.6 L-33.4 10 -33.4 9.9 -30.4 3.8 -37.1 4.5 -38.3 4.7 -38.5 5 Q-39 5.4 -39.4 4.9 L-39.4 1.6 M-36.4 -1.6 L-37.2 -1.4 -38 3.4 -36.5 2.8 Q-32.2 1.2 -28 2.2 -27.9 3.6 -28.6 4.9 -33.1 12.7 -35.8 21.1 L-30.5 20.6 -22.6 -2.3 -36.4 -1.6 M-15.2 -4.7 L-15.5 -5.3 Q-15.5 -6.3 -14.5 -6.3 -13.4 -6.3 -13.2 -5.2 -13.2 -4 -14.2 -4 -14.9 -4 -15.2 -4.7 M-18.5 -9.8 Q-17.4 -9.8 -17.4 -8.8 -17.4 -7.9 -18.2 -7.9 -19.4 -7.9 -19.4 -8.8 -19.4 -9.8 -18.5 -9.8 M-21.1 -12.1 Q-21.1 -11.4 -21.2 -11.6 -21.4 -11.2 -22 -11.2 -22.4 -11.2 -22.9 -11.6 L-22.9 -12.1 Q-22.9 -12.9 -22 -12.9 -21.1 -12.9 -21.1 -12.1 M-2.2 22.1 Q-3.1 22.1 -3.1 21.1 -3.1 20.2 -2.2 20.2 -1.4 20.2 -1.4 21.1 L-1.5 21.8 -2.2 22.1 M-2.8 14.6 Q-2.8 15.7 -3.9 15.7 -4.5 15.7 -4.9 15.2 L-5.1 14.6 Q-5.1 13.7 -3.9 13.7 -2.8 13.7 -2.8 14.6 M-10.5 2.6 Q-11.7 2.6 -11.7 1.6 -11.7 0.7 -10.5 0.7 -9.3 0.7 -9.3 1.7 -9.3 2.6 -10.5 2.6 M-8.5 7.2 Q-8.5 6.5 -7.5 6.5 -6.5 6.5 -6.2 7.7 -6.2 8.7 -7.2 8.7 -8.1 8.7 -8.3 8 L-8.5 7.2 M-53.2 36.2 Q-54.4 36.2 -54.4 34.5 L-53.9 34.4 Q-53.6 34.4 -52.5 35.9 -52.5 36.2 -53.2 36.2 M-43 71.7 L-42.4 71.9 -36.4 75 -32.3 76 -32.6 74 -34.4 59.1 -35.1 51.4 Q-42 51.1 -48.2 48.5 L-47.8 50.5 Q-46.4 61.1 -43.1 71.2 L-43.1 71.7 -43.1 71.8 -43 71.7 M-22.6 50.2 Q-19.8 50.1 -22.4 50.1 L-22.6 50.2 M-29 54.5 Q-29 55.5 -30.1 55.5 -31.1 55.5 -31.2 54.9 L-31.2 54.2 Q-31.2 52.4 -30.2 52.4 -29.6 52.4 -29 54.5 M-28.4 72.2 L-29.4 71.3 -29.2 70.2 Q-28.9 69.3 -28 68.7 L-27.2 69.1 -27.3 71.7 Q-27.6 72.2 -28.2 72.2 L-28.4 72.2 M-30 65.5 L-30.1 64.9 Q-30.1 63.6 -29 63.6 -27.9 63.6 -28 64.8 -28 66.2 -29 66.2 -29.8 66.2 -30 65.5 M-37.2 76.3 Q-34 79.4 -29.6 80.2 -14.7 82.2 -0.6 77.6 6.7 75.1 10.4 68.8 -3.5 77.5 -19.8 78.4 -28.8 79.4 -37.2 76.3"/><path fill="#83cf95" stroke="none" d="M14.1 -77.1 L13.4 -80.5 Q17.6 -80.4 21.6 -78.2 L22.8 -75.5 14.1 -77.1 M12 -79.2 L13.2 -70.9 12.6 -70.6 9.8 -68.2 Q10 -72.8 9 -77.1 L11.8 -79.2 12 -79.2 M-41.4 -48.1 L-40 -52.3 -31.9 -58.1 -31.5 -54 -41.4 -48.1 M-28 -55.9 L-25.4 -47.2 -28.8 -48.4 -30.4 -57.9 -28 -55.9"/><path fill="#098f20" stroke="none" d="M22.8 -75.5 L23.6 -73.5 24.3 -69.9 24.2 -69.5 16 -71 14.3 -71 14.1 -77.1 22.8 -75.5 M11.8 -79.2 L12 -79.2 12 -79.2 11.8 -79.2 M20.1 -68.2 L23.4 -67.5 20.4 -65.1 20.8 -66.8 20 -68 20.1 -68.2 M14.7 -69.5 L16.5 -69.1 Q13.9 -68.8 13.2 -66.6 L13.6 -64.9 12.6 -65.5 11.2 -66.7 Q12.9 -67.7 14.3 -69.2 L14.7 -69.5 M17.6 -65.4 L17.6 -65.5 17.7 -65.3 17.6 -65.4 M42.2 4 Q41.9 -11.4 36.1 -25.9 L32.4 -34.2 Q29.4 -40.2 23.2 -42.4 L22.9 -44.3 26.1 -43.5 Q34.9 -34.6 39.2 -22.7 42.8 -13.1 46.8 -4.2 L47.9 1.8 42.5 5.1 42.2 4 M25.4 10.8 L15.2 11.7 Q17.1 9.8 19.7 5.4 21.2 4 21.9 2.5 L22.9 -0.6 Q25.8 -6.6 25.8 -9.6 25.8 -13.4 23.9 -16.6 25.7 -23 20.4 -27 18.1 -28.8 15.3 -28.6 14.8 -34.2 16.4 -39.5 L16.8 -40.5 Q17.8 -39.8 19.1 -39.8 L20.4 -40 Q20.6 -36 22.1 -32.7 24.4 -27.4 30 -24.8 30 -24.1 30.4 -23.6 30.9 -23.1 31.5 -23.1 32.8 -20.7 32.8 -16.6 32.8 -5.7 31.8 -1.1 31.3 0.9 28.1 3.8 25.2 6.3 25.2 9.4 L25.4 10.8 M3.7 -12.3 Q-1.1 -6.8 -0.5 0.3 L-4.2 -7.8 -3.8 -14.1 Q-2.5 -20.8 1.9 -28.6 6.3 -36.5 10.8 -40.4 L15.3 -43.5 15.2 -42.4 15.6 -41.5 8.4 -31.3 Q2.8 -22.7 2.8 -17.8 2.8 -16.6 3.7 -12.3 M17 -18.3 L16.9 -17.6 16.6 -18 17 -18.3 M17.6 -5 L17.4 -5.2 17.6 -5.7 17.6 -5 M48.1 15.7 L47.9 15.8 47.9 15.7 48.1 15.7 M36.5 20.2 L28.2 22.6 Q20.3 24.9 18.6 24.9 17.8 20.1 16.6 18.1 L27.4 17.6 Q38 14.4 47.3 8.5 L48.4 7.8 47.3 8.8 Q44.5 11.1 40.8 13.1 L36.2 15.2 Q36.2 17 36.5 20.2 M52 2.6 L52.5 2.9 52.2 3.2 52 2.6 M41.3 20.9 L40.9 20.9 48.2 17.4 Q48.2 25.6 47.8 34 47.6 35.5 48.6 36.1 L45.5 46.1 28.8 48.5 Q28.4 46.9 28.1 45 L28.5 45.1 Q29.9 44.3 29.9 43.5 37.7 43.1 39.8 41.5 41.8 39.8 41.8 32.7 41.4 24.9 41.3 20.9 M11.6 33.9 L11.4 34.1 11.6 33.9 M10 35.5 Q3.9 42.5 -4.9 45.1 L-9.2 46.4 -22.6 49.2 -30.8 50.1 Q-39.7 50 -48 46.9 L-49.9 46.1 -50.7 43.3 Q-39.2 49 -26.9 47.5 -20 46.5 -13.2 45 L-14.2 41.1 -9.5 39.7 Q-5.8 38.4 -3.3 37.1 -2.5 38.6 -1.2 42 0.1 41 6.8 37.6 8.7 36.5 10 35.5 M-48 32.8 L-47.6 33.6 -46.8 33.9 Q-43.6 36.7 -39 36.9 -16.1 39.1 3 26.6 L3.4 27.4 Q-4.8 33.8 -14.3 36.8 -18.3 38.1 -22.4 38.8 L-41.8 41 -50 38.9 -50.5 38.9 -50.5 39.6 -49.5 40.5 -48.5 41 -47.2 41.6 -51 42.3 -51 42 Q-53.4 35.9 -48 32.8 M2.9 23.6 L2 24.4 -3.2 12.2 -2.9 11.7 Q-4.3 2.6 -9.2 -4 -11.8 -7.5 -16.6 -12.2 -23 -18.3 -26.6 -18.8 L-26.4 -19.9 Q-20.8 -18.8 -15.4 -16.7 -14.3 -16.2 -13.7 -15.1 -8.9 -8.1 -5.8 -0.1 -1.2 11.7 2.9 23.6 M-12.3 32.1 Q-17.6 34 -23.9 34.8 -19.6 30 -18.6 28.4 -17.2 26.2 -17.2 20.4 -17.2 17.6 -22.6 4.8 -20.4 -1.4 -20.4 -3.1 -20.2 -4.5 -21.2 -4.5 L-26.9 -4.4 Q-30.1 -11.1 -31.5 -11.1 L-33.8 -10.6 -36.5 -8.1 -39.4 -5.3 Q-39.8 -4.7 -39.8 1.4 L-39.4 1.6 -39.4 4.9 Q-38.7 8 -36.8 10.7 -35.8 12.1 -35.1 13.6 -38.2 20.4 -38.2 21.6 L-38.1 22.1 -37.4 22.6 -34.2 23 Q-35.6 27.1 -38.4 30.4 -40 32.5 -40.2 35 L-43 34 Q-47.9 11.8 -38.3 -8.7 L-36.6 -12.3 -36.7 -12.5 -32.5 -17.7 -32.4 -17.5 -32.2 -16.3 -27.8 -16.2 -26.6 -14.8 -26.6 -13.8 -25.4 -13.4 -21.7 -9.1 Q-17.4 -4.2 -15.7 -1.7 -10.2 6.2 -10.2 17.4 -10.2 19.9 -12.3 32.1 M13.2 21.4 Q12.9 23.6 11.2 25.4 L10.2 26.6 9.9 26.4 13.2 21.4 M-12.3 76 L-18.2 76.5 Q-26.9 76.8 -30.2 76.3 L-30.6 73.2 -28.4 72.2 -28.2 72.2 Q-27.6 72.2 -27.3 71.7 L-21.4 68.4 -22.9 56.9 -7.8 54.5 -4.5 70.5 -12.3 76 M27.6 32.2 L27.2 32.2 27.6 32.2 M27.8 38.8 L27.5 38.9 27.5 38.8 27.8 38.8 M-31.5 -54 L-30.4 -48.5 -42.9 -44.3 -41.4 -48.1 -31.5 -54 M-35.5 -41.9 L-41.5 -43.1 Q-36.2 -45.4 -30.9 -46.6 L-30 -46.9 -26.4 -45 -29.4 -42.5 Q-28.9 -43.8 -29.9 -44.6 -31.1 -45.5 -32.6 -45 -34.6 -44.2 -35.4 -42.2 L-35.5 -41.9 M-30.5 -40.2 L-30.5 -40.1 -30.5 -40.2 M-35.4 -3.5 L-34.9 -4.2 -35.1 -3.5 -35.4 -3.5 M-33.4 10 L-33.5 9.9 -33.4 9.9 -33.4 10 M-48.4 30.6 L-48.6 30.2 -48.4 30.6 M-42.4 71.9 L-43 71.7 -43.1 71.7 -43.1 71.2 -42.6 71.2 -42.4 71.9 M-32.6 74 L-32.3 76 -36.4 75 -32.6 74 M-37.2 76.3 Q-28.8 79.4 -19.8 78.4 -3.5 77.5 10.4 68.8 6.7 75.1 -0.6 77.6 -14.7 82.2 -29.6 80.2 -34 79.4 -37.2 76.3"/><path fill="#15401b" stroke="none" d="M15.5 -64.5 L14.8 -66.5 18.8 -66.5 19.2 -66 19.4 -63.2 17.7 -65.3 17.6 -65.5 17.6 -65.4 15.5 -64.5 M-33.8 -39.6 Q-34.6 -42.8 -31.4 -43.4 L-31.2 -43.2 Q-30.2 -42 -30.5 -40.2 L-30.5 -40.1 -32.1 -40.8 Q-33 -40.6 -33.8 -39.6"/><path fill="#3d6843" stroke="none" d="M20.1 -41.7 Q18.6 -41 17.2 -42 L17.1 -42.2 15.5 -64.5 17.6 -65.4 17.7 -65.3 20.1 -41.7 M-28.3 -18.4 L-28.6 -17.7 Q-29.3 -16.8 -30.4 -17.1 -31.4 -28.6 -33.8 -39.6 -33 -40.6 -32.1 -40.8 L-28.3 -18.4"/><path fill="#004e07" stroke="none" d="M19.4 -63.2 Q19.7 -53.5 21.3 -43.6 L21.4 -43.1 20.1 -41.8 20.1 -41.7 17.7 -65.3 19.4 -63.2 M-49.9 46.1 L-52.8 44.2 Q-54.7 39.5 -54.6 34.4 L-54.6 34 -48.6 30.2 -48.4 30.6 -48 32.8 Q-53.4 35.9 -51 42 L-51 42.3 -50.7 43.3 -49.9 46.1 M2 24.4 Q-0.1 26.1 -2.9 27.8 -7.2 30.4 -12.3 32.1 -10.2 19.9 -10.2 17.4 -10.2 6.2 -15.7 -1.7 -17.4 -4.2 -21.7 -9.1 L-25.4 -13.4 Q-24.5 -13.6 -24.5 -14.3 -24.4 -15.3 -25.6 -15.3 -26.4 -15.3 -26.6 -14.8 L-27.8 -16.2 -26.8 -17.8 Q-14.8 -11.4 -8.7 0.2 -6.8 3.6 -5.5 7.2 -4.6 9.8 -3.2 12.2 L2 24.4 M-43 34 L-46.4 32.6 Q-46.9 25.1 -46.1 17.6 -45 7 -41.8 -3.1 -40.1 -8.2 -36.7 -12.5 L-36.6 -12.3 -38.3 -8.7 Q-47.9 11.8 -43 34 M-30.5 -40.1 Q-29.1 -29.9 -28.2 -19.3 L-28.3 -18.4 -32.1 -40.8 -30.5 -40.1 M-21.1 -12.1 Q-21.1 -12.9 -22 -12.9 -22.9 -12.9 -22.9 -12.1 L-22.9 -11.6 Q-22.4 -11.2 -22 -11.2 -21.4 -11.2 -21.2 -11.6 -21.1 -11.4 -21.1 -12.1 M-18.5 -9.8 Q-19.4 -9.8 -19.4 -8.8 -19.4 -7.9 -18.2 -7.9 -17.4 -7.9 -17.4 -8.8 -17.4 -9.8 -18.5 -9.8 M-15.2 -4.7 Q-14.9 -4 -14.2 -4 -13.2 -4 -13.2 -5.2 -13.4 -6.3 -14.5 -6.3 -15.5 -6.3 -15.5 -5.3 L-15.2 -4.7 M-8.5 7.2 L-8.3 8 Q-8.1 8.7 -7.2 8.7 -6.2 8.7 -6.2 7.7 -6.5 6.5 -7.5 6.5 -8.5 6.5 -8.5 7.2 M-10.5 2.6 Q-9.3 2.6 -9.3 1.7 -9.3 0.7 -10.5 0.7 -11.7 0.7 -11.7 1.6 -11.7 2.6 -10.5 2.6 M-2.8 14.6 Q-2.8 13.7 -3.9 13.7 -5.1 13.7 -5.1 14.6 L-4.9 15.2 Q-4.5 15.7 -3.9 15.7 -2.8 15.7 -2.8 14.6 M-2.2 22.1 L-1.5 21.8 -1.4 21.1 Q-1.4 20.2 -2.2 20.2 -3.1 20.2 -3.1 21.1 -3.1 22.1 -2.2 22.1 M-53.2 36.2 Q-52.5 36.2 -52.5 35.9 -53.6 34.4 -53.9 34.4 L-54.4 34.5 Q-54.4 36.2 -53.2 36.2"/><path fill="#004c04" stroke="none" d="M20.4 -40 L22.6 -41.4 Q32.2 -34.8 35.3 -23.4 L36.5 -19 Q39.4 -8.9 40.8 1.5 41 3.1 42 4.3 42.2 4.6 42.2 4 L42.5 5.1 39.4 6.6 Q32.9 9.6 25.4 10.8 L25.2 9.4 Q25.2 6.3 28.1 3.8 31.3 0.9 31.8 -1.1 32.8 -5.7 32.8 -16.6 32.8 -20.7 31.5 -23.1 L32.1 -23.1 Q32.9 -25.6 30.6 -25.7 L30 -24.8 Q24.4 -27.4 22.1 -32.7 20.6 -36 20.4 -40 M-3.8 -14.1 L-3.4 -16.4 Q-1 -31.2 10.8 -40.4 6.3 -36.5 1.9 -28.6 -2.5 -20.8 -3.8 -14.1 M27.5 -32.8 Q26.2 -32.8 26.2 -31.9 L26.5 -31 Q26.9 -30.2 27.5 -30.2 28.5 -30.2 28.5 -31.6 28.6 -32.8 27.5 -32.8 M22.2 -35.8 Q22.2 -34.9 23.2 -34.9 24.2 -34.9 24.2 -35.8 24.2 -36.8 23.2 -36.8 22.2 -36.8 22.2 -35.8 M34.2 -15.4 Q35.5 -16.1 35.5 -16.9 35.5 -18.1 34.4 -18.1 33.2 -18.1 33.2 -16.8 L33.5 -16.1 Q33.7 -15.4 34.2 -15.4 M37.1 -8.6 Q37.3 -9.8 36.2 -9.8 35.1 -9.8 35.1 -8.2 35.1 -7 36 -6.7 37.1 -7.5 37.1 -8.6 M53.9 0.2 L54.5 10.1 Q53.1 12 51.3 13.4 L48.1 15.7 47.9 15.7 Q47.4 12 47.3 8.8 L48.4 7.8 Q52.2 5 52.2 3.2 L52.5 2.9 53.9 0.2 M40.9 20.9 L41.3 20.9 39.2 21.9 Q32.9 25.4 27.4 30.1 26.4 30.1 26.4 31.1 L26.5 31.7 27.2 32.2 27.4 36.2 Q26.4 37.3 27.2 38.5 L27.5 38.8 27.5 38.9 27.8 42.5 Q27 43.6 27.9 44.6 L28.1 45 Q28.4 46.9 28.8 48.5 L45.5 46.1 Q37.6 51 28.6 52.2 L24.3 53 24.2 52.7 Q23.6 31.6 21.9 26.9 L36.7 22.2 40.9 20.9 M38 2.6 Q38.9 2.6 38.9 1.4 39 -0.1 38 -0.1 37 -0.1 37 1.4 L37 2 Q37.2 2.6 38 2.6 M3 26.6 Q6.8 24.6 7.2 20.6 L7.2 20.2 6.5 19.9 6.2 17.8 14.6 17.4 Q16.5 22.5 16.8 28.1 L11.6 33.9 Q12.8 32.4 12.8 30.9 12.8 29.2 11.4 26.1 13.4 23.6 14.3 20.7 L14.3 19.8 Q14.7 19.4 14.3 19.6 L14.1 19.2 13.3 19.4 13.4 20.4 3.4 27.4 3 26.6 M20 27.4 Q22.7 36.1 22.2 45.4 21.9 49.4 22.7 53.2 19.9 54 16.9 53.3 L16.5 53.3 Q16.6 43.4 14.3 33.9 16.6 32.1 17.9 29.6 18.4 28.9 18.4 27.9 18.4 27.4 18.5 26.9 L20 27.4 M-32.8 58.8 L-34.5 51.5 Q-13.5 52.3 5.2 42.5 7.8 41.1 9.8 38.6 11.6 49.9 12.1 61.2 12.2 64.3 11.6 67.2 1.4 73.5 -10.1 75.7 L-12.3 76 -4.5 70.5 Q0.6 65.7 -0.5 58.6 L-1.1 53.6 -7.8 54.5 -22.9 56.9 -28.9 58 Q-29.2 57.5 -29.8 57.5 -30.7 57.5 -30.8 58.3 L-32.8 58.8 M26.1 27.9 L26.2 28.5 Q26.5 29.1 27.2 29.1 27.9 29.1 28.2 28.7 L28.5 27.5 Q28.6 26.4 27.5 26.4 26.1 26.4 26.1 27.9 M30.1 50.2 Q30.2 49 28.9 49 27.4 49 27.4 50 27.4 51.5 28.5 51.5 30.1 51.5 30.1 50.2 M-43.1 71.2 Q-46.4 61.1 -47.8 50.5 L-48.2 48.5 Q-42 51.1 -35.1 51.4 L-34.4 59.1 Q-44.2 61.6 -44.2 64.5 -44.2 65.9 -43 69.8 L-42.6 71.2 -43.1 71.2 M-29 54.5 Q-29.6 52.4 -30.2 52.4 -31.2 52.4 -31.2 54.2 L-31.2 54.9 Q-31.1 55.5 -30.1 55.5 -29 55.5 -29 54.5"/><path fill="#9de5b3" stroke="none" d="M26.1 -43.5 Q31.6 -41.6 36.2 -34.9 L36 -34.7 Q43.4 -21.9 46.2 -7.2 L46.8 -4.2 Q42.8 -13.1 39.2 -22.7 34.9 -34.6 26.1 -43.5 M16.6 18.1 Q15 15.6 11.6 16.2 L8.2 16.4 6 16.6 4.8 12.7 Q17.1 14.8 29.4 11.9 36.5 10.4 42.8 7 46.5 5.2 49.5 2.4 L49.2 -1.6 53.7 -1.3 53.9 0.2 52.5 2.9 52 2.6 Q47.8 8.2 41 10.8 36.5 12.8 31.6 14.3 29.4 15.2 27.5 16.9 L27.4 17.6 16.6 18.1 M3.4 27.4 L13.4 20.4 13.2 21.4 9.9 26.4 Q6 31.1 -0.8 35.1 -19.6 43 -40 41.2 L-41.8 41 -22.4 38.8 Q-18.3 38.1 -14.3 36.8 -4.8 33.8 3.4 27.4 M-26.4 -19.9 L-26.4 -21.3 Q-17.8 -22.9 -12.2 -15.7 -6 -7.7 -2.1 1.8 1.9 11.3 4.9 21.2 4.5 22.7 2.9 23.6 -1.2 11.7 -5.8 -0.1 -8.9 -8.1 -13.7 -15.1 -14.3 -16.2 -15.4 -16.7 -20.8 -18.8 -26.4 -19.9"/><path fill="#3cc156" stroke="none" d="M15.2 11.7 L4 10.7 1.1 4.2 3.4 5.9 Q7.5 8.7 12.4 8.7 16.6 8.7 19.7 5.4 17.1 9.8 15.2 11.7 M22.9 -0.6 Q24.6 -7.3 19.6 -11.8 L20.4 -12.2 Q23.4 -13.4 23.9 -16.6 25.8 -13.4 25.8 -9.6 25.8 -6.6 22.9 -0.6 M15.3 -28.6 Q7.8 -28.1 5 -21.1 3.5 -17.2 6.3 -14.2 L3.7 -12.3 Q2.8 -16.6 2.8 -17.8 2.8 -22.7 8.4 -31.3 L15.6 -41.5 16.8 -40.5 16.4 -39.5 Q14.8 -34.2 15.3 -28.6 M13.1 -21 L13.8 -21.2 Q17 -21.2 17 -18.3 L16.6 -18 15.8 -19.1 Q14.4 -20.4 13.1 -21 M17.6 -5 Q17.6 -3.2 16.8 -1.6 15.1 1.9 11.3 1.9 6 1.9 6.5 -4 6.8 -7.8 9.4 -8.8 L9.8 -8.1 Q11.8 -3 14.2 -3 16.1 -3 17.4 -5.2 L17.6 -5 M-23.9 34.8 L-35.8 35.6 -40.2 35 Q-40 32.5 -38.4 30.4 -35.6 27.1 -34.2 23 -31.1 23.4 -28.8 21.8 L-28.2 20.9 Q-26 12.7 -22.6 4.8 -17.2 17.6 -17.2 20.4 -17.2 26.2 -18.6 28.4 -19.6 30 -23.9 34.8 M-39.4 1.6 L-39.8 1.4 Q-39.8 -4.7 -39.4 -5.3 L-36.5 -8.1 -33.8 -10.6 -31.5 -11.1 Q-30.1 -11.1 -26.9 -4.4 L-31.8 -4 -33.2 -5.5 Q-34.4 -5 -34.9 -4.2 L-35.4 -3.5 -38 -2.8 -39.4 1.6 M-39.4 4.9 Q-39 5.4 -38.5 5 L-38.3 4.7 -37.1 4.5 Q-36.8 9.9 -33.5 9.9 L-33.4 10 -35.1 13.6 Q-35.8 12.1 -36.8 10.7 -38.7 8 -39.4 4.9"/><path fill="#fefdfb" stroke="none" d="M13.2 -22.9 Q9.2 -21.1 10.8 -16.4 11.3 -14.9 13 -14.5 16.1 -13.6 17.9 -15.8 18.7 -16.8 18.6 -18.2 L18.2 -20.3 Q17.4 -22.4 15 -22.7 L13.2 -22.9 M8.8 -13.1 Q8.6 -14.6 6.8 -16.4 5.2 -18.3 6.2 -20.5 8.9 -26.4 15.3 -26.9 22.2 -26.4 22.4 -19.9 22.4 -15.2 18.6 -12.8 L16.8 -11.8 16.8 -11.6 17.6 -11.1 Q21.2 -8.1 21.4 -3.4 21.5 2.3 16.8 5.2 12.6 7.7 7.8 6 2.5 4.2 1.4 -1.2 0.8 -3.4 1.6 -5.3 3.4 -10.1 7.7 -13.2 L8.8 -13.1 M17.5 -9.3 Q16.6 -10.4 15.1 -10.8 8.8 -11.8 5.7 -6.3 3.5 -2.5 5.5 0.9 L7.1 2.4 Q12.2 5.3 16.5 1.4 L17.8 -0.1 Q20.8 -5 17.5 -9.3 M-36.4 -1.6 L-22.6 -2.3 -30.5 20.6 -35.8 21.1 Q-33.1 12.7 -28.6 4.9 -27.9 3.6 -28 2.2 -32.2 1.2 -36.5 2.8 L-38 3.4 -37.2 -1.4 -36.4 -1.6"/><path fill="#c5edcc" stroke="none" d="M16.9 -17.6 Q15.6 -14.8 12.6 -16.6 11.2 -17.4 11.7 -19 12.1 -20.2 13.1 -21 14.4 -20.4 15.8 -19.1 L16.6 -18 16.9 -17.6 M17.4 -5.2 Q16.1 -3 14.2 -3 11.8 -3 9.8 -8.1 L9.4 -8.8 13.2 -9 Q17.2 -8.7 17.6 -5.7 L17.4 -5.2 M-34.9 -4.2 Q-34.4 -5 -33.2 -5.5 L-31.8 -4 -35.1 -3.5 -34.9 -4.2 M-33.5 9.9 Q-36.8 9.9 -37.1 4.5 L-30.4 3.8 -33.4 9.9 -33.5 9.9"/><path fill="#3cc158" stroke="none" d="M47.9 15.8 Q45.1 17.2 40.1 19.2 L36.5 20.2 Q36.2 17 36.2 15.2 L40.8 13.1 Q44.5 11.1 47.3 8.8 47.4 12 47.9 15.7 L47.9 15.8 M11.4 34.1 L10 35.5 Q8.7 36.5 6.8 37.6 0.1 41 -1.2 42 -2.5 38.6 -3.3 37.1 -1.6 36.3 -0.7 35.5 L-0.8 35.1 Q6 31.1 9.9 26.4 L10.2 26.6 8.9 28.6 Q10.3 28.1 11.4 26.1 12.8 29.2 12.8 30.9 12.8 32.4 11.6 33.9 L11.4 34.1 M-14.2 41.1 L-13.2 45 Q-20 46.5 -26.9 47.5 -39.2 49 -50.7 43.3 L-51 42.3 -47.2 41.6 Q-31.6 44.5 -16.1 41.6 L-14.2 41.1"/><path fill="#3cbf55" stroke="none" d="M41.3 20.9 Q41.4 24.9 41.8 32.7 41.8 39.8 39.8 41.5 37.7 43.1 29.9 43.5 L29.6 42.5 27.8 42.5 27.5 38.9 27.8 38.8 Q29.1 38.8 29.1 37.2 29.1 36 28 36 L27.4 36.2 27.2 32.2 27.6 32.2 27.6 32.2 Q28.8 32.2 28.8 31.1 28.8 30.1 27.6 30.1 L27.4 30.1 Q32.9 25.4 39.2 21.9 L41.3 20.9 M48.6 36.1 Q47.6 35.5 47.8 34 48.2 25.6 48.2 17.4 L51.2 15.5 Q50.6 25.4 48.9 34.9 L48.6 36.1 M9.8 38.6 L13.3 34.7 15 53.5 14.6 54.1 15 54.6 14.6 64.7 11.6 67.2 Q12.2 64.3 12.1 61.2 11.6 49.9 9.8 38.6 M-30.6 73.2 L-32.8 58.8 -30.8 58.3 -29.8 59.9 Q-28.8 59.5 -28.9 58.5 L-28.9 58 -22.9 56.9 -21.4 68.4 -27.3 71.7 -27.2 69.1 -28 68.7 Q-28.9 69.3 -29.2 70.2 L-29.4 71.3 -28.4 72.2 -30.6 73.2 M-7.8 54.5 L-1.1 53.6 -0.5 58.6 Q0.6 65.7 -4.5 70.5 L-7.8 54.5 M-34.4 59.1 L-32.6 74 -36.4 75 -42.4 71.9 -42.6 71.2 -43 69.8 Q-44.2 65.9 -44.2 64.5 -44.2 61.6 -34.4 59.1 M-30 65.5 Q-29.8 66.2 -29 66.2 -28 66.2 -28 64.8 -27.9 63.6 -29 63.6 -30.1 63.6 -30.1 64.9 L-30 65.5"/></g></defs></svg>